<svg width="95" height="70" viewBox="0 0 95 70" fill="none" xmlns="http://www.w3.org/2000/svg">
<g opacity="0.6" clip-path="url(#clip0)">
<path d="M15.6627 57.2769C16.2013 55.4912 15.932 53.7055 15.3037 52.0537L35.7688 41.0716C36.7562 42.5001 38.1474 43.7055 39.9426 44.2412C41.7378 44.7769 43.533 44.5537 45.1487 43.8841L59.1063 69.5537C59.3307 70.0001 59.8692 70.1341 60.318 69.9109C60.7219 69.6876 60.9015 69.1519 60.6771 68.7055L46.7195 43.0359C48.1556 42.0537 49.3674 40.6698 49.9059 38.8841C50.4445 37.0984 50.2201 35.3126 49.5469 33.6609L67.2295 24.1519C71.2687 30.6251 79.7509 32.9912 86.6624 29.3305C93.7983 25.4912 96.4462 16.5626 92.5416 9.50908C88.682 2.41086 79.7509 -0.267709 72.6151 3.61622C65.7036 7.27693 63.0557 15.6251 66.3319 22.5894L48.6493 32.0984C47.6619 30.6698 46.2707 29.4644 44.4755 28.9287C42.6803 28.393 40.8402 28.6609 39.2246 29.2859L23.6064 0.446577C23.382 0.000148352 22.8435 -0.13378 22.3947 0.0894341C22.1703 0.223363 22.0356 0.401934 21.9459 0.625148C21.901 0.848363 21.901 1.07158 22.0356 1.29479L37.7435 30.1787C36.3074 31.1609 35.1405 32.5448 34.6019 34.3305C34.0634 36.1162 34.2878 37.9019 34.961 39.5537L14.4958 50.5359C13.4636 49.1073 12.1172 47.9019 10.322 47.3662C6.10333 46.1162 1.61536 48.5269 0.358732 52.7234C-0.8979 56.9644 1.5256 61.3841 5.7443 62.6341C9.96299 63.8841 14.4061 61.518 15.6627 57.2769Z" fill="#0BB9F6"/>
</g>
<defs>
<clipPath id="clip0">
<rect width="94.382" height="70" fill="white"/>
</clipPath>
</defs>
</svg>
