<svg width="824" height="868" viewBox="0 0 824 868" fill="none" xmlns="http://www.w3.org/2000/svg">
<path d="M274.867 637.764C274.652 638.04 274.285 638.071 274.009 637.887C271.465 635.924 268.921 633.9 266.469 631.815C266.285 631.661 266.223 631.385 266.285 631.171C266.315 631.109 266.346 631.017 266.407 630.956C266.622 630.711 267.02 630.68 267.265 630.895C269.718 632.98 272.231 635.004 274.775 636.936C275.02 637.12 275.081 637.488 274.867 637.764Z" fill="#EFEDED"/>
<path d="M401.455 678.152C401.455 678.459 401.21 678.766 400.873 678.766C397.654 678.858 394.405 678.858 391.156 678.827C390.819 678.827 390.574 678.551 390.574 678.214C390.574 678.152 390.574 678.091 390.605 678.06C390.697 677.815 390.911 677.631 391.187 677.631C394.405 677.692 397.654 677.692 400.842 677.6C401.179 677.539 401.424 677.815 401.455 678.152Z" fill="#EFEDED"/>
<path d="M290.806 648.681C290.622 648.957 290.254 649.049 289.978 648.865C287.22 647.178 284.492 645.369 281.856 643.56C281.641 643.406 281.55 643.13 281.611 642.885C281.641 642.824 281.672 642.762 281.672 642.701C281.856 642.425 282.254 642.364 282.5 642.548C285.136 644.357 287.864 646.136 290.591 647.822C290.898 648.037 290.99 648.405 290.806 648.681Z" fill="#EFEDED"/>
<path d="M429.164 675.269C429.134 675.177 429.134 675.085 429.164 674.993C429.226 674.778 429.409 674.625 429.655 674.564C432.812 674.012 435.999 673.368 439.126 672.632C439.432 672.54 439.769 672.754 439.861 673.092C439.923 673.398 439.739 673.736 439.402 673.828C436.245 674.564 433.057 675.208 429.869 675.79C429.532 675.821 429.226 675.606 429.164 675.269Z" fill="#EFEDED"/>
<path d="M420.765 676.558C420.795 676.895 420.581 677.202 420.244 677.233C417.025 677.662 413.776 677.969 410.589 678.245C410.251 678.275 409.945 678.03 409.945 677.693C409.945 677.631 409.945 677.539 409.976 677.478C410.037 677.233 410.251 677.049 410.497 677.049C413.684 676.803 416.903 676.466 420.121 676.067C420.428 675.975 420.734 676.221 420.765 676.558Z" fill="#EFEDED"/>
<path d="M298.068 653.097C298.068 653.066 298.099 653.005 298.13 652.974C298.283 652.668 298.651 652.576 298.957 652.729C301.746 654.262 304.628 655.765 307.509 657.207C307.815 657.36 307.938 657.697 307.785 658.004C307.631 658.311 307.264 658.433 306.988 658.28C304.076 656.839 301.195 655.336 298.375 653.802C298.099 653.68 297.976 653.373 298.068 653.097Z" fill="#EFEDED"/>
<path d="M448.045 670.639C448.106 670.455 448.259 670.301 448.474 670.24C451.539 669.381 454.665 668.431 457.7 667.388C458.006 667.265 458.343 667.449 458.466 667.756C458.558 668.063 458.405 668.4 458.067 668.523C455.002 669.565 451.876 670.516 448.78 671.375C448.474 671.467 448.137 671.283 448.045 670.945C448.014 670.884 448.045 670.761 448.045 670.639Z" fill="#EFEDED"/>
<path d="M333.532 668.461C333.655 668.124 333.992 667.97 334.299 668.062C335.678 668.522 337.088 668.952 338.498 669.351C340.184 669.841 341.869 670.332 343.555 670.792C343.892 670.884 344.076 671.221 343.984 671.528C343.862 671.865 343.555 672.049 343.249 671.957C341.532 671.497 339.846 671.006 338.161 670.516C336.751 670.086 335.341 669.657 333.931 669.197C333.624 669.105 333.44 668.768 333.532 668.461Z" fill="#EFEDED"/>
<path d="M371.264 676.803C371.264 676.772 371.294 676.742 371.294 676.711C371.386 676.435 371.662 676.251 371.938 676.282C375.126 676.65 378.375 676.956 381.532 677.171C381.869 677.202 382.114 677.478 382.083 677.815C382.083 678.152 381.777 678.398 381.44 678.367C378.252 678.152 375.003 677.846 371.785 677.447C371.478 677.447 371.233 677.14 371.264 676.803Z" fill="#EFEDED"/>
<path d="M352.198 673.522C352.198 673.522 352.198 673.491 352.198 673.461C352.29 673.154 352.597 672.97 352.903 673.031C355.999 673.706 359.186 674.319 362.374 674.871C362.711 674.933 362.926 675.239 362.865 675.577C362.803 675.883 362.497 676.129 362.16 676.067C358.972 675.515 355.784 674.902 352.627 674.227C352.351 674.197 352.137 673.859 352.198 673.522Z" fill="#EFEDED"/>
<path d="M325.533 665.64C325.41 665.947 325.073 666.1 324.767 666.008C321.763 664.873 318.728 663.647 315.755 662.359C315.479 662.236 315.326 661.929 315.418 661.622C315.418 661.592 315.449 661.592 315.449 661.561C315.571 661.254 315.939 661.101 316.246 661.254C319.219 662.543 322.223 663.739 325.196 664.873C325.502 664.996 325.686 665.303 325.533 665.64Z" fill="#EFEDED"/>
<path d="M583.399 418.893C583.368 418.77 583.368 418.647 583.399 418.525C583.46 418.341 583.583 418.187 583.797 418.126C584.104 418.034 584.472 418.187 584.564 418.525C585.575 421.622 586.495 424.75 587.322 427.847C587.384 428.154 587.2 428.491 586.893 428.583C586.587 428.675 586.249 428.491 586.158 428.154C585.299 425.087 584.41 421.99 583.399 418.893Z" fill="#EFEDED"/>
<path d="M576.594 400.83C576.533 400.707 576.533 400.554 576.564 400.431C576.595 400.278 576.717 400.124 576.901 400.032C577.208 399.91 577.575 400.032 577.698 400.339C578.985 403.314 580.211 406.35 581.345 409.355C581.468 409.662 581.315 409.999 581.008 410.122C580.702 410.244 580.334 410.091 580.211 409.754C579.108 406.81 577.882 403.774 576.594 400.83Z" fill="#EFEDED"/>
<path d="M568.072 383.534C567.98 383.38 567.98 383.227 568.011 383.074C568.072 382.92 568.164 382.798 568.318 382.706C568.624 382.552 568.992 382.644 569.145 382.951C570.708 385.803 572.241 388.686 573.651 391.538C573.804 391.844 573.681 392.212 573.375 392.335C573.068 392.488 572.701 392.366 572.578 392.059C571.137 389.238 569.636 386.355 568.072 383.534Z" fill="#EFEDED"/>
<path d="M255.343 339.219C253.044 341.519 250.807 343.85 248.692 346.181C248.477 346.426 248.11 346.426 247.834 346.212C247.65 346.058 247.589 345.813 247.65 345.598C247.68 345.506 247.711 345.414 247.772 345.353C249.887 343.022 252.155 340.661 254.485 338.361C254.73 338.115 255.098 338.115 255.313 338.361C255.588 338.606 255.588 338.974 255.343 339.219Z" fill="#EFEDED"/>
<path d="M588.424 437.569C588.394 437.477 588.394 437.354 588.424 437.262C588.486 437.048 588.639 436.894 588.884 436.833C589.191 436.772 589.528 436.956 589.589 437.293C590.294 440.482 590.907 443.672 591.428 446.83C591.489 447.137 591.244 447.474 590.938 447.536C590.6 447.597 590.294 447.382 590.233 447.045C589.742 443.917 589.129 440.697 588.424 437.569Z" fill="#EFEDED"/>
<path d="M533.101 337.686C532.917 337.533 532.887 337.288 532.948 337.073C532.979 336.981 533.009 336.889 533.101 336.828C533.347 336.582 533.714 336.582 533.96 336.828C536.228 339.036 538.496 341.366 540.733 343.758C540.948 344.004 540.948 344.402 540.703 344.617C540.457 344.862 540.09 344.832 539.844 344.586C537.607 342.194 535.339 339.864 533.101 337.686Z" fill="#EFEDED"/>
<path d="M557.897 367.127C557.805 366.974 557.775 366.79 557.836 366.606C557.867 366.483 557.959 366.36 558.081 366.268C558.357 366.084 558.725 366.146 558.909 366.422C560.717 369.059 562.526 371.788 564.211 374.548C564.395 374.855 564.303 375.223 563.997 375.376C563.721 375.56 563.353 375.468 563.169 375.192C561.483 372.463 559.706 369.764 557.897 367.127Z" fill="#EFEDED"/>
<path d="M592.502 466.243C592.288 463.053 591.981 459.803 591.613 456.613C591.613 456.521 591.613 456.429 591.644 456.368C591.705 456.153 591.92 455.969 592.165 455.938C592.502 455.908 592.778 456.122 592.839 456.46C593.207 459.68 593.514 462.961 593.728 466.151C593.759 466.488 593.483 466.795 593.146 466.795C592.809 466.825 592.533 466.58 592.502 466.243Z" fill="#EFEDED"/>
<path d="M546.218 351.793C546.096 351.64 546.035 351.425 546.096 351.241C546.127 351.119 546.188 351.027 546.28 350.935C546.525 350.72 546.923 350.751 547.138 350.996C549.222 353.48 551.245 356.025 553.207 358.571C553.421 358.847 553.36 359.215 553.084 359.429C552.808 359.644 552.441 359.583 552.257 359.307C550.326 356.792 548.272 354.247 546.218 351.793Z" fill="#EFEDED"/>
<path d="M516.795 636.415C516.672 636.262 516.641 636.047 516.703 635.863C516.733 635.74 516.795 635.648 516.917 635.556C519.461 633.594 521.975 631.508 524.365 629.423C524.611 629.208 525.009 629.239 525.224 629.484C525.438 629.73 525.408 630.128 525.162 630.343C522.741 632.428 520.228 634.514 517.653 636.507C517.377 636.722 517.009 636.691 516.795 636.415Z" fill="#EFEDED"/>
<path d="M509.867 642.302C507.261 644.173 504.533 645.982 501.805 647.7C501.53 647.884 501.162 647.792 500.978 647.516C500.886 647.362 500.855 647.178 500.917 647.025C500.947 646.902 501.039 646.78 501.162 646.688C503.89 644.97 506.556 643.161 509.192 641.321C509.468 641.137 509.836 641.198 510.02 641.474C510.204 641.72 510.142 642.118 509.867 642.302Z" fill="#EFEDED"/>
<path d="M466.405 664.506C466.466 664.322 466.588 664.199 466.772 664.107C469.746 662.941 472.749 661.684 475.692 660.365C475.998 660.243 476.366 660.365 476.489 660.672C476.642 660.979 476.489 661.347 476.182 661.469C473.24 662.788 470.205 664.046 467.232 665.211C466.926 665.334 466.558 665.18 466.435 664.874C466.374 664.751 466.374 664.628 466.405 664.506Z" fill="#EFEDED"/>
<path d="M484.089 656.593C484.15 656.44 484.242 656.317 484.396 656.225C487.246 654.784 490.097 653.251 492.886 651.656C493.192 651.472 493.56 651.595 493.713 651.871C493.897 652.177 493.775 652.545 493.499 652.699C490.679 654.293 487.798 655.857 484.947 657.299C484.641 657.452 484.273 657.329 484.12 657.023C484.058 656.9 484.028 656.747 484.089 656.593Z" fill="#EFEDED"/>
<path d="M593.451 486.177C593.113 486.177 592.868 485.901 592.868 485.563C592.96 482.405 592.991 479.154 592.93 475.903C592.93 475.842 592.93 475.781 592.96 475.719C593.022 475.474 593.267 475.29 593.543 475.29C593.88 475.29 594.156 475.535 594.156 475.873C594.217 479.123 594.186 482.405 594.094 485.594C594.064 485.931 593.788 486.207 593.451 486.177Z" fill="#EFEDED"/>
<path d="M557.65 594.554C557.466 594.83 557.068 594.891 556.792 594.707C556.578 594.554 556.486 594.278 556.578 594.033C556.608 593.971 556.639 593.91 556.67 593.849C558.509 591.242 560.317 588.543 562.033 585.814C562.217 585.538 562.585 585.446 562.861 585.63C563.137 585.814 563.229 586.182 563.045 586.458C561.329 589.218 559.52 591.947 557.65 594.554Z" fill="#EFEDED"/>
<path d="M531.354 623.258C531.384 623.166 531.445 623.074 531.507 622.982C533.836 620.774 536.104 618.505 538.311 616.174C538.556 615.929 538.924 615.929 539.169 616.144C539.415 616.358 539.415 616.757 539.2 617.002C536.993 619.333 534.664 621.633 532.334 623.841C532.089 624.086 531.721 624.056 531.476 623.81C531.323 623.688 531.262 623.442 531.354 623.258Z" fill="#EFEDED"/>
<path d="M544.656 609.274C544.687 609.182 544.718 609.121 544.779 609.06C546.863 606.637 548.947 604.122 550.909 601.638C551.124 601.362 551.491 601.331 551.767 601.546C552.043 601.73 552.074 602.129 551.859 602.405C549.898 604.92 547.813 607.434 545.698 609.888C545.484 610.133 545.085 610.164 544.84 609.949C544.656 609.734 544.595 609.489 544.656 609.274Z" fill="#EFEDED"/>
<path d="M337.303 290.153C334.238 291.073 331.173 292.116 328.139 293.189C327.832 293.281 327.464 293.128 327.372 292.821C327.311 292.698 327.311 292.545 327.372 292.453C327.434 292.269 327.556 292.116 327.74 292.054C330.775 290.95 333.87 289.938 336.966 288.988C337.273 288.896 337.64 289.08 337.732 289.386C337.794 289.724 337.61 290.03 337.303 290.153Z" fill="#EFEDED"/>
<path d="M413.683 282.394C410.496 282.087 407.247 281.873 404.059 281.719C403.722 281.719 403.477 281.413 403.477 281.106C403.477 281.045 403.477 281.014 403.507 280.953C403.599 280.707 403.814 280.523 404.12 280.523C407.308 280.646 410.588 280.891 413.806 281.198C414.143 281.229 414.388 281.535 414.358 281.873C414.296 282.21 414.021 282.455 413.683 282.394Z" fill="#EFEDED"/>
<path d="M441.761 286.503C441.853 286.196 442.159 286.012 442.496 286.073C445.592 286.84 448.718 287.699 451.845 288.619C454.573 289.416 457.423 290.336 460.213 291.317C460.519 291.44 460.642 291.777 460.58 292.084C460.488 292.391 460.121 292.575 459.814 292.452C457.025 291.471 454.236 290.581 451.508 289.784C448.381 288.864 445.255 288.005 442.19 287.269C441.853 287.177 441.669 286.871 441.761 286.503C441.73 286.533 441.761 286.503 441.761 286.503Z" fill="#EFEDED"/>
<path d="M486.94 302.818C489.79 304.29 492.641 305.885 495.461 307.51C495.767 307.663 495.859 308.031 495.675 308.338C495.491 308.614 495.123 308.737 494.848 308.553C492.089 306.927 489.239 305.363 486.388 303.891C486.143 303.769 486.02 303.462 486.081 303.186C486.081 303.155 486.112 303.125 486.112 303.094C486.265 302.787 486.633 302.665 486.94 302.818Z" fill="#EFEDED"/>
<path d="M468.519 295.121C468.519 295.121 468.519 295.09 468.55 295.059C468.672 294.753 469.01 294.599 469.347 294.722C472.351 295.918 475.354 297.206 478.266 298.555C478.573 298.678 478.726 299.077 478.573 299.353C478.45 299.659 478.082 299.782 477.776 299.659C474.895 298.341 471.891 297.053 468.918 295.857C468.581 295.734 468.397 295.427 468.519 295.121Z" fill="#EFEDED"/>
<path d="M503.706 312.601C506.373 314.318 509.07 316.189 511.706 318.09C511.982 318.274 512.013 318.673 511.859 318.949C511.676 319.225 511.277 319.286 511.001 319.071C508.365 317.17 505.699 315.33 503.063 313.613C502.817 313.459 502.756 313.183 502.817 312.938C502.817 312.877 502.848 312.815 502.879 312.785C503.032 312.478 503.43 312.417 503.706 312.601Z" fill="#EFEDED"/>
<path d="M375.126 282.516C371.938 282.853 368.72 283.252 365.532 283.743C365.195 283.804 364.888 283.559 364.827 283.221C364.796 283.129 364.827 283.037 364.858 282.976C364.919 282.761 365.103 282.577 365.348 282.547C368.536 282.056 371.785 281.657 375.003 281.32C375.34 281.289 375.647 281.535 375.677 281.872C375.708 282.179 375.432 282.485 375.126 282.516Z" fill="#EFEDED"/>
<path d="M422.757 282.884C422.757 282.853 422.757 282.823 422.788 282.792C422.88 282.516 423.156 282.332 423.462 282.363C426.65 282.823 429.838 283.375 433.025 283.988C433.363 284.049 433.577 284.356 433.516 284.693C433.485 285.031 433.117 285.245 432.811 285.153C429.654 284.54 426.436 283.988 423.309 283.528C422.941 283.528 422.696 283.191 422.757 282.884Z" fill="#EFEDED"/>
<path d="M394.407 281.505C391.188 281.505 387.939 281.597 384.751 281.781C384.414 281.781 384.138 281.536 384.108 281.198C384.108 281.137 384.108 281.045 384.138 280.984C384.2 280.738 384.414 280.554 384.69 280.554C387.909 280.401 391.188 280.309 394.407 280.278C394.744 280.278 395.02 280.554 395.02 280.892C395.02 281.229 394.744 281.505 394.407 281.505Z" fill="#EFEDED"/>
<path d="M575.706 560.36C577.024 557.416 578.25 554.441 579.414 551.467C579.537 551.16 579.874 551.007 580.211 551.129C580.518 551.252 580.702 551.559 580.548 551.927C579.384 554.901 578.127 557.937 576.809 560.881C576.656 561.188 576.319 561.341 576.012 561.188C575.736 561.065 575.583 560.759 575.675 560.452C575.706 560.421 575.706 560.391 575.706 560.36Z" fill="#EFEDED"/>
<path d="M589.1 524.081C589.038 524.357 588.701 524.603 588.395 524.541C588.058 524.449 587.843 524.143 587.935 523.805C588.64 520.708 589.284 517.519 589.866 514.36C589.866 514.329 589.866 514.329 589.897 514.299C589.989 513.992 590.265 513.808 590.602 513.869C590.908 513.931 591.153 514.237 591.092 514.575C590.479 517.733 589.805 520.923 589.1 524.081Z" fill="#EFEDED"/>
<path d="M566.999 577.564C568.563 574.804 570.126 571.922 571.566 569.07C571.72 568.763 572.087 568.64 572.363 568.794C572.67 568.947 572.792 569.346 572.639 569.622C571.199 572.504 569.635 575.387 568.041 578.178C567.888 578.454 567.52 578.576 567.214 578.392C566.969 578.239 566.846 577.963 566.938 577.687C566.969 577.656 566.969 577.626 566.999 577.564Z" fill="#EFEDED"/>
<path d="M199.312 516.353C199.374 516.138 199.557 515.985 199.772 515.924C200.079 515.862 200.416 516.077 200.477 516.414C201.059 519.542 201.764 522.732 202.5 525.86C202.561 526.166 202.377 526.504 202.071 526.596C201.734 526.688 201.427 526.473 201.335 526.166C200.569 523.008 199.895 519.818 199.282 516.66C199.282 516.537 199.282 516.445 199.312 516.353Z" fill="#EFEDED"/>
<path d="M203.88 535.182C203.941 534.998 204.095 534.845 204.278 534.784C204.585 534.692 204.953 534.876 205.045 535.182C205.934 538.218 206.914 541.316 207.987 544.382C208.079 544.689 207.926 545.057 207.619 545.149C207.313 545.272 206.945 545.088 206.853 544.781C205.78 541.684 204.799 538.586 203.88 535.52C203.819 535.397 203.849 535.274 203.88 535.182Z" fill="#EFEDED"/>
<path d="M218.316 571.063C218.377 570.909 218.469 570.787 218.622 570.695C218.929 570.541 219.297 570.664 219.45 570.94C220.89 573.731 222.484 576.583 224.109 579.404C224.262 579.68 224.17 580.048 223.894 580.232C223.588 580.416 223.22 580.294 223.067 580.018C221.442 577.196 219.848 574.313 218.377 571.523C218.285 571.369 218.254 571.216 218.316 571.063Z" fill="#EFEDED"/>
<path d="M239.374 603.478C239.405 603.355 239.466 603.263 239.558 603.171C239.834 602.957 240.201 603.018 240.416 603.263C242.408 605.747 244.493 608.231 246.607 610.654C246.822 610.899 246.791 611.298 246.546 611.513C246.301 611.727 245.903 611.697 245.688 611.451C243.573 609.029 241.458 606.545 239.466 604.03C239.374 603.846 239.313 603.662 239.374 603.478Z" fill="#EFEDED"/>
<path d="M228.062 587.777C228.123 587.654 228.184 587.531 228.307 587.439C228.583 587.255 228.951 587.347 229.134 587.623C230.912 590.322 232.721 592.99 234.59 595.597C234.774 595.873 234.713 596.241 234.468 596.425C234.192 596.609 233.824 596.548 233.609 596.302C231.74 593.696 229.901 590.997 228.123 588.298C228.031 588.145 228 587.961 228.062 587.777Z" fill="#EFEDED"/>
<path d="M592.502 504.945C592.472 505.252 592.165 505.528 591.828 505.466C591.491 505.436 591.276 505.129 591.307 504.792C591.736 501.602 592.073 498.382 592.318 495.193C592.318 495.132 592.318 495.101 592.349 495.07C592.441 494.794 592.686 494.61 592.993 494.641C593.33 494.672 593.575 494.948 593.544 495.285C593.268 498.474 592.931 501.725 592.502 504.945Z" fill="#EFEDED"/>
<path d="M196.155 468.236C196.339 464.985 196.615 461.734 196.952 458.575C196.952 458.545 196.952 458.483 196.983 458.483C197.075 458.207 197.32 458.023 197.627 458.054C197.933 458.085 198.209 458.391 198.148 458.729C197.81 461.857 197.565 465.108 197.351 468.358C197.32 468.665 197.044 468.941 196.707 468.941C196.37 468.849 196.125 468.573 196.155 468.236Z" fill="#EFEDED"/>
<path d="M355.999 285.399C352.904 286.013 349.747 286.749 346.59 287.546C346.283 287.638 345.946 287.424 345.854 287.117C345.823 286.994 345.823 286.902 345.854 286.779C345.915 286.595 346.068 286.411 346.283 286.381C349.44 285.583 352.628 284.847 355.754 284.234C356.091 284.173 356.398 284.387 356.459 284.694C356.551 285.031 356.337 285.338 355.999 285.399Z" fill="#EFEDED"/>
<path d="M196.616 497.37C196.616 497.309 196.616 497.217 196.646 497.156C196.708 496.91 196.922 496.757 197.167 496.726C197.504 496.696 197.78 496.941 197.811 497.278C198.117 500.468 198.485 503.688 198.914 506.877C198.976 507.214 198.73 507.521 198.393 507.552C198.056 507.613 197.75 507.368 197.719 507.03C197.29 503.841 196.891 500.56 196.616 497.37Z" fill="#EFEDED"/>
<path d="M210.223 553.491C210.284 553.307 210.407 553.184 210.56 553.092C210.867 552.969 211.234 553.123 211.357 553.429C212.552 556.404 213.84 559.41 215.188 562.292C215.311 562.599 215.188 562.967 214.882 563.09C214.575 563.243 214.208 563.09 214.085 562.783C212.767 559.87 211.449 556.864 210.254 553.859C210.192 553.736 210.192 553.614 210.223 553.491Z" fill="#EFEDED"/>
<path d="M195.971 487.648C195.848 484.459 195.787 481.208 195.818 477.927C195.818 477.865 195.818 477.804 195.848 477.743C195.91 477.497 196.155 477.313 196.431 477.313C196.768 477.313 197.044 477.589 197.044 477.927C197.013 481.178 197.074 484.428 197.197 487.587C197.228 487.924 196.952 488.2 196.615 488.231C196.277 488.231 196.002 487.986 195.971 487.648Z" fill="#EFEDED"/>
<path d="M285.163 314.84C282.497 316.618 279.83 318.458 277.256 320.39C276.98 320.574 276.612 320.544 276.428 320.268C276.305 320.114 276.275 319.9 276.336 319.746C276.367 319.624 276.459 319.501 276.551 319.44C279.156 317.538 281.823 315.637 284.489 313.858C284.765 313.674 285.133 313.736 285.317 314.042C285.501 314.288 285.439 314.656 285.163 314.84Z" fill="#EFEDED"/>
<path d="M319.126 296.685C316.153 297.912 313.211 299.231 310.299 300.611C309.992 300.764 309.625 300.611 309.502 300.335C309.441 300.181 309.441 300.028 309.471 299.905C309.502 299.752 309.625 299.599 309.778 299.537C312.69 298.157 315.663 296.839 318.667 295.581C318.973 295.459 319.341 295.581 319.464 295.888C319.586 296.195 319.433 296.563 319.126 296.685Z" fill="#EFEDED"/>
<path d="M301.687 304.934C298.898 306.437 296.078 308.031 293.289 309.687C293.013 309.871 292.645 309.779 292.461 309.473C292.369 309.319 292.338 309.166 292.4 308.982C292.43 308.859 292.522 308.706 292.676 308.645C295.465 306.989 298.285 305.363 301.105 303.861C301.411 303.707 301.779 303.83 301.932 304.106C302.116 304.413 301.993 304.781 301.687 304.934Z" fill="#EFEDED"/>
<path d="M224.599 376.389C226.254 373.659 228.001 370.899 229.84 368.201C230.024 367.925 230.392 367.833 230.667 368.047C230.943 368.231 231.005 368.599 230.821 368.875C229.012 371.543 227.265 374.273 225.641 377.002C225.457 377.278 225.089 377.37 224.813 377.217C224.568 377.063 224.476 376.787 224.537 376.511C224.568 376.481 224.568 376.45 224.599 376.389Z" fill="#EFEDED"/>
<path d="M269.656 326.308C267.174 328.332 264.721 330.448 262.361 332.595C262.116 332.81 261.718 332.779 261.503 332.534C261.35 332.38 261.319 332.166 261.381 331.951C261.411 331.859 261.473 331.767 261.564 331.675C263.955 329.528 266.438 327.382 268.921 325.358C269.196 325.143 269.564 325.174 269.779 325.45C269.963 325.726 269.901 326.094 269.656 326.308Z" fill="#EFEDED"/>
<path d="M215.374 393.562C215.374 393.532 215.404 393.501 215.404 393.47C216.784 390.587 218.255 387.674 219.787 384.822C219.941 384.515 220.308 384.423 220.615 384.577C220.891 384.73 221.044 385.098 220.86 385.405C219.328 388.257 217.856 391.139 216.477 393.992C216.324 394.298 215.987 394.421 215.68 394.268C215.404 394.145 215.282 393.838 215.374 393.562Z" fill="#EFEDED"/>
<path d="M235.448 360.289C237.379 357.713 239.372 355.167 241.425 352.683C241.64 352.438 242.008 352.407 242.284 352.622C242.529 352.837 242.559 353.235 242.345 353.481C240.291 355.965 238.299 358.51 236.399 361.056C236.215 361.332 235.816 361.362 235.54 361.178C235.326 361.025 235.234 360.749 235.326 360.534C235.387 360.412 235.387 360.35 235.448 360.289Z" fill="#EFEDED"/>
<path d="M198.208 448.947C198.699 445.757 199.281 442.537 199.925 439.409L199.956 439.379C200.047 439.072 200.354 438.888 200.66 438.949C200.998 439.011 201.212 439.348 201.12 439.655C200.477 442.783 199.894 445.972 199.404 449.131C199.373 449.437 199.036 449.683 198.699 449.621C198.392 449.591 198.178 449.284 198.208 448.947Z" fill="#EFEDED"/>
<path d="M122.624 109.402C119.743 108.543 116.708 110.199 115.819 113.082C114.961 115.995 116.616 119.031 119.497 119.89C120.754 120.258 121.98 120.104 123.084 119.644L231.189 319.593C215.22 299.537 193.243 283.958 166.853 276.108C161.581 274.544 156.248 273.348 150.945 272.458L157.382 250.838C160.079 251.298 162.777 249.795 163.573 247.097C164.432 244.214 162.777 241.147 159.895 240.288C157.014 239.399 153.949 241.055 153.091 243.969C152.294 246.667 153.704 249.397 156.217 250.47L149.719 272.274C86.6091 262.399 24.1733 300.549 5.41497 363.478C-12.8836 424.904 16.6332 489.397 72.2339 516.875C71.8047 517.396 71.4676 518.009 71.2836 518.684C70.4867 521.383 71.8966 524.143 74.4407 525.216L62.4869 565.329C59.7896 564.838 57.0923 566.371 56.2954 569.07C55.4372 571.983 57.0923 575.019 59.9735 575.878C62.8547 576.737 65.9198 575.081 66.778 572.198C67.5749 569.53 66.165 566.77 63.6516 565.696L75.6055 525.584C78.3027 526.075 80.9693 524.541 81.7969 521.843C81.8582 521.628 81.8276 521.413 81.8582 521.199C85.4137 522.609 89.0305 523.897 92.8005 525.001C122.961 533.987 153.888 531.441 180.769 519.911L189.289 535.643C189.443 535.949 189.811 536.041 190.117 535.888C190.424 535.735 190.515 535.367 190.362 535.06L181.903 519.389C193.703 514.207 204.676 507.306 214.484 498.873L233.856 496.88C234.04 498.597 234.285 500.284 234.53 501.97L213.136 505.037C212.891 505.068 212.707 505.252 212.645 505.466C212.615 505.558 212.615 505.65 212.615 505.742C212.676 506.08 212.952 506.294 213.32 506.264L234.683 503.197C234.929 504.914 235.235 506.601 235.542 508.288L214.27 512.182C214.055 512.213 213.871 512.397 213.81 512.612C213.78 512.704 213.78 512.796 213.78 512.888C213.841 513.225 214.147 513.44 214.484 513.379L235.756 509.484C236.063 511.171 236.4 512.857 236.768 514.544L215.68 519.297C215.465 519.359 215.281 519.512 215.251 519.727C215.22 519.819 215.22 519.911 215.22 520.033C215.281 520.371 215.619 520.585 215.956 520.493L237.074 515.74C237.473 517.427 237.84 519.083 238.27 520.769L217.396 526.32C217.182 526.381 217.029 526.535 216.967 526.719C216.937 526.841 216.937 526.933 216.967 527.056C217.059 527.363 217.396 527.577 217.703 527.485L238.607 521.935C239.067 523.591 239.526 525.247 240.047 526.872L219.389 533.251C219.205 533.312 219.051 533.465 218.99 533.649C218.96 533.772 218.96 533.895 218.99 534.017C219.082 534.324 219.419 534.508 219.756 534.416L240.415 528.037C240.936 529.693 241.519 531.288 242.07 532.913L221.657 540.12C221.473 540.182 221.35 540.335 221.289 540.519C221.258 540.642 221.258 540.764 221.289 540.887C221.412 541.194 221.749 541.347 222.055 541.255L242.469 534.048C243.051 535.673 243.664 537.268 244.308 538.863L224.17 546.867C223.986 546.928 223.864 547.082 223.802 547.266C223.772 547.388 223.772 547.542 223.833 547.664C223.956 547.971 224.323 548.124 224.63 548.002L244.768 539.998C245.411 541.592 246.086 543.187 246.76 544.751L226.959 553.552C226.775 553.644 226.653 553.767 226.622 553.92C226.561 554.043 226.592 554.196 226.653 554.35C226.806 554.656 227.143 554.779 227.45 554.656L247.25 545.855C247.955 547.419 248.66 548.983 249.396 550.547L229.963 560.115C229.81 560.176 229.687 560.33 229.657 560.483C229.595 560.636 229.626 560.79 229.687 560.912C229.841 561.219 230.208 561.342 230.515 561.188L249.948 551.62C250.714 553.154 251.48 554.718 252.308 556.22L233.273 566.525C233.12 566.617 233.028 566.739 232.967 566.893C232.906 567.046 232.936 567.199 232.998 567.353C233.151 567.659 233.549 567.751 233.825 567.598L252.737 557.232C253.564 558.735 254.423 560.238 255.311 561.71L236.676 572.75C236.553 572.842 236.461 572.965 236.4 573.087C236.339 573.241 236.369 573.425 236.461 573.578C236.645 573.854 237.013 573.946 237.289 573.793L255.894 562.783C256.783 564.255 257.702 565.697 258.622 567.138L240.446 578.914C240.323 579.006 240.231 579.098 240.201 579.251C240.139 579.405 240.17 579.589 240.262 579.742C240.446 580.018 240.814 580.11 241.089 579.926L259.265 568.15C260.216 569.591 261.166 571.002 262.147 572.413L244.43 584.894C244.308 584.986 244.246 585.078 244.216 585.201C244.155 585.385 244.185 585.569 244.308 585.722C244.492 585.998 244.89 586.059 245.135 585.875L262.852 573.394C262.944 573.517 263.005 573.609 263.097 573.731C262.361 574.375 261.748 575.173 261.442 576.185C260.982 577.718 261.258 579.282 262.024 580.539L248.722 590.721C248.599 590.782 248.538 590.905 248.507 591.027C248.446 591.211 248.476 591.396 248.599 591.549C248.783 591.825 249.181 591.856 249.426 591.672L262.76 581.459C263.219 581.95 263.771 582.318 264.384 582.594L262.637 588.482L253.135 596.364C253.043 596.425 252.982 596.548 252.951 596.64C252.89 596.824 252.921 597.038 253.074 597.192C253.288 597.437 253.656 597.498 253.932 597.253L262.024 590.537L258.959 600.78L257.855 601.792C257.763 601.884 257.702 601.976 257.672 602.068C257.61 602.252 257.641 602.466 257.794 602.65C257.947 602.834 258.162 602.834 258.377 602.804L253.779 618.291C253.564 618.076 253.35 617.861 253.135 617.646C252.89 617.401 252.522 617.401 252.277 617.646C252.216 617.708 252.154 617.8 252.124 617.892C252.062 618.107 252.124 618.321 252.277 618.474C252.645 618.843 253.013 619.211 253.411 619.579L235.695 679.103L214.27 672.725C213.963 672.633 213.626 672.817 213.504 673.123C213.412 673.43 213.596 673.798 213.933 673.89L235.358 680.269L233.335 687.077L211.91 680.698C211.603 680.606 211.236 680.79 211.144 681.097C211.052 681.403 211.236 681.741 211.542 681.863L232.967 688.242L230.944 695.05L209.519 688.671C209.213 688.579 208.875 688.763 208.783 689.07C208.691 689.377 208.875 689.714 209.182 689.837L230.607 696.215L228.584 703.024L207.159 696.645C206.852 696.553 206.515 696.737 206.393 697.043C206.301 697.35 206.485 697.687 206.791 697.81L228.216 704.189L194.929 815.97C192.293 815.572 189.688 817.074 188.891 819.712C188.094 822.349 189.473 825.048 191.895 826.152L185.244 848.477C180.217 847.312 175.067 850.195 173.566 855.224C172.033 860.438 175.006 865.927 180.217 867.491C185.427 869.055 190.914 866.08 192.477 860.867C193.979 855.837 191.251 850.624 186.408 848.845L193.029 826.55C195.757 827.102 198.515 825.569 199.343 822.84C200.171 820.11 198.699 817.289 196.094 816.246L229.35 704.526L252.553 711.457C252.859 711.549 253.197 711.365 253.319 711.058C253.411 710.752 253.227 710.384 252.89 710.292L229.687 703.392L231.71 696.583L254.913 703.483C255.219 703.576 255.557 703.392 255.649 703.085C255.741 702.778 255.557 702.441 255.25 702.318L232.047 695.418L234.07 688.61L257.273 695.51C257.58 695.602 257.917 695.418 258.009 695.111C258.101 694.805 257.917 694.467 257.61 694.345L234.408 687.414L236.431 680.606L259.603 687.537C259.909 687.629 260.277 687.445 260.369 687.138C260.461 686.831 260.277 686.463 259.97 686.371L236.768 679.471L254.3 620.56C255.894 622.155 257.488 623.78 259.112 625.283C259.357 625.497 259.725 625.497 259.97 625.252C260.185 625.007 260.185 624.608 259.94 624.393C258.162 622.737 256.415 620.989 254.698 619.241L259.97 601.454L274.652 588.267C275.817 589.525 276.982 590.782 278.208 592.009L262.698 607.066C262.637 607.128 262.576 607.25 262.545 607.312C262.484 607.526 262.545 607.741 262.698 607.894C262.913 608.14 263.311 608.14 263.557 607.894L279.066 592.837C280.261 594.064 281.487 595.26 282.744 596.456L267.848 612.126C267.786 612.188 267.725 612.28 267.694 612.372C267.633 612.586 267.694 612.832 267.848 612.985C268.093 613.23 268.461 613.2 268.706 612.954L283.602 597.284C284.859 598.48 286.116 599.645 287.403 600.78L273.15 616.972C273.089 617.033 273.058 617.125 273.028 617.186C272.966 617.401 273.028 617.646 273.212 617.83C273.457 618.045 273.855 618.015 274.07 617.769L288.322 601.546C289.61 602.681 290.897 603.816 292.246 604.889L278.667 621.633C278.606 621.695 278.575 621.756 278.545 621.848C278.483 622.093 278.545 622.339 278.729 622.492C279.005 622.707 279.372 622.676 279.587 622.4L293.196 605.656C294.514 606.729 295.863 607.802 297.242 608.845L284.307 626.111C284.246 626.172 284.246 626.233 284.215 626.295C284.154 626.54 284.215 626.785 284.43 626.939C284.706 627.123 285.073 627.092 285.257 626.816L298.192 609.581C299.571 610.593 301.012 611.574 302.422 612.586L290.192 630.343C290.161 630.404 290.131 630.465 290.1 630.527C290.039 630.772 290.1 631.048 290.345 631.201C290.621 631.385 290.989 631.324 291.173 631.048L303.403 613.292C304.813 614.242 306.253 615.193 307.694 616.113L296.169 634.329C296.138 634.391 296.108 634.421 296.108 634.483C296.046 634.728 296.138 635.035 296.353 635.157C296.629 635.341 297.027 635.249 297.181 634.973L308.705 616.757C310.146 617.677 311.617 618.567 313.119 619.456L302.299 638.101C302.269 638.132 302.238 638.193 302.238 638.224C302.177 638.5 302.269 638.776 302.514 638.929C302.79 639.083 303.188 638.991 303.341 638.715L314.161 620.039C315.632 620.897 317.134 621.756 318.667 622.584L308.613 641.628C308.583 641.659 308.583 641.689 308.552 641.751C308.46 642.027 308.583 642.333 308.858 642.456C309.165 642.609 309.533 642.487 309.686 642.211L319.77 623.136C321.272 623.933 322.805 624.7 324.368 625.467L315.05 644.909C315.05 644.94 315.019 644.971 315.019 645.002C314.927 645.278 315.081 645.584 315.326 645.707C315.632 645.86 316 645.738 316.123 645.431L325.41 626.019C326.973 626.755 328.536 627.429 330.13 628.104L321.579 647.946C321.579 647.946 321.548 647.976 321.548 648.007C321.456 648.283 321.609 648.62 321.885 648.743C322.192 648.866 322.559 648.743 322.682 648.436L331.234 628.625C332.797 629.3 334.421 629.944 336.015 630.588L328.23 650.736C328.23 650.736 328.23 650.767 328.199 650.767C328.107 651.074 328.261 651.38 328.567 651.503C328.874 651.626 329.241 651.472 329.364 651.166L337.149 631.017C338.743 631.631 340.368 632.244 341.992 632.796L335.034 653.22C334.942 653.527 335.096 653.864 335.402 653.956C335.709 654.079 336.076 653.895 336.168 653.588L343.126 633.164C344.751 633.716 346.375 634.268 348.03 634.759L341.869 655.428C341.778 655.735 341.961 656.072 342.268 656.195C342.574 656.287 342.942 656.103 343.034 655.796L349.195 635.127C350.85 635.617 352.505 636.047 354.191 636.476L348.827 657.391C348.735 657.698 348.95 658.035 349.256 658.127C349.563 658.188 349.869 658.004 349.992 657.698L355.356 636.783C357.011 637.212 358.697 637.58 360.352 637.948L355.846 659.047C355.785 659.384 355.969 659.691 356.306 659.752C356.613 659.814 356.919 659.63 357.011 659.323C357.011 659.292 357.011 659.292 357.042 659.262L361.547 638.163C363.233 638.531 364.919 638.868 366.605 639.144L362.927 660.396C362.865 660.734 363.111 661.04 363.417 661.102C363.754 661.163 364.061 660.948 364.122 660.611L367.8 639.328C369.517 639.635 371.202 639.911 372.888 640.156L370.038 661.5C369.976 661.838 370.222 662.144 370.559 662.175C370.896 662.236 371.172 661.991 371.233 661.654L374.084 640.279C375.8 640.493 377.516 640.677 379.202 640.861L377.21 662.328C377.179 662.666 377.425 662.972 377.762 663.003C378.099 663.034 378.375 662.819 378.405 662.451L380.398 641.015C382.114 641.168 383.831 641.26 385.547 641.352L384.382 662.911C384.382 663.248 384.627 663.524 384.965 663.555C385.302 663.586 385.578 663.31 385.608 662.972L386.773 641.444C388.489 641.536 390.206 641.597 391.922 641.628L391.616 663.218C391.616 663.555 391.892 663.831 392.198 663.831C392.535 663.831 392.811 663.586 392.811 663.248L393.118 641.659C394.834 641.689 396.551 641.689 398.267 641.659L398.819 663.218C398.819 663.555 399.095 663.8 399.432 663.8C399.769 663.8 400.014 663.524 400.014 663.187L399.462 641.598C401.179 641.536 402.926 641.505 404.642 641.413L406.022 662.911C406.052 663.248 406.328 663.494 406.665 663.494C407.003 663.463 407.248 663.187 407.217 662.85L405.838 641.321C407.554 641.199 409.271 641.045 410.987 640.861L413.194 662.328C413.255 662.666 413.531 662.911 413.868 662.88C414.206 662.85 414.451 662.543 414.42 662.206L412.213 640.769C413.93 640.585 415.615 640.34 417.332 640.095L420.397 661.47C420.428 661.807 420.734 662.022 421.071 661.991C421.408 661.96 421.623 661.654 421.592 661.286L418.527 639.911C420.244 639.665 421.93 639.389 423.615 639.052L427.508 660.304C427.569 660.642 427.876 660.856 428.213 660.795C428.519 660.734 428.765 660.427 428.703 660.09L424.811 638.837C426.497 638.531 428.182 638.193 429.868 637.825L434.588 658.894C434.65 659.231 434.987 659.415 435.324 659.354C435.661 659.292 435.845 658.955 435.784 658.618L431.064 637.519C432.749 637.12 434.404 636.752 436.06 636.323L441.607 657.176C441.699 657.514 442.037 657.698 442.343 657.606C442.65 657.514 442.864 657.176 442.772 656.87L437.224 635.985C438.879 635.525 440.535 635.065 442.159 634.544L448.535 655.214C448.626 655.52 448.964 655.704 449.301 655.612C449.607 655.52 449.791 655.183 449.699 654.846L443.324 634.207C444.948 633.685 446.573 633.103 448.197 632.551L455.4 652.975C455.523 653.282 455.86 653.466 456.167 653.343C456.473 653.22 456.657 652.883 456.534 652.576L449.331 632.183C450.956 631.6 452.55 630.987 454.144 630.343L462.143 650.46C462.266 650.767 462.603 650.92 462.94 650.798C463.247 650.675 463.4 650.307 463.278 650.031L455.278 629.913C456.872 629.269 458.465 628.595 460.029 627.92L468.795 647.731C468.917 648.038 469.285 648.16 469.592 648.038C469.898 647.884 470.021 647.547 469.898 647.24L461.101 627.429C462.665 626.724 464.228 626.019 465.791 625.283L475.323 644.695C475.477 645.002 475.844 645.124 476.151 644.971C476.457 644.818 476.58 644.449 476.427 644.143L466.894 624.731C468.427 623.964 469.99 623.197 471.492 622.4L481.791 641.413C481.944 641.72 482.312 641.812 482.618 641.659C482.925 641.505 483.017 641.137 482.863 640.831L472.565 621.817C474.067 620.989 475.569 620.131 477.04 619.272L488.074 637.887C488.258 638.163 488.626 638.285 488.902 638.101C489.208 637.917 489.269 637.549 489.116 637.273L478.082 618.659C479.553 617.769 480.994 616.849 482.465 615.929L494.235 634.115C494.419 634.391 494.787 634.483 495.063 634.299C495.338 634.115 495.43 633.747 495.246 633.471L483.477 615.285C484.917 614.334 486.327 613.384 487.737 612.402L500.212 630.097C500.396 630.373 500.794 630.435 501.07 630.251C501.346 630.067 501.407 629.699 501.223 629.423L488.748 611.728C490.158 610.716 491.538 609.734 492.917 608.692L506.066 625.865C506.25 626.141 506.649 626.172 506.924 625.988C507.2 625.804 507.231 625.405 507.047 625.129L493.898 607.956C495.277 606.913 496.626 605.87 497.974 604.766L511.737 621.388C511.951 621.633 512.319 621.695 512.595 621.449C512.84 621.235 512.901 620.867 512.656 620.591L498.863 603.938C500.181 602.834 501.469 601.73 502.756 600.596L517.192 616.696C517.407 616.941 517.805 616.972 518.051 616.757C518.296 616.542 518.327 616.144 518.112 615.898L503.706 599.829C504.993 598.664 506.219 597.468 507.445 596.272L522.495 611.789C522.74 612.034 523.108 612.034 523.353 611.789C523.598 611.574 523.598 611.176 523.353 610.93L508.304 595.444C509.53 594.248 510.725 593.021 511.92 591.764L527.583 606.668C527.828 606.913 528.196 606.882 528.441 606.637C528.687 606.392 528.656 606.024 528.411 605.778L512.748 590.874C513.943 589.617 515.108 588.359 516.242 587.071L532.457 601.332C532.702 601.546 533.1 601.516 533.315 601.27C533.529 601.025 533.499 600.657 533.253 600.412L517.039 586.151C518.173 584.863 519.307 583.575 520.38 582.226L537.115 595.812C537.361 596.026 537.759 595.996 537.943 595.72C538.158 595.474 538.127 595.076 537.882 594.861L521.146 581.245C522.219 579.926 523.292 578.577 524.334 577.197L541.56 590.138C541.836 590.322 542.204 590.291 542.418 590.015C542.633 589.739 542.571 589.371 542.296 589.157L525.07 576.246C526.081 574.866 527.062 573.455 528.043 572.045L545.79 584.281C546.066 584.465 546.433 584.403 546.617 584.127C546.801 583.851 546.74 583.483 546.464 583.299L528.717 571.063C529.698 569.653 530.618 568.181 531.568 566.739L549.774 578.301C550.05 578.485 550.449 578.393 550.602 578.117C550.786 577.81 550.694 577.473 550.418 577.289L532.211 565.727C533.131 564.286 534.02 562.814 534.878 561.311L553.514 572.137C553.82 572.321 554.188 572.198 554.341 571.922C554.495 571.615 554.403 571.247 554.127 571.094L535.491 560.268C536.349 558.766 537.207 557.294 538.004 555.791L557.039 565.85C557.345 566.003 557.713 565.911 557.866 565.605C558.05 565.298 557.927 564.93 557.621 564.777L538.587 554.718C539.384 553.184 540.15 551.651 540.916 550.118L560.349 559.41C560.655 559.563 561.023 559.44 561.176 559.134C561.33 558.827 561.176 558.459 560.87 558.336L541.468 549.044C542.204 547.48 542.878 545.916 543.552 544.322L563.353 552.878C563.659 553 564.027 552.878 564.15 552.571C564.272 552.264 564.15 551.896 563.843 551.774L544.043 543.218C544.717 541.623 545.361 540.059 545.974 538.434L566.111 546.192C566.418 546.315 566.786 546.162 566.908 545.855C567.092 545.518 566.878 545.18 566.571 545.058L546.433 537.299C547.046 535.673 547.659 534.079 548.211 532.453L568.625 539.415C568.931 539.507 569.299 539.354 569.391 539.047C569.513 538.679 569.33 538.372 569.023 538.28L548.61 531.319C548.64 531.196 548.702 531.073 548.732 530.951C551.184 531.441 553.575 530.184 554.648 527.976L579.935 535.52C579.628 537.912 580.854 540.151 583.061 541.132C582.939 541.5 582.816 541.93 582.693 542.328C582.601 542.635 582.785 542.972 583.092 543.064C583.398 543.187 583.766 543.003 583.858 542.696C583.981 542.328 584.103 541.899 584.226 541.5C586.678 541.991 589.038 540.734 590.111 538.526L667.32 561.526C666.983 564.133 668.454 566.709 671.06 567.475C673.665 568.273 676.301 566.923 677.466 564.562L699.81 571.217C698.768 576.185 701.649 581.183 706.584 582.655C711.55 584.127 716.699 581.521 718.538 576.798L740.545 583.361L725.434 634.115L730.063 635.495L745.174 584.741L785.265 596.701C784.652 599.124 785.755 601.516 787.809 602.712L784.07 615.285C783.978 615.592 784.161 615.929 784.468 616.052C784.775 616.144 785.112 615.96 785.234 615.653L788.912 603.325C788.912 603.325 788.943 603.356 788.974 603.356C791.794 604.214 794.767 602.62 795.686 599.829L813.035 605.012C812.575 607.71 814.077 610.378 816.774 611.206C819.686 612.065 822.72 610.409 823.578 607.526C824.437 604.644 822.812 601.577 819.9 600.718C817.203 599.921 814.445 601.332 813.372 603.877L795.87 598.664C796.115 596.118 794.644 593.665 792.1 592.898C792.069 592.898 792.069 592.898 792.039 592.898L796.085 579.282C796.177 578.975 795.993 578.638 795.686 578.515C795.38 578.423 795.043 578.607 794.92 578.914L790.782 592.745C788.667 592.622 786.767 593.726 785.755 595.628L745.48 583.606L760.622 532.852L755.993 531.472L740.882 582.257L718.936 575.725C720.254 570.634 717.343 565.359 712.224 563.826C707.136 562.323 701.803 565.114 700.117 570.113L677.895 563.489C678.508 560.698 676.945 557.876 674.186 557.048C671.428 556.22 668.577 557.723 667.566 560.391L590.509 537.452C591.122 534.661 589.559 531.84 586.801 531.012C584.042 530.184 581.191 531.687 580.18 534.355L571.567 531.779C571.506 531.625 571.383 531.472 571.199 531.441L555.108 526.657C555.567 524.112 554.219 521.659 551.828 520.708C551.859 520.585 551.889 520.463 551.92 520.34L572.824 525.707C573.13 525.799 573.437 525.584 573.559 525.277C573.621 524.94 573.437 524.633 573.13 524.541L552.226 519.205C552.655 517.549 553.023 515.863 553.391 514.207L574.479 518.715C574.816 518.776 575.184 518.623 575.215 518.255C575.276 517.917 575.061 517.611 574.755 517.519L553.667 513.011C554.035 511.324 554.372 509.637 554.648 507.95L575.889 511.631C576.195 511.692 576.533 511.477 576.594 511.14C576.655 510.803 576.41 510.496 576.103 510.435L554.862 506.754C555.138 505.037 555.445 503.35 555.69 501.664L576.992 504.516C577.329 504.546 577.605 504.362 577.667 503.994C577.728 503.657 577.483 503.35 577.146 503.32L555.813 500.468C556.027 498.75 556.242 497.033 556.426 495.346L577.851 497.34C578.188 497.37 578.464 497.125 578.494 496.788C578.525 496.45 578.28 496.144 577.942 496.113L556.548 494.12C556.701 492.402 556.793 490.716 556.916 488.998L578.402 490.133C578.739 490.164 579.015 489.888 579.046 489.581C579.077 489.244 578.801 488.968 578.464 488.937L556.977 487.802C557.069 486.085 557.1 484.368 557.131 482.65L578.647 482.957C578.985 482.957 579.26 482.712 579.26 482.344C579.26 482.006 579.015 481.73 578.678 481.73L557.161 481.424C557.192 479.706 557.161 477.989 557.131 476.271L578.617 475.75C578.954 475.719 579.199 475.474 579.199 475.106C579.199 474.769 578.923 474.523 578.586 474.523L557.069 475.045C557.008 473.327 556.977 471.61 556.885 469.893L578.31 468.543C578.647 468.513 578.893 468.237 578.893 467.899C578.862 467.562 578.586 467.317 578.249 467.317L556.793 468.666C556.671 466.949 556.548 465.231 556.364 463.514L577.697 461.306C578.034 461.275 578.28 460.969 578.249 460.631C578.218 460.294 577.912 460.049 577.575 460.079L556.242 462.287C556.058 460.57 555.813 458.883 555.598 457.166L576.87 454.099C577.207 454.068 577.421 453.762 577.391 453.424C577.329 453.087 577.054 452.872 576.686 452.903L555.445 455.97C555.2 454.252 554.862 452.566 554.587 450.879L575.736 446.984C576.073 446.923 576.287 446.586 576.226 446.279C576.165 445.942 575.858 445.727 575.521 445.788L554.372 449.683C554.065 447.996 553.698 446.31 553.33 444.623L574.326 439.9C574.663 439.839 574.877 439.502 574.785 439.164C574.724 438.858 574.387 438.643 574.08 438.704L553.085 443.427C552.717 441.74 552.318 440.084 551.889 438.398L572.671 432.878C572.977 432.786 573.192 432.448 573.1 432.142C573.008 431.835 572.671 431.62 572.364 431.712L551.583 437.263C551.154 435.607 550.694 433.951 550.173 432.295L570.709 425.947C571.015 425.855 571.199 425.517 571.107 425.18C571.015 424.873 570.678 424.689 570.341 424.781L549.805 431.13C549.284 429.504 548.732 427.879 548.15 426.253L568.471 419.077C568.778 418.955 568.962 418.617 568.839 418.311C568.717 418.004 568.379 417.82 568.073 417.943L547.782 425.088C547.2 423.463 546.556 421.868 545.943 420.273L565.989 412.331C566.295 412.208 566.448 411.84 566.326 411.533C566.203 411.227 565.866 411.073 565.559 411.196L545.514 419.169C544.87 417.575 544.196 416.011 543.522 414.416L563.23 405.645C563.537 405.523 563.69 405.155 563.537 404.848C563.383 404.541 563.046 404.419 562.74 404.541L543 413.312C542.295 411.748 541.591 410.184 540.824 408.62L560.165 399.113C560.471 398.96 560.594 398.622 560.441 398.285C560.288 397.978 559.92 397.856 559.613 398.009L540.242 407.547C539.476 406.013 538.709 404.48 537.912 402.947L556.855 392.673C557.161 392.52 557.253 392.152 557.1 391.845C556.947 391.538 556.579 391.446 556.272 391.6L537.33 401.873C536.502 400.371 535.644 398.868 534.755 397.396L553.33 386.386C553.606 386.202 553.728 385.865 553.544 385.558C553.36 385.282 552.993 385.19 552.717 385.344L534.173 396.353C533.284 394.881 532.365 393.44 531.445 391.998L549.56 380.253C549.836 380.069 549.928 379.701 549.744 379.425C549.56 379.149 549.192 379.057 548.916 379.241L530.801 390.986C529.851 389.545 528.901 388.104 527.92 386.693L545.544 374.273C545.82 374.089 545.882 373.721 545.698 373.445C545.514 373.169 545.115 373.107 544.87 373.291L527.246 385.712C526.265 384.301 525.254 382.89 524.242 381.541L541.345 368.446C541.591 368.231 541.652 367.863 541.437 367.587C541.253 367.311 540.855 367.281 540.61 367.465L523.507 380.56C522.464 379.18 521.392 377.83 520.288 376.512L536.87 362.773C537.115 362.558 537.146 362.19 536.932 361.914C536.717 361.669 536.349 361.607 536.073 361.853L519.522 375.561C518.418 374.242 517.284 372.954 516.15 371.666L532.181 357.283C532.426 357.069 532.457 356.67 532.242 356.425C532.027 356.179 531.629 356.149 531.384 356.363L515.384 370.715C514.219 369.427 513.055 368.201 511.859 366.943L527.307 351.947C527.552 351.733 527.552 351.334 527.338 351.089C527.093 350.843 526.725 350.843 526.48 351.089L511.032 366.085C509.836 364.858 508.61 363.631 507.384 362.435L522.219 346.857C522.434 346.611 522.434 346.243 522.189 345.998C521.943 345.783 521.545 345.783 521.33 346.029L506.495 361.607C505.239 360.442 504.013 359.246 502.725 358.111L516.917 341.95C517.131 341.704 517.131 341.306 516.855 341.091C516.61 340.876 516.212 340.907 515.997 341.152L501.775 357.314C500.488 356.179 499.2 355.045 497.852 353.971L506.281 343.575L638.325 272.121C638.968 272.888 639.765 273.532 640.807 273.838C643.689 274.697 646.754 273.041 647.612 270.158C647.918 269.116 647.796 268.104 647.551 267.122L670.753 254.579L682.768 276.752C682.922 277.028 683.29 277.15 683.596 276.997C683.903 276.844 683.994 276.476 683.841 276.169L671.826 253.966L677.221 251.053L689.205 273.225C689.358 273.532 689.726 273.624 690.033 273.47C690.339 273.317 690.431 272.949 690.278 272.642L678.171 250.501L683.565 247.587L695.55 269.76C695.703 270.036 696.071 270.158 696.377 270.005C696.684 269.852 696.776 269.484 696.623 269.177L684.607 247.005L690.002 244.091L701.987 266.264C702.14 266.54 702.508 266.662 702.814 266.509C703.121 266.356 703.213 265.987 703.059 265.681L691.075 243.509L752.53 210.235C753.204 211.216 754.154 212.044 755.38 212.412C756.606 212.78 757.832 212.596 758.936 212.167L784.407 259.302C784.56 259.578 784.928 259.701 785.234 259.547C785.541 259.394 785.633 259.026 785.479 258.719L760.009 211.584C760.989 210.909 761.786 209.959 762.154 208.732C762.522 207.505 762.369 206.279 761.909 205.175L784.652 192.847C785.326 193.828 786.276 194.656 787.502 194.993C790.414 195.883 793.449 194.196 794.307 191.313C795.165 188.431 793.541 185.364 790.629 184.505C787.748 183.646 784.683 185.303 783.824 188.185C783.457 189.412 783.61 190.639 784.07 191.773L761.327 204.101C760.652 203.12 759.702 202.292 758.476 201.924C757.25 201.556 756.024 201.709 754.921 202.169L730.584 157.15C730.431 156.874 730.063 156.751 729.756 156.905C729.603 156.997 729.511 157.119 729.45 157.273C729.419 157.426 729.419 157.58 729.511 157.733L753.878 202.752C752.898 203.427 752.101 204.377 751.733 205.604C751.365 206.831 751.549 208.088 751.978 209.192L690.523 242.466L674.156 212.167C674.002 211.891 673.634 211.768 673.328 211.922C673.175 212.014 673.083 212.136 673.021 212.29C672.991 212.443 672.991 212.596 673.083 212.75L689.45 243.018L684.056 245.931L667.688 215.663C667.535 215.356 667.167 215.264 666.861 215.418C666.707 215.479 666.615 215.632 666.554 215.786C666.493 215.939 666.523 216.092 666.585 216.246L682.952 246.514L677.558 249.427L661.19 219.159C661.037 218.852 660.669 218.76 660.363 218.914C660.209 219.006 660.117 219.128 660.056 219.282C659.995 219.435 660.025 219.588 660.087 219.742L676.454 250.01L671.06 252.923L654.754 222.655C654.6 222.348 654.232 222.256 653.926 222.41C653.773 222.471 653.681 222.624 653.65 222.778C653.589 222.931 653.619 223.084 653.711 223.238L670.079 253.537L647.06 265.987C646.386 264.761 645.252 263.81 643.842 263.381C640.961 262.522 637.926 264.178 637.037 267.061C636.608 268.502 636.823 269.974 637.466 271.201L526.939 331.032C527.093 330.787 527.093 330.45 526.847 330.266C524.426 328.119 521.943 326.034 519.43 324.01C519.185 323.795 518.786 323.856 518.572 324.102C518.51 324.163 518.48 324.224 518.48 324.316C518.418 324.531 518.48 324.807 518.664 324.96C521.146 326.954 523.629 329.039 526.02 331.155C526.143 331.247 526.265 331.278 526.418 331.278L508.181 341.152L511.277 337.319C511.491 337.074 511.461 336.675 511.185 336.46C510.94 336.246 510.541 336.276 510.327 336.552L505.392 342.655L496.503 347.47C496.227 347.041 495.921 346.642 495.553 346.304L505.606 332.872C505.79 332.627 505.76 332.228 505.484 332.044C505.208 331.83 504.84 331.891 504.656 332.167L494.572 345.63C494.204 345.415 493.867 345.139 493.407 345.016C491.354 344.403 489.239 345.108 487.86 346.611C487.768 346.55 487.676 346.458 487.553 346.397L499.783 328.671C499.967 328.364 499.905 328.027 499.63 327.812C499.354 327.628 498.986 327.69 498.802 327.966L486.603 345.66C485.193 344.71 483.752 343.759 482.281 342.808L493.806 324.623C493.99 324.347 493.898 323.979 493.622 323.795C493.346 323.611 492.948 323.703 492.794 323.979L481.27 342.164C479.829 341.244 478.358 340.355 476.887 339.496L487.676 320.882C487.86 320.575 487.737 320.207 487.461 320.053C487.185 319.9 486.817 319.992 486.634 320.268L475.844 338.914C474.343 338.055 472.871 337.196 471.339 336.399L481.392 317.385C481.545 317.109 481.423 316.741 481.147 316.557C480.841 316.404 480.503 316.527 480.319 316.803L470.266 335.847C468.733 335.05 467.201 334.283 465.638 333.547L474.956 314.104C475.109 313.828 474.986 313.46 474.68 313.307C474.373 313.153 474.005 313.307 473.883 313.583L464.565 332.995C463.002 332.259 461.438 331.584 459.845 330.91L468.396 311.099C468.519 310.823 468.396 310.424 468.09 310.301C467.783 310.179 467.415 310.301 467.293 310.608L458.741 330.419C457.147 329.744 455.554 329.1 453.96 328.487L461.745 308.339C461.898 308.093 461.714 307.695 461.408 307.572C461.101 307.449 460.734 307.603 460.611 307.909L452.826 328.058C451.232 327.444 449.607 326.831 447.983 326.279L454.941 305.855C455.063 305.579 454.879 305.211 454.573 305.088C454.266 304.965 453.898 305.149 453.806 305.456L446.849 325.911C445.224 325.359 443.6 324.807 441.945 324.316L448.105 303.647C448.197 303.34 448.013 302.972 447.676 302.88C447.37 302.788 447.033 302.972 446.941 303.279L440.78 323.979C439.125 323.488 437.47 323.059 435.814 322.63L441.178 301.684C441.27 301.377 441.056 301.04 440.749 300.948C440.443 300.856 440.106 301.04 440.014 301.347C440.014 301.347 440.014 301.347 440.014 301.377L434.68 322.323C432.994 321.894 431.339 321.526 429.654 321.157L434.159 300.028C434.221 299.691 434.037 299.384 433.699 299.323C433.393 299.261 433.086 299.445 432.994 299.752C432.994 299.752 432.994 299.783 432.994 299.813L428.489 320.943C426.803 320.575 425.117 320.238 423.431 319.962L427.14 298.679C427.201 298.341 426.956 298.035 426.65 297.973C426.343 297.912 426.067 298.096 425.975 298.403C425.975 298.433 425.945 298.433 425.945 298.464L422.236 319.747C420.52 319.471 418.834 319.164 417.148 318.919L419.999 297.544C420.06 297.207 419.815 296.9 419.478 296.869C419.171 296.839 418.895 296.992 418.803 297.299C418.803 297.329 418.773 297.36 418.773 297.391L415.922 318.796C414.206 318.581 412.52 318.397 410.803 318.213L412.796 296.716C412.826 296.379 412.581 296.103 412.244 296.041C411.937 296.011 411.692 296.195 411.6 296.471C411.6 296.501 411.6 296.563 411.57 296.593L409.577 318.06C407.861 317.907 406.144 317.815 404.428 317.723L405.593 296.164C405.623 295.827 405.347 295.551 405.01 295.52C404.734 295.489 404.489 295.704 404.397 295.949C404.397 296.011 404.367 296.041 404.367 296.072L403.202 317.631C401.485 317.539 399.769 317.477 398.053 317.447L398.359 295.857C398.359 295.52 398.083 295.244 397.777 295.244C397.501 295.244 397.256 295.428 397.194 295.673C397.164 295.735 397.164 295.765 397.164 295.827L396.857 317.416C395.141 317.416 393.424 317.385 391.708 317.416L391.187 295.857C391.187 295.52 390.911 295.244 390.574 295.275C390.298 295.275 390.083 295.459 390.022 295.704C389.991 295.765 389.991 295.827 389.991 295.888L390.512 317.477C388.796 317.539 387.08 317.569 385.363 317.661L383.984 296.164C383.953 295.827 383.677 295.581 383.34 295.581C383.095 295.612 382.88 295.796 382.788 296.011C382.758 296.072 382.758 296.164 382.758 296.225L384.137 317.753C382.421 317.876 380.704 318.029 378.988 318.183L376.781 296.685C376.75 296.348 376.444 296.103 376.106 296.164C375.861 296.195 375.677 296.379 375.585 296.593C375.555 296.655 375.555 296.747 375.555 296.839L377.762 318.305C376.045 318.489 374.359 318.735 372.643 318.98L369.578 297.575C369.517 297.237 369.21 297.023 368.873 297.053C368.628 297.084 368.444 297.268 368.382 297.483C368.352 297.575 368.352 297.667 368.352 297.728L371.417 319.133C369.7 319.379 368.015 319.686 366.329 319.992L362.436 298.74C362.375 298.403 362.068 298.188 361.731 298.249C361.517 298.311 361.333 298.464 361.271 298.679C361.241 298.771 361.241 298.863 361.241 298.955L365.133 320.237C363.448 320.544 361.762 320.882 360.107 321.25L355.356 300.151C355.295 299.813 354.957 299.629 354.62 299.691C354.406 299.752 354.222 299.905 354.191 300.12C354.16 300.212 354.16 300.335 354.191 300.427L358.942 321.526C357.256 321.894 355.57 322.292 353.915 322.722L348.367 301.837C348.276 301.531 347.938 301.316 347.632 301.408C347.417 301.469 347.264 301.623 347.203 301.837C347.172 301.929 347.172 302.052 347.203 302.175L352.751 323.09C351.095 323.55 349.44 324.01 347.785 324.531L341.41 303.861C341.318 303.555 340.981 303.371 340.643 303.463C340.46 303.524 340.306 303.677 340.245 303.861C340.214 303.984 340.214 304.076 340.245 304.229L346.62 324.868C344.965 325.39 343.371 325.972 341.747 326.524L334.575 306.1C334.483 305.793 334.115 305.609 333.808 305.732C333.624 305.793 333.471 305.947 333.41 306.131C333.379 306.253 333.379 306.376 333.41 306.499L340.613 326.923C338.988 327.506 337.394 328.119 335.801 328.763L327.801 308.615C327.678 308.308 327.31 308.155 327.004 308.277C326.82 308.339 326.697 308.492 326.636 308.676C326.605 308.799 326.605 308.952 326.667 309.075L334.667 329.223C333.073 329.867 331.479 330.511 329.916 331.216L321.119 311.405C320.996 311.099 320.628 310.976 320.322 311.099C320.169 311.191 320.046 311.313 319.985 311.497C319.923 311.62 319.954 311.773 320.015 311.896L328.782 331.738C327.218 332.443 325.655 333.118 324.092 333.884L314.56 314.441C314.406 314.135 314.039 314.012 313.732 314.165C313.579 314.257 313.456 314.38 313.425 314.533C313.364 314.687 313.395 314.84 313.456 314.963L322.989 334.406C321.456 335.172 319.923 335.939 318.391 336.736L308.092 317.692C307.939 317.416 307.571 317.293 307.265 317.447C307.111 317.539 307.019 317.661 306.989 317.815C306.958 317.968 306.958 318.121 307.05 318.275L317.349 337.288C315.847 338.116 314.345 338.975 312.874 339.864L301.809 321.219C301.625 320.943 301.257 320.82 300.981 321.004C300.828 321.065 300.767 321.188 300.705 321.342C300.675 321.495 300.675 321.679 300.767 321.832L311.801 340.478C310.33 341.367 308.889 342.287 307.449 343.207L295.679 324.991C295.495 324.715 295.127 324.623 294.851 324.807C294.728 324.899 294.637 325.022 294.606 325.144C294.545 325.298 294.575 325.482 294.667 325.635L306.437 343.851C304.997 344.771 303.587 345.752 302.177 346.734L289.702 329.039C289.518 328.763 289.119 328.702 288.874 328.886C288.752 328.978 288.69 329.07 288.629 329.192C288.568 329.376 288.598 329.56 288.721 329.714L301.196 347.409C299.786 348.39 298.407 349.402 297.027 350.445L283.878 333.24C283.694 332.995 283.296 332.934 283.02 333.118C282.928 333.179 282.836 333.302 282.805 333.424C282.744 333.608 282.775 333.792 282.897 333.976L296.046 351.181C294.698 352.223 293.319 353.266 291.97 354.339L278.208 337.718C277.993 337.472 277.625 337.411 277.349 337.626C277.257 337.687 277.196 337.81 277.166 337.932C277.104 338.116 277.135 338.331 277.288 338.484L291.081 355.137C289.763 356.241 288.476 357.345 287.188 358.479L272.752 342.379C272.537 342.134 272.139 342.103 271.894 342.348C271.802 342.41 271.74 342.532 271.71 342.624C271.648 342.808 271.679 343.054 271.832 343.207L286.238 359.277C284.951 360.442 283.725 361.638 282.499 362.834L267.449 347.317C267.204 347.071 266.836 347.071 266.591 347.286C266.53 347.378 266.468 347.47 266.438 347.562C266.376 347.777 266.407 347.991 266.591 348.175L281.641 363.662C280.415 364.858 279.219 366.085 278.024 367.342L262.361 352.438C262.116 352.193 261.748 352.223 261.503 352.469C261.442 352.53 261.38 352.622 261.35 352.714C261.288 352.929 261.35 353.174 261.503 353.327L277.166 368.231C275.97 369.489 274.805 370.746 273.671 372.034L257.457 357.743C257.212 357.529 256.813 357.559 256.599 357.805C256.537 357.866 256.507 357.958 256.476 358.019C256.415 358.234 256.476 358.479 256.66 358.633L272.874 372.923C271.74 374.211 270.606 375.499 269.533 376.818L258.744 368.047L250.07 352.009C246.821 343.974 242.806 336.276 238.024 329.039L267.327 313.184C267.633 313.031 267.725 312.663 267.572 312.356C267.419 312.08 267.051 311.957 266.744 312.111L237.381 327.996C237.013 327.444 236.614 326.923 236.216 326.34L124.126 119.031C125.107 118.356 125.934 117.406 126.302 116.179C127.16 113.327 125.505 110.26 122.624 109.402ZM256.292 366.054L254.423 364.521C253.993 362.987 253.503 361.485 253.013 359.951L256.292 366.054ZM258.223 394.789C258.775 406.596 257.702 418.679 254.79 430.67C253.871 432.724 253.043 434.84 252.369 437.079C251.725 439.287 251.266 441.556 250.867 443.795C246.729 455.418 241.028 466.09 234.132 475.658C234.469 461.735 236.584 447.598 240.752 433.614C244.921 419.599 250.867 406.627 258.223 394.789ZM233.151 489.305L223.864 489.918C225.611 488.078 227.327 486.208 228.952 484.275L232.967 484.184C232.998 485.901 233.028 487.618 233.151 489.305ZM229.994 483.049C230.975 481.853 231.925 480.626 232.875 479.399C232.875 480.595 232.875 481.791 232.906 482.987L229.994 483.049ZM289.089 504.056C294.238 505.528 299.418 506.233 304.537 506.141C312.966 534.753 334.758 558.766 364.796 568.917C364.52 570.634 365.501 572.321 367.187 572.842C368.904 573.363 370.651 572.474 371.325 570.879C394.926 576.982 418.956 573.639 439.125 562.906L448.381 580.018C447.83 580.447 447.37 580.999 447.155 581.705C446.603 583.575 447.646 585.507 449.515 586.059C451.385 586.611 453.316 585.569 453.868 583.698C454.419 581.858 453.377 579.895 451.508 579.343C450.803 579.129 450.098 579.221 449.423 579.435L440.167 562.323C459.569 551.712 475.201 534.263 483.323 512.213C486.174 512.888 488.994 511.447 490.189 508.84L544.41 525.001C544.104 527.363 545.33 529.601 547.506 530.613C545.361 536.992 542.909 543.187 540.058 549.106L540.058 549.136C539.138 551.038 538.219 552.878 537.238 554.748C537.207 554.779 537.207 554.81 537.177 554.84C533.223 562.323 528.748 569.407 523.752 576.062C523.752 576.062 523.721 576.062 523.69 576.093C523.69 576.123 523.66 576.154 523.66 576.185C495.492 613.69 451.998 637.212 405.194 640.279L405.164 640.279C386.681 641.475 367.708 639.481 348.95 633.9C330.192 628.319 313.211 619.579 298.407 608.446C298.407 608.446 298.407 608.446 298.376 608.446C287.924 600.596 278.545 591.549 270.392 581.551C271.005 580.938 271.526 580.233 271.802 579.343C272.629 576.614 271.127 573.793 268.553 572.75L289.089 504.056ZM550.633 520.401C548.119 520.003 545.667 521.383 544.748 523.805L490.71 507.705C491.415 504.7 489.76 501.694 486.848 500.652C491.875 478.725 488.81 456.644 479.4 437.692C479.89 437.355 480.227 436.926 480.503 436.404L500.365 442.323C500.181 443.979 501.101 445.574 502.756 446.064C504.595 446.616 506.557 445.574 507.108 443.703C507.66 441.863 506.587 439.9 504.748 439.348C503.093 438.858 501.438 439.686 500.672 441.158L480.81 435.239C480.871 434.81 480.841 434.411 480.749 434.043L536.87 403.683C540.763 410.951 544.043 418.433 546.771 426.069C547.475 428.032 548.119 429.964 548.732 431.958C548.732 431.988 548.732 432.019 548.732 432.08C548.732 432.111 548.794 432.142 548.794 432.172C549.407 434.135 549.928 436.128 550.479 438.091C550.479 438.122 550.479 438.152 550.479 438.183C550.479 438.214 550.51 438.214 550.51 438.244C551.031 440.238 551.521 442.231 551.981 444.255C551.981 444.286 551.981 444.316 551.981 444.347C551.981 444.378 552.012 444.378 552.012 444.408C552.472 446.402 552.87 448.395 553.238 450.388C553.238 450.45 553.207 450.48 553.238 450.542C553.238 450.572 553.269 450.603 553.299 450.603C553.667 452.566 554.004 454.528 554.311 456.522C554.28 456.583 554.28 456.675 554.28 456.767C554.28 456.829 554.341 456.859 554.341 456.89C554.617 458.853 554.893 460.815 555.077 462.809L555.046 462.809C555.016 462.87 555.016 462.962 555.016 463.054C555.046 463.115 555.077 463.177 555.108 463.238C555.322 465.201 555.445 467.163 555.567 469.126L555.537 469.126C555.537 469.187 555.506 469.279 555.506 469.341C555.506 469.402 555.567 469.433 555.567 469.494C555.69 471.487 555.751 473.481 555.813 475.474C555.782 475.535 555.782 475.597 555.782 475.658C555.782 475.689 555.813 475.719 555.813 475.75C555.874 477.774 555.874 479.798 555.843 481.822C555.843 481.883 555.813 481.945 555.813 482.006C555.813 482.037 555.843 482.037 555.843 482.067C555.813 484.092 555.751 486.116 555.659 488.17C555.659 488.17 555.659 488.17 555.659 488.201C555.629 488.232 555.629 488.293 555.629 488.354C555.629 488.385 555.659 488.385 555.659 488.416C555.567 490.44 555.445 492.464 555.23 494.488C555.2 494.518 555.2 494.518 555.169 494.549C555.169 494.58 555.169 494.61 555.138 494.672C555.138 494.702 555.169 494.733 555.169 494.764C554.985 496.788 554.74 498.812 554.433 500.866C554.433 500.866 554.433 500.866 554.433 500.897C554.433 500.928 554.403 500.958 554.403 500.989C554.403 501.02 554.433 501.02 554.433 501.05C553.636 507.429 552.318 513.931 550.633 520.401ZM536.319 402.579L480.289 432.908C479.86 432.264 479.216 431.743 478.419 431.498C477.622 431.252 476.825 431.375 476.09 431.651C464.933 412.76 447.308 397.733 425.117 390.25C425.27 389.33 425.056 388.472 424.596 387.736L487.676 353.603C488.35 354.431 489.178 355.137 490.281 355.443C492.335 356.057 494.388 355.382 495.768 353.941C495.982 354.125 496.227 354.278 496.472 354.462C496.503 354.493 496.472 354.554 496.503 354.585C496.564 354.646 496.626 354.615 496.687 354.646C498.25 355.934 499.783 357.253 501.315 358.602C501.346 358.633 501.315 358.663 501.346 358.663C501.377 358.694 501.438 358.694 501.469 358.694C503.001 360.043 504.503 361.454 506.005 362.865C506.005 362.895 506.005 362.895 506.005 362.926C506.036 362.957 506.066 362.926 506.066 362.957C507.568 364.398 509.039 365.839 510.48 367.342C510.48 367.342 510.48 367.342 510.48 367.373L510.511 367.373C511.951 368.875 513.392 370.378 514.771 371.942C514.802 371.973 514.771 371.973 514.802 372.003C514.832 372.034 514.863 372.034 514.863 372.034C516.212 373.567 517.591 375.101 518.909 376.665C518.94 376.696 518.909 376.757 518.94 376.788C518.97 376.818 519.001 376.818 519.062 376.849C525.499 384.761 531.322 393.348 536.319 402.579ZM329.18 412.024C321.64 419.353 315.326 428.032 310.514 437.784C309.839 437.478 309.196 437.171 308.491 436.956C304.383 435.73 300.184 436.251 296.629 438.06L281.61 410.276C292.276 404.633 305.058 402.977 317.471 406.688C321.64 407.945 325.563 409.785 329.18 412.024ZM265.794 383.596L277.656 405.553C269.135 410.307 261.932 417.391 256.997 426.192C259.265 415.06 260.001 403.897 259.357 392.949C261.411 389.79 263.526 386.632 265.794 383.596ZM439.676 561.28L408.811 504.209C414.757 500.866 419.508 495.377 421.807 488.446L478.94 505.466C478.542 508.104 479.89 510.618 482.281 511.753C474.281 533.557 458.833 550.762 439.676 561.28ZM485.653 500.437C482.863 500.069 480.166 501.602 479.185 504.27L422.175 487.281C424.167 480.197 423.278 472.929 420.182 466.826L474.925 437.202C475.354 437.631 475.814 438.03 476.457 438.214C477.101 438.398 477.714 438.336 478.296 438.183C487.614 456.921 490.649 478.755 485.653 500.437ZM420.765 393.041C422.359 393.532 423.953 392.765 424.749 391.385C446.665 398.776 464.105 413.649 475.109 432.326C474.802 432.602 474.557 432.939 474.373 433.307L453.531 427.081C453.714 425.425 452.764 423.831 451.109 423.34C449.27 422.788 447.308 423.831 446.757 425.701C446.205 427.572 447.278 429.504 449.117 430.056C450.772 430.547 452.458 429.719 453.193 428.247L474.067 434.472C474.005 435.086 474.067 435.668 474.281 436.19L419.661 465.753C416.198 459.558 410.435 454.651 403.11 452.474C388.275 448.058 372.674 456.43 368.076 471.15L355.478 467.409C359.371 453.946 357.931 439.778 351.402 427.388L418.558 391.017C418.956 391.937 419.692 392.734 420.765 393.041ZM388.551 503.32L393.148 487.833C397.194 488.722 401.271 486.576 402.803 482.773L418.251 487.373C414.144 499.701 401.118 506.724 388.551 503.32ZM371.509 472.193C375.524 459.374 389.102 452.106 402.006 455.939C408.382 457.84 413.347 462.103 416.382 467.47L402.19 475.137C401.118 473.389 399.462 472.039 397.378 471.395C392.995 470.077 388.428 472.499 386.926 476.762L371.509 472.193ZM416.964 468.543C419.631 473.849 420.397 480.105 418.681 486.238L403.202 481.638C403.662 479.767 403.478 477.897 402.773 476.241L416.964 468.543ZM387.386 502.952C375.003 498.934 367.953 485.932 371.233 473.327L386.681 477.927C385.915 481.976 388.122 485.993 392.014 487.465L387.386 502.952ZM346.038 430.271C351.8 441.25 353.057 453.762 349.624 465.661L319.372 456.645C320.445 452.719 319.954 448.732 318.268 445.298L346.038 430.271ZM438.604 561.832C418.681 572.413 394.957 575.725 371.662 569.683C371.754 568.303 371.018 567.046 369.792 566.402L387.539 506.816C394.558 508.748 401.7 507.828 407.769 504.761L438.604 561.832ZM365.256 567.751C335.678 557.754 314.192 534.171 305.793 506.049C327.923 505.221 348.092 490.716 355.08 468.513L367.708 472.285C363.846 486.79 372.061 501.848 386.344 506.448L368.597 566.034C367.248 565.881 365.93 566.555 365.256 567.751ZM304.23 500.1C301.901 489.888 301.318 479.215 302.636 468.482C309.778 469.034 316.521 464.741 319.004 457.81L349.287 466.857C342.912 486.913 324.337 499.916 304.23 500.1ZM330.253 412.668C336.506 416.808 341.716 422.451 345.486 429.197L317.686 444.224C316.245 441.771 314.192 439.686 311.617 438.275C316.399 428.584 322.713 419.967 330.253 412.668ZM334.85 408.528C357.256 389.576 388.122 381.602 418.343 389.453C418.343 389.545 418.313 389.668 418.313 389.76L350.789 426.315C346.804 419.139 341.348 413.128 334.85 408.528ZM290.836 498.26L299.847 467.961C300.368 468.083 300.889 468.175 301.41 468.267C300.092 479.062 300.644 489.796 302.943 500.069C298.928 499.977 294.882 499.394 290.836 498.26ZM289.671 497.892C277.717 494.181 267.878 486.116 261.932 475.075C255.863 463.882 254.545 451.002 258.162 438.766C261.84 426.437 270.116 416.716 280.506 410.859L295.525 438.643C292.215 440.636 289.61 443.764 288.384 447.782C285.932 456.092 290.499 464.833 298.652 467.593L289.671 497.892ZM259.204 390.986C259.081 389.453 258.959 387.889 258.806 386.356L261.196 388.012C260.522 388.962 259.848 389.974 259.204 390.986ZM258.591 384.7C258.285 382.185 257.886 379.67 257.426 377.186L264.874 382.768C263.832 384.148 262.882 385.558 261.901 386.969L258.591 384.7ZM257.089 375.469C256.507 372.494 255.802 369.519 255.005 366.575L257.794 368.845L264.292 380.866L257.089 375.469ZM268.798 377.769C267.848 378.965 266.897 380.161 265.947 381.388L260.246 370.838L268.798 377.769ZM487.185 347.562C487.001 347.93 486.725 348.237 486.603 348.666C486.204 350.046 486.388 351.426 486.971 352.622L423.738 386.846C423.615 386.754 423.431 386.693 423.309 386.601L433.056 353.879C433.148 353.573 432.964 353.235 432.657 353.113C432.351 353.021 432.014 353.205 431.891 353.511L422.144 386.233C420.642 386.049 419.232 386.877 418.619 388.257C387.938 380.284 356.551 388.472 333.839 407.792C329.395 404.817 324.46 402.456 319.188 400.892C305.15 396.721 290.744 398.561 278.698 404.971L266.591 382.522C305.947 330.511 374.85 305.548 440.933 325.236C451.109 328.272 460.856 332.259 470.082 337.074C470.113 337.104 470.113 337.135 470.143 337.135C470.174 337.135 470.205 337.135 470.235 337.135C472.074 338.116 473.852 339.128 475.661 340.171L475.691 340.202C475.691 340.202 475.691 340.202 475.722 340.202C477.53 341.244 479.308 342.348 481.086 343.452C481.086 343.452 481.086 343.452 481.086 343.483C481.086 343.483 481.086 343.483 481.116 343.483C482.894 344.587 484.611 345.752 486.358 346.918C486.388 346.918 486.358 346.949 486.388 346.979C486.419 346.979 486.45 346.979 486.45 347.01C486.664 347.194 486.94 347.378 487.185 347.562ZM496.81 353.205C496.687 353.113 496.564 353.021 496.442 352.929C496.656 352.561 496.932 352.193 497.085 351.763C497.392 350.659 497.269 349.586 496.963 348.574L503.4 345.078L496.81 353.205ZM263.74 589.218L270.606 583.514C271.71 584.833 272.813 586.121 273.947 587.409L260.737 599.308L263.74 589.218ZM264.353 587.133L265.58 583.023C267.02 583.33 268.43 583.023 269.595 582.287C269.656 582.379 269.748 582.502 269.84 582.594L264.353 587.133ZM264.047 572.965C244.553 545.548 233.733 512.275 234.101 477.774C240.63 468.973 246.086 459.221 250.285 448.671C249.58 458.761 251.664 468.85 256.599 477.958C263.342 490.409 274.438 499.517 287.924 503.688L267.449 572.413C266.254 572.259 265.058 572.413 264.047 572.965ZM216.048 497.493C218.316 495.469 220.523 493.384 222.638 491.206L233.273 490.532C233.396 492.249 233.549 493.966 233.703 495.684L216.048 497.493ZM81.9502 519.911C81.8276 517.887 80.5708 516.139 78.6399 515.311L85.5056 492.218C88.1109 492.678 90.6244 491.268 91.5439 488.784C115.145 494.396 139.053 490.777 159.098 479.921L163.298 487.68C162.746 488.109 162.286 488.661 162.072 489.366C161.52 491.237 162.593 493.169 164.432 493.721C166.301 494.273 168.232 493.23 168.784 491.36C169.336 489.52 168.294 487.557 166.424 487.005C165.719 486.79 165.014 486.882 164.34 487.097L160.11 479.307C178.96 468.789 194.286 451.952 202.623 430.7C202.929 430.731 203.236 430.516 203.297 430.271C204.124 427.112 205.013 424.015 205.933 420.979C205.964 420.887 205.933 420.764 205.902 420.672C206.699 417.697 207.373 414.723 207.864 411.748C207.895 411.963 208.017 412.147 208.232 412.208C208.538 412.331 208.875 412.147 208.998 411.84C210.071 408.835 211.266 405.829 212.523 402.854C212.523 402.824 212.554 402.824 212.554 402.793C212.645 402.487 212.492 402.18 212.216 402.057C211.91 401.935 211.542 402.088 211.419 402.364C210.193 405.277 209.029 408.252 207.956 411.196C211.266 390.956 207.895 370.838 199.22 353.358C200.079 352.929 200.784 352.223 201.09 351.211C201.305 350.475 201.213 349.77 200.998 349.095L236.645 329.775L248.967 352.561C250.377 356.057 251.633 359.583 252.737 363.202C252.492 363.018 252.124 363.049 251.909 363.294C251.848 363.355 251.817 363.417 251.787 363.509C251.725 363.723 251.787 363.999 251.971 364.153L253.289 365.226C254.147 368.262 254.944 371.298 255.587 374.396L248.292 368.906C248.017 368.722 247.649 368.753 247.465 369.029C247.404 369.09 247.404 369.151 247.373 369.213C247.312 369.458 247.373 369.703 247.587 369.857L255.955 376.113C256.446 378.628 256.875 381.204 257.212 383.749L244.124 374.702C243.848 374.518 243.48 374.58 243.296 374.856C243.266 374.917 243.235 374.978 243.235 375.04C243.174 375.285 243.235 375.561 243.45 375.714L257.457 385.374C257.733 387.613 257.947 389.852 258.101 392.09L240.139 380.682C239.863 380.498 239.465 380.59 239.312 380.866C239.281 380.928 239.25 380.958 239.25 381.02C239.189 381.265 239.281 381.541 239.496 381.725L257.733 393.286C256.813 394.728 255.924 396.2 255.036 397.702L236.4 386.877C236.124 386.724 235.726 386.816 235.572 387.092C235.542 387.122 235.542 387.184 235.511 387.214C235.45 387.49 235.542 387.766 235.787 387.92L254.453 398.745C253.595 400.248 252.737 401.72 251.909 403.223L232.875 393.164C232.568 393.01 232.201 393.133 232.047 393.409C232.017 393.44 232.017 393.47 231.986 393.532C231.925 393.808 232.047 394.114 232.293 394.237L251.357 404.327C250.561 405.829 249.794 407.393 249.028 408.927L229.595 399.604C229.289 399.45 228.952 399.573 228.798 399.88C228.768 399.91 228.768 399.941 228.737 399.972C228.645 400.248 228.798 400.554 229.074 400.677L248.476 409.969C247.741 411.503 247.066 413.097 246.392 414.692L226.561 406.136C226.254 406.013 225.917 406.136 225.764 406.443C225.733 406.473 225.733 406.473 225.733 406.504C225.641 406.78 225.795 407.117 226.071 407.24L245.871 415.796C245.197 417.36 244.584 418.985 243.94 420.58L223.772 412.791C223.465 412.668 223.097 412.821 223.005 413.128C223.005 413.128 223.005 413.159 222.975 413.189C222.883 413.496 223.036 413.803 223.343 413.925L243.511 421.715C242.898 423.309 242.285 424.935 241.733 426.56L221.32 419.599C221.013 419.476 220.645 419.66 220.553 419.967C220.553 419.967 220.553 419.967 220.553 419.997C220.461 420.304 220.615 420.641 220.952 420.733L241.396 427.695C240.844 429.32 240.323 430.946 239.802 432.602L219.143 426.437C218.837 426.345 218.469 426.529 218.377 426.836C218.285 427.143 218.469 427.511 218.776 427.603L239.434 433.767C238.944 435.423 238.515 437.079 238.086 438.735L217.151 433.399C216.845 433.307 216.507 433.491 216.416 433.828L216.385 433.828C216.324 434.166 216.507 434.472 216.845 434.564L237.748 439.9C237.319 441.587 236.952 443.243 236.584 444.93L215.465 440.391C215.159 440.33 214.852 440.514 214.76 440.82C214.76 440.82 214.76 440.851 214.76 440.882C214.699 441.188 214.883 441.526 215.22 441.587L236.339 446.126C236.001 447.812 235.634 449.499 235.358 451.186L214.086 447.506C213.78 447.444 213.504 447.628 213.412 447.935C213.412 447.966 213.412 447.996 213.381 447.996C213.32 448.303 213.565 448.64 213.871 448.702L235.174 452.412C234.867 454.099 234.561 455.817 234.346 457.503L213.013 454.651C212.707 454.62 212.431 454.804 212.339 455.08C212.339 455.111 212.308 455.142 212.308 455.172C212.247 455.51 212.492 455.817 212.829 455.847L234.193 458.699C233.978 460.417 233.795 462.134 233.611 463.821L212.155 461.797C211.848 461.766 211.603 461.95 211.511 462.226C211.511 462.257 211.481 462.287 211.481 462.349C211.45 462.686 211.695 462.993 212.032 462.993L233.488 465.017C233.335 466.734 233.243 468.451 233.151 470.169L211.603 469.003C211.327 468.973 211.052 469.187 210.99 469.433C210.96 469.494 210.96 469.525 210.96 469.555C210.929 469.893 211.174 470.169 211.511 470.199L233.059 471.365C232.967 473.082 232.906 474.799 232.875 476.517L211.297 476.21C211.021 476.21 210.776 476.394 210.714 476.639C210.684 476.701 210.684 476.762 210.684 476.793C210.684 477.13 210.96 477.406 211.266 477.406L232.538 477.713C231.189 479.522 229.779 481.27 228.339 482.987L211.327 483.386C211.052 483.386 210.837 483.57 210.745 483.815C210.745 483.877 210.714 483.938 210.714 483.999C210.714 484.337 210.99 484.613 211.327 484.582L227.235 484.214C225.549 486.177 223.802 488.078 221.994 489.918L211.573 490.593C211.297 490.624 211.113 490.777 211.021 491.022C210.99 491.084 210.99 491.145 210.99 491.237C211.021 491.574 211.297 491.82 211.634 491.82L220.737 491.237C218.53 493.445 216.201 495.561 213.841 497.616L212.124 497.8C211.879 497.83 211.665 498.014 211.603 498.229C211.573 498.29 211.573 498.382 211.573 498.474C211.603 498.812 211.879 499.026 212.216 499.026C202.807 506.877 192.324 513.348 181.136 518.255L175.834 508.441C175.681 508.134 175.282 508.042 175.006 508.196C174.853 508.288 174.761 508.41 174.7 508.564C174.638 508.717 174.669 508.87 174.761 509.024L180.033 518.776C153.397 530.153 122.838 532.668 92.9845 523.775C89.2757 522.671 85.5669 521.352 81.9502 519.911ZM158.547 478.847C138.716 489.55 115.114 493.138 91.789 487.588C92.0956 485.196 90.8082 482.926 88.5707 481.975L111.896 403.713C112.019 403.775 112.172 403.836 112.295 403.897C114.011 404.388 115.727 404.296 117.291 403.775L143.221 451.768C143.374 452.044 143.742 452.167 144.049 452.014C144.355 451.86 144.447 451.492 144.294 451.186L118.425 403.315C120.08 402.456 121.428 401.014 122.164 399.174L142.056 405.093C142.363 405.185 142.7 405.001 142.823 404.695C142.915 404.388 142.731 404.02 142.424 403.928L122.593 398.009C123.114 395.924 122.777 393.808 121.796 392.029L195.113 352.346C195.542 352.898 196.094 353.358 196.799 353.573C197.228 353.695 197.688 353.726 198.117 353.695C208.385 374.304 211.266 398.653 204.278 422.389C204.247 422.512 204.216 422.604 204.186 422.696C204.155 422.788 204.155 422.88 204.124 422.972C196.768 447.414 180.339 466.673 159.619 478.234L151.681 463.545C151.528 463.238 151.16 463.146 150.853 463.299C150.7 463.391 150.608 463.514 150.547 463.667C150.486 463.821 150.516 463.974 150.608 464.127L158.547 478.847ZM81.6437 484.552C34.8704 467.715 8.69457 416.961 23.0698 368.722C37.4451 320.483 87.0995 292.33 135.467 303.861C135.16 306.253 136.447 308.523 138.685 309.504L115.36 387.889C111.773 387.582 108.341 389.698 107.053 393.133L53.9659 377.309C53.6594 377.217 53.3223 377.401 53.1996 377.708C53.1077 378.014 53.2916 378.352 53.5981 378.444L106.685 394.268C105.888 397.856 107.605 401.505 110.762 403.223L87.4366 481.607C85.0152 481.178 82.6858 482.374 81.6437 484.552ZM145.581 306.867C167.068 314.595 184.201 329.468 195.021 348.022C194.745 348.359 194.531 348.727 194.408 349.187C194.194 349.893 194.286 350.598 194.5 351.242L121.091 390.986C120.08 389.698 118.67 388.656 116.984 388.165C116.831 388.104 116.708 388.104 116.555 388.073L139.85 309.811C142.21 310.24 144.539 309.044 145.581 306.867ZM149.382 273.44L141.719 299.231C139.145 298.771 136.601 300.181 135.681 302.665C86.701 291.012 36.4336 319.532 21.9051 368.354C7.37657 417.207 33.8589 468.574 81.1839 485.656C80.6015 488.232 81.9501 490.808 84.3716 491.85L77.5058 514.943C75.9426 514.667 74.41 515.096 73.2453 516.016C17.8898 488.906 -11.5656 424.843 6.61034 363.815C25.1235 301.531 86.9156 263.749 149.382 273.44ZM235.174 327.015L236.093 328.732L200.416 348.022C199.987 347.501 199.466 347.041 198.73 346.826C197.749 346.519 196.768 346.734 195.941 347.224C184.968 328.548 167.681 313.552 146.01 305.763C146.593 303.187 145.244 300.611 142.853 299.599L150.577 273.654C155.88 274.544 161.213 275.709 166.485 277.273C195.481 285.89 219.113 303.923 235.174 327.015Z" fill="#EFEDED"/>
<path d="M457.269 595.996C457.33 595.842 457.422 595.72 457.575 595.628C457.882 595.474 458.249 595.566 458.403 595.873L465.544 609.06C465.698 609.336 465.606 609.734 465.299 609.888C464.993 610.041 464.625 609.949 464.472 609.642L457.33 596.456C457.238 596.333 457.238 596.149 457.269 595.996Z" fill="#EFEDED"/>
<path d="M435.784 342.532C435.477 342.44 435.293 342.102 435.385 341.765L438.45 331.43C438.542 331.124 438.879 330.94 439.216 331.032C439.523 331.124 439.707 331.461 439.615 331.798L436.55 342.133C436.458 342.44 436.121 342.624 435.784 342.532Z" fill="#EFEDED"/>
<path d="M360.72 596.792L357.44 607.802C357.348 608.109 357.011 608.293 356.704 608.201C356.398 608.109 356.183 607.771 356.275 607.434L359.555 596.424C359.647 596.118 359.984 595.934 360.29 596.026C360.628 596.118 360.812 596.455 360.72 596.792Z" fill="#EFEDED"/>
<path d="M239.343 852.034C240.079 846.483 245.136 842.619 250.654 843.386C256.11 844.122 259.972 849.182 259.267 854.641C258.531 860.161 253.504 864.025 248.018 863.289C242.47 862.553 238.639 857.524 239.343 852.034Z" fill="#EFEDED"/>
<path d="M302.636 857.033C302.483 851.452 306.896 846.852 312.444 846.729C317.931 846.606 322.559 850.992 322.712 856.512C322.835 862.063 318.482 866.663 312.935 866.816C307.356 866.939 302.759 862.553 302.636 857.033Z" fill="#EFEDED"/>
<path d="M365.93 852.065C364.919 846.576 368.535 841.332 373.991 840.32C379.416 839.369 384.658 842.957 385.7 848.385C386.681 853.844 383.094 859.088 377.639 860.1C372.122 861.112 366.911 857.493 365.93 852.065Z" fill="#EFEDED"/>
<path d="M427.63 837.253C425.76 831.978 428.519 826.243 433.76 824.403C438.94 822.625 444.702 825.354 446.572 830.567C448.411 835.812 445.683 841.546 440.442 843.386C435.201 845.196 429.469 842.436 427.63 837.253Z" fill="#EFEDED"/>
<path d="M490.343 799.318C495.216 796.742 501.285 798.551 503.952 803.397C506.557 808.304 504.779 814.376 499.906 817.013C495.002 819.65 488.933 817.841 486.297 812.996C483.63 808.058 485.439 801.925 490.343 799.318Z" fill="#EFEDED"/>
<path d="M542.266 765.676C546.679 762.364 552.963 763.192 556.365 767.547C559.706 771.963 558.909 778.249 554.495 781.653C550.082 784.996 543.768 784.168 540.427 779.783C537.024 775.336 537.852 769.018 542.266 765.676Z" fill="#EFEDED"/>
<path d="M588.333 724.306C592.164 720.35 598.509 720.197 602.524 723.969C606.54 727.802 606.723 734.15 602.892 738.198C599.03 742.216 592.685 742.369 588.67 738.566C584.624 734.702 584.471 728.323 588.333 724.306Z" fill="#EFEDED"/>
<path d="M627.322 676.251C630.509 671.713 636.762 670.578 641.299 673.706C645.896 676.865 647.03 683.09 643.904 687.69C640.716 692.229 634.463 693.394 629.927 690.266C625.329 687.107 624.165 680.821 627.322 676.251Z" fill="#EFEDED"/>
<path d="M658.34 622.676C660.761 617.738 666.738 615.622 671.734 617.983C676.761 620.406 678.876 626.356 676.485 631.385C674.033 636.353 668.056 638.469 663.091 636.138C658.033 633.685 655.949 627.674 658.34 622.676Z" fill="#EFEDED"/>
<path d="M388.152 174.047C386.282 173.495 384.351 174.569 383.8 176.409C383.309 178.065 384.137 179.752 385.608 180.488L384.75 183.37C384.504 183.309 384.29 183.186 384.045 183.125C360.995 176.255 336.781 188.522 328.352 210.664C326.85 210.419 325.41 211.155 324.735 212.504L309.165 207.873C309.349 206.217 308.398 204.623 306.743 204.132C304.904 203.58 302.943 204.623 302.391 206.493C301.839 208.333 302.881 210.296 304.72 210.848C306.375 211.339 308.061 210.511 308.797 209.039L324.367 213.669C324.184 215.172 324.981 216.583 326.39 217.196C321.333 240.319 334.911 263.871 357.961 270.741C381.01 277.61 405.224 265.343 413.653 243.202C415.155 243.447 416.596 242.711 417.27 241.362L432.841 245.992C432.657 247.648 433.607 249.243 435.262 249.734C437.132 250.316 439.063 249.243 439.615 247.372C440.166 245.532 439.094 243.57 437.255 243.018C435.599 242.527 433.944 243.355 433.178 244.858L417.607 240.196C417.791 238.694 416.994 237.283 415.584 236.67C417.883 226.181 416.32 215.663 411.814 206.585L422.481 200.789C422.91 201.341 423.462 201.801 424.167 202.016C426.036 202.568 427.967 201.525 428.519 199.654C429.071 197.814 428.029 195.852 426.159 195.3C424.32 194.748 422.358 195.79 421.807 197.661C421.592 198.366 421.684 199.102 421.899 199.746L411.263 205.512C406.021 195.606 397.133 187.694 385.853 183.769L386.711 180.825C388.366 181.009 389.96 180.058 390.451 178.402C391.064 176.531 389.991 174.599 388.152 174.047ZM410.251 206.064L378.466 223.299C377.761 221.857 376.627 220.6 375.187 219.772L385.516 184.934C396.52 188.737 405.133 196.465 410.251 206.064ZM410.772 207.168C415.155 215.969 416.657 226.212 414.42 236.363C413.04 236.271 411.753 237.007 411.14 238.234L379.079 228.665C379.386 227.193 379.355 225.721 378.926 224.372L410.772 207.168ZM327.555 217.472C328.934 217.564 330.222 216.828 330.835 215.571L362.896 225.139C361.945 229.371 364.367 233.634 368.597 234.891C372.796 236.148 377.179 233.91 378.681 229.861L410.742 239.43C410.588 240.81 411.263 242.128 412.458 242.803C404.244 264.331 380.673 276.261 358.237 269.575C335.862 262.89 322.651 239.982 327.555 217.472ZM384.382 184.536L374.053 219.251C373.838 219.159 373.623 219.036 373.348 218.975C369.148 217.717 364.765 219.987 363.233 224.004L331.172 214.436C331.325 213.056 330.682 211.768 329.456 211.063C337.67 189.534 361.24 177.605 383.677 184.29C383.922 184.352 384.137 184.444 384.382 184.536Z" fill="#EFEDED"/>
<path d="M252.339 7.03486C251.542 9.73356 248.845 11.2669 246.147 10.7762L239.557 32.8872C244.4 34.6659 247.098 39.9099 245.626 44.9087C244.124 49.9381 239.006 52.8208 233.979 51.6554L226.899 75.453C226.807 75.7597 226.469 75.9437 226.163 75.8517C225.856 75.7597 225.673 75.4224 225.734 75.085L232.814 51.2874C227.971 49.5087 225.243 44.2647 226.745 39.2353C228.247 34.2365 233.366 31.3232 238.423 32.4885L244.983 10.4389C242.469 9.36556 241.059 6.60552 241.856 3.90682C242.714 1.02412 245.779 -0.631901 248.661 0.226776C251.542 1.08545 253.197 4.15216 252.339 7.03486Z" fill="#EFEDED"/>
</svg>
