<svg width="232" height="274" viewBox="0 0 232 274" fill="none" xmlns="http://www.w3.org/2000/svg">
<g opacity="0.6" clip-path="url(#clip0)">
<path d="M195.882 133.388C192.919 133.311 190.542 135.418 189.924 138.197L184.598 138.045C184.282 117.547 176.106 98.8286 162.802 84.9688L177.884 70.6907C178.841 71.4145 179.96 71.9313 181.211 71.9229C184.506 72.02 187.297 69.4209 187.382 66.0766C187.466 62.7324 184.88 59.9948 181.585 59.8977C178.239 59.8142 175.499 62.3997 175.414 65.744C175.371 67.0078 175.837 68.1354 176.492 69.1578L161.36 83.4494C148.99 71.2451 132.641 63.1019 114.38 61.2429C114.12 58.6446 112.26 56.5837 109.723 56.0654L110.485 28.1999C113.312 27.7691 115.533 25.4859 115.625 22.5753C115.71 19.231 113.11 16.4427 109.778 16.41C106.482 16.3128 103.691 18.912 103.607 22.2562C103.515 25.1668 105.585 27.6069 108.403 28.1587L107.642 56.0242C105.083 56.4376 103.098 58.3852 102.694 60.9438C62.1158 62.8321 29.1026 95.8001 27.9518 137.056C26.7501 178.326 57.8532 213.063 98.2884 217.148C98.5487 219.747 100.409 221.808 102.996 222.312L102.184 250.192C99.3569 250.622 97.1353 252.906 97.057 255.867C96.9587 259.16 99.6092 261.935 102.905 262.032C106.264 262.167 108.991 259.53 109.089 256.237C109.167 253.275 107.097 250.835 104.279 250.284L105.04 222.418C107.599 222.005 109.584 220.057 109.988 217.498C150.566 215.61 183.579 182.642 184.73 141.386C184.723 140.952 184.665 140.532 184.722 140.136L189.882 140.278C190.312 143.103 192.596 145.323 195.559 145.4C198.905 145.483 201.645 142.898 201.73 139.554C201.815 136.209 199.229 133.472 195.882 133.388ZM182.618 137.977L120.251 136.229C119.669 133.445 118.235 130.943 116.236 128.974L161.37 86.3328C174.31 99.8543 182.286 118.028 182.618 137.977ZM114.682 127.648C112.718 126.214 110.368 125.373 107.784 125.085L109.356 67.7077C111.712 67.3487 113.598 65.6453 114.186 63.3642C131.949 65.1933 147.846 73.0763 159.853 84.9423L114.682 127.648ZM29.9825 137.111C31.1142 97.0036 63.2232 64.9313 102.716 63.0614C103.177 65.3884 104.968 67.1953 107.325 67.6529L105.703 125.044C98.265 125.349 92.2875 131.307 92.0681 138.826C91.8623 146.395 97.5065 152.615 104.898 153.357L103.326 210.735C100.971 211.094 99.084 212.797 98.4964 215.078C59.1089 211.039 28.8645 177.269 29.9825 137.111ZM182.7 141.331C181.581 181.489 149.473 213.562 109.979 215.432C109.468 213.118 107.727 211.298 105.422 210.827L106.979 153.398C114.403 153.042 120.395 147.135 120.614 139.617C120.607 139.183 120.549 138.763 120.541 138.329L182.678 140.03C182.634 140.477 182.692 140.898 182.7 141.331Z" fill="#0BB9F6"/>
</g>
<defs>
<clipPath id="clip0">
<rect width="236" height="176" fill="white" transform="translate(61.0811 273.511) rotate(-105)"/>
</clipPath>
</defs>
</svg>
