<svg width="109" height="102" viewBox="0 0 109 102" fill="none" xmlns="http://www.w3.org/2000/svg">
<mask id="path-1-outside-1" maskUnits="userSpaceOnUse" x="0" y="0" width="109" height="102" fill="black">
<rect fill="white" width="109" height="102"/>
<path fill-rule="evenodd" clip-rule="evenodd" d="M34.2583 46.9356C33.2759 48.1145 32.7348 49.6091 32.7348 51.1438V56.0107C32.7348 56.5662 33.0298 57.08 33.5095 57.3603C33.7528 57.5024 34.0252 57.5734 34.2975 57.5734C34.5623 57.5734 34.8272 57.5063 35.0655 57.3717L46.1941 51.0924C46.6181 51.8666 47.0677 52.6284 47.5426 53.3762L46.1437 58.9722C46.0268 59.4391 46.1318 59.9335 46.4279 60.313C46.7239 60.6924 47.1784 60.9141 47.6597 60.9141H61.0217C61.503 60.9141 61.9572 60.6924 62.2535 60.313C62.5496 59.9337 62.6546 59.4391 62.5377 58.9722L61.1388 53.3762C61.6136 52.6284 62.0633 51.8668 62.4873 51.0924L73.6158 57.3717C73.8544 57.5063 74.119 57.5734 74.3839 57.5734C74.6562 57.5734 74.9285 57.5022 75.1719 57.3603C75.6515 57.0802 75.9466 56.5664 75.9466 56.0107V51.1438C75.9466 49.6091 75.4055 48.1145 74.423 46.9356L67.0046 38.0363C67.3952 35.7149 67.5953 33.3481 67.5953 30.957C67.5953 25.2581 66.492 19.7495 64.3161 14.5844C62.2175 9.60291 59.2302 5.18358 55.4372 1.44912C54.829 0.850293 53.8528 0.850293 53.2446 1.44912C49.4516 5.18337 46.4643 9.6027 44.3657 14.5844C42.1898 19.7497 41.0865 25.2581 41.0865 30.957C41.0865 33.3444 41.2859 35.7076 41.6754 38.0254L34.2583 46.9356ZM35.8602 53.3345V51.1438C35.8602 50.3387 36.144 49.5549 36.6593 48.9365L42.5167 41.9076C43.102 44.0971 43.8627 46.2323 44.7954 48.293L35.8602 53.3345ZM49.661 57.7885L50.5499 54.233H58.1311L59.02 57.7885H49.661ZM72.0215 48.9365C72.5367 49.5549 72.8205 50.3387 72.8205 51.1438V53.3345L63.8854 48.2928C64.8178 46.2321 65.5787 44.0971 66.164 41.9074L72.0215 48.9365ZM54.3404 4.80415C56.9647 7.62515 59.1291 10.8597 60.7741 14.3621H47.9066C49.5516 10.8597 51.7161 7.62515 54.3404 4.80415ZM46.6043 17.4873H62.0762C63.6387 21.7472 64.4692 26.3143 64.4692 30.9568C64.4692 38.1427 62.536 45.0905 58.8701 51.1074H49.8104C46.1445 45.0905 44.2113 38.1427 44.2113 30.9568C44.2113 26.3143 45.0421 21.7474 46.6043 17.4873ZM106.118 91.1935H99.3295V34.2976C99.3295 30.673 96.3808 27.7242 92.7561 27.7242H72.7139C71.8509 27.7242 71.1512 28.4239 71.1512 29.287C71.1512 30.15 71.8509 30.8497 72.7139 30.8497H92.7561C94.6574 30.8497 96.2041 32.3965 96.2041 34.2976V91.1937H90.8552C90.9359 90.6036 90.9782 90.0098 90.9782 89.416C90.9782 82.1075 85.0322 76.1615 77.7237 76.1615C76.7411 76.1615 75.7599 76.2738 74.7927 76.4961C73.1066 73.2474 69.7481 71.1506 66.0322 71.1506C64.8199 71.1506 63.6425 71.3717 62.534 71.8011C62.0787 67.6831 58.5778 64.4695 54.3404 64.4695C50.103 64.4695 46.6021 67.6831 46.1468 71.8011C45.0383 71.3717 43.8609 71.1506 42.6486 71.1506C38.9327 71.1506 35.574 73.2474 33.8881 76.4961C32.9207 76.2736 31.9397 76.1615 30.9571 76.1615C23.6484 76.1615 17.7026 82.1075 17.7026 89.416C17.7026 90.01 17.7449 90.6036 17.8256 91.1937H12.4767V34.2976C12.4767 32.3963 14.0234 30.8497 15.9247 30.8497H35.9676C36.8306 30.8497 37.5303 30.15 37.5303 29.287C37.5303 28.4239 36.8306 27.7242 35.9676 27.7242H15.9247C12.3 27.7242 9.35132 30.6732 9.35132 34.2976V91.1937H2.56271C1.69968 91.1937 1 91.8934 1 92.7564V96.0969C1 98.8005 3.19967 101 5.90315 101H102.778C105.481 101 107.681 98.8003 107.681 96.0969V92.7564C107.681 91.8932 106.981 91.1935 106.118 91.1935ZM104.555 96.0969C104.555 97.0772 103.758 97.8746 102.778 97.8746H5.90315C4.92281 97.8746 4.12541 97.077 4.12541 96.0969V94.3191H24.2754C25.1384 94.3191 25.8381 93.6194 25.8381 92.7564C25.8381 91.8934 25.1384 91.1937 24.2754 91.1937H20.9879C20.8818 90.6047 20.8278 90.01 20.8278 89.416C20.8278 83.8308 25.3718 79.2869 30.9569 79.2869C32.0693 79.2869 33.1832 79.4774 34.2677 79.8528C34.6605 79.9889 35.091 79.9628 35.4646 79.7807C35.838 79.5984 36.1234 79.275 36.258 78.8819C37.2 76.1271 39.7683 74.2763 42.6489 74.2763C44.2284 74.2763 45.7286 74.8353 46.9876 75.8931C47.5191 76.3397 48.2813 76.3822 48.8591 75.9973C49.4368 75.6125 49.6915 74.8928 49.4843 74.2304C49.3056 73.6582 49.2222 73.1763 49.2222 72.7135C49.2222 69.8913 51.5184 67.5954 54.3404 67.5954C57.1624 67.5954 59.4586 69.8915 59.4586 72.7135C59.4586 73.1763 59.3752 73.6582 59.1965 74.2304C58.9894 74.893 59.2442 75.6127 59.8218 75.9973C60.3995 76.382 61.1617 76.3397 61.6933 75.8931C62.9522 74.8355 64.4526 74.2763 66.032 74.2763C68.9125 74.2763 71.4808 76.1271 72.4228 78.8819C72.5574 79.275 72.8429 79.5984 73.2162 79.7807C73.5898 79.963 74.0205 79.9891 74.4131 79.8528C75.4976 79.4774 76.6113 79.2869 77.7239 79.2869C83.3092 79.2869 87.853 83.8308 87.853 89.416C87.853 90.01 87.7988 90.6047 87.693 91.1937H30.9575C30.0945 91.1937 29.3948 91.8934 29.3948 92.7564C29.3948 93.6194 30.0945 94.3191 30.9575 94.3191H104.555V96.0969ZM54.3404 22.7132C57.965 22.7132 60.9137 25.6619 60.9137 29.2865C60.9137 32.9112 57.965 35.8599 54.3404 35.8599C50.7157 35.8599 47.767 32.911 47.767 29.2865C47.767 25.6621 50.7157 22.7132 54.3404 22.7132ZM54.3404 25.8386C52.4391 25.8386 50.8924 27.3852 50.8924 29.2865C50.8924 31.1878 52.4391 32.7345 54.3404 32.7345C56.2417 32.7345 57.7883 31.1876 57.7883 29.2865C57.7883 27.3854 56.2417 25.8386 54.3404 25.8386Z"/>
</mask>
<path fill-rule="evenodd" clip-rule="evenodd" d="M34.2583 46.9356C33.2759 48.1145 32.7348 49.6091 32.7348 51.1438V56.0107C32.7348 56.5662 33.0298 57.08 33.5095 57.3603C33.7528 57.5024 34.0252 57.5734 34.2975 57.5734C34.5623 57.5734 34.8272 57.5063 35.0655 57.3717L46.1941 51.0924C46.6181 51.8666 47.0677 52.6284 47.5426 53.3762L46.1437 58.9722C46.0268 59.4391 46.1318 59.9335 46.4279 60.313C46.7239 60.6924 47.1784 60.9141 47.6597 60.9141H61.0217C61.503 60.9141 61.9572 60.6924 62.2535 60.313C62.5496 59.9337 62.6546 59.4391 62.5377 58.9722L61.1388 53.3762C61.6136 52.6284 62.0633 51.8668 62.4873 51.0924L73.6158 57.3717C73.8544 57.5063 74.119 57.5734 74.3839 57.5734C74.6562 57.5734 74.9285 57.5022 75.1719 57.3603C75.6515 57.0802 75.9466 56.5664 75.9466 56.0107V51.1438C75.9466 49.6091 75.4055 48.1145 74.423 46.9356L67.0046 38.0363C67.3952 35.7149 67.5953 33.3481 67.5953 30.957C67.5953 25.2581 66.492 19.7495 64.3161 14.5844C62.2175 9.60291 59.2302 5.18358 55.4372 1.44912C54.829 0.850293 53.8528 0.850293 53.2446 1.44912C49.4516 5.18337 46.4643 9.6027 44.3657 14.5844C42.1898 19.7497 41.0865 25.2581 41.0865 30.957C41.0865 33.3444 41.2859 35.7076 41.6754 38.0254L34.2583 46.9356ZM35.8602 53.3345V51.1438C35.8602 50.3387 36.144 49.5549 36.6593 48.9365L42.5167 41.9076C43.102 44.0971 43.8627 46.2323 44.7954 48.293L35.8602 53.3345ZM49.661 57.7885L50.5499 54.233H58.1311L59.02 57.7885H49.661ZM72.0215 48.9365C72.5367 49.5549 72.8205 50.3387 72.8205 51.1438V53.3345L63.8854 48.2928C64.8178 46.2321 65.5787 44.0971 66.164 41.9074L72.0215 48.9365ZM54.3404 4.80415C56.9647 7.62515 59.1291 10.8597 60.7741 14.3621H47.9066C49.5516 10.8597 51.7161 7.62515 54.3404 4.80415ZM46.6043 17.4873H62.0762C63.6387 21.7472 64.4692 26.3143 64.4692 30.9568C64.4692 38.1427 62.536 45.0905 58.8701 51.1074H49.8104C46.1445 45.0905 44.2113 38.1427 44.2113 30.9568C44.2113 26.3143 45.0421 21.7474 46.6043 17.4873ZM106.118 91.1935H99.3295V34.2976C99.3295 30.673 96.3808 27.7242 92.7561 27.7242H72.7139C71.8509 27.7242 71.1512 28.4239 71.1512 29.287C71.1512 30.15 71.8509 30.8497 72.7139 30.8497H92.7561C94.6574 30.8497 96.2041 32.3965 96.2041 34.2976V91.1937H90.8552C90.9359 90.6036 90.9782 90.0098 90.9782 89.416C90.9782 82.1075 85.0322 76.1615 77.7237 76.1615C76.7411 76.1615 75.7599 76.2738 74.7927 76.4961C73.1066 73.2474 69.7481 71.1506 66.0322 71.1506C64.8199 71.1506 63.6425 71.3717 62.534 71.8011C62.0787 67.6831 58.5778 64.4695 54.3404 64.4695C50.103 64.4695 46.6021 67.6831 46.1468 71.8011C45.0383 71.3717 43.8609 71.1506 42.6486 71.1506C38.9327 71.1506 35.574 73.2474 33.8881 76.4961C32.9207 76.2736 31.9397 76.1615 30.9571 76.1615C23.6484 76.1615 17.7026 82.1075 17.7026 89.416C17.7026 90.01 17.7449 90.6036 17.8256 91.1937H12.4767V34.2976C12.4767 32.3963 14.0234 30.8497 15.9247 30.8497H35.9676C36.8306 30.8497 37.5303 30.15 37.5303 29.287C37.5303 28.4239 36.8306 27.7242 35.9676 27.7242H15.9247C12.3 27.7242 9.35132 30.6732 9.35132 34.2976V91.1937H2.56271C1.69968 91.1937 1 91.8934 1 92.7564V96.0969C1 98.8005 3.19967 101 5.90315 101H102.778C105.481 101 107.681 98.8003 107.681 96.0969V92.7564C107.681 91.8932 106.981 91.1935 106.118 91.1935ZM104.555 96.0969C104.555 97.0772 103.758 97.8746 102.778 97.8746H5.90315C4.92281 97.8746 4.12541 97.077 4.12541 96.0969V94.3191H24.2754C25.1384 94.3191 25.8381 93.6194 25.8381 92.7564C25.8381 91.8934 25.1384 91.1937 24.2754 91.1937H20.9879C20.8818 90.6047 20.8278 90.01 20.8278 89.416C20.8278 83.8308 25.3718 79.2869 30.9569 79.2869C32.0693 79.2869 33.1832 79.4774 34.2677 79.8528C34.6605 79.9889 35.091 79.9628 35.4646 79.7807C35.838 79.5984 36.1234 79.275 36.258 78.8819C37.2 76.1271 39.7683 74.2763 42.6489 74.2763C44.2284 74.2763 45.7286 74.8353 46.9876 75.8931C47.5191 76.3397 48.2813 76.3822 48.8591 75.9973C49.4368 75.6125 49.6915 74.8928 49.4843 74.2304C49.3056 73.6582 49.2222 73.1763 49.2222 72.7135C49.2222 69.8913 51.5184 67.5954 54.3404 67.5954C57.1624 67.5954 59.4586 69.8915 59.4586 72.7135C59.4586 73.1763 59.3752 73.6582 59.1965 74.2304C58.9894 74.893 59.2442 75.6127 59.8218 75.9973C60.3995 76.382 61.1617 76.3397 61.6933 75.8931C62.9522 74.8355 64.4526 74.2763 66.032 74.2763C68.9125 74.2763 71.4808 76.1271 72.4228 78.8819C72.5574 79.275 72.8429 79.5984 73.2162 79.7807C73.5898 79.963 74.0205 79.9891 74.4131 79.8528C75.4976 79.4774 76.6113 79.2869 77.7239 79.2869C83.3092 79.2869 87.853 83.8308 87.853 89.416C87.853 90.01 87.7988 90.6047 87.693 91.1937H30.9575C30.0945 91.1937 29.3948 91.8934 29.3948 92.7564C29.3948 93.6194 30.0945 94.3191 30.9575 94.3191H104.555V96.0969ZM54.3404 22.7132C57.965 22.7132 60.9137 25.6619 60.9137 29.2865C60.9137 32.9112 57.965 35.8599 54.3404 35.8599C50.7157 35.8599 47.767 32.911 47.767 29.2865C47.767 25.6621 50.7157 22.7132 54.3404 22.7132ZM54.3404 25.8386C52.4391 25.8386 50.8924 27.3852 50.8924 29.2865C50.8924 31.1878 52.4391 32.7345 54.3404 32.7345C56.2417 32.7345 57.7883 31.1876 57.7883 29.2865C57.7883 27.3854 56.2417 25.8386 54.3404 25.8386Z" fill="url(#paint0_linear)"/>
<path d="M34.2583 46.9356L34.6424 47.2557L34.6426 47.2555L34.2583 46.9356ZM33.5095 57.3603L33.2572 57.792L33.2574 57.7921L33.5095 57.3603ZM35.0655 57.3717L34.8198 56.9363L34.8197 56.9364L35.0655 57.3717ZM46.1941 51.0924L46.6326 50.8522L46.3894 50.4081L45.9484 50.6569L46.1941 51.0924ZM47.5426 53.3762L48.0277 53.4975L48.0797 53.2893L47.9647 53.1082L47.5426 53.3762ZM46.1437 58.9722L46.6287 59.0936L46.6287 59.0934L46.1437 58.9722ZM62.2535 60.313L62.6476 60.6207L62.6476 60.6207L62.2535 60.313ZM62.5377 58.9722L62.0526 59.0934L62.0527 59.0936L62.5377 58.9722ZM61.1388 53.3762L60.7167 53.1082L60.6017 53.2893L60.6537 53.4975L61.1388 53.3762ZM62.4873 51.0924L62.733 50.6569L62.2919 50.408L62.0487 50.8523L62.4873 51.0924ZM73.6158 57.3717L73.3701 57.8072L73.3702 57.8072L73.6158 57.3717ZM75.1719 57.3603L75.4237 57.7922L75.424 57.7921L75.1719 57.3603ZM74.423 46.9356L74.8071 46.6155L74.8071 46.6154L74.423 46.9356ZM67.0046 38.0363L66.5115 37.9533L66.4734 38.1799L66.6205 38.3564L67.0046 38.0363ZM64.3161 14.5844L64.7769 14.3903V14.3903L64.3161 14.5844ZM55.4372 1.44912L55.0864 1.80541L55.0864 1.80541L55.4372 1.44912ZM53.2446 1.44912L53.5954 1.80542L53.5954 1.80541L53.2446 1.44912ZM44.3657 14.5844L43.9049 14.3903L43.9049 14.3903L44.3657 14.5844ZM41.6754 38.0254L42.0596 38.3453L42.2065 38.1689L42.1684 37.9426L41.6754 38.0254ZM35.8602 53.3345H35.3602V54.1908L36.1059 53.77L35.8602 53.3345ZM36.6593 48.9365L36.2752 48.6164L36.2751 48.6164L36.6593 48.9365ZM42.5167 41.9076L42.9998 41.7785L42.7505 40.8461L42.1326 41.5875L42.5167 41.9076ZM44.7954 48.293L45.0411 48.7285L45.4395 48.5037L45.2509 48.0869L44.7954 48.293ZM50.5499 54.233V53.733H50.1595L50.0648 54.1117L50.5499 54.233ZM49.661 57.7885L49.1759 57.6672L49.0206 58.2885H49.661V57.7885ZM58.1311 54.233L58.6161 54.1117L58.5215 53.733H58.1311V54.233ZM59.02 57.7885V58.2885H59.6603L59.505 57.6672L59.02 57.7885ZM72.0215 48.9365L72.4056 48.6164L72.4056 48.6164L72.0215 48.9365ZM72.8205 53.3345L72.5748 53.77L73.3205 54.1908V53.3345H72.8205ZM63.8854 48.2928L63.4299 48.0867L63.2413 48.5035L63.6397 48.7283L63.8854 48.2928ZM66.164 41.9074L66.5481 41.5873L65.9302 40.8458L65.681 41.7783L66.164 41.9074ZM60.7741 14.3621V14.8621H61.5614L61.2267 14.1495L60.7741 14.3621ZM54.3404 4.80415L54.7065 4.46359L54.3404 4.07007L53.9743 4.46359L54.3404 4.80415ZM47.9066 14.3621L47.454 14.1495L47.1193 14.8621H47.9066V14.3621ZM62.0762 17.4873L62.5456 17.3151L62.4254 16.9873H62.0762V17.4873ZM46.6043 17.4873V16.9873H46.2551L46.1349 17.3151L46.6043 17.4873ZM58.8701 51.1074V51.6074H59.151L59.2971 51.3675L58.8701 51.1074ZM49.8104 51.1074L49.3834 51.3675L49.5295 51.6074H49.8104V51.1074ZM99.3295 91.1935H98.8295V91.6935H99.3295V91.1935ZM96.2041 91.1937V91.6937H96.7041V91.1937H96.2041ZM90.8552 91.1937L90.3598 91.126L90.2823 91.6937H90.8552V91.1937ZM74.7927 76.4961L74.3489 76.7264L74.5273 77.0702L74.9047 76.9834L74.7927 76.4961ZM62.534 71.8011L62.037 71.8561L62.1085 72.5022L62.7146 72.2674L62.534 71.8011ZM46.1468 71.8011L45.9662 72.2674L46.5724 72.5022L46.6438 71.8561L46.1468 71.8011ZM33.8881 76.4961L33.776 76.9834L34.1535 77.0702L34.3319 76.7264L33.8881 76.4961ZM17.8256 91.1937V91.6937H18.3985L18.321 91.126L17.8256 91.1937ZM12.4767 91.1937H11.9767V91.6937H12.4767V91.1937ZM9.35132 91.1937V91.6937H9.85132V91.1937H9.35132ZM4.12541 94.3191V93.8191H3.62541V94.3191H4.12541ZM20.9879 91.1937L20.4958 91.2823L20.5698 91.6937H20.9879V91.1937ZM34.2677 79.8528L34.4314 79.3804L34.4313 79.3803L34.2677 79.8528ZM35.4646 79.7807L35.6837 80.2302L35.684 80.23L35.4646 79.7807ZM36.258 78.8819L36.7311 79.0438L36.7311 79.0436L36.258 78.8819ZM46.9876 75.8931L46.6659 76.2759L46.6659 76.276L46.9876 75.8931ZM49.4843 74.2304L49.0071 74.3795L49.0071 74.3796L49.4843 74.2304ZM59.1965 74.2304L59.6737 74.3796L59.6737 74.3795L59.1965 74.2304ZM59.8218 75.9973L59.5446 76.4135L59.5447 76.4135L59.8218 75.9973ZM61.6933 75.8931L62.0149 76.276L62.0149 76.276L61.6933 75.8931ZM72.4228 78.8819L71.9497 79.0436L71.9498 79.0438L72.4228 78.8819ZM73.2162 79.7807L72.9968 80.23L72.997 80.2301L73.2162 79.7807ZM74.4131 79.8528L74.2495 79.3803L74.2491 79.3805L74.4131 79.8528ZM87.693 91.1937V91.6937H88.1111L88.1851 91.2821L87.693 91.1937ZM104.555 94.3191H105.055V93.8191H104.555V94.3191ZM33.2348 51.1438C33.2348 49.726 33.7349 48.3447 34.6424 47.2557L33.8742 46.6155C32.8169 47.8842 32.2348 49.4921 32.2348 51.1438H33.2348ZM33.2348 56.0107V51.1438H32.2348V56.0107H33.2348ZM33.7617 56.9286C33.4354 56.7379 33.2348 56.3884 33.2348 56.0107H32.2348C32.2348 56.744 32.6242 57.4222 33.2572 57.792L33.7617 56.9286ZM34.2975 57.0734C34.1121 57.0734 33.927 57.0251 33.7616 56.9285L33.2574 57.7921C33.5786 57.9797 33.9382 58.0734 34.2975 58.0734V57.0734ZM34.8197 56.9364C34.6578 57.0278 34.4779 57.0734 34.2975 57.0734V58.0734C34.6468 58.0734 34.9965 57.9849 35.3114 57.8071L34.8197 56.9364ZM45.9484 50.6569L34.8198 56.9363L35.3112 57.8072L46.4398 51.5278L45.9484 50.6569ZM47.9647 53.1082C47.4956 52.3695 47.0515 51.617 46.6326 50.8522L45.7555 51.3325C46.1847 52.1162 46.6398 52.8873 47.1205 53.6442L47.9647 53.1082ZM46.6287 59.0934L48.0277 53.4975L47.0575 53.2549L45.6586 58.8509L46.6287 59.0934ZM46.822 60.0054C46.6205 59.7472 46.5492 59.4109 46.6287 59.0936L45.6586 58.8507C45.5043 59.4673 45.643 60.1199 46.0337 60.6206L46.822 60.0054ZM47.6597 60.4141C47.3323 60.4141 47.0233 60.2633 46.822 60.0054L46.0337 60.6206C46.4246 61.1215 47.0244 61.4141 47.6597 61.4141V60.4141ZM61.0217 60.4141H47.6597V61.4141H61.0217V60.4141ZM61.8594 60.0052C61.6578 60.2634 61.349 60.4141 61.0217 60.4141V61.4141C61.657 61.4141 62.2566 61.1214 62.6476 60.6207L61.8594 60.0052ZM62.0527 59.0936C62.1321 59.411 62.0608 59.7473 61.8594 60.0053L62.6476 60.6207C63.0384 60.1201 63.1771 59.4672 63.0227 58.8507L62.0527 59.0936ZM60.6537 53.4975L62.0526 59.0934L63.0228 58.8509L61.6238 53.2549L60.6537 53.4975ZM62.0487 50.8523C61.6299 51.6172 61.1858 52.3695 60.7167 53.1082L61.5609 53.6442C62.0415 52.8873 62.4966 52.1165 62.9259 51.3325L62.0487 50.8523ZM73.8616 56.9363L62.733 50.6569L62.2416 51.5278L73.3701 57.8072L73.8616 56.9363ZM74.3839 57.0734C74.2036 57.0734 74.0238 57.0278 73.8615 56.9363L73.3702 57.8072C73.685 57.9849 74.0345 58.0734 74.3839 58.0734V57.0734ZM74.92 56.9283C74.7542 57.025 74.569 57.0734 74.3839 57.0734V58.0734C74.7434 58.0734 75.1028 57.9793 75.4237 57.7922L74.92 56.9283ZM75.4466 56.0107C75.4466 56.3887 75.2459 56.7381 74.9198 56.9285L75.424 57.7921C76.0572 57.4224 76.4466 56.7442 76.4466 56.0107H75.4466ZM75.4466 51.1438V56.0107H76.4466V51.1438H75.4466ZM74.0389 47.2557C74.9465 48.3447 75.4466 49.726 75.4466 51.1438H76.4466C76.4466 49.4921 75.8645 47.8842 74.8071 46.6155L74.0389 47.2557ZM66.6205 38.3564L74.039 47.2557L74.8071 46.6154L67.3886 37.7161L66.6205 38.3564ZM67.0953 30.957C67.0953 33.3202 66.8976 35.6593 66.5115 37.9533L67.4976 38.1192C67.8929 35.7706 68.0953 33.376 68.0953 30.957H67.0953ZM63.8553 14.7785C66.0049 19.8811 67.0953 25.3236 67.0953 30.957H68.0953C68.0953 25.1926 66.9791 19.6178 64.7769 14.3903L63.8553 14.7785ZM55.0864 1.80541C58.8316 5.49286 61.7819 9.85684 63.8553 14.7785L64.7769 14.3903C62.653 9.34898 59.6287 4.87429 55.788 1.09283L55.0864 1.80541ZM53.5954 1.80541C54.009 1.3982 54.6728 1.3982 55.0864 1.80541L55.788 1.09283C54.9852 0.302388 53.6966 0.30239 52.8938 1.09283L53.5954 1.80541ZM44.8265 14.7785C46.8999 9.85663 49.8501 5.49266 53.5954 1.80542L52.8938 1.09282C49.0531 4.87408 46.0287 9.34877 43.9049 14.3903L44.8265 14.7785ZM41.5865 30.957C41.5865 25.3236 42.6769 19.8813 44.8265 14.7785L43.9049 14.3903C41.7027 19.6181 40.5865 25.1926 40.5865 30.957H41.5865ZM42.1684 37.9426C41.7836 35.6521 41.5865 33.3165 41.5865 30.957H40.5865C40.5865 33.3723 40.7883 35.7632 41.1823 38.1083L42.1684 37.9426ZM34.6426 47.2555L42.0596 38.3453L41.2911 37.7055L33.8741 46.6157L34.6426 47.2555ZM35.3602 51.1438V53.3345H36.3602V51.1438H35.3602ZM36.2751 48.6164C35.685 49.3247 35.3602 50.2218 35.3602 51.1438H36.3602C36.3602 50.4557 36.603 49.7851 37.0434 49.2565L36.2751 48.6164ZM42.1326 41.5875L36.2752 48.6164L37.0434 49.2566L42.9008 42.2277L42.1326 41.5875ZM45.2509 48.0869C44.3296 46.0514 43.5781 43.9419 42.9998 41.7785L42.0337 42.0367C42.6259 44.2523 43.3958 46.4133 44.3398 48.4992L45.2509 48.0869ZM36.1059 53.77L45.0411 48.7285L44.5496 47.8576L35.6145 52.8991L36.1059 53.77ZM50.0648 54.1117L49.1759 57.6672L50.1461 57.9097L51.0349 54.3543L50.0648 54.1117ZM58.1311 53.733H50.5499V54.733H58.1311V53.733ZM59.505 57.6672L58.6161 54.1117L57.646 54.3543L58.5349 57.9097L59.505 57.6672ZM49.661 58.2885H59.02V57.2885H49.661V58.2885ZM73.3205 51.1438C73.3205 50.2218 72.9957 49.3247 72.4056 48.6164L71.6373 49.2565C72.0777 49.7851 72.3205 50.4557 72.3205 51.1438H73.3205ZM73.3205 53.3345V51.1438H72.3205V53.3345H73.3205ZM63.6397 48.7283L72.5748 53.77L73.0662 52.8991L64.1311 47.8574L63.6397 48.7283ZM65.681 41.7783C65.1027 43.9418 64.3509 46.0511 63.4299 48.0867L64.3409 48.499C65.2847 46.4132 66.0548 44.2523 66.6471 42.0365L65.681 41.7783ZM72.4056 48.6164L66.5481 41.5873L65.7799 42.2275L71.6374 49.2565L72.4056 48.6164ZM61.2267 14.1495C59.5604 10.6018 57.3671 7.32371 54.7065 4.46359L53.9743 5.14471C56.5622 7.92659 58.6979 11.1177 60.3216 14.5746L61.2267 14.1495ZM47.9066 14.8621H60.7741V13.8621H47.9066V14.8621ZM53.9743 4.46359C51.3136 7.32371 49.1204 10.6018 47.454 14.1495L48.3592 14.5746C49.9829 11.1177 52.1185 7.92659 54.7065 5.14471L53.9743 4.46359ZM62.0762 16.9873H46.6043V17.9873H62.0762V16.9873ZM64.9692 30.9568C64.9692 26.2548 64.1281 21.6295 62.5456 17.3151L61.6068 17.6595C63.1493 21.8649 63.9692 26.3738 63.9692 30.9568H64.9692ZM59.2971 51.3675C63.0117 45.2708 64.9692 38.2328 64.9692 30.9568H63.9692C63.9692 38.0527 62.0604 44.9102 58.4431 50.8472L59.2971 51.3675ZM49.8104 51.6074H58.8701V50.6074H49.8104V51.6074ZM43.7113 30.9568C43.7113 38.2328 45.6689 45.2708 49.3834 51.3675L50.2374 50.8472C46.6201 44.9102 44.7113 38.0527 44.7113 30.9568H43.7113ZM46.1349 17.3151C44.5527 21.6297 43.7113 26.2548 43.7113 30.9568H44.7113C44.7113 26.3738 45.5314 21.8652 47.0738 17.6594L46.1349 17.3151ZM99.3295 91.6935H106.118V90.6935H99.3295V91.6935ZM98.8295 34.2976V91.1935H99.8295V34.2976H98.8295ZM92.7561 28.2242C96.1046 28.2242 98.8295 30.9491 98.8295 34.2976H99.8295C99.8295 30.3968 96.6569 27.2242 92.7561 27.2242V28.2242ZM72.7139 28.2242H92.7561V27.2242H72.7139V28.2242ZM71.6512 29.287C71.6512 28.7001 72.127 28.2242 72.7139 28.2242V27.2242C71.5747 27.2242 70.6512 28.1478 70.6512 29.287H71.6512ZM72.7139 30.3497C72.127 30.3497 71.6512 29.8738 71.6512 29.287H70.6512C70.6512 30.4261 71.5747 31.3497 72.7139 31.3497V30.3497ZM92.7561 30.3497H72.7139V31.3497H92.7561V30.3497ZM96.7041 34.2976C96.7041 32.1204 94.9336 30.3497 92.7561 30.3497V31.3497C94.3813 31.3497 95.7041 32.6727 95.7041 34.2976H96.7041ZM96.7041 91.1937V34.2976H95.7041V91.1937H96.7041ZM90.8552 91.6937H96.2041V90.6937H90.8552V91.6937ZM90.4782 89.416C90.4782 89.9861 90.4376 90.5573 90.3598 91.126L91.3506 91.2614C91.4342 90.65 91.4782 90.0335 91.4782 89.416H90.4782ZM77.7237 76.6615C84.756 76.6615 90.4782 82.3836 90.4782 89.416H91.4782C91.4782 81.8314 85.3083 75.6615 77.7237 75.6615V76.6615ZM74.9047 76.9834C75.8357 76.7694 76.7793 76.6615 77.7237 76.6615V75.6615C76.7029 75.6615 75.6841 75.7782 74.6807 76.0088L74.9047 76.9834ZM66.0322 71.6506C69.5578 71.6506 72.7472 73.6401 74.3489 76.7264L75.2365 76.2658C73.4661 72.8546 69.9384 70.6506 66.0322 70.6506V71.6506ZM62.7146 72.2674C63.7652 71.8604 64.8814 71.6506 66.0322 71.6506V70.6506C64.7585 70.6506 63.5198 70.883 62.3534 71.3349L62.7146 72.2674ZM54.3404 64.9695C58.3199 64.9695 61.6094 67.9883 62.037 71.8561L63.031 71.7462C62.548 67.3779 58.8358 63.9695 54.3404 63.9695V64.9695ZM46.6438 71.8561C47.0714 67.9883 50.3609 64.9695 54.3404 64.9695V63.9695C49.845 63.9695 46.1328 67.3779 45.6498 71.7462L46.6438 71.8561ZM42.6486 71.6506C43.7995 71.6506 44.9156 71.8604 45.9662 72.2674L46.3274 71.3349C45.161 70.883 43.9223 70.6506 42.6486 70.6506V71.6506ZM34.3319 76.7264C35.9334 73.6401 39.123 71.6506 42.6486 71.6506V70.6506C38.7424 70.6506 35.2145 72.8546 33.4443 76.2658L34.3319 76.7264ZM30.9571 76.6615C31.9016 76.6615 32.8449 76.7692 33.776 76.9834L34.0002 76.0089C32.9964 75.778 31.9779 75.6615 30.9571 75.6615V76.6615ZM18.2026 89.416C18.2026 82.3836 23.9246 76.6615 30.9571 76.6615V75.6615C23.3723 75.6615 17.2026 81.8314 17.2026 89.416H18.2026ZM18.321 91.126C18.2432 90.5573 18.2026 89.9863 18.2026 89.416H17.2026C17.2026 90.0337 17.2466 90.65 17.3302 91.2614L18.321 91.126ZM12.4767 91.6937H17.8256V90.6937H12.4767V91.6937ZM11.9767 34.2976V91.1937H12.9767V34.2976H11.9767ZM15.9247 30.3497C13.7472 30.3497 11.9767 32.1202 11.9767 34.2976H12.9767C12.9767 32.6725 14.2995 31.3497 15.9247 31.3497V30.3497ZM35.9676 30.3497H15.9247V31.3497H35.9676V30.3497ZM37.0303 29.287C37.0303 29.8738 36.5544 30.3497 35.9676 30.3497V31.3497C37.1067 31.3497 38.0303 30.4261 38.0303 29.287H37.0303ZM35.9676 28.2242C36.5544 28.2242 37.0303 28.7001 37.0303 29.287H38.0303C38.0303 28.1478 37.1067 27.2242 35.9676 27.2242V28.2242ZM15.9247 28.2242H35.9676V27.2242H15.9247V28.2242ZM9.85132 34.2976C9.85132 30.9493 12.5762 28.2242 15.9247 28.2242V27.2242C12.0239 27.2242 8.85132 30.397 8.85132 34.2976H9.85132ZM9.85132 91.1937V34.2976H8.85132V91.1937H9.85132ZM2.56271 91.6937H9.35132V90.6937H2.56271V91.6937ZM1.5 92.7564C1.5 92.1695 1.97582 91.6937 2.56271 91.6937V90.6937C1.42353 90.6937 0.5 91.6172 0.5 92.7564H1.5ZM1.5 96.0969V92.7564H0.5V96.0969H1.5ZM5.90315 100.5C3.47579 100.5 1.5 98.5244 1.5 96.0969H0.5C0.5 99.0767 2.92354 101.5 5.90315 101.5V100.5ZM102.778 100.5H5.90315V101.5H102.778V100.5ZM107.181 96.0969C107.181 98.5242 105.205 100.5 102.778 100.5V101.5C105.757 101.5 108.181 99.0765 108.181 96.0969H107.181ZM107.181 92.7564V96.0969H108.181V92.7564H107.181ZM106.118 91.6935C106.705 91.6935 107.181 92.1693 107.181 92.7564H108.181C108.181 91.6171 107.257 90.6935 106.118 90.6935V91.6935ZM102.778 98.3746C104.034 98.3746 105.055 97.3534 105.055 96.0969H104.055C104.055 96.801 103.482 97.3746 102.778 97.3746V98.3746ZM5.90315 98.3746H102.778V97.3746H5.90315V98.3746ZM3.62541 96.0969C3.62541 97.3531 4.64663 98.3746 5.90315 98.3746V97.3746C5.19899 97.3746 4.62541 96.8009 4.62541 96.0969H3.62541ZM3.62541 94.3191V96.0969H4.62541V94.3191H3.62541ZM24.2754 93.8191H4.12541V94.8191H24.2754V93.8191ZM25.3381 92.7564C25.3381 93.3433 24.8623 93.8191 24.2754 93.8191V94.8191C25.4146 94.8191 26.3381 93.8956 26.3381 92.7564H25.3381ZM24.2754 91.6937C24.8623 91.6937 25.3381 92.1695 25.3381 92.7564H26.3381C26.3381 91.6172 25.4146 90.6937 24.2754 90.6937V91.6937ZM20.9879 91.6937H24.2754V90.6937H20.9879V91.6937ZM20.3278 89.416C20.3278 90.0403 20.3846 90.6646 20.4958 91.2823L21.4799 91.1051C21.379 90.5447 21.3278 89.9797 21.3278 89.416H20.3278ZM30.9569 78.7869C25.0956 78.7869 20.3278 83.5547 20.3278 89.416H21.3278C21.3278 84.107 25.6479 79.7869 30.9569 79.7869V78.7869ZM34.4313 79.3803C33.2959 78.9872 32.1268 78.7869 30.9569 78.7869V79.7869C32.0119 79.7869 33.0706 79.9675 34.1042 80.3253L34.4313 79.3803ZM35.2455 79.3313C34.9912 79.4552 34.6985 79.4729 34.4314 79.3804L34.1041 80.3253C34.6225 80.5049 35.1907 80.4705 35.6837 80.2302L35.2455 79.3313ZM35.785 78.7199C35.6934 78.9874 35.4992 79.2074 35.2452 79.3314L35.684 80.23C36.1767 79.9894 36.5534 79.5627 36.7311 79.0438L35.785 78.7199ZM42.6489 73.7763C39.5514 73.7763 36.7951 75.766 35.7849 78.7201L36.7311 79.0436C37.6049 76.4882 39.9852 74.7763 42.6489 74.7763V73.7763ZM47.3092 75.5103C45.9642 74.3802 44.3512 73.7763 42.6489 73.7763V74.7763C44.1056 74.7763 45.4931 75.2904 46.6659 76.2759L47.3092 75.5103ZM48.5819 75.5812C48.189 75.8429 47.6707 75.814 47.3092 75.5103L46.6659 76.276C47.3675 76.8653 48.3735 76.9214 49.1362 76.4135L48.5819 75.5812ZM49.0071 74.3796C49.148 74.83 48.9748 75.3194 48.5819 75.5812L49.1362 76.4135C49.8988 75.9055 50.235 74.9556 49.9616 74.0812L49.0071 74.3796ZM48.7222 72.7135C48.7222 73.2393 48.8175 73.7726 49.0071 74.3795L49.9616 74.0813C49.7937 73.5439 49.7222 73.1133 49.7222 72.7135H48.7222ZM54.3404 67.0954C51.2422 67.0954 48.7222 69.6151 48.7222 72.7135H49.7222C49.7222 70.1674 51.7945 68.0954 54.3404 68.0954V67.0954ZM59.9586 72.7135C59.9586 69.6154 57.4386 67.0954 54.3404 67.0954V68.0954C56.8863 68.0954 58.9586 70.1676 58.9586 72.7135H59.9586ZM59.6737 74.3795C59.8633 73.7726 59.9586 73.2393 59.9586 72.7135H58.9586C58.9586 73.1133 58.8871 73.5439 58.7192 74.0813L59.6737 74.3795ZM60.0989 75.5812C59.7062 75.3196 59.5328 74.8302 59.6737 74.3796L58.7192 74.0812C58.4459 74.9558 58.7822 75.9058 59.5446 76.4135L60.0989 75.5812ZM61.3716 75.5103C61.0102 75.8139 60.4919 75.8428 60.0988 75.5811L59.5447 76.4135C60.3072 76.9212 61.3132 76.8654 62.0149 76.276L61.3716 75.5103ZM66.032 73.7763C64.3298 73.7763 62.7166 74.3804 61.3716 75.5103L62.0149 76.276C63.1878 75.2906 64.5754 74.7763 66.032 74.7763V73.7763ZM72.8959 78.7201C71.8857 75.766 69.1294 73.7763 66.032 73.7763V74.7763C68.6956 74.7763 71.0759 76.4882 71.9497 79.0436L72.8959 78.7201ZM73.4356 79.3314C73.1816 79.2074 72.9874 78.9874 72.8958 78.7199L71.9498 79.0438C72.1274 79.5627 72.5041 79.9894 72.9968 80.23L73.4356 79.3314ZM74.2491 79.3805C73.9825 79.473 73.6897 79.4554 73.4355 79.3314L72.997 80.2301C73.49 80.4707 74.0586 80.5051 74.577 80.3252L74.2491 79.3805ZM77.7239 78.7869C76.5538 78.7869 75.3849 78.9873 74.2495 79.3803L74.5766 80.3253C75.6103 79.9675 76.6687 79.7869 77.7239 79.7869V78.7869ZM88.353 89.416C88.353 83.5547 83.5854 78.7869 77.7239 78.7869V79.7869C83.0331 79.7869 87.353 84.107 87.353 89.416H88.353ZM88.1851 91.2821C88.296 90.6647 88.353 90.0404 88.353 89.416H87.353C87.353 89.9796 87.3016 90.5447 87.2008 91.1053L88.1851 91.2821ZM30.9575 91.6937H87.693V90.6937H30.9575V91.6937ZM29.8948 92.7564C29.8948 92.1695 30.3706 91.6937 30.9575 91.6937V90.6937C29.8183 90.6937 28.8948 91.6172 28.8948 92.7564H29.8948ZM30.9575 93.8191C30.3706 93.8191 29.8948 93.3433 29.8948 92.7564H28.8948C28.8948 93.8956 29.8183 94.8191 30.9575 94.8191V93.8191ZM104.555 93.8191H30.9575V94.8191H104.555V93.8191ZM105.055 96.0969V94.3191H104.055V96.0969H105.055ZM61.4137 29.2865C61.4137 25.3857 58.2412 22.2132 54.3404 22.2132V23.2132C57.6889 23.2132 60.4137 25.938 60.4137 29.2865H61.4137ZM54.3404 36.3599C58.2412 36.3599 61.4137 33.1873 61.4137 29.2865H60.4137C60.4137 32.635 57.6889 35.3599 54.3404 35.3599V36.3599ZM47.267 29.2865C47.267 33.1871 50.4396 36.3599 54.3404 36.3599V35.3599C50.9919 35.3599 48.267 32.6348 48.267 29.2865H47.267ZM54.3404 22.2132C50.4396 22.2132 47.267 25.386 47.267 29.2865H48.267C48.267 25.9382 50.9919 23.2132 54.3404 23.2132V22.2132ZM51.3924 29.2865C51.3924 27.6614 52.7152 26.3386 54.3404 26.3386V25.3386C52.1629 25.3386 50.3924 27.1091 50.3924 29.2865H51.3924ZM54.3404 32.2345C52.7152 32.2345 51.3924 30.9117 51.3924 29.2865H50.3924C50.3924 31.464 52.1629 33.2345 54.3404 33.2345V32.2345ZM57.2883 29.2865C57.2883 30.9115 55.9655 32.2345 54.3404 32.2345V33.2345C56.5178 33.2345 58.2883 31.4637 58.2883 29.2865H57.2883ZM54.3404 26.3386C55.9655 26.3386 57.2883 27.6616 57.2883 29.2865H58.2883C58.2883 27.1093 56.5178 25.3386 54.3404 25.3386V26.3386Z" fill="url(#paint1_linear)" mask="url(#path-1-outside-1)"/>
<defs>
<linearGradient id="paint0_linear" x1="1.56098" y1="3.11899" x2="111.641" y2="7.9334" gradientUnits="userSpaceOnUse">
<stop stop-color="#0BB9F6"/>
<stop offset="1" stop-color="#5B6FED"/>
</linearGradient>
<linearGradient id="paint1_linear" x1="1.56098" y1="3.11899" x2="111.641" y2="7.9334" gradientUnits="userSpaceOnUse">
<stop stop-color="#0BB9F6"/>
<stop offset="1" stop-color="#5B6FED"/>
</linearGradient>
</defs>
</svg>
