<svg width="104" height="102" viewBox="0 0 104 102" fill="none" xmlns="http://www.w3.org/2000/svg">
<mask id="path-1-outside-1" maskUnits="userSpaceOnUse" x="0" y="0" width="104" height="102" fill="black">
<rect fill="white" width="104" height="102"/>
<path fill-rule="evenodd" clip-rule="evenodd" d="M94.5904 12.6468C94.0558 12.0227 93.1163 11.9501 92.4921 12.4848C91.8679 13.0194 91.7954 13.9589 92.3302 14.5831C97.0273 20.0666 99.6141 27.0686 99.6141 34.2992C99.6141 51.0193 86.0113 64.622 69.2912 64.622C52.5711 64.622 38.9685 51.0193 38.9685 34.2992C38.9685 17.579 52.5711 3.97627 69.291 3.97627C75.9132 3.97627 82.2039 6.07217 87.483 10.0372C88.14 10.5304 89.0729 10.3981 89.5666 9.74092C90.0601 9.08376 89.9275 8.151 89.2704 7.65733C83.4718 3.30205 76.5631 1 69.291 1C50.9298 1 35.9921 15.9379 35.9921 34.299C35.9921 52.66 50.93 67.5981 69.291 67.5981C87.6521 67.5981 102.59 52.6602 102.59 34.2992C102.59 26.3589 99.749 18.6693 94.5904 12.6468ZM72.4721 70.9845C71.6502 70.9845 70.9839 71.6507 70.9839 72.4726V74.0631C70.9839 75.8737 69.5111 77.3465 67.7005 77.3465H26.7281C25.2846 77.3465 23.9899 76.3798 23.5798 74.9959L15.2615 46.9213H32.7086C33.5305 46.9213 34.1968 46.255 34.1968 45.4331C34.1968 44.6113 33.5305 43.945 32.7086 43.945H14.3795L12.8797 38.8833C12.0979 36.2446 9.63001 34.4019 6.87794 34.4019H2.48814C1.66629 34.4019 1 35.0682 1 35.89C1 36.7118 1.66629 37.3781 2.48814 37.3781H6.87814C8.32164 37.3781 9.61612 38.3448 10.0262 39.729L20.7264 75.8415C21.271 77.6793 22.6345 79.1289 24.3413 79.8409L20.8605 88.5431C20.574 88.5028 20.2817 88.4806 19.9843 88.4806C16.5326 88.4806 13.7246 91.2886 13.7246 94.7403C13.7246 98.192 16.5326 101 19.9843 101C22.9232 101 25.3941 98.9638 26.0638 96.2284H61.6212C62.2908 98.9638 64.7619 101 67.7007 101C71.1524 101 73.9604 98.192 73.9604 94.7403C73.9604 91.2886 71.1524 88.4806 67.7007 88.4806C64.7617 88.4806 62.2908 90.5168 61.6212 93.2522H26.0636C25.7031 91.7791 24.8199 90.5098 23.6225 89.6513L27.3537 80.323H67.7005C71.1522 80.323 73.9602 77.515 73.9602 74.0633V72.4728C73.9602 71.6507 73.2941 70.9845 72.4721 70.9845ZM19.9841 98.0237C18.1735 98.0237 16.7006 96.5509 16.7006 94.7403C16.7006 92.9297 18.1735 91.4569 19.9841 91.4569C21.7946 91.4569 23.2675 92.9297 23.2675 94.7403C23.2675 96.5509 21.7946 98.0237 19.9841 98.0237ZM67.7005 91.4567C69.5111 91.4567 70.9839 92.9295 70.9839 94.7401C70.9839 96.5507 69.5111 98.0235 67.7005 98.0235C65.8899 98.0235 64.4171 96.5507 64.4171 94.7401C64.4171 92.9295 65.8899 91.4567 67.7005 91.4567ZM56.0284 49.6662C55.7379 49.9569 55.3569 50.1022 54.9762 50.1022C54.5954 50.1022 54.2145 49.9567 53.924 49.6662C53.3428 49.0853 53.3428 48.143 53.924 47.5618L82.5539 18.932C83.1349 18.3509 84.0772 18.3509 84.6584 18.932C85.2395 19.513 85.2395 20.4553 84.6584 21.0365L56.0284 49.6662ZM66.0076 24.7559C66.0076 20.4272 62.4859 16.9057 58.1574 16.9057C53.8289 16.9057 50.307 20.4272 50.307 24.7559C50.307 29.0846 53.8287 32.6062 58.1572 32.6062C62.4857 32.6062 66.0076 29.0846 66.0076 24.7559ZM53.2832 24.7559C53.2832 22.0684 55.4698 19.882 58.1572 19.882C60.8446 19.882 63.0311 22.0686 63.0311 24.7559C63.0311 27.4433 60.8446 29.6299 58.1572 29.6299C55.4698 29.6299 53.2832 27.4435 53.2832 24.7559ZM86.6846 45.4324C86.6846 49.7611 83.1631 53.2828 78.8344 53.2828C74.5057 53.2828 70.984 49.7613 70.984 45.4324C70.984 41.1039 74.5057 37.5821 78.8344 37.5821C83.1629 37.5821 86.6846 41.1037 86.6846 45.4324ZM83.7084 45.4324C83.7084 42.745 81.522 40.5584 78.8344 40.5584C76.1468 40.5584 73.9603 42.7448 73.9603 45.4324C73.9603 48.1199 76.147 50.3065 78.8344 50.3065C81.5218 50.3065 83.7084 48.1197 83.7084 45.4324Z"/>
</mask>
<path fill-rule="evenodd" clip-rule="evenodd" d="M94.5904 12.6468C94.0558 12.0227 93.1163 11.9501 92.4921 12.4848C91.8679 13.0194 91.7954 13.9589 92.3302 14.5831C97.0273 20.0666 99.6141 27.0686 99.6141 34.2992C99.6141 51.0193 86.0113 64.622 69.2912 64.622C52.5711 64.622 38.9685 51.0193 38.9685 34.2992C38.9685 17.579 52.5711 3.97627 69.291 3.97627C75.9132 3.97627 82.2039 6.07217 87.483 10.0372C88.14 10.5304 89.0729 10.3981 89.5666 9.74092C90.0601 9.08376 89.9275 8.151 89.2704 7.65733C83.4718 3.30205 76.5631 1 69.291 1C50.9298 1 35.9921 15.9379 35.9921 34.299C35.9921 52.66 50.93 67.5981 69.291 67.5981C87.6521 67.5981 102.59 52.6602 102.59 34.2992C102.59 26.3589 99.749 18.6693 94.5904 12.6468ZM72.4721 70.9845C71.6502 70.9845 70.9839 71.6507 70.9839 72.4726V74.0631C70.9839 75.8737 69.5111 77.3465 67.7005 77.3465H26.7281C25.2846 77.3465 23.9899 76.3798 23.5798 74.9959L15.2615 46.9213H32.7086C33.5305 46.9213 34.1968 46.255 34.1968 45.4331C34.1968 44.6113 33.5305 43.945 32.7086 43.945H14.3795L12.8797 38.8833C12.0979 36.2446 9.63001 34.4019 6.87794 34.4019H2.48814C1.66629 34.4019 1 35.0682 1 35.89C1 36.7118 1.66629 37.3781 2.48814 37.3781H6.87814C8.32164 37.3781 9.61612 38.3448 10.0262 39.729L20.7264 75.8415C21.271 77.6793 22.6345 79.1289 24.3413 79.8409L20.8605 88.5431C20.574 88.5028 20.2817 88.4806 19.9843 88.4806C16.5326 88.4806 13.7246 91.2886 13.7246 94.7403C13.7246 98.192 16.5326 101 19.9843 101C22.9232 101 25.3941 98.9638 26.0638 96.2284H61.6212C62.2908 98.9638 64.7619 101 67.7007 101C71.1524 101 73.9604 98.192 73.9604 94.7403C73.9604 91.2886 71.1524 88.4806 67.7007 88.4806C64.7617 88.4806 62.2908 90.5168 61.6212 93.2522H26.0636C25.7031 91.7791 24.8199 90.5098 23.6225 89.6513L27.3537 80.323H67.7005C71.1522 80.323 73.9602 77.515 73.9602 74.0633V72.4728C73.9602 71.6507 73.2941 70.9845 72.4721 70.9845ZM19.9841 98.0237C18.1735 98.0237 16.7006 96.5509 16.7006 94.7403C16.7006 92.9297 18.1735 91.4569 19.9841 91.4569C21.7946 91.4569 23.2675 92.9297 23.2675 94.7403C23.2675 96.5509 21.7946 98.0237 19.9841 98.0237ZM67.7005 91.4567C69.5111 91.4567 70.9839 92.9295 70.9839 94.7401C70.9839 96.5507 69.5111 98.0235 67.7005 98.0235C65.8899 98.0235 64.4171 96.5507 64.4171 94.7401C64.4171 92.9295 65.8899 91.4567 67.7005 91.4567ZM56.0284 49.6662C55.7379 49.9569 55.3569 50.1022 54.9762 50.1022C54.5954 50.1022 54.2145 49.9567 53.924 49.6662C53.3428 49.0853 53.3428 48.143 53.924 47.5618L82.5539 18.932C83.1349 18.3509 84.0772 18.3509 84.6584 18.932C85.2395 19.513 85.2395 20.4553 84.6584 21.0365L56.0284 49.6662ZM66.0076 24.7559C66.0076 20.4272 62.4859 16.9057 58.1574 16.9057C53.8289 16.9057 50.307 20.4272 50.307 24.7559C50.307 29.0846 53.8287 32.6062 58.1572 32.6062C62.4857 32.6062 66.0076 29.0846 66.0076 24.7559ZM53.2832 24.7559C53.2832 22.0684 55.4698 19.882 58.1572 19.882C60.8446 19.882 63.0311 22.0686 63.0311 24.7559C63.0311 27.4433 60.8446 29.6299 58.1572 29.6299C55.4698 29.6299 53.2832 27.4435 53.2832 24.7559ZM86.6846 45.4324C86.6846 49.7611 83.1631 53.2828 78.8344 53.2828C74.5057 53.2828 70.984 49.7613 70.984 45.4324C70.984 41.1039 74.5057 37.5821 78.8344 37.5821C83.1629 37.5821 86.6846 41.1037 86.6846 45.4324ZM83.7084 45.4324C83.7084 42.745 81.522 40.5584 78.8344 40.5584C76.1468 40.5584 73.9603 42.7448 73.9603 45.4324C73.9603 48.1199 76.147 50.3065 78.8344 50.3065C81.5218 50.3065 83.7084 48.1197 83.7084 45.4324Z" fill="url(#paint0_linear)"/>
<path d="M92.4921 12.4848L92.8173 12.8646L92.8174 12.8646L92.4921 12.4848ZM94.5904 12.6468L94.9701 12.3215L94.9701 12.3215L94.5904 12.6468ZM92.3302 14.5831L92.7099 14.2578L92.7099 14.2578L92.3302 14.5831ZM87.483 10.0372L87.1827 10.437L87.1828 10.437L87.483 10.0372ZM89.5666 9.74092L89.9664 10.0412L89.9664 10.0412L89.5666 9.74092ZM89.2704 7.65733L89.5707 7.25756L89.5706 7.25754L89.2704 7.65733ZM23.5798 74.9959L23.1004 75.1379L23.1004 75.1379L23.5798 74.9959ZM15.2615 46.9213V46.4213H14.5919L14.7821 47.0633L15.2615 46.9213ZM14.3795 43.945L13.9001 44.087L14.0062 44.445H14.3795V43.945ZM12.8797 38.8833L12.4003 39.0254L12.4003 39.0254L12.8797 38.8833ZM10.0262 39.729L10.5056 39.587V39.587L10.0262 39.729ZM20.7264 75.8415L20.247 75.9836L20.247 75.9836L20.7264 75.8415ZM24.3413 79.8409L24.8056 80.0266L24.9886 79.5691L24.5338 79.3794L24.3413 79.8409ZM20.8605 88.5431L20.7909 89.0382L21.1791 89.0928L21.3247 88.7288L20.8605 88.5431ZM26.0638 96.2284V95.7284H25.6714L25.5781 96.1095L26.0638 96.2284ZM61.6212 96.2284L62.1068 96.1095L62.0135 95.7284H61.6212V96.2284ZM61.6212 93.2522V93.7522H62.0135L62.1068 93.371L61.6212 93.2522ZM26.0636 93.2522L25.5779 93.371L25.6712 93.7522H26.0636V93.2522ZM23.6225 89.6513L23.1582 89.4656L23.0127 89.8293L23.3311 90.0576L23.6225 89.6513ZM27.3537 80.323V79.823H27.0152L26.8895 80.1373L27.3537 80.323ZM56.0284 49.6662L55.6748 49.3127L55.6747 49.3128L56.0284 49.6662ZM53.924 49.6662L54.2775 49.3127L54.2775 49.3126L53.924 49.6662ZM53.924 47.5618L53.5704 47.2083L53.924 47.5618ZM82.5539 18.932L82.9075 19.2856L82.9076 19.2855L82.5539 18.932ZM84.6584 18.932L84.3048 19.2856L84.3049 19.2856L84.6584 18.932ZM84.6584 21.0365L85.0119 21.39L84.6584 21.0365ZM92.8174 12.8646C93.2319 12.5095 93.8557 12.5577 94.2106 12.972L94.9701 12.3215C94.2559 11.4877 93.0007 11.3907 92.1668 12.1051L92.8174 12.8646ZM92.7099 14.2578C92.3547 13.8432 92.403 13.2194 92.8173 12.8646L92.1669 12.1051C91.3328 12.8193 91.2361 14.0746 91.9504 14.9084L92.7099 14.2578ZM100.114 34.2992C100.114 26.9495 97.4848 19.8321 92.7099 14.2578L91.9504 14.9084C96.5699 20.3011 99.1141 27.1877 99.1141 34.2992H100.114ZM69.2912 65.122C86.2875 65.122 100.114 51.2954 100.114 34.2992H99.1141C99.1141 50.7431 85.7352 64.122 69.2912 64.122V65.122ZM38.4685 34.2992C38.4685 51.2954 52.295 65.122 69.2912 65.122V64.122C52.8473 64.122 39.4685 50.7431 39.4685 34.2992H38.4685ZM69.291 3.47627C52.295 3.47627 38.4685 17.3029 38.4685 34.2992H39.4685C39.4685 17.8552 52.8473 4.47627 69.291 4.47627V3.47627ZM87.7833 9.63737C82.4173 5.60712 76.0212 3.47627 69.291 3.47627V4.47627C75.8053 4.47627 81.9905 6.53721 87.1827 10.437L87.7833 9.63737ZM89.1668 9.44062C88.8391 9.87694 88.2195 9.96488 87.7832 9.63732L87.1828 10.437C88.0605 11.096 89.3068 10.9192 89.9664 10.0412L89.1668 9.44062ZM88.9701 8.0571C89.4064 8.38492 89.4945 9.0043 89.1668 9.44069L89.9664 10.0412C90.6257 9.16322 90.4486 7.91707 89.5707 7.25756L88.9701 8.0571ZM69.291 1.5C76.4551 1.5 83.2584 3.76708 88.9701 8.05712L89.5706 7.25754C83.6852 2.83702 76.671 0.5 69.291 0.5V1.5ZM36.4921 34.299C36.4921 16.2141 51.2059 1.5 69.291 1.5V0.5C50.6536 0.5 35.4921 15.6618 35.4921 34.299H36.4921ZM69.291 67.0981C51.2061 67.0981 36.4921 52.3839 36.4921 34.299H35.4921C35.4921 52.9361 50.6538 68.0981 69.291 68.0981V67.0981ZM102.09 34.2992C102.09 52.384 87.3759 67.0981 69.291 67.0981V68.0981C87.9282 68.0981 103.09 52.9363 103.09 34.2992H102.09ZM94.2106 12.972C99.2916 18.9039 102.09 26.478 102.09 34.2992H103.09C103.09 26.2397 100.206 18.4348 94.9701 12.3215L94.2106 12.972ZM71.4839 72.4726C71.4839 71.9269 71.9264 71.4845 72.4721 71.4845V70.4845C71.3741 70.4845 70.4839 71.3746 70.4839 72.4726H71.4839ZM71.4839 74.0631V72.4726H70.4839V74.0631H71.4839ZM67.7005 77.8465C69.7872 77.8465 71.4839 76.1498 71.4839 74.0631H70.4839C70.4839 75.5975 69.2349 76.8465 67.7005 76.8465V77.8465ZM26.7281 77.8465H67.7005V76.8465H26.7281V77.8465ZM23.1004 75.1379C23.5735 76.7342 25.0632 77.8465 26.7281 77.8465V76.8465C25.506 76.8465 24.4064 76.0255 24.0592 74.8538L23.1004 75.1379ZM14.7821 47.0633L23.1004 75.1379L24.0592 74.8538L15.7409 46.7792L14.7821 47.0633ZM32.7086 46.4213H15.2615V47.4213H32.7086V46.4213ZM33.6968 45.4331C33.6968 45.9788 33.2543 46.4213 32.7086 46.4213V47.4213C33.8066 47.4213 34.6968 46.5311 34.6968 45.4331H33.6968ZM32.7086 44.445C33.2543 44.445 33.6968 44.8874 33.6968 45.4331H34.6968C34.6968 44.3351 33.8066 43.445 32.7086 43.445V44.445ZM14.3795 44.445H32.7086V43.445H14.3795V44.445ZM12.4003 39.0254L13.9001 44.087L14.8589 43.8029L13.3591 38.7413L12.4003 39.0254ZM6.87794 34.9019C9.40858 34.9019 11.6814 36.5989 12.4003 39.0254L13.3591 38.7413C12.5144 35.8902 9.85144 33.9019 6.87794 33.9019V34.9019ZM2.48814 34.9019H6.87794V33.9019H2.48814V34.9019ZM1.5 35.89C1.5 35.3443 1.94243 34.9019 2.48814 34.9019V33.9019C1.39015 33.9019 0.5 34.792 0.5 35.89H1.5ZM2.48814 36.8781C1.94243 36.8781 1.5 36.4357 1.5 35.89H0.5C0.5 36.988 1.39015 37.8781 2.48814 37.8781V36.8781ZM6.87814 36.8781H2.48814V37.8781H6.87814V36.8781ZM10.5056 39.587C10.0326 37.9905 8.54312 36.8781 6.87814 36.8781V37.8781C8.10016 37.8781 9.19961 38.6991 9.54685 39.871L10.5056 39.587ZM21.2058 75.6995L10.5056 39.587L9.54685 39.871L20.247 75.9836L21.2058 75.6995ZM24.5338 79.3794C22.96 78.7229 21.7059 77.3871 21.2057 75.6995L20.247 75.9836C20.8361 77.9715 22.3091 79.5349 24.1489 80.3023L24.5338 79.3794ZM21.3247 88.7288L24.8056 80.0266L23.8771 79.6552L20.3962 88.3574L21.3247 88.7288ZM19.9843 88.9806C20.2567 88.9806 20.5257 89.0009 20.7909 89.0382L20.9301 88.048C20.6222 88.0047 20.3067 87.9806 19.9843 87.9806V88.9806ZM14.2246 94.7403C14.2246 91.5648 16.8087 88.9806 19.9843 88.9806V87.9806C16.2564 87.9806 13.2246 91.0125 13.2246 94.7403H14.2246ZM19.9843 100.5C16.8087 100.5 14.2246 97.9158 14.2246 94.7403H13.2246C13.2246 98.4681 16.2564 101.5 19.9843 101.5V100.5ZM25.5781 96.1095C24.9618 98.627 22.6869 100.5 19.9843 100.5V101.5C23.1595 101.5 25.8265 99.3006 26.5495 96.3473L25.5781 96.1095ZM61.6212 95.7284H26.0638V96.7284H61.6212V95.7284ZM67.7007 100.5C64.9982 100.5 62.7231 98.627 62.1068 96.1095L61.1355 96.3473C61.8585 99.3006 64.5256 101.5 67.7007 101.5V100.5ZM73.4604 94.7403C73.4604 97.9158 70.8762 100.5 67.7007 100.5V101.5C71.4285 101.5 74.4604 98.4681 74.4604 94.7403H73.4604ZM67.7007 88.9806C70.8763 88.9806 73.4604 91.5648 73.4604 94.7403H74.4604C74.4604 91.0125 71.4285 87.9806 67.7007 87.9806V88.9806ZM62.1068 93.371C62.7231 90.8536 64.998 88.9806 67.7007 88.9806V87.9806C64.5254 87.9806 61.8585 90.18 61.1355 93.1333L62.1068 93.371ZM26.0636 93.7522H61.6212V92.7522H26.0636V93.7522ZM23.3311 90.0576C24.4342 90.8485 25.2466 92.017 25.5779 93.371L26.5493 93.1333C26.1596 91.5412 25.2056 90.1711 23.9138 89.2449L23.3311 90.0576ZM26.8895 80.1373L23.1582 89.4656L24.0867 89.8369L27.818 80.5087L26.8895 80.1373ZM67.7005 79.823H27.3537V80.823H67.7005V79.823ZM73.4602 74.0633C73.4602 77.2389 70.8761 79.823 67.7005 79.823V80.823C71.4283 80.823 74.4602 77.7911 74.4602 74.0633H73.4602ZM73.4602 72.4728V74.0633H74.4602V72.4728H73.4602ZM72.4721 71.4845C73.0179 71.4845 73.4602 71.9268 73.4602 72.4728H74.4602C74.4602 71.3747 73.5704 70.4845 72.4721 70.4845V71.4845ZM16.2006 94.7403C16.2006 96.827 17.8974 98.5237 19.9841 98.5237V97.5237C18.4496 97.5237 17.2006 96.2747 17.2006 94.7403H16.2006ZM19.9841 90.9569C17.8974 90.9569 16.2006 92.6536 16.2006 94.7403H17.2006C17.2006 93.2059 18.4496 91.9569 19.9841 91.9569V90.9569ZM23.7675 94.7403C23.7675 92.6536 22.0708 90.9569 19.9841 90.9569V91.9569C21.5185 91.9569 22.7675 93.2059 22.7675 94.7403H23.7675ZM19.9841 98.5237C22.0708 98.5237 23.7675 96.827 23.7675 94.7403H22.7675C22.7675 96.2747 21.5185 97.5237 19.9841 97.5237V98.5237ZM71.4839 94.7401C71.4839 92.6534 69.7872 90.9567 67.7005 90.9567V91.9567C69.2349 91.9567 70.4839 93.2057 70.4839 94.7401H71.4839ZM67.7005 98.5235C69.7872 98.5235 71.4839 96.8268 71.4839 94.7401H70.4839C70.4839 96.2745 69.2349 97.5235 67.7005 97.5235V98.5235ZM63.9171 94.7401C63.9171 96.8268 65.6138 98.5235 67.7005 98.5235V97.5235C66.1661 97.5235 64.9171 96.2745 64.9171 94.7401H63.9171ZM67.7005 90.9567C65.6138 90.9567 63.9171 92.6534 63.9171 94.7401H64.9171C64.9171 93.2057 66.1661 91.9567 67.7005 91.9567V90.9567ZM54.9762 50.6022C55.4841 50.6022 55.9939 50.4081 56.3821 50.0197L55.6747 49.3128C55.4819 49.5058 55.2298 49.6022 54.9762 49.6022V50.6022ZM53.5704 50.0198C53.9584 50.4078 54.4682 50.6022 54.9762 50.6022V49.6022C54.7227 49.6022 54.4705 49.5057 54.2775 49.3127L53.5704 50.0198ZM53.5704 47.2083C52.794 47.9847 52.7939 49.2436 53.5705 50.0199L54.2775 49.3126C53.8917 48.927 53.8916 48.3013 54.2775 47.9154L53.5704 47.2083ZM82.2004 18.5785L53.5704 47.2083L54.2775 47.9154L82.9075 19.2856L82.2004 18.5785ZM85.0119 18.5785C84.2355 17.8021 82.9766 17.802 82.2003 18.5785L82.9076 19.2855C83.2932 18.8997 83.9189 18.8996 84.3048 19.2856L85.0119 18.5785ZM85.0119 21.39C85.7883 20.6136 85.7884 19.3547 85.0119 18.5784L84.3049 19.2856C84.6907 19.6713 84.6908 20.297 84.3048 20.6829L85.0119 21.39ZM56.3819 50.0198L85.0119 21.39L84.3048 20.6829L55.6748 49.3127L56.3819 50.0198ZM58.1574 17.4057C62.2097 17.4057 65.5076 20.7034 65.5076 24.7559H66.5076C66.5076 20.1511 62.762 16.4057 58.1574 16.4057V17.4057ZM50.807 24.7559C50.807 20.7034 54.105 17.4057 58.1574 17.4057V16.4057C53.5528 16.4057 49.807 20.1511 49.807 24.7559H50.807ZM58.1572 32.1062C54.1048 32.1062 50.807 28.8085 50.807 24.7559H49.807C49.807 29.3608 53.5525 33.1062 58.1572 33.1062V32.1062ZM65.5076 24.7559C65.5076 28.8085 62.2096 32.1062 58.1572 32.1062V33.1062C62.7618 33.1062 66.5076 29.3608 66.5076 24.7559H65.5076ZM58.1572 19.382C55.1937 19.382 52.7832 21.7922 52.7832 24.7559H53.7832C53.7832 22.3445 55.7459 20.382 58.1572 20.382V19.382ZM63.5311 24.7559C63.5311 21.7924 61.1207 19.382 58.1572 19.382V20.382C60.5684 20.382 62.5311 22.3447 62.5311 24.7559H63.5311ZM58.1572 30.1299C61.1207 30.1299 63.5311 27.7195 63.5311 24.7559H62.5311C62.5311 27.1672 60.5684 29.1299 58.1572 29.1299V30.1299ZM52.7832 24.7559C52.7832 27.7197 55.1937 30.1299 58.1572 30.1299V29.1299C55.7459 29.1299 53.7832 27.1674 53.7832 24.7559H52.7832ZM78.8344 53.7828C83.4393 53.7828 87.1846 50.0372 87.1846 45.4324H86.1846C86.1846 49.4849 82.887 52.7828 78.8344 52.7828V53.7828ZM70.484 45.4324C70.484 50.0374 74.2296 53.7828 78.8344 53.7828V52.7828C74.7819 52.7828 71.484 49.4851 71.484 45.4324H70.484ZM78.8344 37.0821C74.2296 37.0821 70.484 40.8277 70.484 45.4324H71.484C71.484 41.38 74.7819 38.0821 78.8344 38.0821V37.0821ZM87.1846 45.4324C87.1846 40.8275 83.439 37.0821 78.8344 37.0821V38.0821C82.8868 38.0821 86.1846 41.3798 86.1846 45.4324H87.1846ZM78.8344 41.0584C81.2458 41.0584 83.2084 43.0211 83.2084 45.4324H84.2084C84.2084 42.4689 81.7981 40.0584 78.8344 40.0584V41.0584ZM74.4603 45.4324C74.4603 43.021 76.423 41.0584 78.8344 41.0584V40.0584C75.8707 40.0584 73.4603 42.4686 73.4603 45.4324H74.4603ZM78.8344 49.8065C76.4232 49.8065 74.4603 47.8438 74.4603 45.4324H73.4603C73.4603 48.3961 75.8709 50.8065 78.8344 50.8065V49.8065ZM83.2084 45.4324C83.2084 47.8436 81.2456 49.8065 78.8344 49.8065V50.8065C81.798 50.8065 84.2084 48.3959 84.2084 45.4324H83.2084Z" fill="url(#paint1_linear)" mask="url(#path-1-outside-1)"/>
<defs>
<linearGradient id="paint0_linear" x1="1.53421" y1="3.11899" x2="106.38" y2="7.48567" gradientUnits="userSpaceOnUse">
<stop stop-color="#0BB9F6"/>
<stop offset="1" stop-color="#5B6FED"/>
</linearGradient>
<linearGradient id="paint1_linear" x1="1.53421" y1="3.11899" x2="106.38" y2="7.48567" gradientUnits="userSpaceOnUse">
<stop stop-color="#0BB9F6"/>
<stop offset="1" stop-color="#5B6FED"/>
</linearGradient>
</defs>
</svg>
