<svg width="102" height="100" viewBox="0 0 102 100" fill="none" xmlns="http://www.w3.org/2000/svg">
<g clip-path="url(#clip0)">
<mask id="path-1-outside-1" maskUnits="userSpaceOnUse" x="-1" y="-1" width="104" height="102" fill="black">
<rect fill="white" x="-1" y="-1" width="104" height="102"/>
<path fill-rule="evenodd" clip-rule="evenodd" d="M79.6425 53.2793V46.7207C92.1008 45.9619 102 35.7857 102 23.384C102 18.0773 100.232 13.0744 96.8878 8.91641C96.3768 8.28086 95.4375 8.17207 94.7895 8.67305C94.1416 9.17383 94.0304 10.0949 94.5413 10.7303C97.466 14.3664 99.0117 18.742 99.0117 23.384C99.0117 34.6625 89.6526 43.8383 78.1483 43.8383C66.6441 43.8383 57.285 34.6625 57.285 23.384C57.285 12.1055 66.6442 2.92969 78.1483 2.92969C82.4413 2.92969 86.5641 4.19766 90.071 6.59629C90.7479 7.05918 91.6791 6.89687 92.1512 6.2332C92.6234 5.56973 92.4576 4.65664 91.7809 4.19375C87.77 1.4502 83.0559 0 78.1483 0C65.4985 0 55.1189 9.70508 54.3449 21.9191H47.6551C46.8812 9.70508 36.5015 0 23.8517 0C10.6996 0 0 10.4898 0 23.384C0 35.7859 9.89918 45.9619 22.3575 46.7207V53.2793C9.89918 54.0381 0 64.2143 0 76.616C0 89.5102 10.6996 100 23.8517 100C36.5017 100 46.8812 90.2949 47.6551 78.0809H54.3449C55.1189 90.2949 65.4985 100 78.1483 100C91.3004 100 102 89.5102 102 76.616C102 64.2143 92.1008 54.0381 79.6425 53.2793ZM2.98828 23.384C2.98828 12.1053 12.3474 2.92969 23.8517 2.92969C35.3559 2.92969 44.715 12.1053 44.715 23.384C44.715 34.6627 35.3558 43.8383 23.8517 43.8383C12.3476 43.8383 2.98828 34.6625 2.98828 23.384ZM23.8517 97.0703C12.3474 97.0703 2.98828 87.8947 2.98828 76.616C2.98828 65.3373 12.3474 56.1617 23.8517 56.1617C28.1446 56.1617 32.2675 57.4297 35.7743 59.8283C36.4513 60.2912 37.3826 60.1287 37.8545 59.4652C38.3267 58.8018 38.1609 57.8887 37.4842 57.4258C33.8823 54.9621 29.7127 53.5453 25.3458 53.2812V46.7207C37.3099 45.992 46.9118 36.5781 47.6551 24.8488H54.3449C55.0882 36.5783 64.6903 45.992 76.6542 46.7207V53.2793C64.6901 54.008 55.0882 63.4219 54.3449 75.1512H47.6527C47.3571 70.391 45.6259 65.9215 42.5912 62.1482C42.0802 61.5129 41.1409 61.4041 40.4926 61.9051C39.8447 62.4059 39.7336 63.327 40.2444 63.9623C43.1689 67.5986 44.7146 71.9742 44.7146 76.6162C44.715 87.8947 35.3558 97.0703 23.8517 97.0703ZM78.1483 97.0703C66.6442 97.0703 57.285 87.8947 57.285 76.616C57.285 65.3373 66.6442 56.1617 78.1483 56.1617C89.6524 56.1617 99.0117 65.3375 99.0117 76.616C99.0117 87.8945 89.6526 97.0703 78.1483 97.0703ZM27.0455 23.2835C27.8707 23.2835 28.5397 22.6277 28.5397 21.8187C28.5397 21.0097 27.8707 20.3538 27.0455 20.3538H23.7486V17.1218C23.7486 15.3396 25.2276 13.8898 27.0455 13.8898H28.6425C29.4676 13.8898 30.1366 13.2339 30.1366 12.4249C30.1366 11.6159 29.4676 10.9601 28.6425 10.9601H27.0455C23.5799 10.9601 20.7604 13.7241 20.7604 17.1218V20.3538H17.4637C16.6385 20.3538 15.9696 21.0097 15.9696 21.8187C15.9696 22.6277 16.6385 23.2835 17.4637 23.2835H20.7604V34.3439C20.7604 35.1528 21.4293 35.8087 22.2545 35.8087C23.0797 35.8087 23.7486 35.1528 23.7486 34.3439V23.2835H27.0455ZM71.8394 14.5768C72.8241 13.98 74.0302 13.9266 75.0659 14.4344L87.3912 20.4764C88.5219 21.0307 89.2244 22.145 89.2244 23.3844C89.2244 24.6239 88.5219 25.7382 87.3912 26.2925L75.0659 32.3343C74.5939 32.5657 74.0865 32.6805 73.5807 32.6805C72.9767 32.6805 72.3753 32.5169 71.8394 32.1921C70.8544 31.5952 70.2663 30.5614 70.2663 29.4262V17.3427C70.2663 16.2075 70.8544 15.1735 71.8394 14.5768ZM73.7293 29.7137L86.0548 23.6719C86.1749 23.6128 86.2359 23.5163 86.2359 23.3843C86.2359 23.2522 86.1749 23.1555 86.0546 23.0966L73.7293 17.0548C73.6764 17.0286 73.6265 17.0186 73.5815 17.0186C73.5118 17.0186 73.4532 17.0427 73.4102 17.0688C73.3393 17.1118 73.2546 17.1942 73.2546 17.3425V29.4261C73.2546 29.5743 73.3391 29.6567 73.4102 29.6997C73.4813 29.7427 73.5943 29.78 73.7293 29.7137ZM30.2396 65.7574H17.4637C14.8786 65.7574 12.7756 67.8194 12.7756 70.3535V82.8787C12.7756 85.4131 14.8788 87.4748 17.4637 87.4748H30.2394C32.8244 87.4748 34.9274 85.4129 34.9274 82.8787V70.3535C34.9276 67.8194 32.8244 65.7574 30.2396 65.7574ZM31.9393 82.8789C31.9393 83.7979 31.1767 84.5453 30.2396 84.5453H17.4637C16.5263 84.5453 15.7639 83.7977 15.7639 82.8789V70.3537C15.7639 69.4348 16.5265 68.6873 17.4637 68.6873H30.2394C31.1767 68.6873 31.9391 69.435 31.9391 70.3537V82.8789H31.9393ZM19.1637 76.6159C19.1637 74.0816 21.2666 72.0197 23.8517 72.0197C26.4367 72.0197 28.5397 74.0814 28.5399 76.6159C28.5399 79.1501 26.4367 81.212 23.8517 81.212C21.2668 81.212 19.1637 79.1503 19.1637 76.6159ZM22.1519 76.6159C22.1519 77.5347 22.9144 78.2823 23.8517 78.2823C24.789 78.2823 25.5514 77.5347 25.5516 76.6159C25.5516 75.697 24.789 74.9493 23.8517 74.9493C22.9146 74.9493 22.1519 75.697 22.1519 76.6159ZM78.1483 64.1913C71.1603 64.1913 65.4754 69.7649 65.4754 76.6157C65.4754 78.861 66.0856 81.0346 67.2475 82.9501L65.5824 87.0311C65.3605 87.5753 65.4906 88.1966 65.9131 88.611C66.1988 88.8911 66.5809 89.0401 66.97 89.0401C67.1566 89.0401 67.3447 89.0059 67.5246 88.9352L71.6873 87.3028C73.641 88.4417 75.8581 89.0401 78.1485 89.0401C85.1363 89.0401 90.8214 83.4665 90.8214 76.6157C90.8212 69.7649 85.1363 64.1913 78.1483 64.1913ZM78.1483 86.1104C76.19 86.1104 74.3018 85.538 72.6877 84.455C72.4355 84.2856 72.1407 84.1989 71.8436 84.1989C71.6562 84.1989 71.4679 84.2335 71.2888 84.3038L69.6516 84.946L70.3065 83.3407C70.4917 82.887 70.4338 82.3725 70.1523 81.9692C69.0476 80.3868 68.4637 78.5356 68.4637 76.6159C68.4637 71.3803 72.8083 67.1212 78.1483 67.1212C83.4884 67.1212 87.8329 71.3805 87.8329 76.6159C87.8329 81.8512 83.4886 86.1104 78.1483 86.1104ZM78.1485 79.848C79.0291 79.848 79.857 79.5116 80.4796 78.9013C81.0629 78.3292 82.009 78.329 82.5927 78.9015C83.1762 79.4734 83.1762 80.4009 82.5927 80.973C81.4056 82.1368 79.8273 82.7778 78.1485 82.7778C76.4697 82.7778 74.8913 82.1368 73.7043 80.973C72.5172 79.8091 71.8636 78.2618 71.8636 76.6159C71.8636 74.97 72.5172 73.4226 73.7043 72.2589C74.2877 71.6868 75.2337 71.6868 75.8173 72.2589C76.4008 72.8308 76.4008 73.7583 75.8173 74.3304C75.1945 74.9409 74.8516 75.7526 74.8516 76.6159C74.8516 77.4792 75.1945 78.2909 75.8173 78.9013C76.44 79.5116 77.268 79.848 78.1485 79.848Z"/>
</mask>
<path fill-rule="evenodd" clip-rule="evenodd" d="M79.6425 53.2793V46.7207C92.1008 45.9619 102 35.7857 102 23.384C102 18.0773 100.232 13.0744 96.8878 8.91641C96.3768 8.28086 95.4375 8.17207 94.7895 8.67305C94.1416 9.17383 94.0304 10.0949 94.5413 10.7303C97.466 14.3664 99.0117 18.742 99.0117 23.384C99.0117 34.6625 89.6526 43.8383 78.1483 43.8383C66.6441 43.8383 57.285 34.6625 57.285 23.384C57.285 12.1055 66.6442 2.92969 78.1483 2.92969C82.4413 2.92969 86.5641 4.19766 90.071 6.59629C90.7479 7.05918 91.6791 6.89687 92.1512 6.2332C92.6234 5.56973 92.4576 4.65664 91.7809 4.19375C87.77 1.4502 83.0559 0 78.1483 0C65.4985 0 55.1189 9.70508 54.3449 21.9191H47.6551C46.8812 9.70508 36.5015 0 23.8517 0C10.6996 0 0 10.4898 0 23.384C0 35.7859 9.89918 45.9619 22.3575 46.7207V53.2793C9.89918 54.0381 0 64.2143 0 76.616C0 89.5102 10.6996 100 23.8517 100C36.5017 100 46.8812 90.2949 47.6551 78.0809H54.3449C55.1189 90.2949 65.4985 100 78.1483 100C91.3004 100 102 89.5102 102 76.616C102 64.2143 92.1008 54.0381 79.6425 53.2793ZM2.98828 23.384C2.98828 12.1053 12.3474 2.92969 23.8517 2.92969C35.3559 2.92969 44.715 12.1053 44.715 23.384C44.715 34.6627 35.3558 43.8383 23.8517 43.8383C12.3476 43.8383 2.98828 34.6625 2.98828 23.384ZM23.8517 97.0703C12.3474 97.0703 2.98828 87.8947 2.98828 76.616C2.98828 65.3373 12.3474 56.1617 23.8517 56.1617C28.1446 56.1617 32.2675 57.4297 35.7743 59.8283C36.4513 60.2912 37.3826 60.1287 37.8545 59.4652C38.3267 58.8018 38.1609 57.8887 37.4842 57.4258C33.8823 54.9621 29.7127 53.5453 25.3458 53.2812V46.7207C37.3099 45.992 46.9118 36.5781 47.6551 24.8488H54.3449C55.0882 36.5783 64.6903 45.992 76.6542 46.7207V53.2793C64.6901 54.008 55.0882 63.4219 54.3449 75.1512H47.6527C47.3571 70.391 45.6259 65.9215 42.5912 62.1482C42.0802 61.5129 41.1409 61.4041 40.4926 61.9051C39.8447 62.4059 39.7336 63.327 40.2444 63.9623C43.1689 67.5986 44.7146 71.9742 44.7146 76.6162C44.715 87.8947 35.3558 97.0703 23.8517 97.0703ZM78.1483 97.0703C66.6442 97.0703 57.285 87.8947 57.285 76.616C57.285 65.3373 66.6442 56.1617 78.1483 56.1617C89.6524 56.1617 99.0117 65.3375 99.0117 76.616C99.0117 87.8945 89.6526 97.0703 78.1483 97.0703ZM27.0455 23.2835C27.8707 23.2835 28.5397 22.6277 28.5397 21.8187C28.5397 21.0097 27.8707 20.3538 27.0455 20.3538H23.7486V17.1218C23.7486 15.3396 25.2276 13.8898 27.0455 13.8898H28.6425C29.4676 13.8898 30.1366 13.2339 30.1366 12.4249C30.1366 11.6159 29.4676 10.9601 28.6425 10.9601H27.0455C23.5799 10.9601 20.7604 13.7241 20.7604 17.1218V20.3538H17.4637C16.6385 20.3538 15.9696 21.0097 15.9696 21.8187C15.9696 22.6277 16.6385 23.2835 17.4637 23.2835H20.7604V34.3439C20.7604 35.1528 21.4293 35.8087 22.2545 35.8087C23.0797 35.8087 23.7486 35.1528 23.7486 34.3439V23.2835H27.0455ZM71.8394 14.5768C72.8241 13.98 74.0302 13.9266 75.0659 14.4344L87.3912 20.4764C88.5219 21.0307 89.2244 22.145 89.2244 23.3844C89.2244 24.6239 88.5219 25.7382 87.3912 26.2925L75.0659 32.3343C74.5939 32.5657 74.0865 32.6805 73.5807 32.6805C72.9767 32.6805 72.3753 32.5169 71.8394 32.1921C70.8544 31.5952 70.2663 30.5614 70.2663 29.4262V17.3427C70.2663 16.2075 70.8544 15.1735 71.8394 14.5768ZM73.7293 29.7137L86.0548 23.6719C86.1749 23.6128 86.2359 23.5163 86.2359 23.3843C86.2359 23.2522 86.1749 23.1555 86.0546 23.0966L73.7293 17.0548C73.6764 17.0286 73.6265 17.0186 73.5815 17.0186C73.5118 17.0186 73.4532 17.0427 73.4102 17.0688C73.3393 17.1118 73.2546 17.1942 73.2546 17.3425V29.4261C73.2546 29.5743 73.3391 29.6567 73.4102 29.6997C73.4813 29.7427 73.5943 29.78 73.7293 29.7137ZM30.2396 65.7574H17.4637C14.8786 65.7574 12.7756 67.8194 12.7756 70.3535V82.8787C12.7756 85.4131 14.8788 87.4748 17.4637 87.4748H30.2394C32.8244 87.4748 34.9274 85.4129 34.9274 82.8787V70.3535C34.9276 67.8194 32.8244 65.7574 30.2396 65.7574ZM31.9393 82.8789C31.9393 83.7979 31.1767 84.5453 30.2396 84.5453H17.4637C16.5263 84.5453 15.7639 83.7977 15.7639 82.8789V70.3537C15.7639 69.4348 16.5265 68.6873 17.4637 68.6873H30.2394C31.1767 68.6873 31.9391 69.435 31.9391 70.3537V82.8789H31.9393ZM19.1637 76.6159C19.1637 74.0816 21.2666 72.0197 23.8517 72.0197C26.4367 72.0197 28.5397 74.0814 28.5399 76.6159C28.5399 79.1501 26.4367 81.212 23.8517 81.212C21.2668 81.212 19.1637 79.1503 19.1637 76.6159ZM22.1519 76.6159C22.1519 77.5347 22.9144 78.2823 23.8517 78.2823C24.789 78.2823 25.5514 77.5347 25.5516 76.6159C25.5516 75.697 24.789 74.9493 23.8517 74.9493C22.9146 74.9493 22.1519 75.697 22.1519 76.6159ZM78.1483 64.1913C71.1603 64.1913 65.4754 69.7649 65.4754 76.6157C65.4754 78.861 66.0856 81.0346 67.2475 82.9501L65.5824 87.0311C65.3605 87.5753 65.4906 88.1966 65.9131 88.611C66.1988 88.8911 66.5809 89.0401 66.97 89.0401C67.1566 89.0401 67.3447 89.0059 67.5246 88.9352L71.6873 87.3028C73.641 88.4417 75.8581 89.0401 78.1485 89.0401C85.1363 89.0401 90.8214 83.4665 90.8214 76.6157C90.8212 69.7649 85.1363 64.1913 78.1483 64.1913ZM78.1483 86.1104C76.19 86.1104 74.3018 85.538 72.6877 84.455C72.4355 84.2856 72.1407 84.1989 71.8436 84.1989C71.6562 84.1989 71.4679 84.2335 71.2888 84.3038L69.6516 84.946L70.3065 83.3407C70.4917 82.887 70.4338 82.3725 70.1523 81.9692C69.0476 80.3868 68.4637 78.5356 68.4637 76.6159C68.4637 71.3803 72.8083 67.1212 78.1483 67.1212C83.4884 67.1212 87.8329 71.3805 87.8329 76.6159C87.8329 81.8512 83.4886 86.1104 78.1483 86.1104ZM78.1485 79.848C79.0291 79.848 79.857 79.5116 80.4796 78.9013C81.0629 78.3292 82.009 78.329 82.5927 78.9015C83.1762 79.4734 83.1762 80.4009 82.5927 80.973C81.4056 82.1368 79.8273 82.7778 78.1485 82.7778C76.4697 82.7778 74.8913 82.1368 73.7043 80.973C72.5172 79.8091 71.8636 78.2618 71.8636 76.6159C71.8636 74.97 72.5172 73.4226 73.7043 72.2589C74.2877 71.6868 75.2337 71.6868 75.8173 72.2589C76.4008 72.8308 76.4008 73.7583 75.8173 74.3304C75.1945 74.9409 74.8516 75.7526 74.8516 76.6159C74.8516 77.4792 75.1945 78.2909 75.8173 78.9013C76.44 79.5116 77.268 79.848 78.1485 79.848Z" fill="url(#paint0_linear)"/>
<path d="M79.6425 46.7207L79.6121 46.2216L79.1425 46.2502V46.7207H79.6425ZM79.6425 53.2793H79.1425V53.7498L79.6121 53.7784L79.6425 53.2793ZM96.8878 8.91641L96.4982 9.22971L96.4982 9.22979L96.8878 8.91641ZM94.7895 8.67305L95.0953 9.06864L95.0953 9.06863L94.7895 8.67305ZM94.5413 10.7303L94.1516 11.0436L94.1516 11.0437L94.5413 10.7303ZM90.071 6.59629L89.7887 7.00899L89.7888 7.00902L90.071 6.59629ZM92.1512 6.2332L91.7438 5.9433L91.7438 5.94336L92.1512 6.2332ZM91.7809 4.19375L91.4986 4.60644L91.4986 4.60645L91.7809 4.19375ZM54.3449 21.9191V22.4191H54.8142L54.8439 21.9508L54.3449 21.9191ZM47.6551 21.9191L47.1561 21.9508L47.1858 22.4191H47.6551V21.9191ZM22.3575 46.7207H22.8575V46.2502L22.3879 46.2216L22.3575 46.7207ZM22.3575 53.2793L22.3879 53.7784L22.8575 53.7498V53.2793H22.3575ZM47.6551 78.0809V77.5809H47.1858L47.1561 78.0492L47.6551 78.0809ZM54.3449 78.0809L54.8439 78.0492L54.8142 77.5809H54.3449V78.0809ZM35.7743 59.8283L35.492 60.241L35.4921 60.2411L35.7743 59.8283ZM37.8545 59.4652L37.4472 59.1753L37.4471 59.1754L37.8545 59.4652ZM37.4842 57.4258L37.2019 57.8385V57.8385L37.4842 57.4258ZM25.3458 53.2812H24.8458V53.7519L25.3156 53.7803L25.3458 53.2812ZM25.3458 46.7207L25.3154 46.2216L24.8458 46.2502V46.7207H25.3458ZM47.6551 24.8488V24.3488H47.1858L47.1561 24.8172L47.6551 24.8488ZM54.3449 24.8488L54.8439 24.8172L54.8142 24.3488H54.3449V24.8488ZM76.6542 46.7207H77.1542V46.2502L76.6846 46.2216L76.6542 46.7207ZM76.6542 53.2793L76.6846 53.7784L77.1542 53.7498V53.2793H76.6542ZM54.3449 75.1512V75.6512H54.8142L54.8439 75.1828L54.3449 75.1512ZM47.6527 75.1512L47.1537 75.1822L47.1828 75.6512H47.6527V75.1512ZM42.5912 62.1482L42.2016 62.4616L42.5912 62.1482ZM40.4926 61.9051L40.1869 61.5095L40.1868 61.5095L40.4926 61.9051ZM40.2444 63.9623L39.8547 64.2756L39.8548 64.2757L40.2444 63.9623ZM44.7146 76.6162H44.2146V76.6162L44.7146 76.6162ZM23.7486 20.3538H23.2486V20.8538H23.7486V20.3538ZM20.7604 20.3538V20.8538H21.2604V20.3538H20.7604ZM20.7604 23.2835H21.2604V22.7835H20.7604V23.2835ZM23.7486 23.2835V22.7835H23.2486V23.2835H23.7486ZM75.0659 14.4344L74.8458 14.8834L74.8458 14.8834L75.0659 14.4344ZM71.8394 14.5768L72.0984 15.0045L72.0985 15.0044L71.8394 14.5768ZM87.3912 20.4764L87.1711 20.9254L87.1711 20.9254L87.3912 20.4764ZM87.3912 26.2925L87.1711 25.8435L87.3912 26.2925ZM75.0659 32.3343L74.8458 31.8853L74.8457 31.8853L75.0659 32.3343ZM71.8394 32.1921L72.0985 31.7645L72.0985 31.7645L71.8394 32.1921ZM86.0548 23.6719L86.2749 24.1209L86.2758 24.1205L86.0548 23.6719ZM73.7293 29.7137L73.9494 30.1627L73.7293 29.7137ZM86.0546 23.0966L86.2747 22.6476L86.2747 22.6476L86.0546 23.0966ZM73.7293 17.0548L73.5079 17.5031L73.5093 17.5037L73.7293 17.0548ZM73.4102 17.0688L73.6693 17.4965L73.67 17.496L73.4102 17.0688ZM34.9274 70.3535L34.4274 70.3535V70.3535H34.9274ZM31.9393 82.8789H32.4393V82.3789H31.9393V82.8789ZM31.9391 82.8789H31.4391V83.3789H31.9391V82.8789ZM28.5399 76.6159H29.0399V76.6159L28.5399 76.6159ZM25.5516 76.6159L26.0516 76.616V76.6159H25.5516ZM67.2475 82.9501L67.7104 83.1389L67.8055 82.9059L67.675 82.6908L67.2475 82.9501ZM65.5824 87.0311L65.1194 86.8422L65.1194 86.8423L65.5824 87.0311ZM65.9131 88.611L65.563 88.968L65.5631 88.968L65.9131 88.611ZM67.5246 88.9352L67.342 88.4697L67.3417 88.4699L67.5246 88.9352ZM71.6873 87.3028L71.9391 86.8708L71.73 86.749L71.5047 86.8373L71.6873 87.3028ZM90.8214 76.6157H91.3214V76.6157L90.8214 76.6157ZM72.6877 84.455L72.409 84.8701L72.4091 84.8702L72.6877 84.455ZM71.2888 84.3038L71.4714 84.7692L71.4715 84.7692L71.2888 84.3038ZM69.6516 84.946L69.1887 84.7571L68.7479 85.8375L69.8342 85.4114L69.6516 84.946ZM70.3065 83.3407L69.8436 83.1517L69.8435 83.1518L70.3065 83.3407ZM70.1523 81.9692L70.5623 81.683L70.5623 81.683L70.1523 81.9692ZM80.4796 78.9013L80.8296 79.2583L80.8297 79.2583L80.4796 78.9013ZM82.5927 78.9015L82.2426 79.2584L82.2427 79.2586L82.5927 78.9015ZM82.5927 80.973L82.2427 80.6159V80.6159L82.5927 80.973ZM73.7043 80.973L74.0544 80.616L74.0544 80.6159L73.7043 80.973ZM73.7043 72.2589L74.0544 72.616L74.0544 72.6159L73.7043 72.2589ZM75.8173 72.2589L75.4672 72.6159L75.4673 72.616L75.8173 72.2589ZM75.8173 74.3304L76.1673 74.6874L76.1673 74.6874L75.8173 74.3304ZM75.8173 78.9013L76.1672 78.5442L75.8173 78.9013ZM79.1425 46.7207V53.2793H80.1425V46.7207H79.1425ZM101.5 23.384C101.5 35.5111 91.817 45.4783 79.6121 46.2216L79.6729 47.2198C92.3847 46.4456 102.5 36.0604 102.5 23.384H101.5ZM96.4982 9.22979C99.7717 13.2995 101.5 18.192 101.5 23.384H102.5C102.5 17.9627 100.693 12.8493 97.2775 8.60303L96.4982 9.22979ZM95.0953 9.06863C95.5295 8.73292 96.1592 8.80817 96.4982 9.22971L97.2775 8.6031C96.5944 7.75354 95.3455 7.61122 94.4837 8.27746L95.0953 9.06863ZM94.9309 10.417C94.5969 10.0015 94.6671 9.39959 95.0953 9.06864L94.4837 8.27745C93.6161 8.94807 93.464 10.1884 94.1516 11.0436L94.9309 10.417ZM99.5117 23.384C99.5117 18.6274 97.9266 14.1413 94.9309 10.4169L94.1516 11.0437C97.0053 14.5915 98.5117 18.8566 98.5117 23.384H99.5117ZM78.1483 44.3383C89.9194 44.3383 99.5117 34.9479 99.5117 23.384H98.5117C98.5117 34.3771 89.3859 43.3383 78.1483 43.3383V44.3383ZM56.785 23.384C56.785 34.9479 66.3773 44.3383 78.1483 44.3383V43.3383C66.9108 43.3383 57.785 34.3771 57.785 23.384H56.785ZM78.1483 2.42969C66.3775 2.42969 56.785 11.82 56.785 23.384H57.785C57.785 12.3909 66.911 3.42969 78.1483 3.42969V2.42969ZM90.3533 6.18359C86.7623 3.72746 82.5409 2.42969 78.1483 2.42969V3.42969C82.3417 3.42969 86.3659 4.66785 89.7887 7.00899L90.3533 6.18359ZM91.7438 5.94336C91.4316 6.38223 90.808 6.49453 90.3532 6.18356L89.7888 7.00902C90.6879 7.62383 91.9266 7.41152 92.5586 6.52305L91.7438 5.94336ZM91.4986 4.60645C91.9471 4.91322 92.0519 5.51041 91.7438 5.9433L92.5586 6.5231C93.1948 5.62904 92.9682 4.40006 92.0632 3.78105L91.4986 4.60645ZM78.1483 0.5C82.9562 0.5 87.5717 1.92036 91.4986 4.60644L92.0632 3.78106C87.9683 0.98003 83.1556 -0.5 78.1483 -0.5V0.5ZM54.8439 21.9508C55.6007 10.0066 65.7558 0.5 78.1483 0.5V-0.5C65.2413 -0.5 54.637 9.40355 53.8459 21.8875L54.8439 21.9508ZM47.6551 22.4191H54.3449V21.4191H47.6551V22.4191ZM23.8517 0.5C36.2442 0.5 46.3993 10.0066 47.1561 21.9508L48.1541 21.8875C47.363 9.40355 36.7587 -0.5 23.8517 -0.5V0.5ZM0.5 23.384C0.5 10.7753 10.9664 0.5 23.8517 0.5V-0.5C10.4329 -0.5 -0.5 10.2044 -0.5 23.384H0.5ZM22.3879 46.2216C10.183 45.4783 0.5 35.5113 0.5 23.384H-0.5C-0.5 36.0606 9.61534 46.4456 22.3271 47.2198L22.3879 46.2216ZM22.8575 53.2793V46.7207H21.8575V53.2793H22.8575ZM0.5 76.616C0.5 64.4889 10.183 54.5217 22.3879 53.7784L22.3271 52.7802C9.61534 53.5544 -0.5 63.9396 -0.5 76.616H0.5ZM23.8517 99.5C10.9664 99.5 0.5 89.2247 0.5 76.616H-0.5C-0.5 89.7956 10.4329 100.5 23.8517 100.5V99.5ZM47.1561 78.0492C46.3993 89.9934 36.2444 99.5 23.8517 99.5V100.5C36.7589 100.5 47.363 90.5964 48.1541 78.1125L47.1561 78.0492ZM54.3449 77.5809H47.6551V78.5809H54.3449V77.5809ZM78.1483 99.5C65.7558 99.5 55.6007 89.9934 54.8439 78.0492L53.8459 78.1125C54.637 90.5964 65.2413 100.5 78.1483 100.5V99.5ZM101.5 76.616C101.5 89.2247 91.0336 99.5 78.1483 99.5V100.5C91.5671 100.5 102.5 89.7956 102.5 76.616H101.5ZM79.6121 53.7784C91.817 54.5217 101.5 64.4889 101.5 76.616H102.5C102.5 63.9396 92.3847 53.5544 79.6729 52.7802L79.6121 53.7784ZM23.8517 2.42969C12.0806 2.42969 2.48828 11.8198 2.48828 23.384H3.48828C3.48828 12.3907 12.6141 3.42969 23.8517 3.42969V2.42969ZM45.215 23.384C45.215 11.8198 35.6227 2.42969 23.8517 2.42969V3.42969C35.0892 3.42969 44.215 12.3907 44.215 23.384H45.215ZM23.8517 44.3383C35.6225 44.3383 45.215 34.9481 45.215 23.384H44.215C44.215 34.3773 35.089 43.3383 23.8517 43.3383V44.3383ZM2.48828 23.384C2.48828 34.9479 12.0808 44.3383 23.8517 44.3383V43.3383C12.6143 43.3383 3.48828 34.3771 3.48828 23.384H2.48828ZM2.48828 76.616C2.48828 88.1802 12.0806 97.5703 23.8517 97.5703V96.5703C12.6141 96.5703 3.48828 87.6093 3.48828 76.616H2.48828ZM23.8517 55.6617C12.0806 55.6617 2.48828 65.0519 2.48828 76.616H3.48828C3.48828 65.6227 12.6141 56.6617 23.8517 56.6617V55.6617ZM36.0566 59.4156C32.4657 56.9595 28.2443 55.6617 23.8517 55.6617V56.6617C28.045 56.6617 32.0692 57.8999 35.492 60.241L36.0566 59.4156ZM37.4471 59.1754C37.1351 59.6141 36.5113 59.7265 36.0565 59.4156L35.4921 60.2411C36.3912 60.8559 37.6301 60.6433 38.262 59.7551L37.4471 59.1754ZM37.2019 57.8385C37.6504 58.1452 37.7552 58.7424 37.4472 59.1753L38.2619 59.7551C38.8982 58.8611 38.6715 57.6321 37.7665 57.0131L37.2019 57.8385ZM25.3156 53.7803C29.5932 54.039 33.6756 55.4265 37.2019 57.8385L37.7665 57.0131C34.0891 54.4978 29.8321 53.0516 25.376 52.7822L25.3156 53.7803ZM24.8458 46.7207V53.2812H25.8458V46.7207H24.8458ZM47.1561 24.8172C46.4293 36.2871 37.0355 45.5078 25.3154 46.2216L25.3762 47.2198C37.5843 46.4762 47.3944 36.8691 48.1541 24.8804L47.1561 24.8172ZM54.3449 24.3488H47.6551V25.3488H54.3449V24.3488ZM76.6846 46.2216C64.9647 45.5078 55.5707 36.2873 54.8439 24.8172L53.8459 24.8804C54.6056 36.8693 64.4159 46.4762 76.6238 47.2198L76.6846 46.2216ZM77.1542 53.2793V46.7207H76.1542V53.2793H77.1542ZM54.8439 75.1828C55.5707 63.7129 64.9645 54.4922 76.6846 53.7784L76.6238 52.7802C64.4157 53.5238 54.6056 63.1309 53.8459 75.1195L54.8439 75.1828ZM47.6527 75.6512H54.3449V74.6512H47.6527V75.6512ZM42.2016 62.4616C45.172 66.1549 46.8645 70.5259 47.1537 75.1822L48.1518 75.1202C47.8497 70.2561 46.0798 65.6881 42.9808 61.8349L42.2016 62.4616ZM40.7984 62.3007C41.2329 61.9649 41.8627 62.0402 42.2016 62.4616L42.9808 61.8349C42.2977 60.9855 41.0488 60.8433 40.1869 61.5095L40.7984 62.3007ZM40.6341 63.649C40.3 63.2335 40.3702 62.6316 40.7984 62.3007L40.1868 61.5095C39.3192 62.1801 39.1672 63.4204 39.8547 64.2756L40.6341 63.649ZM45.2146 76.6162C45.2146 71.8596 43.6296 67.3736 40.634 63.6489L39.8548 64.2757C42.7083 67.8237 44.2146 72.0889 44.2146 76.6162H45.2146ZM23.8517 97.5703C35.6225 97.5703 45.2151 88.1802 45.2146 76.6162L44.2146 76.6162C44.215 87.6093 35.089 96.5703 23.8517 96.5703V97.5703ZM56.785 76.616C56.785 88.1802 66.3775 97.5703 78.1483 97.5703V96.5703C66.911 96.5703 57.785 87.6093 57.785 76.616H56.785ZM78.1483 55.6617C66.3775 55.6617 56.785 65.0519 56.785 76.616H57.785C57.785 65.6227 66.911 56.6617 78.1483 56.6617V55.6617ZM99.5117 76.616C99.5117 65.0521 89.9192 55.6617 78.1483 55.6617V56.6617C89.3857 56.6617 98.5117 65.6229 98.5117 76.616H99.5117ZM78.1483 97.5703C89.9194 97.5703 99.5117 88.18 99.5117 76.616H98.5117C98.5117 87.6091 89.3859 96.5703 78.1483 96.5703V97.5703ZM28.0397 21.8187C28.0397 22.3422 27.6039 22.7835 27.0455 22.7835V23.7835C28.1374 23.7835 29.0397 22.9131 29.0397 21.8187H28.0397ZM27.0455 20.8538C27.6039 20.8538 28.0397 21.2951 28.0397 21.8187H29.0397C29.0397 20.7243 28.1374 19.8538 27.0455 19.8538V20.8538ZM23.7486 20.8538H27.0455V19.8538H23.7486V20.8538ZM23.2486 17.1218V20.3538H24.2486V17.1218H23.2486ZM27.0455 13.3898C24.9609 13.3898 23.2486 15.0541 23.2486 17.1218H24.2486C24.2486 15.625 25.4944 14.3898 27.0455 14.3898V13.3898ZM28.6425 13.3898H27.0455V14.3898H28.6425V13.3898ZM29.6366 12.4249C29.6366 12.9485 29.2009 13.3898 28.6425 13.3898V14.3898C29.7344 14.3898 30.6366 13.5193 30.6366 12.4249H29.6366ZM28.6425 11.4601C29.2009 11.4601 29.6366 11.9014 29.6366 12.4249H30.6366C30.6366 11.3305 29.7344 10.4601 28.6425 10.4601V11.4601ZM27.0455 11.4601H28.6425V10.4601H27.0455V11.4601ZM21.2604 17.1218C21.2604 14.0096 23.8467 11.4601 27.0455 11.4601V10.4601C23.3132 10.4601 20.2604 13.4387 20.2604 17.1218H21.2604ZM21.2604 20.3538V17.1218H20.2604V20.3538H21.2604ZM17.4637 20.8538H20.7604V19.8538H17.4637V20.8538ZM16.4696 21.8187C16.4696 21.2951 16.9053 20.8538 17.4637 20.8538V19.8538C16.3718 19.8538 15.4696 20.7243 15.4696 21.8187H16.4696ZM17.4637 22.7835C16.9053 22.7835 16.4696 22.3422 16.4696 21.8187H15.4696C15.4696 22.9131 16.3718 23.7835 17.4637 23.7835V22.7835ZM20.7604 22.7835H17.4637V23.7835H20.7604V22.7835ZM21.2604 34.3439V23.2835H20.2604V34.3439H21.2604ZM22.2545 35.3087C21.6961 35.3087 21.2604 34.8674 21.2604 34.3439H20.2604C20.2604 35.4383 21.1626 36.3087 22.2545 36.3087V35.3087ZM23.2486 34.3439C23.2486 34.8674 22.8129 35.3087 22.2545 35.3087V36.3087C23.3464 36.3087 24.2486 35.4383 24.2486 34.3439H23.2486ZM23.2486 23.2835V34.3439H24.2486V23.2835H23.2486ZM27.0455 22.7835H23.7486V23.7835H27.0455V22.7835ZM75.286 13.9855C74.0976 13.4028 72.7109 13.4639 71.5802 14.1492L72.0985 15.0044C72.9373 14.496 73.9627 14.4504 74.8458 14.8834L75.286 13.9855ZM87.6113 20.0275L75.286 13.9855L74.8458 14.8834L87.1711 20.9254L87.6113 20.0275ZM89.7244 23.3844C89.7244 21.9503 88.9098 20.664 87.6112 20.0275L87.1711 20.9254C88.134 21.3974 88.7244 22.3397 88.7244 23.3844H89.7244ZM87.6112 26.7414C88.9098 26.1049 89.7244 24.8186 89.7244 23.3844H88.7244C88.7244 24.4292 88.134 25.3715 87.1711 25.8435L87.6112 26.7414ZM75.286 32.7832L87.6112 26.7414L87.1711 25.8435L74.8458 31.8853L75.286 32.7832ZM73.5807 33.1805C74.1625 33.1805 74.7452 33.0484 75.2861 32.7832L74.8457 31.8853C74.4427 32.083 74.0106 32.1805 73.5807 32.1805V33.1805ZM71.5802 32.6197C72.1948 32.9922 72.886 33.1805 73.5807 33.1805V32.1805C73.0674 32.1805 72.5557 32.0416 72.0985 31.7645L71.5802 32.6197ZM69.7663 29.4262C69.7663 30.7394 70.4485 31.9338 71.5802 32.6197L72.0985 31.7645C71.2604 31.2565 70.7663 30.3834 70.7663 29.4262H69.7663ZM69.7663 17.3427V29.4262H70.7663V17.3427H69.7663ZM71.5803 14.1492C70.4485 14.8349 69.7663 16.0295 69.7663 17.3427H70.7663C70.7663 16.3855 71.2604 15.5122 72.0984 15.0045L71.5803 14.1492ZM85.8347 23.223L73.5093 29.2648L73.9494 30.1627L86.2749 24.1209L85.8347 23.223ZM85.7359 23.3843C85.7359 23.3711 85.7398 23.3326 85.7674 23.2889C85.7946 23.2457 85.826 23.2273 85.8338 23.2234L86.2758 24.1205C86.4037 24.0574 86.5257 23.9612 86.6134 23.822C86.7015 23.6822 86.7359 23.5294 86.7359 23.3843H85.7359ZM85.8345 23.5455C85.8263 23.5415 85.7947 23.5229 85.7674 23.4796C85.7398 23.4359 85.7359 23.3974 85.7359 23.3843H86.7359C86.7359 23.2391 86.7015 23.0863 86.6134 22.9464C86.5255 22.807 86.4032 22.7106 86.2747 22.6476L85.8345 23.5455ZM73.5093 17.5037L85.8345 23.5455L86.2747 22.6476L73.9494 16.6058L73.5093 17.5037ZM73.5815 17.5186C73.5668 17.5186 73.5524 17.517 73.5389 17.5138C73.5253 17.5107 73.5149 17.5065 73.5079 17.5031L73.9508 16.6065C73.8288 16.5462 73.7032 16.5186 73.5815 16.5186V17.5186ZM73.67 17.496C73.6594 17.5024 73.6286 17.5186 73.5815 17.5186V16.5186C73.395 16.5186 73.247 16.5829 73.1504 16.6416L73.67 17.496ZM73.7546 17.3425C73.7546 17.3702 73.7447 17.4096 73.7203 17.4458C73.6994 17.4767 73.6775 17.4915 73.6693 17.4965L73.1511 16.6412C72.987 16.7406 72.7546 16.9622 72.7546 17.3425H73.7546ZM73.7546 29.4261V17.3425H72.7546V29.4261H73.7546ZM73.6688 29.2717C73.6773 29.2769 73.6994 29.2918 73.7203 29.3228C73.7449 29.3592 73.7546 29.3986 73.7546 29.4261H72.7546C72.7546 29.8059 72.9864 30.0278 73.1516 30.1276L73.6688 29.2717ZM73.5093 29.2648C73.5299 29.2546 73.5651 29.2464 73.6048 29.2512C73.6389 29.2552 73.6605 29.2668 73.6688 29.2717L73.1516 30.1276C73.3167 30.2274 73.6143 30.327 73.9494 30.1627L73.5093 29.2648ZM17.4637 66.2574H30.2396V65.2574H17.4637V66.2574ZM13.2756 70.3535C13.2756 68.1048 15.1454 66.2574 17.4637 66.2574V65.2574C14.6118 65.2574 12.2756 67.5339 12.2756 70.3535H13.2756ZM13.2756 82.8787V70.3535H12.2756V82.8787H13.2756ZM17.4637 86.9748C15.1455 86.9748 13.2756 85.1277 13.2756 82.8787H12.2756C12.2756 85.6986 14.6121 87.9748 17.4637 87.9748V86.9748ZM30.2394 86.9748H17.4637V87.9748H30.2394V86.9748ZM34.4274 82.8787C34.4274 85.1275 32.5577 86.9748 30.2394 86.9748V87.9748C33.0912 87.9748 35.4274 85.6983 35.4274 82.8787H34.4274ZM34.4274 70.3535V82.8787H35.4274V70.3535H34.4274ZM30.2396 66.2574C32.5577 66.2574 34.4276 68.1048 34.4274 70.3535L35.4274 70.3536C35.4276 67.5339 33.0912 65.2574 30.2396 65.2574V66.2574ZM30.2396 85.0453C31.4434 85.0453 32.4393 84.0833 32.4393 82.8789H31.4393C31.4393 83.5124 30.91 84.0453 30.2396 84.0453V85.0453ZM17.4637 85.0453H30.2396V84.0453H17.4637V85.0453ZM15.2639 82.8789C15.2639 84.0831 16.2595 85.0453 17.4637 85.0453V84.0453C16.7931 84.0453 16.2639 83.5123 16.2639 82.8789H15.2639ZM15.2639 70.3537V82.8789H16.2639V70.3537H15.2639ZM17.4637 68.1873C16.2598 68.1873 15.2639 69.1493 15.2639 70.3537H16.2639C16.2639 69.7203 16.7933 69.1873 17.4637 69.1873V68.1873ZM30.2394 68.1873H17.4637V69.1873H30.2394V68.1873ZM32.4391 70.3537C32.4391 69.1496 31.4435 68.1873 30.2394 68.1873V69.1873C30.9099 69.1873 31.4391 69.7204 31.4391 70.3537H32.4391ZM32.4391 82.8789V70.3537H31.4391V82.8789H32.4391ZM31.9393 82.3789H31.9391V83.3789H31.9393V82.3789ZM23.8517 71.5197C20.9998 71.5197 18.6637 73.7962 18.6637 76.6159H19.6637C19.6637 74.367 21.5334 72.5197 23.8517 72.5197V71.5197ZM29.0399 76.6159C29.0397 73.796 26.7035 71.5197 23.8517 71.5197V72.5197C26.17 72.5197 28.0397 74.3668 28.0399 76.616L29.0399 76.6159ZM23.8517 81.712C26.7035 81.712 29.0399 79.4356 29.0399 76.6159H28.0399C28.0399 78.8647 26.17 80.712 23.8517 80.712V81.712ZM18.6637 76.6159C18.6637 79.4358 21.0001 81.712 23.8517 81.712V80.712C21.5336 80.712 19.6637 78.8649 19.6637 76.6159H18.6637ZM23.8517 77.7823C23.1812 77.7823 22.6519 77.2493 22.6519 76.6159H21.6519C21.6519 77.8201 22.6476 78.7823 23.8517 78.7823V77.7823ZM25.0516 76.6158C25.0515 77.2493 24.5222 77.7823 23.8517 77.7823V78.7823C25.0558 78.7823 26.0513 77.8201 26.0516 76.616L25.0516 76.6158ZM23.8517 75.4493C24.5222 75.4493 25.0516 75.9824 25.0516 76.6159H26.0516C26.0516 75.4116 25.0558 74.4493 23.8517 74.4493V75.4493ZM22.6519 76.6159C22.6519 75.9824 23.1813 75.4493 23.8517 75.4493V74.4493C22.6478 74.4493 21.6519 75.4116 21.6519 76.6159H22.6519ZM65.9754 76.6157C65.9754 70.0503 71.4271 64.6913 78.1483 64.6913V63.6913C70.8935 63.6913 64.9754 69.4795 64.9754 76.6157H65.9754ZM67.675 82.6908C66.5604 80.8533 65.9754 78.7693 65.9754 76.6157H64.9754C64.9754 78.9527 65.6108 81.216 66.82 83.2094L67.675 82.6908ZM66.0453 87.22L67.7104 83.1389L66.7845 82.7612L65.1194 86.8422L66.0453 87.22ZM66.2632 88.2541C65.9842 87.9804 65.9008 87.5743 66.0454 87.22L65.1194 86.8423C64.8201 87.5762 64.9969 88.4128 65.563 88.968L66.2632 88.2541ZM66.97 88.5401C66.7076 88.5401 66.4524 88.4395 66.2631 88.254L65.5631 88.968C65.9451 89.3426 66.4541 89.5401 66.97 89.5401V88.5401ZM67.3417 88.4699C67.2214 88.5172 67.0955 88.5401 66.97 88.5401V89.5401C67.2178 89.5401 67.468 89.4947 67.7075 89.4006L67.3417 88.4699ZM71.5047 86.8373L67.342 88.4697L67.7071 89.4007L71.8698 87.7683L71.5047 86.8373ZM78.1485 88.5401C75.9459 88.5401 73.8158 87.9648 71.9391 86.8708L71.4355 87.7348C73.4662 88.9185 75.7703 89.5401 78.1485 89.5401V88.5401ZM90.3214 76.6157C90.3214 83.181 84.8696 88.5401 78.1485 88.5401V89.5401C85.4031 89.5401 91.3214 83.7519 91.3214 76.6157H90.3214ZM78.1483 64.6913C84.8695 64.6913 90.3212 70.0503 90.3214 76.6157L91.3214 76.6157C91.3212 69.4795 85.4031 63.6913 78.1483 63.6913V64.6913ZM72.4091 84.8702C74.1063 86.0089 76.0916 86.6104 78.1483 86.6104V85.6104C76.2884 85.6104 74.4973 85.067 72.9663 84.0398L72.4091 84.8702ZM71.8436 84.6989C72.0437 84.6989 72.2411 84.7573 72.409 84.8701L72.9664 84.0398C72.6299 83.8139 72.2376 83.6989 71.8436 83.6989V84.6989ZM71.4715 84.7692C71.5915 84.7221 71.7177 84.6989 71.8436 84.6989V83.6989C71.5947 83.6989 71.3444 83.7448 71.1061 83.8384L71.4715 84.7692ZM69.8342 85.4114L71.4714 84.7692L71.1062 83.8383L69.4691 84.4805L69.8342 85.4114ZM69.8435 83.1518L69.1887 84.7571L70.1146 85.1348L70.7694 83.5295L69.8435 83.1518ZM69.7423 82.2554C69.9272 82.5203 69.9644 82.8559 69.8436 83.1517L70.7694 83.5297C71.0191 82.9181 70.9404 82.2248 70.5623 81.683L69.7423 82.2554ZM67.9637 76.6159C67.9637 78.6386 68.5794 80.5895 69.7423 82.2554L70.5623 81.683C69.5159 80.184 68.9637 78.4327 68.9637 76.6159H67.9637ZM78.1483 66.6212C72.5415 66.6212 67.9637 71.0949 67.9637 76.6159H68.9637C68.9637 71.6658 73.075 67.6212 78.1483 67.6212V66.6212ZM88.3329 76.6159C88.3329 71.0951 83.7551 66.6212 78.1483 66.6212V67.6212C83.2216 67.6212 87.3329 71.666 87.3329 76.6159H88.3329ZM78.1483 86.6104C83.7553 86.6104 88.3329 82.1367 88.3329 76.6159H87.3329C87.3329 81.5658 83.2218 85.6104 78.1483 85.6104V86.6104ZM80.1295 78.5443C79.6015 79.062 78.8996 79.348 78.1485 79.348V80.348C79.1585 80.348 80.1126 79.9613 80.8296 79.2583L80.1295 78.5443ZM82.9428 78.5445C82.1646 77.7813 80.9072 77.7815 80.1295 78.5443L80.8297 79.2583C81.2186 78.8769 81.8533 78.8767 82.2426 79.2584L82.9428 78.5445ZM82.9427 81.33C83.7262 80.5619 83.7262 79.3123 82.9427 78.5444L82.2427 79.2586C82.6262 79.6344 82.6263 80.2399 82.2427 80.6159L82.9427 81.33ZM78.1485 83.2778C79.9568 83.2778 81.6611 82.5865 82.9427 81.33L82.2427 80.6159C81.15 81.6872 79.6979 82.2778 78.1485 82.2778V83.2778ZM73.3543 81.33C74.6357 82.5865 76.3403 83.2778 78.1485 83.2778V82.2778C76.5992 82.2778 75.1469 81.6872 74.0544 80.616L73.3543 81.33ZM71.3636 76.6159C71.3636 78.3977 72.0723 80.0731 73.3543 81.33L74.0544 80.6159C72.9621 79.545 72.3636 78.126 72.3636 76.6159H71.3636ZM73.3543 71.9018C72.0723 73.1585 71.3636 74.8342 71.3636 76.6159H72.3636C72.3636 75.1058 72.9621 73.6866 74.0544 72.616L73.3543 71.9018ZM76.1673 71.9019C75.3894 71.1392 74.132 71.1391 73.3542 71.9019L74.0544 72.6159C74.4433 72.2345 75.0781 72.2344 75.4672 72.6159L76.1673 71.9019ZM76.1673 74.6874C76.9507 73.9193 76.9508 72.6697 76.1672 71.9018L75.4673 72.616C75.8507 72.9918 75.8508 73.5973 75.4672 73.9733L76.1673 74.6874ZM75.3516 76.6159C75.3516 75.8885 75.6394 75.205 76.1673 74.6874L75.4672 73.9733C74.7496 74.6769 74.3516 75.6168 74.3516 76.6159H75.3516ZM76.1672 78.5442C75.6394 78.0269 75.3516 77.3434 75.3516 76.6159H74.3516C74.3516 77.615 74.7496 78.555 75.4673 79.2584L76.1672 78.5442ZM78.1485 79.348C77.3975 79.348 76.6956 79.062 76.1672 78.5442L75.4673 79.2584C76.1845 79.9613 77.1385 80.348 78.1485 80.348V79.348Z" fill="url(#paint1_linear)" mask="url(#path-1-outside-1)"/>
</g>
<defs>
<linearGradient id="paint0_linear" x1="0.53637" y1="2.11899" x2="105.803" y2="6.5209" gradientUnits="userSpaceOnUse">
<stop stop-color="#0BB9F6"/>
<stop offset="1" stop-color="#5B6FED"/>
</linearGradient>
<linearGradient id="paint1_linear" x1="0.53637" y1="2.11899" x2="105.803" y2="6.5209" gradientUnits="userSpaceOnUse">
<stop stop-color="#0BB9F6"/>
<stop offset="1" stop-color="#5B6FED"/>
</linearGradient>
<clipPath id="clip0">
<rect width="102" height="100" fill="white"/>
</clipPath>
</defs>
</svg>
