<svg width="102" height="100" viewBox="0 0 102 100" fill="none" xmlns="http://www.w3.org/2000/svg">
<g clip-path="url(#clip0)">
<path d="M80.0315 22.4036L79.8724 22.2108L80.0316 22.4036C80.77 21.7937 80.8656 20.7093 80.2421 19.9838C75.3425 14.282 68.1758 11.0129 60.5811 11.0129C46.415 11.0129 34.8818 22.3128 34.8818 36.2132C34.8818 50.1135 46.415 61.4134 60.5811 61.4134C74.7474 61.4134 86.2804 50.1135 86.2804 36.2132C86.2804 33.2171 85.7499 30.2923 84.7048 27.5097L86.9326 25.3255C88.378 28.6745 89.1796 32.3532 89.1796 36.213C89.1796 51.6658 76.3546 64.2464 60.5805 64.2464C44.8066 64.2464 31.9816 51.6658 31.9816 36.213C31.9816 20.7603 44.8066 8.17977 60.5805 8.17977C71.1041 8.17977 80.3172 13.7802 85.2831 22.0986L70.5988 36.495C69.9782 36.2185 69.2899 36.0637 68.5656 36.0637C67.4425 36.0637 66.4052 36.4338 65.5743 37.0565L60.6319 34.028C60.6942 33.7221 60.7277 33.4057 60.7277 33.0816C60.7277 30.4045 58.5079 28.2354 55.7895 28.2354C53.0712 28.2354 50.8514 30.4047 50.8514 33.0816C50.8514 33.7909 51.0084 34.4649 51.2888 35.0725L40.5463 45.6043C39.1523 42.7594 38.37 39.5745 38.37 36.213C38.37 24.2136 48.3293 14.4424 60.5809 14.4424C67.1484 14.4424 73.3431 17.2696 77.5773 22.1972C78.1981 22.9196 79.296 23.0109 80.0315 22.4036ZM97.3117 7.88134C94.5931 7.88134 92.3735 10.0506 92.3735 12.7276C92.3735 13.4369 92.5305 14.1108 92.8109 14.7185L87.8246 19.6069C82.1531 10.6929 72.0608 4.75 60.5805 4.75C42.8921 4.75 28.4933 18.8594 28.4933 36.213C28.4933 44.2723 31.6001 51.6331 36.699 57.2046L30.3704 63.409C27.9935 62.1263 24.9398 62.4703 22.9252 64.4456L1.58274 85.3694C-0.860906 87.7653 -0.860916 91.6651 1.58274 94.0608C2.80384 95.258 4.40718 95.8556 6.0082 95.8556C7.60921 95.8556 9.21277 95.258 10.4337 94.0608L22.9515 81.7886C23.635 81.1185 23.635 80.0299 22.9515 79.3598C22.2708 78.6925 21.1691 78.6924 20.4885 79.3599L7.97066 91.6321C6.88925 92.6921 5.12731 92.6924 4.04574 91.6321C2.96711 90.5746 2.96711 88.8555 4.04574 87.798L22.2523 69.9486L26.1702 73.7896L24.8802 75.0543C24.1967 75.7244 24.1967 76.8127 24.8802 77.4828C25.5609 78.1502 26.6627 78.1503 27.3433 77.4828L31.776 73.137C32.9587 71.9774 33.6117 70.4334 33.6117 68.7914C33.6117 67.7398 33.3435 66.7283 32.8396 65.8316L39.1685 59.6268C44.8519 64.6293 52.3605 67.6761 60.5803 67.6761C78.2689 67.6761 92.6677 53.5667 92.6677 36.213C92.6677 31.3936 91.5568 26.8235 89.5728 22.7363L95.2783 17.1427C95.8988 17.4192 96.5872 17.574 97.3115 17.574C100.03 17.574 102.25 15.4047 102.25 12.7278C102.25 10.0504 100.03 7.88134 97.3117 7.88134ZM29.3132 70.7082L28.6405 71.3677L24.7226 67.5267L25.3882 66.8741C26.4696 65.814 28.2318 65.814 29.3132 66.8741C29.8367 67.3874 30.1235 68.0675 30.1235 68.7912C30.1235 69.5149 29.8367 70.195 29.3132 70.7082ZM82.7916 36.213C82.7916 48.2124 72.8323 57.9835 60.5807 57.9835C53.0518 57.9835 46.388 54.2923 42.3692 48.6606L53.7565 37.4966C54.3771 37.7731 55.0655 37.9278 55.7897 37.9278C56.9128 37.9278 57.9502 37.5578 58.781 36.9351L63.7235 39.9636C63.6612 40.2695 63.6276 40.5859 63.6276 40.91C63.6276 43.5871 65.8475 45.7562 68.5658 45.7562C71.2841 45.7562 73.5039 43.5869 73.5039 40.91C73.5039 40.2007 73.3469 39.5267 73.0668 38.9191L81.9392 30.2206C82.5045 32.1583 82.7916 34.1655 82.7916 36.213ZM55.7895 34.4981C54.9856 34.4981 54.3398 33.8577 54.3398 33.0816C54.3398 32.3056 54.9858 31.6652 55.7895 31.6652C56.5933 31.6652 57.2393 32.3056 57.2393 33.0816C57.2393 33.8577 56.5935 34.4981 55.7895 34.4981ZM70.0154 40.91C70.0154 41.6862 69.3694 42.3264 68.5656 42.3264C67.7618 42.3264 67.1158 41.686 67.1158 40.91C67.1158 40.1337 67.7618 39.4935 68.5656 39.4935C69.3694 39.4935 70.0154 40.1337 70.0154 40.91ZM97.3117 14.144C96.5077 14.144 95.8619 13.5036 95.8619 12.7276C95.8619 11.9513 96.5079 11.3111 97.3117 11.3111C98.1154 11.3111 98.7614 11.9515 98.7614 12.7276C98.7616 13.5038 98.1157 14.144 97.3117 14.144Z" fill="url(#paint0_linear)" stroke="url(#paint1_linear)" stroke-width="0.5"/>
</g>
<defs>
<linearGradient id="paint0_linear" x1="0.536368" y1="6.91993" x2="105.763" y2="11.7764" gradientUnits="userSpaceOnUse">
<stop stop-color="#0BB9F6"/>
<stop offset="1" stop-color="#5B6FED"/>
</linearGradient>
<linearGradient id="paint1_linear" x1="0.536368" y1="6.91993" x2="105.763" y2="11.7764" gradientUnits="userSpaceOnUse">
<stop stop-color="#0BB9F6"/>
<stop offset="1" stop-color="#5B6FED"/>
</linearGradient>
<clipPath id="clip0">
<rect width="102" height="100" fill="white"/>
</clipPath>
</defs>
</svg>
