<svg width="102" height="100" viewBox="0 0 102 100" fill="none" xmlns="http://www.w3.org/2000/svg">
<g clip-path="url(#clip0)">
<mask id="path-1-outside-1" maskUnits="userSpaceOnUse" x="-1" y="-1" width="104" height="102" fill="black">
<rect fill="white" x="-1" y="-1" width="104" height="102"/>
<path fill-rule="evenodd" clip-rule="evenodd" d="M102 50C102 46.0059 98.8931 42.7098 94.9241 42.3127C93.7019 35.5647 90.8457 29.1533 86.6205 23.666C87.3689 22.6328 87.7739 21.4016 87.7739 20.1088C87.7739 18.4629 87.1203 16.9156 85.9332 15.7518C83.739 13.6008 80.3136 13.3771 77.8616 15.0783C72.2614 10.933 65.7268 8.13711 58.8412 6.9377C58.4362 3.04629 55.0742 0 51 0C46.9257 0 43.5637 3.04629 43.1589 6.9375C36.2751 8.13613 29.7363 10.9352 24.1385 15.0783C21.6865 13.3771 18.2609 13.6004 16.0667 15.7518C14.8796 16.9156 14.226 18.4629 14.226 20.1088C14.226 21.7547 14.8796 23.302 16.0667 24.4658C17.2919 25.667 18.9014 26.2678 20.5109 26.2678C22.1204 26.2678 23.7299 25.6672 24.9551 24.4658C26.9303 22.5291 27.3122 19.6141 26.103 17.2977C31.2199 13.5488 37.1672 10.9988 43.4282 9.86875C44.3779 13.091 47.4116 15.4549 51 15.4549C54.5891 15.4549 57.6234 13.09 58.5723 9.8668C64.8349 10.9975 70.7774 13.5477 75.8967 17.2982C74.6879 19.6145 75.0698 22.5293 77.0448 24.4658C78.27 25.667 79.8795 26.2678 81.489 26.2678C82.4745 26.2678 83.4595 26.0414 84.3567 25.591C88.1799 30.6072 90.7805 36.4393 91.933 42.577C88.6469 43.5082 86.236 46.4822 86.236 50C86.236 53.5182 88.6475 56.4928 91.9346 57.4234C91.132 61.7102 89.6416 65.8166 87.4911 69.6475C87.093 70.3562 87.3566 71.2471 88.0795 71.6371C88.308 71.7604 88.5551 71.8189 88.7985 71.8189C89.3257 71.8189 89.8367 71.5449 90.1088 71.0602C92.4592 66.8734 94.075 62.3799 94.9231 57.6873C98.8925 57.2906 102 53.9943 102 50ZM22.8422 22.3941C22.2196 23.0045 21.3917 23.3408 20.5109 23.3408C19.6302 23.3408 18.8024 23.0047 18.1797 22.3941C17.5571 21.7838 17.214 20.9721 17.214 20.1088C17.214 19.2455 17.5569 18.4338 18.1797 17.8234C18.8225 17.1932 19.6664 16.8783 20.5109 16.8783C21.355 16.8783 22.1995 17.1934 22.8422 17.8234C24.1273 19.0836 24.1273 21.134 22.8422 22.3941ZM51 12.5252C48.3015 12.5252 46.1063 10.3729 46.1063 7.72734C46.1063 5.08184 48.3015 2.92969 51 2.92969C53.6984 2.92969 55.8936 5.08203 55.8936 7.72734C55.8936 10.3727 53.6984 12.5252 51 12.5252ZM79.1577 22.3941C77.8724 21.134 77.8724 19.0834 79.1577 17.8232C79.8006 17.193 80.6445 16.8781 81.489 16.8781C82.3331 16.8781 83.1776 17.1932 83.8202 17.8232C84.4428 18.4338 84.7859 19.2453 84.7859 20.1088C84.7859 20.9723 84.443 21.7838 83.8202 22.3941C83.1977 23.0045 82.3697 23.3408 81.489 23.3408C80.6082 23.3408 79.7805 23.0047 79.1577 22.3941ZM94.1181 54.7977C91.4196 54.7977 89.2245 52.6453 89.2245 50C89.2245 47.3547 91.4198 45.2023 94.1181 45.2023C96.8163 45.2023 99.0117 47.3545 99.0117 50C99.0117 52.6455 96.8163 54.7977 94.1181 54.7977ZM81.2396 50C81.2396 66.3471 67.6742 79.6465 51 79.6465C34.3257 79.6465 20.7603 66.3473 20.7603 50C20.7603 33.6527 34.3257 20.3535 51 20.3535C67.6742 20.3535 81.2396 33.6529 81.2396 50ZM78.2513 50C78.2513 35.2684 66.0264 23.2832 51 23.2832C35.9735 23.2832 23.7486 35.2682 23.7486 50C23.7486 64.7318 35.9735 76.7168 51 76.7168C66.0264 76.7168 78.2513 64.7316 78.2513 50ZM51 46.7679C55.3461 46.7679 58.8819 43.3013 58.8819 39.0405C58.8819 38.387 58.7982 37.7372 58.6333 37.1091C58.4277 36.3257 57.6131 35.8538 56.8138 36.0556C56.0147 36.2571 55.5336 37.0558 55.7392 37.8394C55.8416 38.2292 55.8934 38.6333 55.8934 39.0405C55.8934 41.686 53.698 43.8382 50.9998 43.8382C48.3016 43.8382 46.1062 41.6858 46.1062 39.0405C46.1062 36.3952 48.3016 34.2427 50.9998 34.2427C51.4176 34.2427 51.8317 34.294 52.2312 34.3954C53.0298 34.5981 53.8452 34.1276 54.0522 33.3446C54.259 32.5614 53.7791 31.7622 52.9804 31.5593C52.3366 31.3958 51.67 31.313 50.9998 31.313C46.6536 31.313 43.1179 34.7796 43.1179 39.0405C43.1181 43.3013 46.6538 46.7679 51 46.7679ZM58.9848 68.6866C61.5698 68.6866 63.6728 66.6247 63.6728 64.0905V59.1426C63.6728 56.884 62.6695 54.7454 60.9204 53.2754L57.8897 50.7288C56.7406 49.7631 55.1863 49.4028 53.7322 49.7643C51.939 50.2104 50.061 50.2102 48.268 49.7643C46.8137 49.4024 45.2596 49.7631 44.1103 50.7286L41.0796 53.2754C39.3303 54.7454 38.3272 56.8838 38.3272 59.1426V64.0905C38.3272 66.6248 40.4303 68.6866 43.0152 68.6866H58.9848ZM41.3155 59.1426C41.3155 57.7403 41.9382 56.4126 43.0244 55.4999L46.0551 52.953C46.3631 52.6942 46.7496 52.5559 47.1394 52.5559C47.2711 52.5559 47.4034 52.5717 47.5331 52.604C49.8062 53.1694 52.1938 53.1694 54.4671 52.604C54.9801 52.4762 55.5329 52.6067 55.9449 52.953L58.9756 55.4997C60.0618 56.4124 60.6845 57.7401 60.6845 59.1424V64.0903C60.6845 65.0092 59.9219 65.7567 58.9848 65.7567H43.0152C42.0779 65.7567 41.3155 65.009 41.3155 64.0903V59.1426ZM75.8968 82.7019C74.6877 80.3857 75.0696 77.4707 77.0449 75.5341C79.4955 73.1316 83.4826 73.1316 85.933 75.5339C87.1202 76.6978 87.7738 78.2451 87.7738 79.891C87.7738 81.5369 87.1202 83.0843 85.933 84.248C84.7078 85.4494 83.0983 86.05 81.4888 86.05C80.2162 86.05 78.9442 85.6728 77.8615 84.9216C72.2636 89.0648 65.7245 91.8636 58.8411 93.0623C58.4362 96.9537 55.0742 100 51 100C46.9258 100 43.5638 96.9537 43.1587 93.0623C36.273 91.8632 29.7374 89.0652 24.1383 84.9214C23.0556 85.6728 21.7836 86.05 20.5108 86.05C18.9013 86.05 17.2918 85.4492 16.0666 84.248C14.8794 83.0843 14.2258 81.5369 14.2258 79.891C14.2258 78.5986 14.6306 77.3679 15.3785 76.3349C11.1527 70.8474 8.29925 64.4339 7.07645 57.6873C3.10721 57.2906 0 53.9943 0 50C0 46.0058 3.10682 42.7099 7.07545 42.3127C7.92353 37.6201 9.54078 33.1259 11.8908 28.94C12.2886 28.2312 13.197 27.9728 13.9202 28.363C14.6432 28.7531 14.9067 29.6439 14.5087 30.3527C12.3585 34.1828 10.8676 38.2896 10.0649 42.5763C13.352 43.5072 15.7638 46.4816 15.7638 50C15.7638 53.5185 13.3518 56.4933 10.0643 57.4238C11.217 63.5603 13.8214 69.3916 17.6452 74.408C20.0075 73.2234 22.9803 73.598 24.9551 75.5341C26.9308 77.471 27.3125 80.3871 26.1022 82.7037C31.2204 86.4531 37.1657 89.0009 43.4283 90.1312C44.3778 86.9091 47.4117 84.5451 51 84.5451C54.5883 84.5451 57.622 86.9091 58.5717 90.1314C64.8324 89.0013 70.7796 86.4507 75.8968 82.7019ZM7.88189 45.2023C5.18367 45.2023 2.98828 47.3545 2.98828 50C2.98828 52.6455 5.18387 54.7976 7.88209 54.7976C10.5803 54.7976 12.7757 52.6455 12.7757 50C12.7757 47.3545 10.5801 45.2023 7.88189 45.2023ZM17.2141 79.8912C17.2141 80.7546 17.5571 81.5664 18.1797 82.1767C18.8025 82.7871 19.6302 83.1234 20.511 83.1234C21.3917 83.1234 22.2197 82.7871 22.8422 82.1767C24.1276 80.9166 24.1276 78.866 22.8422 77.6058C22.2195 76.9953 21.3917 76.6591 20.511 76.6591C19.6302 76.6591 18.8023 76.9955 18.1797 77.6058C17.5569 78.2162 17.2141 79.0279 17.2141 79.8912ZM46.1064 92.2726C46.1064 94.9179 48.3016 97.0703 51 97.0703C53.6984 97.0703 55.8936 94.9179 55.8936 92.2726C55.8936 89.6273 53.6982 87.475 51 87.475C48.3018 87.475 46.1064 89.6273 46.1064 92.2726ZM81.489 83.1234C82.3698 83.1234 83.1977 82.7871 83.8203 82.1767C84.4428 81.5662 84.7857 80.7545 84.7859 79.8912C84.7859 79.0279 84.4428 78.2162 83.8203 77.6058C83.1975 76.9953 82.3698 76.6591 81.489 76.6591C80.6083 76.6591 79.7803 76.9955 79.1578 77.6058C77.8724 78.866 77.8724 80.9166 79.1578 82.1767C79.7805 82.7873 80.6083 83.1234 81.489 83.1234Z"/>
</mask>
<path fill-rule="evenodd" clip-rule="evenodd" d="M102 50C102 46.0059 98.8931 42.7098 94.9241 42.3127C93.7019 35.5647 90.8457 29.1533 86.6205 23.666C87.3689 22.6328 87.7739 21.4016 87.7739 20.1088C87.7739 18.4629 87.1203 16.9156 85.9332 15.7518C83.739 13.6008 80.3136 13.3771 77.8616 15.0783C72.2614 10.933 65.7268 8.13711 58.8412 6.9377C58.4362 3.04629 55.0742 0 51 0C46.9257 0 43.5637 3.04629 43.1589 6.9375C36.2751 8.13613 29.7363 10.9352 24.1385 15.0783C21.6865 13.3771 18.2609 13.6004 16.0667 15.7518C14.8796 16.9156 14.226 18.4629 14.226 20.1088C14.226 21.7547 14.8796 23.302 16.0667 24.4658C17.2919 25.667 18.9014 26.2678 20.5109 26.2678C22.1204 26.2678 23.7299 25.6672 24.9551 24.4658C26.9303 22.5291 27.3122 19.6141 26.103 17.2977C31.2199 13.5488 37.1672 10.9988 43.4282 9.86875C44.3779 13.091 47.4116 15.4549 51 15.4549C54.5891 15.4549 57.6234 13.09 58.5723 9.8668C64.8349 10.9975 70.7774 13.5477 75.8967 17.2982C74.6879 19.6145 75.0698 22.5293 77.0448 24.4658C78.27 25.667 79.8795 26.2678 81.489 26.2678C82.4745 26.2678 83.4595 26.0414 84.3567 25.591C88.1799 30.6072 90.7805 36.4393 91.933 42.577C88.6469 43.5082 86.236 46.4822 86.236 50C86.236 53.5182 88.6475 56.4928 91.9346 57.4234C91.132 61.7102 89.6416 65.8166 87.4911 69.6475C87.093 70.3562 87.3566 71.2471 88.0795 71.6371C88.308 71.7604 88.5551 71.8189 88.7985 71.8189C89.3257 71.8189 89.8367 71.5449 90.1088 71.0602C92.4592 66.8734 94.075 62.3799 94.9231 57.6873C98.8925 57.2906 102 53.9943 102 50ZM22.8422 22.3941C22.2196 23.0045 21.3917 23.3408 20.5109 23.3408C19.6302 23.3408 18.8024 23.0047 18.1797 22.3941C17.5571 21.7838 17.214 20.9721 17.214 20.1088C17.214 19.2455 17.5569 18.4338 18.1797 17.8234C18.8225 17.1932 19.6664 16.8783 20.5109 16.8783C21.355 16.8783 22.1995 17.1934 22.8422 17.8234C24.1273 19.0836 24.1273 21.134 22.8422 22.3941ZM51 12.5252C48.3015 12.5252 46.1063 10.3729 46.1063 7.72734C46.1063 5.08184 48.3015 2.92969 51 2.92969C53.6984 2.92969 55.8936 5.08203 55.8936 7.72734C55.8936 10.3727 53.6984 12.5252 51 12.5252ZM79.1577 22.3941C77.8724 21.134 77.8724 19.0834 79.1577 17.8232C79.8006 17.193 80.6445 16.8781 81.489 16.8781C82.3331 16.8781 83.1776 17.1932 83.8202 17.8232C84.4428 18.4338 84.7859 19.2453 84.7859 20.1088C84.7859 20.9723 84.443 21.7838 83.8202 22.3941C83.1977 23.0045 82.3697 23.3408 81.489 23.3408C80.6082 23.3408 79.7805 23.0047 79.1577 22.3941ZM94.1181 54.7977C91.4196 54.7977 89.2245 52.6453 89.2245 50C89.2245 47.3547 91.4198 45.2023 94.1181 45.2023C96.8163 45.2023 99.0117 47.3545 99.0117 50C99.0117 52.6455 96.8163 54.7977 94.1181 54.7977ZM81.2396 50C81.2396 66.3471 67.6742 79.6465 51 79.6465C34.3257 79.6465 20.7603 66.3473 20.7603 50C20.7603 33.6527 34.3257 20.3535 51 20.3535C67.6742 20.3535 81.2396 33.6529 81.2396 50ZM78.2513 50C78.2513 35.2684 66.0264 23.2832 51 23.2832C35.9735 23.2832 23.7486 35.2682 23.7486 50C23.7486 64.7318 35.9735 76.7168 51 76.7168C66.0264 76.7168 78.2513 64.7316 78.2513 50ZM51 46.7679C55.3461 46.7679 58.8819 43.3013 58.8819 39.0405C58.8819 38.387 58.7982 37.7372 58.6333 37.1091C58.4277 36.3257 57.6131 35.8538 56.8138 36.0556C56.0147 36.2571 55.5336 37.0558 55.7392 37.8394C55.8416 38.2292 55.8934 38.6333 55.8934 39.0405C55.8934 41.686 53.698 43.8382 50.9998 43.8382C48.3016 43.8382 46.1062 41.6858 46.1062 39.0405C46.1062 36.3952 48.3016 34.2427 50.9998 34.2427C51.4176 34.2427 51.8317 34.294 52.2312 34.3954C53.0298 34.5981 53.8452 34.1276 54.0522 33.3446C54.259 32.5614 53.7791 31.7622 52.9804 31.5593C52.3366 31.3958 51.67 31.313 50.9998 31.313C46.6536 31.313 43.1179 34.7796 43.1179 39.0405C43.1181 43.3013 46.6538 46.7679 51 46.7679ZM58.9848 68.6866C61.5698 68.6866 63.6728 66.6247 63.6728 64.0905V59.1426C63.6728 56.884 62.6695 54.7454 60.9204 53.2754L57.8897 50.7288C56.7406 49.7631 55.1863 49.4028 53.7322 49.7643C51.939 50.2104 50.061 50.2102 48.268 49.7643C46.8137 49.4024 45.2596 49.7631 44.1103 50.7286L41.0796 53.2754C39.3303 54.7454 38.3272 56.8838 38.3272 59.1426V64.0905C38.3272 66.6248 40.4303 68.6866 43.0152 68.6866H58.9848ZM41.3155 59.1426C41.3155 57.7403 41.9382 56.4126 43.0244 55.4999L46.0551 52.953C46.3631 52.6942 46.7496 52.5559 47.1394 52.5559C47.2711 52.5559 47.4034 52.5717 47.5331 52.604C49.8062 53.1694 52.1938 53.1694 54.4671 52.604C54.9801 52.4762 55.5329 52.6067 55.9449 52.953L58.9756 55.4997C60.0618 56.4124 60.6845 57.7401 60.6845 59.1424V64.0903C60.6845 65.0092 59.9219 65.7567 58.9848 65.7567H43.0152C42.0779 65.7567 41.3155 65.009 41.3155 64.0903V59.1426ZM75.8968 82.7019C74.6877 80.3857 75.0696 77.4707 77.0449 75.5341C79.4955 73.1316 83.4826 73.1316 85.933 75.5339C87.1202 76.6978 87.7738 78.2451 87.7738 79.891C87.7738 81.5369 87.1202 83.0843 85.933 84.248C84.7078 85.4494 83.0983 86.05 81.4888 86.05C80.2162 86.05 78.9442 85.6728 77.8615 84.9216C72.2636 89.0648 65.7245 91.8636 58.8411 93.0623C58.4362 96.9537 55.0742 100 51 100C46.9258 100 43.5638 96.9537 43.1587 93.0623C36.273 91.8632 29.7374 89.0652 24.1383 84.9214C23.0556 85.6728 21.7836 86.05 20.5108 86.05C18.9013 86.05 17.2918 85.4492 16.0666 84.248C14.8794 83.0843 14.2258 81.5369 14.2258 79.891C14.2258 78.5986 14.6306 77.3679 15.3785 76.3349C11.1527 70.8474 8.29925 64.4339 7.07645 57.6873C3.10721 57.2906 0 53.9943 0 50C0 46.0058 3.10682 42.7099 7.07545 42.3127C7.92353 37.6201 9.54078 33.1259 11.8908 28.94C12.2886 28.2312 13.197 27.9728 13.9202 28.363C14.6432 28.7531 14.9067 29.6439 14.5087 30.3527C12.3585 34.1828 10.8676 38.2896 10.0649 42.5763C13.352 43.5072 15.7638 46.4816 15.7638 50C15.7638 53.5185 13.3518 56.4933 10.0643 57.4238C11.217 63.5603 13.8214 69.3916 17.6452 74.408C20.0075 73.2234 22.9803 73.598 24.9551 75.5341C26.9308 77.471 27.3125 80.3871 26.1022 82.7037C31.2204 86.4531 37.1657 89.0009 43.4283 90.1312C44.3778 86.9091 47.4117 84.5451 51 84.5451C54.5883 84.5451 57.622 86.9091 58.5717 90.1314C64.8324 89.0013 70.7796 86.4507 75.8968 82.7019ZM7.88189 45.2023C5.18367 45.2023 2.98828 47.3545 2.98828 50C2.98828 52.6455 5.18387 54.7976 7.88209 54.7976C10.5803 54.7976 12.7757 52.6455 12.7757 50C12.7757 47.3545 10.5801 45.2023 7.88189 45.2023ZM17.2141 79.8912C17.2141 80.7546 17.5571 81.5664 18.1797 82.1767C18.8025 82.7871 19.6302 83.1234 20.511 83.1234C21.3917 83.1234 22.2197 82.7871 22.8422 82.1767C24.1276 80.9166 24.1276 78.866 22.8422 77.6058C22.2195 76.9953 21.3917 76.6591 20.511 76.6591C19.6302 76.6591 18.8023 76.9955 18.1797 77.6058C17.5569 78.2162 17.2141 79.0279 17.2141 79.8912ZM46.1064 92.2726C46.1064 94.9179 48.3016 97.0703 51 97.0703C53.6984 97.0703 55.8936 94.9179 55.8936 92.2726C55.8936 89.6273 53.6982 87.475 51 87.475C48.3018 87.475 46.1064 89.6273 46.1064 92.2726ZM81.489 83.1234C82.3698 83.1234 83.1977 82.7871 83.8203 82.1767C84.4428 81.5662 84.7857 80.7545 84.7859 79.8912C84.7859 79.0279 84.4428 78.2162 83.8203 77.6058C83.1975 76.9953 82.3698 76.6591 81.489 76.6591C80.6083 76.6591 79.7803 76.9955 79.1578 77.6058C77.8724 78.866 77.8724 80.9166 79.1578 82.1767C79.7805 82.7873 80.6083 83.1234 81.489 83.1234Z" fill="url(#paint0_linear)"/>
<path d="M94.9241 42.3127L94.4321 42.4018L94.4993 42.7727L94.8743 42.8102L94.9241 42.3127ZM86.6205 23.666L86.2155 23.3727L85.9964 23.6751L86.2243 23.9711L86.6205 23.666ZM85.9332 15.7518L86.2832 15.3947L86.2832 15.3947L85.9332 15.7518ZM77.8616 15.0783L77.5641 15.4802L77.8522 15.6934L78.1466 15.4891L77.8616 15.0783ZM58.8412 6.9377L58.3439 6.98945L58.383 7.36541L58.7554 7.43028L58.8412 6.9377ZM43.1589 6.9375L43.2447 7.43009L43.6171 7.36524L43.6562 6.98924L43.1589 6.9375ZM24.1385 15.0783L23.8535 15.4891L24.1479 15.6934L24.4359 15.4802L24.1385 15.0783ZM16.0667 15.7518L16.4168 16.1088L16.4168 16.1088L16.0667 15.7518ZM16.0667 24.4658L16.4168 24.1088L16.0667 24.4658ZM24.9551 24.4658L24.605 24.1088L24.605 24.1088L24.9551 24.4658ZM26.103 17.2977L25.8075 16.8943L25.4609 17.1482L25.6597 17.529L26.103 17.2977ZM43.4282 9.86875L43.9078 9.7274L43.781 9.297L43.3394 9.3767L43.4282 9.86875ZM58.5723 9.8668L58.6611 9.37475L58.2194 9.295L58.0926 9.7256L58.5723 9.8668ZM75.8967 17.2982L76.34 17.5296L76.5387 17.1488L76.1922 16.8949L75.8967 17.2982ZM77.0448 24.4658L76.6948 24.8228L76.6948 24.8229L77.0448 24.4658ZM84.3567 25.591L84.7544 25.2879L84.503 24.9581L84.1324 25.1442L84.3567 25.591ZM91.933 42.577L92.0694 43.058L92.5087 42.9335L92.4244 42.4847L91.933 42.577ZM91.9346 57.4234L92.4261 57.5155L92.5101 57.0667L92.0708 56.9423L91.9346 57.4234ZM87.4911 69.6475L87.927 69.8923L87.927 69.8922L87.4911 69.6475ZM88.0795 71.6371L87.8421 72.0772L87.8422 72.0772L88.0795 71.6371ZM90.1088 71.0602L89.6728 70.8154V70.8154L90.1088 71.0602ZM94.9231 57.6873L94.8734 57.1898L94.4981 57.2273L94.4311 57.5984L94.9231 57.6873ZM22.8422 22.3941L23.1922 22.7512L23.1922 22.7512L22.8422 22.3941ZM18.1797 22.3941L18.5297 22.0371L18.1797 22.3941ZM18.1797 17.8234L18.5296 18.1805L18.5297 18.1805L18.1797 17.8234ZM22.8422 17.8234L23.1922 17.4664L23.1922 17.4664L22.8422 17.8234ZM79.1577 17.8232L79.5078 18.1803V18.1803L79.1577 17.8232ZM79.1577 22.3941L79.5078 22.0371L79.1577 22.3941ZM83.8202 17.8232L84.1703 17.4663L84.1703 17.4662L83.8202 17.8232ZM83.8202 22.3941L83.4703 22.037L83.4702 22.0371L83.8202 22.3941ZM58.6333 37.1091L58.1496 37.236L58.1497 37.2361L58.6333 37.1091ZM56.8138 36.0556L56.9361 36.5404L56.9362 36.5404L56.8138 36.0556ZM55.7392 37.8394L55.2556 37.9663L55.2556 37.9664L55.7392 37.8394ZM52.2312 34.3954L52.3542 33.9108L52.3542 33.9108L52.2312 34.3954ZM54.0522 33.3446L54.5356 33.4724L54.5357 33.4723L54.0522 33.3446ZM52.9804 31.5593L53.1036 31.0747L53.1035 31.0747L52.9804 31.5593ZM43.1179 39.0405H42.6179V39.0406L43.1179 39.0405ZM60.9204 53.2754L61.2421 52.8927L61.2421 52.8926L60.9204 53.2754ZM57.8897 50.7288L57.568 51.1116L57.568 51.1116L57.8897 50.7288ZM53.7322 49.7643L53.6115 49.2791L53.6115 49.2791L53.7322 49.7643ZM48.268 49.7643L48.1473 50.2495L48.1473 50.2495L48.268 49.7643ZM44.1103 50.7286L43.7887 50.3457L43.7886 50.3458L44.1103 50.7286ZM41.0796 53.2754L41.4013 53.6582L41.4013 53.6582L41.0796 53.2754ZM43.0244 55.4999L43.346 55.8827L43.3461 55.8826L43.0244 55.4999ZM46.0551 52.953L45.7334 52.5702L45.7334 52.5702L46.0551 52.953ZM47.5331 52.604L47.6538 52.1188L47.6537 52.1187L47.5331 52.604ZM54.4671 52.604L54.5878 53.0892L54.5879 53.0891L54.4671 52.604ZM55.9449 52.953L55.6232 53.3357L55.6232 53.3358L55.9449 52.953ZM58.9756 55.4997L59.2973 55.1169L59.2973 55.1169L58.9756 55.4997ZM77.0449 75.5341L77.3949 75.8912V75.8912L77.0449 75.5341ZM75.8968 82.7019L76.1923 83.1053L76.5388 82.8514L76.34 82.4705L75.8968 82.7019ZM85.933 75.5339L85.583 75.891V75.891L85.933 75.5339ZM85.933 84.248L85.583 83.8909L85.5829 83.891L85.933 84.248ZM77.8615 84.9216L78.1465 84.5108L77.852 84.3066L77.564 84.5198L77.8615 84.9216ZM58.8411 93.0623L58.7553 92.5697L58.3829 92.6345L58.3437 93.0105L58.8411 93.0623ZM43.1587 93.0623L43.6561 93.0105L43.6169 92.6345L43.2445 92.5697L43.1587 93.0623ZM24.1383 84.9214L24.4358 84.5195L24.1477 84.3064L23.8533 84.5107L24.1383 84.9214ZM16.0666 84.248L16.4166 83.891L16.4166 83.8909L16.0666 84.248ZM15.3785 76.3349L15.7835 76.6281L16.0025 76.3257L15.7746 76.0298L15.3785 76.3349ZM7.07645 57.6873L7.56843 57.5981L7.50122 57.2272L7.12617 57.1897L7.07645 57.6873ZM7.07545 42.3127L7.12525 42.8102L7.50043 42.7726L7.56748 42.4016L7.07545 42.3127ZM11.8908 28.94L12.3268 29.1848L12.3268 29.1847L11.8908 28.94ZM13.9202 28.363L13.6828 28.8031L13.6828 28.8031L13.9202 28.363ZM14.5087 30.3527L14.0727 30.1079L14.0727 30.1079L14.5087 30.3527ZM10.0649 42.5763L9.57347 42.4843L9.48945 42.933L9.92869 43.0574L10.0649 42.5763ZM10.0643 57.4238L9.92817 56.9427L9.48859 57.0671L9.57293 57.5161L10.0643 57.4238ZM17.6452 74.408L17.2476 74.7111L17.4988 75.0407L17.8693 74.8549L17.6452 74.408ZM24.9551 75.5341L24.6051 75.8912L24.9551 75.5341ZM26.1022 82.7037L25.6591 82.4722L25.4601 82.8531L25.8068 83.107L26.1022 82.7037ZM43.4283 90.1312L43.3395 90.6233L43.7811 90.703L43.9079 90.2725L43.4283 90.1312ZM58.5717 90.1314L58.0921 90.2728L58.219 90.7032L58.6605 90.6235L58.5717 90.1314ZM18.1797 82.1767L17.8297 82.5338L17.8297 82.5338L18.1797 82.1767ZM22.8422 82.1767L22.4922 81.8197H22.4922L22.8422 82.1767ZM22.8422 77.6058L22.4922 77.9629H22.4922L22.8422 77.6058ZM18.1797 77.6058L18.5297 77.9629L18.5297 77.9629L18.1797 77.6058ZM83.8203 82.1767L84.1703 82.5338L84.1704 82.5337L83.8203 82.1767ZM84.7859 79.8912L85.2859 79.8913V79.8912H84.7859ZM83.8203 77.6058L83.4703 77.9629L83.8203 77.6058ZM79.1578 77.6058L78.8077 77.2488L79.1578 77.6058ZM79.1578 82.1767L78.8077 82.5338V82.5338L79.1578 82.1767ZM94.8743 42.8102C98.5986 43.1828 101.5 46.2735 101.5 50H102.5C102.5 45.7382 99.1877 42.2367 94.9739 41.8152L94.8743 42.8102ZM86.2243 23.9711C90.4013 29.3958 93.2243 35.7332 94.4321 42.4018L95.4161 42.2236C94.1795 35.3961 91.29 28.9109 87.0166 23.361L86.2243 23.9711ZM87.2739 20.1088C87.2739 21.2954 86.9027 22.4241 86.2155 23.3727L87.0254 23.9593C87.8352 22.8415 88.2739 21.5077 88.2739 20.1088H87.2739ZM85.5831 16.1088C86.6754 17.1797 87.2739 18.5987 87.2739 20.1088H88.2739C88.2739 18.3271 87.5652 16.6516 86.2832 15.3947L85.5831 16.1088ZM78.1466 15.4891C80.4062 13.9215 83.5644 14.1298 85.5831 16.1088L86.2832 15.3947C83.9136 13.0718 80.221 12.8328 77.5766 14.6675L78.1466 15.4891ZM58.7554 7.43028C65.5647 8.61639 72.0267 11.3814 77.5641 15.4802L78.1591 14.6764C72.4961 10.4846 65.8889 7.65783 58.927 6.44511L58.7554 7.43028ZM51 0.5C54.8231 0.5 57.9659 3.35779 58.3439 6.98945L59.3385 6.88594C58.9065 2.73479 55.3252 -0.5 51 -0.5V0.5ZM43.6562 6.98924C44.034 3.3578 47.1767 0.5 51 0.5V-0.5C46.6747 -0.5 43.0934 2.73478 42.6616 6.88576L43.6562 6.98924ZM24.4359 15.4802C29.9711 11.3835 36.4373 8.61541 43.2447 7.43009L43.0731 6.44491C36.1129 7.65685 29.5016 10.4868 23.841 14.6764L24.4359 15.4802ZM16.4168 16.1088C18.4355 14.1294 21.5939 13.9215 23.8535 15.4891L24.4235 14.6675C21.7791 12.8328 18.0863 13.0713 15.7167 15.3947L16.4168 16.1088ZM14.726 20.1088C14.726 18.5987 15.3245 17.1797 16.4168 16.1088L15.7167 15.3947C14.4347 16.6516 13.726 18.3271 13.726 20.1088H14.726ZM16.4168 24.1088C15.3245 23.0379 14.726 21.6189 14.726 20.1088H13.726C13.726 21.8905 14.4347 23.566 15.7167 24.8229L16.4168 24.1088ZM20.5109 25.7678C19.0251 25.7678 17.5435 25.2134 16.4168 24.1088L15.7167 24.8229C17.0404 26.1206 18.7778 26.7678 20.5109 26.7678V25.7678ZM24.605 24.1088C23.4784 25.2136 21.9968 25.7678 20.5109 25.7678V26.7678C22.244 26.7678 23.9814 26.1208 25.3052 24.8228L24.605 24.1088ZM25.6597 17.529C26.7696 19.655 26.4192 22.33 24.605 24.1088L25.3051 24.8228C27.4415 22.7282 27.8549 19.5731 26.5462 17.0663L25.6597 17.529ZM43.3394 9.3767C37.0039 10.5202 30.9859 13.1005 25.8075 16.8943L26.3985 17.701C31.454 13.9972 37.3305 11.4774 43.5171 10.3608L43.3394 9.3767ZM51 14.9549C47.6343 14.9549 44.7951 12.7379 43.9078 9.7274L42.9486 10.0101C43.9607 13.4441 47.189 15.9549 51 15.9549V14.9549ZM58.0926 9.7256C57.2061 12.737 54.3664 14.9549 51 14.9549V15.9549C54.8118 15.9549 58.0407 13.4431 59.0519 10.008L58.0926 9.7256ZM76.1922 16.8949C71.0115 13.0994 64.9983 10.5189 58.6611 9.37475L58.4834 10.3588C64.6715 11.476 70.5433 13.996 75.6012 17.7016L76.1922 16.8949ZM77.3949 24.1088C75.5809 22.3302 75.2305 19.6554 76.34 17.5296L75.4535 17.0669C74.1452 19.5735 74.5586 22.7284 76.6948 24.8228L77.3949 24.1088ZM81.489 25.7678C80.0032 25.7678 78.5215 25.2134 77.3949 24.1088L76.6948 24.8229C78.0185 26.1206 79.7558 26.7678 81.489 26.7678V25.7678ZM84.1324 25.1442C83.3062 25.5589 82.3983 25.7678 81.489 25.7678V26.7678C82.5508 26.7678 83.6127 26.5239 84.581 26.0379L84.1324 25.1442ZM92.4244 42.4847C91.2574 36.2696 88.6244 30.3655 84.7544 25.2879L83.9591 25.8941C87.7355 30.8489 90.3037 36.6089 91.4416 42.6692L92.4244 42.4847ZM86.736 50C86.736 46.7183 88.9862 43.9317 92.0694 43.058L91.7967 42.0959C88.3076 43.0847 85.736 46.2462 85.736 50H86.736ZM92.0708 56.9423C88.9868 56.0692 86.736 53.2821 86.736 50H85.736C85.736 53.7542 88.3082 56.9164 91.7984 57.9045L92.0708 56.9423ZM87.927 69.8922C90.1042 66.0139 91.6134 61.8559 92.4261 57.5155L91.4432 57.3314C90.6506 61.5644 89.179 65.6193 87.0551 69.4027L87.927 69.8922ZM88.3169 71.1971C87.8354 70.9373 87.6683 70.3529 87.927 69.8923L87.0551 69.4026C86.5177 70.3596 86.8778 71.5569 87.8421 72.0772L88.3169 71.1971ZM88.7985 71.3189C88.6356 71.3189 88.4704 71.2798 88.3169 71.197L87.8422 72.0772C88.1457 72.2409 88.4746 72.3189 88.7985 72.3189V71.3189ZM89.6728 70.8154C89.4943 71.1334 89.1556 71.3189 88.7985 71.3189V72.3189C89.4957 72.3189 90.179 71.9565 90.5448 71.3049L89.6728 70.8154ZM94.4311 57.5984C93.5929 62.2361 91.9961 66.677 89.6728 70.8154L90.5448 71.3049C92.9223 67.0699 94.5571 62.5237 95.4151 57.7762L94.4311 57.5984ZM101.5 50C101.5 53.7267 98.5981 56.8176 94.8734 57.1898L94.9728 58.1848C99.187 57.7637 102.5 54.262 102.5 50H101.5ZM20.5109 23.8408C21.5211 23.8408 22.4752 23.4542 23.1922 22.7512L22.4921 22.0371C21.9641 22.5548 21.2622 22.8408 20.5109 22.8408V23.8408ZM17.8296 22.7512C18.5469 23.4544 19.5007 23.8408 20.5109 23.8408V22.8408C19.7596 22.8408 19.058 22.555 18.5297 22.0371L17.8296 22.7512ZM16.714 20.1088C16.714 21.1079 17.1123 22.0479 17.8296 22.7512L18.5297 22.0371C18.0019 21.5197 17.714 20.8362 17.714 20.1088H16.714ZM17.8297 17.4663C17.112 18.1697 16.714 19.1097 16.714 20.1088H17.714C17.714 19.3813 18.0018 18.6979 18.5296 18.1805L17.8297 17.4663ZM20.5109 16.3783C19.5428 16.3783 18.571 16.7395 17.8296 17.4664L18.5297 18.1805C19.074 17.6468 19.79 17.3783 20.5109 17.3783V16.3783ZM23.1922 17.4664C22.451 16.7397 21.4786 16.3783 20.5109 16.3783V17.3783C21.2314 17.3783 21.948 17.647 22.4921 18.1805L23.1922 17.4664ZM23.1922 22.7512C24.6773 21.295 24.6773 18.9226 23.1922 17.4664L22.4921 18.1804C23.5774 19.2446 23.5774 20.973 22.4921 22.0371L23.1922 22.7512ZM45.6063 7.72734C45.6063 10.6583 48.0347 13.0252 51 13.0252V12.0252C48.5683 12.0252 46.6063 10.0874 46.6063 7.72734H45.6063ZM51 2.42969C48.0348 2.42969 45.6063 4.79641 45.6063 7.72734H46.6063C46.6063 5.36727 48.5683 3.42969 51 3.42969V2.42969ZM56.3936 7.72734C56.3936 4.79661 53.9651 2.42969 51 2.42969V3.42969C53.4316 3.42969 55.3936 5.36745 55.3936 7.72734H56.3936ZM51 13.0252C53.9652 13.0252 56.3936 10.658 56.3936 7.72734H55.3936C55.3936 10.0873 53.4316 12.0252 51 12.0252V13.0252ZM78.8077 17.4662C77.3224 18.9224 77.3224 21.295 78.8077 22.7512L79.5078 22.0371C78.4224 20.973 78.4224 19.2444 79.5078 18.1803L78.8077 17.4662ZM81.489 16.3781C80.5209 16.3781 79.5491 16.7393 78.8077 17.4662L79.5078 18.1803C80.0521 17.6466 80.7681 17.3781 81.489 17.3781V16.3781ZM84.1703 17.4662C83.4291 16.7395 82.4567 16.3781 81.489 16.3781V17.3781C82.2095 17.3781 82.9261 17.6468 83.4702 18.1803L84.1703 17.4662ZM85.2859 20.1088C85.2859 19.1094 84.8876 18.1697 84.1703 17.4663L83.4702 18.1802C83.998 18.6979 84.2859 19.3812 84.2859 20.1088H85.2859ZM84.1702 22.7512C84.8879 22.0479 85.2859 21.1081 85.2859 20.1088H84.2859C84.2859 20.8364 83.9981 21.5197 83.4703 22.037L84.1702 22.7512ZM81.489 23.8408C82.4992 23.8408 83.4532 23.4542 84.1703 22.7512L83.4702 22.0371C82.9421 22.5548 82.2403 22.8408 81.489 22.8408V23.8408ZM78.8077 22.7512C79.5249 23.4544 80.4788 23.8408 81.489 23.8408V22.8408C80.7377 22.8408 80.036 22.555 79.5078 22.0371L78.8077 22.7512ZM88.7245 50C88.7245 52.9307 91.1529 55.2977 94.1181 55.2977V54.2977C91.6864 54.2977 89.7245 52.3599 89.7245 50H88.7245ZM94.1181 44.7023C91.1531 44.7023 88.7245 47.0693 88.7245 50H89.7245C89.7245 47.6401 91.6866 45.7023 94.1181 45.7023V44.7023ZM99.5117 50C99.5117 47.069 97.083 44.7023 94.1181 44.7023V45.7023C96.5495 45.7023 98.5117 47.6399 98.5117 50H99.5117ZM94.1181 55.2977C97.083 55.2977 99.5117 52.931 99.5117 50H98.5117C98.5117 52.3601 96.5495 54.2977 94.1181 54.2977V55.2977ZM51 80.1465C67.9409 80.1465 81.7396 66.6325 81.7396 50H80.7396C80.7396 66.0616 67.4074 79.1465 51 79.1465V80.1465ZM20.2603 50C20.2603 66.6327 34.059 80.1465 51 80.1465V79.1465C34.5925 79.1465 21.2603 66.0618 21.2603 50H20.2603ZM51 19.8535C34.059 19.8535 20.2603 33.3673 20.2603 50H21.2603C21.2603 33.9382 34.5925 20.8535 51 20.8535V19.8535ZM81.7396 50C81.7396 33.3675 67.9409 19.8535 51 19.8535V20.8535C67.4074 20.8535 80.7396 33.9384 80.7396 50H81.7396ZM51 23.7832C65.7597 23.7832 77.7513 35.5538 77.7513 50H78.7513C78.7513 34.9829 66.2932 22.7832 51 22.7832V23.7832ZM24.2486 50C24.2486 35.5536 36.2402 23.7832 51 23.7832V22.7832C35.7067 22.7832 23.2486 34.9827 23.2486 50H24.2486ZM51 76.2168C36.2402 76.2168 24.2486 64.4464 24.2486 50H23.2486C23.2486 65.0173 35.7067 77.2168 51 77.2168V76.2168ZM77.7513 50C77.7513 64.4462 65.7597 76.2168 51 76.2168V77.2168C66.2932 77.2168 78.7513 65.0171 78.7513 50H77.7513ZM58.3819 39.0405C58.3819 43.0159 55.0794 46.2679 51 46.2679V47.2679C55.6129 47.2679 59.3819 43.5867 59.3819 39.0405H58.3819ZM58.1497 37.2361C58.3037 37.8225 58.3819 38.4296 58.3819 39.0405H59.3819C59.3819 38.3444 59.2928 37.6519 59.1169 36.9821L58.1497 37.2361ZM56.9362 36.5404C57.4773 36.4038 58.0157 36.7256 58.1496 37.236L59.1169 36.9822C58.8396 35.9257 57.7489 35.3038 56.6914 35.5708L56.9362 36.5404ZM56.2228 37.7125C56.0899 37.2057 56.3986 36.676 56.9361 36.5404L56.6915 35.5708C55.6308 35.8383 54.9774 36.9059 55.2556 37.9663L56.2228 37.7125ZM56.3934 39.0405C56.3934 38.591 56.3362 38.1442 56.2228 37.7123L55.2556 37.9664C55.347 38.3142 55.3934 38.6756 55.3934 39.0405H56.3934ZM50.9998 44.3382C53.9648 44.3382 56.3934 41.9715 56.3934 39.0405H55.3934C55.3934 41.4006 53.4313 43.3382 50.9998 43.3382V44.3382ZM45.6062 39.0405C45.6062 41.9713 48.0348 44.3382 50.9998 44.3382V43.3382C48.5683 43.3382 46.6062 41.4004 46.6062 39.0405H45.6062ZM50.9998 33.7427C48.0348 33.7427 45.6062 36.1098 45.6062 39.0405H46.6062C46.6062 36.6806 48.5684 34.7427 50.9998 34.7427V33.7427ZM52.3542 33.9108C51.914 33.7991 51.4585 33.7427 50.9998 33.7427V34.7427C51.3767 34.7427 51.7495 34.789 52.1082 34.8801L52.3542 33.9108ZM53.5688 33.2168C53.434 33.727 52.8949 34.048 52.3542 33.9108L52.1082 34.88C53.1648 35.1483 54.2565 34.5282 54.5356 33.4724L53.5688 33.2168ZM52.8573 32.0439C53.3947 32.1804 53.7025 32.7105 53.5688 33.217L54.5357 33.4723C54.8155 32.4123 54.1635 31.344 53.1036 31.0747L52.8573 32.0439ZM50.9998 31.813C51.6289 31.813 52.2541 31.8907 52.8574 32.0439L53.1035 31.0747C52.419 30.9009 51.711 30.813 50.9998 30.813V31.813ZM43.6179 39.0405C43.6179 35.065 46.9204 31.813 50.9998 31.813V30.813C46.3869 30.813 42.6179 34.4942 42.6179 39.0405H43.6179ZM51 46.2679C46.9206 46.2679 43.6181 43.0159 43.6179 39.0405L42.6179 39.0406C42.6181 43.5867 46.3871 47.2679 51 47.2679V46.2679ZM63.1728 64.0905C63.1728 66.3392 61.3031 68.1866 58.9848 68.1866V69.1866C61.8366 69.1866 64.1728 66.9101 64.1728 64.0905H63.1728ZM63.1728 59.1426V64.0905H64.1728V59.1426H63.1728ZM60.5987 53.6582C62.2363 55.0344 63.1728 57.0337 63.1728 59.1426H64.1728C64.1728 56.7344 63.1027 54.4563 61.2421 52.8927L60.5987 53.6582ZM57.568 51.1116L60.5987 53.6582L61.2421 52.8926L58.2113 50.346L57.568 51.1116ZM53.8528 50.2495C55.1513 49.9267 56.5413 50.2487 57.568 51.1116L58.2113 50.346C56.9399 49.2775 55.2212 48.8789 53.6115 49.2791L53.8528 50.2495ZM48.1473 50.2495C50.0195 50.7151 51.9804 50.7153 53.8529 50.2495L53.6115 49.2791C51.8976 49.7055 50.1024 49.7053 48.3887 49.2791L48.1473 50.2495ZM44.4319 51.1114C45.459 50.2487 46.8487 49.9264 48.1473 50.2495L48.3888 49.2791C46.7787 48.8784 45.0603 49.2776 43.7887 50.3457L44.4319 51.1114ZM41.4013 53.6582L44.432 51.1114L43.7886 50.3458L40.7579 52.8927L41.4013 53.6582ZM38.8272 59.1426C38.8272 57.0335 39.7635 55.0344 41.4013 53.6582L40.7579 52.8926C38.897 54.4563 37.8272 56.7342 37.8272 59.1426H38.8272ZM38.8272 64.0905V59.1426H37.8272V64.0905H38.8272ZM43.0152 68.1866C40.6971 68.1866 38.8272 66.3394 38.8272 64.0905H37.8272C37.8272 66.9103 40.1636 69.1866 43.0152 69.1866V68.1866ZM58.9848 68.1866H43.0152V69.1866H58.9848V68.1866ZM42.7027 55.1171C41.505 56.1235 40.8155 57.5907 40.8155 59.1426H41.8155C41.8155 57.8899 42.3715 56.7016 43.346 55.8827L42.7027 55.1171ZM45.7334 52.5702L42.7027 55.1171L43.3461 55.8826L46.3768 53.3358L45.7334 52.5702ZM47.1394 52.0559C46.6321 52.0559 46.1317 52.2355 45.7334 52.5702L46.3767 53.3358C46.5945 53.1528 46.867 53.0559 47.1394 53.0559V52.0559ZM47.6537 52.1187C47.4839 52.0765 47.3111 52.0559 47.1394 52.0559V53.0559C47.2311 53.0559 47.3229 53.0669 47.4125 53.0892L47.6537 52.1187ZM54.3464 52.1188C52.1524 52.6645 49.8476 52.6645 47.6538 52.1188L47.4124 53.0892C49.7647 53.6743 52.2353 53.6743 54.5878 53.0892L54.3464 52.1188ZM56.2666 52.5702C55.7346 52.123 55.0179 51.9516 54.3463 52.1188L54.5879 53.0891C54.9423 53.0009 55.3313 53.0904 55.6232 53.3357L56.2666 52.5702ZM59.2973 55.1169L56.2666 52.5702L55.6232 53.3358L58.654 55.8825L59.2973 55.1169ZM61.1845 59.1424C61.1845 57.5905 60.495 56.1233 59.2973 55.1169L58.654 55.8825C59.6285 56.7014 60.1845 57.8897 60.1845 59.1424H61.1845ZM61.1845 64.0903V59.1424H60.1845V64.0903H61.1845ZM58.9848 66.2567C60.1886 66.2567 61.1845 65.2947 61.1845 64.0903H60.1845C60.1845 64.7238 59.6552 65.2567 58.9848 65.2567V66.2567ZM43.0152 66.2567H58.9848V65.2567H43.0152V66.2567ZM40.8155 64.0903C40.8155 65.2944 41.8111 66.2567 43.0152 66.2567V65.2567C42.3447 65.2567 41.8155 64.7236 41.8155 64.0903H40.8155ZM40.8155 59.1426V64.0903H41.8155V59.1426H40.8155ZM76.6948 75.1771C74.5584 77.2716 74.1451 80.4266 75.4535 82.9333L76.34 82.4705C75.2304 80.3448 75.5808 77.6697 77.3949 75.8912L76.6948 75.1771ZM86.283 75.1769C83.6382 72.5839 79.3398 72.5839 76.6948 75.1771L77.3949 75.8912C79.6511 73.6792 83.327 73.6793 85.583 75.891L86.283 75.1769ZM88.2738 79.891C88.2738 78.1093 87.565 76.4338 86.283 75.1769L85.583 75.891C86.6753 76.9619 87.2738 78.3809 87.2738 79.891H88.2738ZM86.283 84.6051C87.565 83.3484 88.2738 81.6727 88.2738 79.891H87.2738C87.2738 81.4011 86.6753 82.8203 85.583 83.8909L86.283 84.6051ZM81.4888 86.55C83.2219 86.55 84.9593 85.903 86.2831 84.605L85.5829 83.891C84.4563 84.9957 82.9747 85.55 81.4888 85.55V86.55ZM77.5765 85.3325C78.7458 86.1437 80.118 86.55 81.4888 86.55V85.55C80.3145 85.55 79.1426 85.2019 78.1465 84.5108L77.5765 85.3325ZM58.9268 93.5549C65.8866 92.3429 72.4983 89.5131 78.1589 85.3235L77.564 84.5198C72.0289 88.6165 65.5623 91.3843 58.7553 92.5697L58.9268 93.5549ZM51 100.5C55.3252 100.5 58.9065 97.2652 59.3384 93.114L58.3437 93.0105C57.9659 96.6422 54.8232 99.5 51 99.5V100.5ZM42.6614 93.114C43.0935 97.2652 46.6747 100.5 51 100.5V99.5C47.1768 99.5 44.034 96.6422 43.6561 93.0105L42.6614 93.114ZM23.8409 85.3234C29.5027 89.5135 36.1107 92.3425 43.073 93.5549L43.2445 92.5697C36.4352 91.384 29.9721 88.6169 24.4358 84.5195L23.8409 85.3234ZM20.5108 86.55C21.8818 86.55 23.254 86.1437 24.4234 85.3322L23.8533 84.5107C22.8572 85.2019 21.6853 85.55 20.5108 85.55V86.55ZM15.7166 84.605C17.0403 85.9028 18.7776 86.55 20.5108 86.55V85.55C19.0249 85.55 17.5433 84.9956 16.4166 83.891L15.7166 84.605ZM13.7258 79.891C13.7258 81.6727 14.4346 83.3484 15.7166 84.6051L16.4166 83.8909C15.3243 82.8203 14.7258 81.4011 14.7258 79.891H13.7258ZM14.9735 76.0417C14.1644 77.1593 13.7258 78.4924 13.7258 79.891H14.7258C14.7258 78.7048 15.0969 77.5766 15.7835 76.6281L14.9735 76.0417ZM6.58447 57.7764C7.82164 64.6024 10.7082 71.0898 14.9823 76.64L15.7746 76.0298C11.5971 70.6051 8.77687 64.2655 7.56843 57.5981L6.58447 57.7764ZM-0.5 50C-0.5 54.2619 2.81271 57.7636 7.02673 58.1848L7.12617 57.1897C3.40172 56.8175 0.5 53.7267 0.5 50H-0.5ZM7.02565 41.8151C2.8123 42.2369 -0.5 45.7382 -0.5 50H0.5C0.5 46.2734 3.40134 43.1829 7.12525 42.8102L7.02565 41.8151ZM11.4548 28.6952C9.07771 32.9294 7.44143 37.4762 6.58342 42.2237L7.56748 42.4016C8.40562 37.764 10.0039 33.3225 12.3268 29.1848L11.4548 28.6952ZM14.1577 27.923C13.1986 27.4055 11.9886 27.7443 11.4548 28.6953L12.3268 29.1847C12.5887 28.7182 13.1955 28.5401 13.6828 28.8031L14.1577 27.923ZM14.9447 30.5975C15.4821 29.6406 15.122 28.4433 14.1576 27.923L13.6828 28.8031C14.1644 29.0629 14.3314 29.6472 14.0727 30.1079L14.9447 30.5975ZM10.5564 42.6683C11.349 38.4354 12.8211 34.3801 14.9447 30.5975L14.0727 30.1079C11.8959 33.9854 10.3862 38.1438 9.57347 42.4843L10.5564 42.6683ZM16.2638 50C16.2638 46.2455 13.6913 43.0836 10.2012 42.0952L9.92869 43.0574C13.0128 43.9308 15.2638 46.7177 15.2638 50H16.2638ZM10.2005 57.9049C13.6911 56.9169 16.2638 53.7546 16.2638 50H15.2638C15.2638 53.2824 13.0126 56.0697 9.92817 56.9427L10.2005 57.9049ZM18.0429 74.1049C14.2657 69.1497 11.6939 63.3905 10.5557 57.3315L9.57293 57.5161C10.7402 63.7302 13.3771 69.6334 17.2476 74.7111L18.0429 74.1049ZM25.3052 75.1771C23.1717 73.0855 19.9667 72.6845 17.4211 73.961L17.8693 74.8549C20.0484 73.7622 22.7888 74.1105 24.6051 75.8912L25.3052 75.1771ZM26.5454 82.9352C27.8552 80.4281 27.442 77.272 25.3052 75.1771L24.6051 75.8912C26.4196 77.6701 26.7698 80.346 25.6591 82.4722L26.5454 82.9352ZM43.5171 89.6392C37.3289 88.5223 31.4543 86.0047 26.3977 82.3003L25.8068 83.107C30.9864 86.9015 37.0024 89.4796 43.3395 90.6233L43.5171 89.6392ZM51 84.0451C47.189 84.0451 43.9606 86.5561 42.9487 89.9899L43.9079 90.2725C44.795 87.2622 47.6343 85.0451 51 85.0451V84.0451ZM59.0513 89.9901C58.0392 86.5561 54.811 84.0451 51 84.0451V85.0451C54.3656 85.0451 57.2048 87.2622 58.0921 90.2728L59.0513 89.9901ZM75.6013 82.2986C70.5456 86.0024 64.669 88.5227 58.4829 89.6394L58.6605 90.6235C64.9957 89.4799 71.0137 86.8991 76.1923 83.1053L75.6013 82.2986ZM3.48828 50C3.48828 47.6399 5.45042 45.7023 7.88189 45.7023V44.7023C4.91692 44.7023 2.48828 47.069 2.48828 50H3.48828ZM7.88209 54.2976C5.45059 54.2976 3.48828 52.36 3.48828 50H2.48828C2.48828 52.9309 4.91715 55.2976 7.88209 55.2976V54.2976ZM12.2757 50C12.2757 52.36 10.3136 54.2976 7.88209 54.2976V55.2976C10.8471 55.2976 13.2757 52.9309 13.2757 50H12.2757ZM7.88189 45.7023C10.3134 45.7023 12.2757 47.6399 12.2757 50H13.2757C13.2757 47.069 10.8468 44.7023 7.88189 44.7023V45.7023ZM18.5297 81.8197C18.002 81.3023 17.7141 80.6188 17.7141 79.8912H16.7141C16.7141 80.8905 17.1123 81.8304 17.8297 82.5338L18.5297 81.8197ZM20.511 82.6234C19.7597 82.6234 19.058 82.3374 18.5297 81.8196L17.8297 82.5338C18.5469 83.2367 19.5007 83.6234 20.511 83.6234V82.6234ZM22.4922 81.8197C21.9641 82.3374 21.2622 82.6234 20.511 82.6234V83.6234C21.5212 83.6234 22.4752 83.2367 23.1923 82.5338L22.4922 81.8197ZM22.4922 77.9629C23.5776 79.027 23.5776 80.7556 22.4922 81.8197L23.1923 82.5338C24.6776 81.0776 24.6776 78.705 23.1923 77.2488L22.4922 77.9629ZM20.511 77.1591C21.2623 77.1591 21.9639 77.445 22.4922 77.9629L23.1923 77.2488C22.475 76.5456 21.5212 76.1591 20.511 76.1591V77.1591ZM18.5297 77.9629C19.0578 77.4451 19.7597 77.1591 20.511 77.1591V76.1591C19.5008 76.1591 18.5467 76.5458 17.8297 77.2488L18.5297 77.9629ZM17.7141 79.8912C17.7141 79.1637 18.0018 78.4802 18.5297 77.9629L17.8297 77.2487C17.1121 77.9521 16.7141 78.8921 16.7141 79.8912H17.7141ZM51 96.5703C48.5684 96.5703 46.6064 94.6325 46.6064 92.2726H45.6064C45.6064 95.2033 48.0348 97.5703 51 97.5703V96.5703ZM55.3936 92.2726C55.3936 94.6325 53.4316 96.5703 51 96.5703V97.5703C53.9652 97.5703 56.3936 95.2033 56.3936 92.2726H55.3936ZM51 87.975C53.4315 87.975 55.3936 89.9127 55.3936 92.2726H56.3936C56.3936 89.3419 53.965 86.975 51 86.975V87.975ZM46.6064 92.2726C46.6064 89.9127 48.5685 87.975 51 87.975V86.975C48.035 86.975 45.6064 89.3419 45.6064 92.2726H46.6064ZM83.4703 81.8197C82.9422 82.3374 82.2403 82.6234 81.489 82.6234V83.6234C82.4992 83.6234 83.4533 83.2367 84.1703 82.5338L83.4703 81.8197ZM84.2859 79.8911C84.2857 80.6186 83.998 81.3022 83.4702 81.8197L84.1704 82.5337C84.8877 81.8302 85.2857 80.8903 85.2859 79.8913L84.2859 79.8911ZM83.4703 77.9629C83.998 78.4803 84.2859 79.1638 84.2859 79.8912H85.2859C85.2859 78.892 84.8877 77.9521 84.1703 77.2488L83.4703 77.9629ZM81.489 77.1591C82.2403 77.1591 82.942 77.445 83.4703 77.9629L84.1703 77.2488C83.4531 76.5456 82.4992 76.1591 81.489 76.1591V77.1591ZM79.5078 77.9629C80.0359 77.4451 80.7378 77.1591 81.489 77.1591V76.1591C80.4788 76.1591 79.5248 76.5458 78.8077 77.2488L79.5078 77.9629ZM79.5078 81.8197C78.4224 80.7556 78.4224 79.027 79.5078 77.9629L78.8077 77.2488C77.3224 78.705 77.3224 81.0776 78.8077 82.5338L79.5078 81.8197ZM81.489 82.6234C80.7377 82.6234 80.0361 82.3376 79.5078 81.8197L78.8077 82.5338C79.525 83.2369 80.4789 83.6234 81.489 83.6234V82.6234Z" fill="url(#paint1_linear)" mask="url(#path-1-outside-1)"/>
</g>
<defs>
<linearGradient id="paint0_linear" x1="0.53637" y1="2.11899" x2="105.803" y2="6.5209" gradientUnits="userSpaceOnUse">
<stop stop-color="#0BB9F6"/>
<stop offset="1" stop-color="#5B6FED"/>
</linearGradient>
<linearGradient id="paint1_linear" x1="0.53637" y1="2.11899" x2="105.803" y2="6.5209" gradientUnits="userSpaceOnUse">
<stop stop-color="#0BB9F6"/>
<stop offset="1" stop-color="#5B6FED"/>
</linearGradient>
<clipPath id="clip0">
<rect width="102" height="100" fill="white"/>
</clipPath>
</defs>
</svg>
