<svg width="116" height="102" viewBox="0 0 116 102" fill="none" xmlns="http://www.w3.org/2000/svg">
<mask id="path-1-outside-1" maskUnits="userSpaceOnUse" x="0" y="0" width="116" height="102" fill="black">
<rect fill="white" width="116" height="102"/>
<path fill-rule="evenodd" clip-rule="evenodd" d="M9.83381 72.593H79.6366C80.5614 72.593 81.3112 73.3428 81.3112 74.2676C81.3112 75.1925 80.5614 75.9422 79.6366 75.9422H9.83381C4.96298 75.9422 1 71.9795 1 67.1084V9.83381C1 4.96275 4.96298 0.999777 9.83381 1H92.1661C97.0369 1 101 4.96275 101 9.83381V42.0507C101 42.9755 100.25 43.7253 99.3253 43.7253C98.4005 43.7253 97.6507 42.9755 97.6507 42.0507V9.83381C97.6507 6.80972 95.1904 4.34918 92.1661 4.34918H9.83381C6.80972 4.34918 4.34918 6.80949 4.34918 9.83381V67.1084C4.34918 70.1327 6.80972 72.593 9.83381 72.593ZM88.7019 58.1589C88.7019 64.0168 93.4678 68.7827 99.3257 68.7827C105.184 68.7827 109.95 64.0168 109.95 58.1589C109.95 56.6825 109.652 55.2527 109.065 53.9092C108.695 53.0619 107.708 52.6749 106.86 53.0449C106.013 53.4151 105.626 54.4024 105.996 55.2498C106.397 56.1679 106.601 57.1467 106.601 58.1586C106.601 62.1698 103.337 65.4333 99.3259 65.4333C95.3147 65.4333 92.0513 62.1698 92.0513 58.1586C92.0513 54.1474 95.3147 50.884 99.3259 50.884C99.8169 50.884 100.307 50.9329 100.782 51.0296C101.69 51.2138 102.573 50.6279 102.757 49.7218C102.941 48.8153 102.355 47.9314 101.449 47.7474C100.755 47.6065 100.04 47.5348 99.3259 47.5348C93.4675 47.5353 88.7019 52.3011 88.7019 58.1589ZM113.524 77.3074L108.597 72.9957C107.217 71.7887 105.346 71.395 103.59 71.9429C100.824 72.8061 97.8268 72.8059 95.0611 71.9429C93.3061 71.3955 91.4339 71.7889 90.0542 72.9957L85.1267 77.3074C83.9864 78.3053 83.3324 79.7465 83.3324 81.2617V95.7458C83.3324 98.6431 85.6896 101 88.5869 101H110.065C112.962 101 115.319 98.6429 115.319 95.7458V81.2617C115.319 79.7465 114.665 78.3053 113.524 77.3074ZM111.97 95.7458C111.97 96.7963 111.115 97.6508 110.065 97.6508H88.5866C87.5361 97.6508 86.6814 96.7961 86.6814 95.7458V81.2617C86.6814 80.7124 86.9185 80.1898 87.332 79.828L92.2596 75.5163C92.6072 75.2122 93.0428 75.0521 93.491 75.0521C93.6814 75.0521 93.8741 75.0811 94.0632 75.1401C97.4758 76.2049 101.175 76.2049 104.587 75.1401C105.222 74.942 105.896 75.0829 106.391 75.5163L111.319 79.828C111.732 80.1898 111.97 80.7122 111.97 81.2617V95.7458ZM84.8917 61.739C84.8917 60.8142 84.1419 60.0644 83.2171 60.0644H30.9214C30.2205 57.9861 28.2541 56.4848 25.9423 56.4848C23.6304 56.4848 21.6642 57.9861 20.9631 60.0644H13.4136C12.4888 60.0644 11.739 60.8142 11.739 61.739C11.739 62.6638 12.4888 63.4136 13.4136 63.4136H20.9634C21.6642 65.4919 23.6307 66.9932 25.9425 66.9932C28.2543 66.9932 30.2205 65.4919 30.9216 63.4136H83.2173C84.1419 63.4136 84.8917 62.6638 84.8917 61.739ZM25.9423 63.644C24.8929 63.644 24.0393 62.7911 24.0375 61.7421L24.0377 61.739L24.0375 61.7359C24.0393 60.6869 24.8931 59.834 25.9423 59.834C26.9928 59.834 27.8473 60.6887 27.8473 61.739C27.8473 62.7893 26.9928 63.644 25.9423 63.644ZM54.5862 39.6747L62.6678 34.8257C63.2882 34.4535 63.6442 33.8255 63.6442 33.1018C63.6442 32.3782 63.2882 31.7496 62.6678 31.3774L45.8759 21.3022C44.9687 20.7578 44.1575 21.103 43.8507 21.2767C43.5439 21.4502 42.8306 21.9685 42.8306 23.0263V43.1768C42.8306 44.2347 43.5437 44.7529 43.8505 44.9267C44.1573 45.1004 44.9685 45.4453 45.8759 44.9012L48.3489 43.4173C49.142 42.9413 50.1706 43.1985 50.6464 43.9916C51.1225 44.7847 50.8652 45.8133 50.0722 46.2891L47.5989 47.773C46.7402 48.2883 45.7921 48.5465 44.843 48.5465C43.9378 48.5467 43.0315 48.3118 42.2002 47.8411C40.4977 46.877 39.4812 45.1334 39.4812 43.1768V23.0263C39.4812 21.0695 40.4977 19.3259 42.2002 18.3621C43.903 17.3979 45.9212 17.4234 47.5989 18.4302L64.3908 28.5054C66.0203 29.4829 66.9931 31.2013 66.9931 33.1016C66.9931 35.0019 66.0203 36.72 64.3908 37.6976L56.3094 42.5465C55.5161 43.0223 54.4877 42.7651 54.0119 41.9722C53.5359 41.1791 53.7931 40.1505 54.5862 39.6747Z"/>
</mask>
<path fill-rule="evenodd" clip-rule="evenodd" d="M9.83381 72.593H79.6366C80.5614 72.593 81.3112 73.3428 81.3112 74.2676C81.3112 75.1925 80.5614 75.9422 79.6366 75.9422H9.83381C4.96298 75.9422 1 71.9795 1 67.1084V9.83381C1 4.96275 4.96298 0.999777 9.83381 1H92.1661C97.0369 1 101 4.96275 101 9.83381V42.0507C101 42.9755 100.25 43.7253 99.3253 43.7253C98.4005 43.7253 97.6507 42.9755 97.6507 42.0507V9.83381C97.6507 6.80972 95.1904 4.34918 92.1661 4.34918H9.83381C6.80972 4.34918 4.34918 6.80949 4.34918 9.83381V67.1084C4.34918 70.1327 6.80972 72.593 9.83381 72.593ZM88.7019 58.1589C88.7019 64.0168 93.4678 68.7827 99.3257 68.7827C105.184 68.7827 109.95 64.0168 109.95 58.1589C109.95 56.6825 109.652 55.2527 109.065 53.9092C108.695 53.0619 107.708 52.6749 106.86 53.0449C106.013 53.4151 105.626 54.4024 105.996 55.2498C106.397 56.1679 106.601 57.1467 106.601 58.1586C106.601 62.1698 103.337 65.4333 99.3259 65.4333C95.3147 65.4333 92.0513 62.1698 92.0513 58.1586C92.0513 54.1474 95.3147 50.884 99.3259 50.884C99.8169 50.884 100.307 50.9329 100.782 51.0296C101.69 51.2138 102.573 50.6279 102.757 49.7218C102.941 48.8153 102.355 47.9314 101.449 47.7474C100.755 47.6065 100.04 47.5348 99.3259 47.5348C93.4675 47.5353 88.7019 52.3011 88.7019 58.1589ZM113.524 77.3074L108.597 72.9957C107.217 71.7887 105.346 71.395 103.59 71.9429C100.824 72.8061 97.8268 72.8059 95.0611 71.9429C93.3061 71.3955 91.4339 71.7889 90.0542 72.9957L85.1267 77.3074C83.9864 78.3053 83.3324 79.7465 83.3324 81.2617V95.7458C83.3324 98.6431 85.6896 101 88.5869 101H110.065C112.962 101 115.319 98.6429 115.319 95.7458V81.2617C115.319 79.7465 114.665 78.3053 113.524 77.3074ZM111.97 95.7458C111.97 96.7963 111.115 97.6508 110.065 97.6508H88.5866C87.5361 97.6508 86.6814 96.7961 86.6814 95.7458V81.2617C86.6814 80.7124 86.9185 80.1898 87.332 79.828L92.2596 75.5163C92.6072 75.2122 93.0428 75.0521 93.491 75.0521C93.6814 75.0521 93.8741 75.0811 94.0632 75.1401C97.4758 76.2049 101.175 76.2049 104.587 75.1401C105.222 74.942 105.896 75.0829 106.391 75.5163L111.319 79.828C111.732 80.1898 111.97 80.7122 111.97 81.2617V95.7458ZM84.8917 61.739C84.8917 60.8142 84.1419 60.0644 83.2171 60.0644H30.9214C30.2205 57.9861 28.2541 56.4848 25.9423 56.4848C23.6304 56.4848 21.6642 57.9861 20.9631 60.0644H13.4136C12.4888 60.0644 11.739 60.8142 11.739 61.739C11.739 62.6638 12.4888 63.4136 13.4136 63.4136H20.9634C21.6642 65.4919 23.6307 66.9932 25.9425 66.9932C28.2543 66.9932 30.2205 65.4919 30.9216 63.4136H83.2173C84.1419 63.4136 84.8917 62.6638 84.8917 61.739ZM25.9423 63.644C24.8929 63.644 24.0393 62.7911 24.0375 61.7421L24.0377 61.739L24.0375 61.7359C24.0393 60.6869 24.8931 59.834 25.9423 59.834C26.9928 59.834 27.8473 60.6887 27.8473 61.739C27.8473 62.7893 26.9928 63.644 25.9423 63.644ZM54.5862 39.6747L62.6678 34.8257C63.2882 34.4535 63.6442 33.8255 63.6442 33.1018C63.6442 32.3782 63.2882 31.7496 62.6678 31.3774L45.8759 21.3022C44.9687 20.7578 44.1575 21.103 43.8507 21.2767C43.5439 21.4502 42.8306 21.9685 42.8306 23.0263V43.1768C42.8306 44.2347 43.5437 44.7529 43.8505 44.9267C44.1573 45.1004 44.9685 45.4453 45.8759 44.9012L48.3489 43.4173C49.142 42.9413 50.1706 43.1985 50.6464 43.9916C51.1225 44.7847 50.8652 45.8133 50.0722 46.2891L47.5989 47.773C46.7402 48.2883 45.7921 48.5465 44.843 48.5465C43.9378 48.5467 43.0315 48.3118 42.2002 47.8411C40.4977 46.877 39.4812 45.1334 39.4812 43.1768V23.0263C39.4812 21.0695 40.4977 19.3259 42.2002 18.3621C43.903 17.3979 45.9212 17.4234 47.5989 18.4302L64.3908 28.5054C66.0203 29.4829 66.9931 31.2013 66.9931 33.1016C66.9931 35.0019 66.0203 36.72 64.3908 37.6976L56.3094 42.5465C55.5161 43.0223 54.4877 42.7651 54.0119 41.9722C53.5359 41.1791 53.7931 40.1505 54.5862 39.6747Z" fill="url(#paint0_linear)"/>
<path d="M9.83381 1L9.83378 1.5H9.83381V1ZM109.065 53.9092L109.523 53.7091L109.523 53.709L109.065 53.9092ZM106.86 53.0449L106.66 52.5866L106.66 52.5867L106.86 53.0449ZM105.996 55.2498L105.538 55.4498L105.538 55.45L105.996 55.2498ZM100.782 51.0296L100.683 51.5195L100.683 51.5196L100.782 51.0296ZM102.757 49.7218L103.247 49.8213L103.247 49.8213L102.757 49.7218ZM101.449 47.7474L101.549 47.2574L101.549 47.2574L101.449 47.7474ZM99.3259 47.5348V47.0348H99.3259L99.3259 47.5348ZM108.597 72.9957L108.926 72.6194L108.926 72.6194L108.597 72.9957ZM113.524 77.3074L113.854 76.9312L113.854 76.9312L113.524 77.3074ZM103.59 71.9429L103.739 72.4202L103.739 72.4202L103.59 71.9429ZM95.0611 71.9429L95.21 71.4656L95.21 71.4656L95.0611 71.9429ZM90.0542 72.9957L89.7251 72.6194L89.725 72.6194L90.0542 72.9957ZM85.1267 77.3074L84.7974 76.9312L84.7974 76.9312L85.1267 77.3074ZM115.319 81.2617H115.819V81.2616L115.319 81.2617ZM87.332 79.828L87.6612 80.2044L87.6613 80.2043L87.332 79.828ZM92.2596 75.5163L91.9304 75.14L91.9303 75.14L92.2596 75.5163ZM94.0632 75.1401L94.2122 74.6628L94.212 74.6627L94.0632 75.1401ZM104.587 75.1401L104.736 75.6174L104.737 75.6173L104.587 75.1401ZM106.391 75.5163L106.062 75.8926L106.062 75.8926L106.391 75.5163ZM111.319 79.828L110.99 80.2043L110.99 80.2044L111.319 79.828ZM30.9214 60.0644L30.4476 60.2242L30.5623 60.5644H30.9214V60.0644ZM20.9631 60.0644V60.5644H21.3222L21.4369 60.2242L20.9631 60.0644ZM20.9634 63.4136L21.4372 63.2538L21.3224 62.9136H20.9634V63.4136ZM30.9216 63.4136V62.9136H30.5626L30.4478 63.2538L30.9216 63.4136ZM24.0375 61.7421L23.5387 61.7065L23.5374 61.7247L23.5375 61.743L24.0375 61.7421ZM24.0377 61.739L24.5364 61.7746L24.539 61.739L24.5364 61.7033L24.0377 61.739ZM24.0375 61.7359L23.5375 61.735L23.5374 61.7533L23.5387 61.7715L24.0375 61.7359ZM62.6678 34.8257L62.4106 34.397L62.4105 34.397L62.6678 34.8257ZM54.5862 39.6747L54.8434 40.1035L54.8434 40.1034L54.5862 39.6747ZM62.6678 31.3774L62.4105 31.8062L62.4106 31.8062L62.6678 31.3774ZM45.8759 21.3022L45.6186 21.7309L45.6186 21.7309L45.8759 21.3022ZM43.8507 21.2767L44.0968 21.712L44.0971 21.7118L43.8507 21.2767ZM43.8505 44.9267L43.6041 45.3618H43.6041L43.8505 44.9267ZM45.8759 44.9012L46.133 45.33L46.1331 45.3299L45.8759 44.9012ZM48.3489 43.4173L48.6062 43.846L48.6062 43.846L48.3489 43.4173ZM50.6464 43.9916L50.2177 44.2488L50.2177 44.2489L50.6464 43.9916ZM50.0722 46.2891L49.8149 45.8603L49.8149 45.8604L50.0722 46.2891ZM47.5989 47.773L47.3417 47.3443L47.3416 47.3443L47.5989 47.773ZM44.843 48.5465V48.0465H44.8428L44.843 48.5465ZM42.2002 47.8411L41.9539 48.2762L41.9539 48.2762L42.2002 47.8411ZM42.2002 18.3621L42.4466 18.7972L42.4466 18.7971L42.2002 18.3621ZM47.5989 18.4302L47.3416 18.8589L47.3417 18.8589L47.5989 18.4302ZM64.3908 28.5054L64.1335 28.9341L64.1336 28.9342L64.3908 28.5054ZM64.3908 37.6976L64.1336 37.2688L64.1335 37.2688L64.3908 37.6976ZM56.3094 42.5465L56.5666 42.9753L56.5667 42.9752L56.3094 42.5465ZM54.0119 41.9722L54.4406 41.7149L54.4406 41.7149L54.0119 41.9722ZM79.6366 72.093H9.83381V73.093H79.6366V72.093ZM81.8112 74.2676C81.8112 73.0667 80.8376 72.093 79.6366 72.093V73.093C80.2853 73.093 80.8112 73.619 80.8112 74.2676H81.8112ZM79.6366 76.4422C80.8376 76.4422 81.8112 75.4686 81.8112 74.2676H80.8112C80.8112 74.9163 80.2853 75.4422 79.6366 75.4422V76.4422ZM9.83381 76.4422H79.6366V75.4422H9.83381V76.4422ZM0.5 67.1084C0.5 72.2556 4.68684 76.4422 9.83381 76.4422V75.4422C5.23911 75.4422 1.5 71.7033 1.5 67.1084H0.5ZM0.5 9.83381V67.1084H1.5V9.83381H0.5ZM9.83383 0.5C4.68683 0.499764 0.5 4.68662 0.5 9.83381H1.5C1.5 5.23888 5.23913 1.49979 9.83378 1.5L9.83383 0.5ZM92.1661 0.5H9.83381V1.5H92.1661V0.5ZM101.5 9.83381C101.5 4.6866 97.3131 0.5 92.1661 0.5V1.5C96.7608 1.5 100.5 5.2389 100.5 9.83381H101.5ZM101.5 42.0507V9.83381H100.5V42.0507H101.5ZM99.3253 44.2253C100.526 44.2253 101.5 43.2517 101.5 42.0507H100.5C100.5 42.6994 99.974 43.2253 99.3253 43.2253V44.2253ZM97.1507 42.0507C97.1507 43.2517 98.1244 44.2253 99.3253 44.2253V43.2253C98.6767 43.2253 98.1507 42.6994 98.1507 42.0507H97.1507ZM97.1507 9.83381V42.0507H98.1507V9.83381H97.1507ZM92.1661 4.84918C94.9143 4.84918 97.1507 7.08585 97.1507 9.83381H98.1507C98.1507 6.53359 95.4666 3.84918 92.1661 3.84918V4.84918ZM9.83381 4.84918H92.1661V3.84918H9.83381V4.84918ZM4.84918 9.83381C4.84918 7.08565 7.08585 4.84918 9.83381 4.84918V3.84918C6.53359 3.84918 3.84918 6.53334 3.84918 9.83381H4.84918ZM4.84918 67.1084V9.83381H3.84918V67.1084H4.84918ZM9.83381 72.093C7.08585 72.093 4.84918 69.8566 4.84918 67.1084H3.84918C3.84918 70.4089 6.53359 73.093 9.83381 73.093V72.093ZM99.3257 68.2827C93.7439 68.2827 89.2019 63.7407 89.2019 58.1589H88.2019C88.2019 64.2929 93.1916 69.2827 99.3257 69.2827V68.2827ZM109.45 58.1589C109.45 63.7407 104.908 68.2827 99.3257 68.2827V69.2827C105.46 69.2827 110.45 64.2929 110.45 58.1589H109.45ZM108.607 54.1093C109.166 55.3892 109.45 56.7509 109.45 58.1589H110.45C110.45 56.6141 110.138 55.1161 109.523 53.7091L108.607 54.1093ZM107.06 53.5031C107.655 53.2436 108.347 53.5151 108.607 54.1094L109.523 53.709C109.043 52.6086 107.761 52.1063 106.66 52.5866L107.06 53.5031ZM106.454 55.0497C106.195 54.4553 106.466 53.7627 107.06 53.5031L106.66 52.5867C105.56 53.0675 105.057 54.3495 105.538 55.4498L106.454 55.0497ZM107.101 58.1586C107.101 57.0786 106.883 56.0315 106.454 55.0495L105.538 55.45C105.911 56.3043 106.101 57.2149 106.101 58.1586H107.101ZM99.3259 65.9333C103.613 65.9333 107.101 62.446 107.101 58.1586H106.101C106.101 61.8937 103.061 64.9333 99.3259 64.9333V65.9333ZM91.5513 58.1586C91.5513 62.446 95.0386 65.9333 99.3259 65.9333V64.9333C95.5909 64.9333 92.5513 61.8937 92.5513 58.1586H91.5513ZM99.3259 50.384C95.0386 50.384 91.5513 53.8713 91.5513 58.1586H92.5513C92.5513 54.4236 95.5909 51.384 99.3259 51.384V50.384ZM100.882 50.5396C100.373 50.4361 99.8499 50.384 99.3259 50.384V51.384C99.784 51.384 100.241 51.4296 100.683 51.5195L100.882 50.5396ZM102.267 49.6223C102.138 50.2579 101.518 50.6688 100.882 50.5396L100.683 51.5196C101.861 51.7587 103.008 50.9979 103.247 49.8213L102.267 49.6223ZM101.35 48.2374C101.985 48.3664 102.396 48.9863 102.267 49.6224L103.247 49.8213C103.486 48.6443 102.726 47.4963 101.549 47.2574L101.35 48.2374ZM99.3259 48.0348C100.007 48.0348 100.688 48.1032 101.35 48.2374L101.549 47.2574C100.821 47.1098 100.073 47.0348 99.3259 47.0348V48.0348ZM89.2019 58.1589C89.2019 52.5773 93.7437 48.0352 99.326 48.0348L99.3259 47.0348C93.1914 47.0353 88.2019 52.025 88.2019 58.1589H89.2019ZM108.268 73.372L113.195 77.6837L113.854 76.9312L108.926 72.6194L108.268 73.372ZM103.739 72.4202C105.329 71.924 107.019 72.28 108.268 73.372L108.926 72.6194C107.415 71.2973 105.362 70.8661 103.441 71.4657L103.739 72.4202ZM94.9121 72.4202C97.7748 73.3135 100.876 73.3137 103.739 72.4202L103.441 71.4656C100.772 72.2986 97.8788 72.2984 95.21 71.4656L94.9121 72.4202ZM90.3834 73.372C91.6316 72.2802 93.3226 71.9244 94.9122 72.4203L95.21 71.4656C93.2896 70.8666 91.2362 71.2975 89.7251 72.6194L90.3834 73.372ZM85.456 77.6837L90.3835 73.372L89.725 72.6194L84.7974 76.9312L85.456 77.6837ZM83.8324 81.2617C83.8324 79.8907 84.4242 78.5866 85.456 77.6837L84.7974 76.9312C83.5486 78.0239 82.8324 79.6024 82.8324 81.2617H83.8324ZM83.8324 95.7458V81.2617H82.8324V95.7458H83.8324ZM88.5869 100.5C85.9657 100.5 83.8324 98.3669 83.8324 95.7458H82.8324C82.8324 98.9192 85.4135 101.5 88.5869 101.5V100.5ZM110.065 100.5H88.5869V101.5H110.065V100.5ZM114.819 95.7458C114.819 98.3667 112.686 100.5 110.065 100.5V101.5C113.238 101.5 115.819 98.919 115.819 95.7458H114.819ZM114.819 81.2617V95.7458H115.819V81.2617H114.819ZM113.195 77.6837C114.227 78.5866 114.819 79.8907 114.819 81.2618L115.819 81.2616C115.819 79.6023 115.102 78.0239 113.854 76.9312L113.195 77.6837ZM110.065 98.1508C111.391 98.1508 112.47 97.0725 112.47 95.7458H111.47C111.47 96.5201 110.839 97.1508 110.065 97.1508V98.1508ZM88.5866 98.1508H110.065V97.1508H88.5866V98.1508ZM86.1814 95.7458C86.1814 97.0723 87.26 98.1508 88.5866 98.1508V97.1508C87.8122 97.1508 87.1814 96.5199 87.1814 95.7458H86.1814ZM86.1814 81.2617V95.7458H87.1814V81.2617H86.1814ZM87.0028 79.4517C86.4807 79.9084 86.1814 80.5683 86.1814 81.2617H87.1814C87.1814 80.8566 87.3563 80.4711 87.6612 80.2044L87.0028 79.4517ZM91.9303 75.14L87.0028 79.4518L87.6613 80.2043L92.5888 75.8926L91.9303 75.14ZM93.491 74.5521C92.9225 74.5521 92.3697 74.7557 91.9304 75.14L92.5888 75.8926C92.8447 75.6687 93.1632 75.5521 93.491 75.5521V74.5521ZM94.212 74.6627C93.9752 74.5889 93.7323 74.5521 93.491 74.5521V75.5521C93.6305 75.5521 93.773 75.5733 93.9144 75.6174L94.212 74.6627ZM104.439 74.6628C101.123 75.6973 97.5278 75.6973 94.2122 74.6628L93.9143 75.6174C97.4239 76.7125 101.227 76.7125 104.736 75.6174L104.439 74.6628ZM106.72 75.14C106.093 74.5908 105.237 74.4134 104.438 74.6628L104.737 75.6173C105.206 75.4706 105.699 75.575 106.062 75.8926L106.72 75.14ZM111.648 79.4518L106.72 75.14L106.062 75.8926L110.99 80.2043L111.648 79.4518ZM112.47 81.2617C112.47 80.568 112.17 79.9084 111.648 79.4517L110.99 80.2044C111.295 80.4711 111.47 80.8564 111.47 81.2617H112.47ZM112.47 95.7458V81.2617H111.47V95.7458H112.47ZM83.2171 60.5644C83.8658 60.5644 84.3917 61.0903 84.3917 61.739H85.3917C85.3917 60.538 84.4181 59.5644 83.2171 59.5644V60.5644ZM30.9214 60.5644H83.2171V59.5644H30.9214V60.5644ZM25.9423 56.9848C28.0323 56.9848 29.813 58.3423 30.4476 60.2242L31.3952 59.9046C30.6281 57.6299 28.4759 55.9848 25.9423 55.9848V56.9848ZM21.4369 60.2242C22.0718 58.3423 23.8522 56.9848 25.9423 56.9848V55.9848C23.4086 55.9848 21.2567 57.63 20.4894 59.9046L21.4369 60.2242ZM13.4136 60.5644H20.9631V59.5644H13.4136V60.5644ZM12.239 61.739C12.239 61.0903 12.765 60.5644 13.4136 60.5644V59.5644C12.2127 59.5644 11.239 60.538 11.239 61.739H12.239ZM13.4136 62.9136C12.765 62.9136 12.239 62.3877 12.239 61.739H11.239C11.239 62.94 12.2127 63.9136 13.4136 63.9136V62.9136ZM20.9634 62.9136H13.4136V63.9136H20.9634V62.9136ZM25.9425 66.4932C23.8524 66.4932 22.0718 65.1357 21.4372 63.2538L20.4896 63.5734C21.2567 65.8481 23.4089 67.4932 25.9425 67.4932V66.4932ZM30.4478 63.2538C29.813 65.1357 28.0325 66.4932 25.9425 66.4932V67.4932C28.4761 67.4932 30.628 65.848 31.3954 63.5734L30.4478 63.2538ZM83.2173 62.9136H30.9216V63.9136H83.2173V62.9136ZM84.3917 61.739C84.3917 62.3877 83.8657 62.9136 83.2173 62.9136V63.9136C84.4181 63.9136 85.3917 62.9399 85.3917 61.739H84.3917ZM23.5375 61.743C23.5397 63.0676 24.6169 64.144 25.9423 64.144V63.144C25.1689 63.144 24.5388 62.5146 24.5375 61.7413L23.5375 61.743ZM23.539 61.7034L23.5387 61.7065L24.5362 61.7777L24.5364 61.7746L23.539 61.7034ZM23.5387 61.7715L23.539 61.7747L24.5364 61.7033L24.5362 61.7002L23.5387 61.7715ZM25.9423 59.334C24.6171 59.334 23.5397 60.4104 23.5375 61.735L24.5375 61.7367C24.5388 60.9634 25.169 60.334 25.9423 60.334V59.334ZM28.3473 61.739C28.3473 60.4126 27.269 59.334 25.9423 59.334V60.334C26.7166 60.334 27.3473 60.9648 27.3473 61.739H28.3473ZM25.9423 64.144C27.269 64.144 28.3473 63.0654 28.3473 61.739H27.3473C27.3473 62.5132 26.7166 63.144 25.9423 63.144V64.144ZM62.4105 34.397L54.3289 39.2459L54.8434 40.1034L62.925 35.2545L62.4105 34.397ZM63.1442 33.1018C63.1442 33.6497 62.8805 34.1151 62.4106 34.397L62.925 35.2545C63.696 34.792 64.1442 34.0012 64.1442 33.1018H63.1442ZM62.4106 31.8062C62.8804 32.088 63.1442 32.5538 63.1442 33.1018H64.1442C64.1442 32.2025 63.6961 31.4112 62.925 30.9487L62.4106 31.8062ZM45.6186 21.7309L62.4105 31.8062L62.925 30.9487L46.1331 20.8734L45.6186 21.7309ZM44.0971 21.7118C44.3397 21.5744 44.9395 21.3234 45.6186 21.7309L46.1331 20.8735C44.9979 20.1923 43.9753 20.6316 43.6044 20.8416L44.0971 21.7118ZM43.3306 23.0263C43.3306 22.2343 43.8545 21.849 44.0968 21.712L43.6046 20.8415C43.2333 21.0515 42.3306 21.7026 42.3306 23.0263H43.3306ZM43.3306 43.1768V23.0263H42.3306V43.1768H43.3306ZM44.0969 44.4916C43.8544 44.3543 43.3306 43.9689 43.3306 43.1768H42.3306C42.3306 44.5005 43.2331 45.1516 43.6041 45.3618L44.0969 44.4916ZM45.6187 44.4724C44.9392 44.8799 44.3393 44.6289 44.0969 44.4916L43.6041 45.3618C43.9752 45.5719 44.9977 46.0108 46.133 45.33L45.6187 44.4724ZM48.0916 42.9886L45.6186 44.4725L46.1331 45.3299L48.6062 43.846L48.0916 42.9886ZM51.0752 43.7343C50.4573 42.7045 49.1215 42.3704 48.0916 42.9886L48.6062 43.846C49.1625 43.5121 49.8839 43.6925 50.2177 44.2488L51.0752 43.7343ZM50.3294 46.7179C51.3593 46.1 51.6933 44.7642 51.0751 43.7342L50.2177 44.2489C50.5516 44.8051 50.3712 45.5266 49.8149 45.8603L50.3294 46.7179ZM47.8561 48.2018L50.3294 46.7179L49.8149 45.8604L47.3417 47.3443L47.8561 48.2018ZM44.843 49.0465C45.8837 49.0465 46.9206 48.7632 47.8562 48.2017L47.3416 47.3443C46.5598 47.8135 45.7006 48.0465 44.843 48.0465V49.0465ZM41.9539 48.2762C42.8594 48.7889 43.8505 49.0467 44.8431 49.0465L44.8428 48.0465C44.0251 48.0467 43.2036 47.8346 42.4466 47.406L41.9539 48.2762ZM38.9812 43.1768C38.9812 45.3136 40.0947 47.2233 41.9539 48.2762L42.4466 47.406C40.9008 46.5307 39.9812 44.9533 39.9812 43.1768H38.9812ZM38.9812 23.0263V43.1768H39.9812V23.0263H38.9812ZM41.9539 17.9269C40.0947 18.9796 38.9812 20.8894 38.9812 23.0263H39.9812C39.9812 21.2497 40.9008 19.6723 42.4466 18.7972L41.9539 17.9269ZM47.8562 18.0014C46.024 16.902 43.8134 16.8741 41.9539 17.927L42.4466 18.7971C43.9926 17.9218 45.8184 17.9448 47.3416 18.8589L47.8562 18.0014ZM64.648 28.0766L47.8562 18.0014L47.3417 18.8589L64.1335 28.9341L64.648 28.0766ZM67.4931 33.1016C67.4931 31.0257 66.4282 29.1445 64.648 28.0766L64.1336 28.9342C65.6124 29.8213 66.4931 31.3769 66.4931 33.1016H67.4931ZM64.648 38.1263C66.4281 37.0584 67.4931 35.1775 67.4931 33.1016H66.4931C66.4931 34.8263 65.6124 36.3816 64.1336 37.2688L64.648 38.1263ZM56.5667 42.9752L64.648 38.1263L64.1335 37.2688L56.0522 42.1178L56.5667 42.9752ZM53.5832 42.2295C54.2011 43.2591 55.5366 43.5931 56.5666 42.9753L56.0523 42.1177C55.4957 42.4515 54.7744 42.271 54.4406 41.7149L53.5832 42.2295ZM54.329 39.2459C53.2991 39.8638 52.965 41.1996 53.5832 42.2295L54.4406 41.7149C54.1067 41.1587 54.2871 40.4372 54.8434 40.1035L54.329 39.2459Z" fill="url(#paint1_linear)" mask="url(#path-1-outside-1)"/>
<defs>
<linearGradient id="paint0_linear" x1="1.60115" y1="3.11899" x2="119.529" y2="8.64591" gradientUnits="userSpaceOnUse">
<stop stop-color="#0BB9F6"/>
<stop offset="1" stop-color="#5B6FED"/>
</linearGradient>
<linearGradient id="paint1_linear" x1="1.60115" y1="3.11899" x2="119.529" y2="8.64591" gradientUnits="userSpaceOnUse">
<stop stop-color="#0BB9F6"/>
<stop offset="1" stop-color="#5B6FED"/>
</linearGradient>
</defs>
</svg>
