<svg width="100" height="100" viewBox="0 0 100 100" fill="none" xmlns="http://www.w3.org/2000/svg">
<mask id="path-1-outside-1" maskUnits="userSpaceOnUse" x="3.6875" y="2.125" width="93" height="96" fill="black">
<rect fill="white" x="3.6875" y="2.125" width="93" height="96"/>
<path fill-rule="evenodd" clip-rule="evenodd" d="M92.1875 87.5H93.75C94.1644 87.5 94.5618 87.6646 94.8549 87.9576C95.1479 88.2507 95.3125 88.6481 95.3125 89.0625V95.3125C95.3125 95.7269 95.1479 96.1243 94.8549 96.4174C94.5618 96.7104 94.1644 96.875 93.75 96.875H62.5C62.0856 96.875 61.6882 96.7104 61.3951 96.4174C61.1021 96.1243 60.9375 95.7269 60.9375 95.3125V89.0625C60.9375 88.6481 61.1021 88.2507 61.3951 87.9576C61.6882 87.6646 62.0856 87.5 62.5 87.5H64.0625V82.8125C64.0625 82.3981 64.2271 82.0007 64.5201 81.7076C64.8132 81.4146 65.2106 81.25 65.625 81.25H67.2813L67.4844 78.125H6.25C5.8356 78.125 5.43817 77.9604 5.14515 77.6674C4.85212 77.3743 4.6875 76.9769 4.6875 76.5625V4.6875C4.6875 4.2731 4.85212 3.87567 5.14515 3.58265C5.43817 3.28962 5.8356 3.125 6.25 3.125H87.5C87.9144 3.125 88.3118 3.28962 88.6049 3.58265C88.8979 3.87567 89.0625 4.2731 89.0625 4.6875V40.625H93.75C93.9813 40.6233 94.21 40.6744 94.4186 40.7746C94.6271 40.8748 94.8099 41.0214 94.9531 41.2031C95.1014 41.381 95.2078 41.5898 95.2646 41.8143C95.3214 42.0387 95.3271 42.2731 95.2812 42.5L92.1562 58.125C92.0842 58.4779 91.8924 58.7951 91.6134 59.0229C91.3344 59.2507 90.9852 59.3751 90.625 59.375H87.5938L88.9688 81.25H90.625C91.0394 81.25 91.4368 81.4146 91.7299 81.7076C92.0229 82.0007 92.1875 82.3981 92.1875 82.8125V87.5ZM91.8438 43.75H89.0625V46.875C89.0625 47.2894 88.8979 47.6868 88.6049 47.9799C88.3118 48.2729 87.9144 48.4375 87.5 48.4375H81.25C80.8356 48.4375 80.4382 48.2729 80.1451 47.9799C79.8521 47.6868 79.6875 47.2894 79.6875 46.875V43.75H76.5625V46.875C76.5625 47.2894 76.3979 47.6868 76.1049 47.9799C75.8118 48.2729 75.4144 48.4375 75 48.4375H68.75C68.3356 48.4375 67.9382 48.2729 67.6451 47.9799C67.3521 47.6868 67.1875 47.2894 67.1875 46.875V43.75H64.4062L65.6562 50H70.3125V53.125H66.2812L66.9062 56.25H89.3438L89.9688 53.125H73.4375V50H90.5938L91.8438 43.75ZM70.4062 81.25H85.8438L84.4688 59.375H71.7812L70.4062 81.25ZM85.9375 6.25H7.8125V15.625H85.9375V6.25ZM7.8125 18.75V75H67.6719L68.6562 59.375H65.625C65.2648 59.3751 64.9156 59.2507 64.6366 59.0229C64.3576 58.7951 64.1658 58.4779 64.0938 58.125L62.8438 51.875L60.9688 42.5C60.9229 42.2731 60.9286 42.0387 60.9854 41.8143C61.0422 41.5898 61.1486 41.381 61.2969 41.2031C61.4401 41.0214 61.6229 40.8748 61.8314 40.7746C62.04 40.6744 62.2687 40.6233 62.5 40.625H68.75C69.1644 40.625 69.5618 40.7896 69.8549 41.0826C70.1479 41.3757 70.3125 41.7731 70.3125 42.1875V45.3125H73.4375V42.1875C73.4375 41.7731 73.6021 41.3757 73.8951 41.0826C74.1882 40.7896 74.5856 40.625 75 40.625H81.25C81.6644 40.625 82.0618 40.7896 82.3549 41.0826C82.6479 41.3757 82.8125 41.7731 82.8125 42.1875V45.3125H85.9375V18.75H7.8125ZM89.0625 84.375H67.1875V87.5H89.0625V84.375ZM64.0625 93.75H92.1875V90.625H64.0625V93.75ZM10.9375 9.375H14.0625V12.5H10.9375V9.375ZM17.1875 9.375H20.3125V12.5H17.1875V9.375ZM26.5625 9.375H23.4375V12.5H26.5625V9.375ZM48.4375 68.75V54.6875C48.4375 54.2731 48.2729 53.8757 47.9799 53.5826C47.6868 53.2896 47.2894 53.125 46.875 53.125H40.625C40.2106 53.125 39.8132 53.2896 39.5201 53.5826C39.2271 53.8757 39.0625 54.2731 39.0625 54.6875V68.75H37.5V59.375C37.5 58.9606 37.3354 58.5632 37.0424 58.2701C36.7493 57.9771 36.3519 57.8125 35.9375 57.8125H29.6875C29.2731 57.8125 28.8757 57.9771 28.5826 58.2701C28.2896 58.5632 28.125 58.9606 28.125 59.375V68.75H26.5625V64.0625C26.5625 63.6481 26.3979 63.2507 26.1049 62.9576C25.8118 62.6646 25.4144 62.5 25 62.5H18.75C18.3356 62.5 17.9382 62.6646 17.6451 62.9576C17.3521 63.2507 17.1875 63.6481 17.1875 64.0625V68.75H14.0625V71.875H51.5625V68.75H48.4375ZM23.4375 68.75H20.3125V65.625H23.4375V68.75ZM34.375 68.75H31.25V60.9375H34.375V68.75ZM45.3125 68.75H42.1875V56.25H45.3125V68.75ZM32.8125 51.5625C36.1266 51.5588 39.3038 50.2406 41.6472 47.8972C43.9906 45.5538 45.3088 42.3766 45.3125 39.0625C45.3125 38.6481 45.1479 38.2507 44.8549 37.9576C44.5618 37.6646 44.1644 37.5 43.75 37.5H34.375V28.125C34.375 27.7106 34.2104 27.3132 33.9174 27.0201C33.6243 26.7271 33.2269 26.5625 32.8125 26.5625C29.4973 26.5625 26.3179 27.8795 23.9737 30.2237C21.6295 32.5679 20.3125 35.7473 20.3125 39.0625C20.3125 42.3777 21.6295 45.5571 23.9737 47.9013C26.3179 50.2455 29.4973 51.5625 32.8125 51.5625ZM31.25 29.8172V39.0625C31.25 39.4769 31.4146 39.8743 31.7076 40.1674C32.0007 40.4604 32.3981 40.625 32.8125 40.625H42.0578C41.7707 42.3214 41.0223 43.9062 39.8946 45.2056C38.7669 46.505 37.3033 47.4691 35.6642 47.9921C34.025 48.5151 32.2736 48.577 30.6016 48.1709C28.9297 47.7649 27.4017 46.9065 26.1851 45.6899C24.9685 44.4733 24.1101 42.9453 23.7041 41.2734C23.298 39.6014 23.3599 37.85 23.8829 36.2108C24.4059 34.5717 25.37 33.1081 26.6694 31.9804C27.9688 30.8527 29.5536 30.1043 31.25 29.8172ZM48.4375 35.9375H37.5C37.0856 35.9375 36.6882 35.7729 36.3951 35.4799C36.1021 35.1868 35.9375 34.7894 35.9375 34.375V23.4375C35.9375 23.0231 36.1021 22.6257 36.3951 22.3326C36.6882 22.0396 37.0856 21.875 37.5 21.875C40.8141 21.8787 43.9913 23.1969 46.3347 25.5403C48.6781 27.8837 49.9963 31.0609 50 34.375C50 34.7894 49.8354 35.1868 49.5424 35.4799C49.2493 35.7729 48.8519 35.9375 48.4375 35.9375ZM44.1261 27.7489C42.75 26.3728 40.9808 25.4576 39.0625 25.1297V32.8125H46.7453C46.4174 30.8942 45.5022 29.125 44.1261 27.7489Z"/>
</mask>
<path fill-rule="evenodd" clip-rule="evenodd" d="M92.1875 87.5H93.75C94.1644 87.5 94.5618 87.6646 94.8549 87.9576C95.1479 88.2507 95.3125 88.6481 95.3125 89.0625V95.3125C95.3125 95.7269 95.1479 96.1243 94.8549 96.4174C94.5618 96.7104 94.1644 96.875 93.75 96.875H62.5C62.0856 96.875 61.6882 96.7104 61.3951 96.4174C61.1021 96.1243 60.9375 95.7269 60.9375 95.3125V89.0625C60.9375 88.6481 61.1021 88.2507 61.3951 87.9576C61.6882 87.6646 62.0856 87.5 62.5 87.5H64.0625V82.8125C64.0625 82.3981 64.2271 82.0007 64.5201 81.7076C64.8132 81.4146 65.2106 81.25 65.625 81.25H67.2813L67.4844 78.125H6.25C5.8356 78.125 5.43817 77.9604 5.14515 77.6674C4.85212 77.3743 4.6875 76.9769 4.6875 76.5625V4.6875C4.6875 4.2731 4.85212 3.87567 5.14515 3.58265C5.43817 3.28962 5.8356 3.125 6.25 3.125H87.5C87.9144 3.125 88.3118 3.28962 88.6049 3.58265C88.8979 3.87567 89.0625 4.2731 89.0625 4.6875V40.625H93.75C93.9813 40.6233 94.21 40.6744 94.4186 40.7746C94.6271 40.8748 94.8099 41.0214 94.9531 41.2031C95.1014 41.381 95.2078 41.5898 95.2646 41.8143C95.3214 42.0387 95.3271 42.2731 95.2812 42.5L92.1562 58.125C92.0842 58.4779 91.8924 58.7951 91.6134 59.0229C91.3344 59.2507 90.9852 59.3751 90.625 59.375H87.5938L88.9688 81.25H90.625C91.0394 81.25 91.4368 81.4146 91.7299 81.7076C92.0229 82.0007 92.1875 82.3981 92.1875 82.8125V87.5ZM91.8438 43.75H89.0625V46.875C89.0625 47.2894 88.8979 47.6868 88.6049 47.9799C88.3118 48.2729 87.9144 48.4375 87.5 48.4375H81.25C80.8356 48.4375 80.4382 48.2729 80.1451 47.9799C79.8521 47.6868 79.6875 47.2894 79.6875 46.875V43.75H76.5625V46.875C76.5625 47.2894 76.3979 47.6868 76.1049 47.9799C75.8118 48.2729 75.4144 48.4375 75 48.4375H68.75C68.3356 48.4375 67.9382 48.2729 67.6451 47.9799C67.3521 47.6868 67.1875 47.2894 67.1875 46.875V43.75H64.4062L65.6562 50H70.3125V53.125H66.2812L66.9062 56.25H89.3438L89.9688 53.125H73.4375V50H90.5938L91.8438 43.75ZM70.4062 81.25H85.8438L84.4688 59.375H71.7812L70.4062 81.25ZM85.9375 6.25H7.8125V15.625H85.9375V6.25ZM7.8125 18.75V75H67.6719L68.6562 59.375H65.625C65.2648 59.3751 64.9156 59.2507 64.6366 59.0229C64.3576 58.7951 64.1658 58.4779 64.0938 58.125L62.8438 51.875L60.9688 42.5C60.9229 42.2731 60.9286 42.0387 60.9854 41.8143C61.0422 41.5898 61.1486 41.381 61.2969 41.2031C61.4401 41.0214 61.6229 40.8748 61.8314 40.7746C62.04 40.6744 62.2687 40.6233 62.5 40.625H68.75C69.1644 40.625 69.5618 40.7896 69.8549 41.0826C70.1479 41.3757 70.3125 41.7731 70.3125 42.1875V45.3125H73.4375V42.1875C73.4375 41.7731 73.6021 41.3757 73.8951 41.0826C74.1882 40.7896 74.5856 40.625 75 40.625H81.25C81.6644 40.625 82.0618 40.7896 82.3549 41.0826C82.6479 41.3757 82.8125 41.7731 82.8125 42.1875V45.3125H85.9375V18.75H7.8125ZM89.0625 84.375H67.1875V87.5H89.0625V84.375ZM64.0625 93.75H92.1875V90.625H64.0625V93.75ZM10.9375 9.375H14.0625V12.5H10.9375V9.375ZM17.1875 9.375H20.3125V12.5H17.1875V9.375ZM26.5625 9.375H23.4375V12.5H26.5625V9.375ZM48.4375 68.75V54.6875C48.4375 54.2731 48.2729 53.8757 47.9799 53.5826C47.6868 53.2896 47.2894 53.125 46.875 53.125H40.625C40.2106 53.125 39.8132 53.2896 39.5201 53.5826C39.2271 53.8757 39.0625 54.2731 39.0625 54.6875V68.75H37.5V59.375C37.5 58.9606 37.3354 58.5632 37.0424 58.2701C36.7493 57.9771 36.3519 57.8125 35.9375 57.8125H29.6875C29.2731 57.8125 28.8757 57.9771 28.5826 58.2701C28.2896 58.5632 28.125 58.9606 28.125 59.375V68.75H26.5625V64.0625C26.5625 63.6481 26.3979 63.2507 26.1049 62.9576C25.8118 62.6646 25.4144 62.5 25 62.5H18.75C18.3356 62.5 17.9382 62.6646 17.6451 62.9576C17.3521 63.2507 17.1875 63.6481 17.1875 64.0625V68.75H14.0625V71.875H51.5625V68.75H48.4375ZM23.4375 68.75H20.3125V65.625H23.4375V68.75ZM34.375 68.75H31.25V60.9375H34.375V68.75ZM45.3125 68.75H42.1875V56.25H45.3125V68.75ZM32.8125 51.5625C36.1266 51.5588 39.3038 50.2406 41.6472 47.8972C43.9906 45.5538 45.3088 42.3766 45.3125 39.0625C45.3125 38.6481 45.1479 38.2507 44.8549 37.9576C44.5618 37.6646 44.1644 37.5 43.75 37.5H34.375V28.125C34.375 27.7106 34.2104 27.3132 33.9174 27.0201C33.6243 26.7271 33.2269 26.5625 32.8125 26.5625C29.4973 26.5625 26.3179 27.8795 23.9737 30.2237C21.6295 32.5679 20.3125 35.7473 20.3125 39.0625C20.3125 42.3777 21.6295 45.5571 23.9737 47.9013C26.3179 50.2455 29.4973 51.5625 32.8125 51.5625ZM31.25 29.8172V39.0625C31.25 39.4769 31.4146 39.8743 31.7076 40.1674C32.0007 40.4604 32.3981 40.625 32.8125 40.625H42.0578C41.7707 42.3214 41.0223 43.9062 39.8946 45.2056C38.7669 46.505 37.3033 47.4691 35.6642 47.9921C34.025 48.5151 32.2736 48.577 30.6016 48.1709C28.9297 47.7649 27.4017 46.9065 26.1851 45.6899C24.9685 44.4733 24.1101 42.9453 23.7041 41.2734C23.298 39.6014 23.3599 37.85 23.8829 36.2108C24.4059 34.5717 25.37 33.1081 26.6694 31.9804C27.9688 30.8527 29.5536 30.1043 31.25 29.8172ZM48.4375 35.9375H37.5C37.0856 35.9375 36.6882 35.7729 36.3951 35.4799C36.1021 35.1868 35.9375 34.7894 35.9375 34.375V23.4375C35.9375 23.0231 36.1021 22.6257 36.3951 22.3326C36.6882 22.0396 37.0856 21.875 37.5 21.875C40.8141 21.8787 43.9913 23.1969 46.3347 25.5403C48.6781 27.8837 49.9963 31.0609 50 34.375C50 34.7894 49.8354 35.1868 49.5424 35.4799C49.2493 35.7729 48.8519 35.9375 48.4375 35.9375ZM44.1261 27.7489C42.75 26.3728 40.9808 25.4576 39.0625 25.1297V32.8125H46.7453C46.4174 30.8942 45.5022 29.125 44.1261 27.7489Z" fill="url(#paint0_linear)"/>
<path d="M92.1875 87.5H91.6875V88H92.1875V87.5ZM94.8549 87.9576L95.2084 87.6041L95.2084 87.6041L94.8549 87.9576ZM94.8549 96.4174L95.2084 96.7709L95.2084 96.7709L94.8549 96.4174ZM61.3951 96.4174L61.0416 96.7709H61.0416L61.3951 96.4174ZM61.3951 87.9576L61.0416 87.6041H61.0416L61.3951 87.9576ZM64.0625 87.5V88H64.5625V87.5H64.0625ZM64.5201 81.7076L64.1666 81.3541H64.1666L64.5201 81.7076ZM67.2813 81.25V81.75H67.7498L67.7802 81.2824L67.2813 81.25ZM67.4844 78.125L67.9833 78.1574L68.0179 77.625H67.4844V78.125ZM5.14515 77.6674L4.79159 78.0209H4.79159L5.14515 77.6674ZM5.14515 3.58265L5.4987 3.9362L5.4987 3.9362L5.14515 3.58265ZM88.6049 3.58265L88.9584 3.22909V3.22909L88.6049 3.58265ZM89.0625 40.625H88.5625V41.125H89.0625V40.625ZM93.75 40.625V41.125L93.7538 41.125L93.75 40.625ZM94.9531 41.2031L94.5602 41.5127L94.5691 41.5233L94.9531 41.2031ZM95.2812 42.5L94.7911 42.401L94.791 42.4019L95.2812 42.5ZM92.1562 58.125L92.6461 58.225L92.6465 58.2231L92.1562 58.125ZM91.6134 59.0229L91.2972 58.6356L91.6134 59.0229ZM90.625 59.375L90.6251 58.875H90.625V59.375ZM87.5938 59.375V58.875H87.0613L87.0947 59.4064L87.5938 59.375ZM88.9688 81.25L88.4697 81.2814L88.4992 81.75H88.9688V81.25ZM91.7299 81.7076L92.0834 81.3541L92.0834 81.3541L91.7299 81.7076ZM89.0625 43.75V43.25H88.5625V43.75H89.0625ZM91.8438 43.75L92.334 43.8481L92.4537 43.25H91.8438V43.75ZM88.6049 47.9799L88.9584 48.3334V48.3334L88.6049 47.9799ZM80.1451 47.9799L79.7916 48.3334V48.3334L80.1451 47.9799ZM79.6875 43.75H80.1875V43.25H79.6875V43.75ZM76.5625 43.75V43.25H76.0625V43.75H76.5625ZM76.1049 47.9799L76.4584 48.3334V48.3334L76.1049 47.9799ZM67.1875 43.75H67.6875V43.25H67.1875V43.75ZM64.4062 43.75V43.25H63.7963L63.916 43.8481L64.4062 43.75ZM65.6562 50L65.166 50.0981L65.2463 50.5H65.6562V50ZM70.3125 50H70.8125V49.5H70.3125V50ZM70.3125 53.125V53.625H70.8125V53.125H70.3125ZM66.2812 53.125V52.625H65.6713L65.791 53.2231L66.2812 53.125ZM66.9062 56.25L66.416 56.3481L66.4963 56.75H66.9062V56.25ZM89.3438 56.25V56.75H89.7537L89.834 56.3481L89.3438 56.25ZM89.9688 53.125L90.459 53.2231L90.5787 52.625H89.9688V53.125ZM73.4375 53.125H72.9375V53.625H73.4375V53.125ZM73.4375 50V49.5H72.9375V50H73.4375ZM90.5938 50V50.5H91.0037L91.084 50.0981L90.5938 50ZM85.8438 81.25V81.75H86.3762L86.3428 81.2186L85.8438 81.25ZM70.4062 81.25L69.9072 81.2186L69.8738 81.75H70.4062V81.25ZM84.4688 59.375L84.9678 59.3436L84.9383 58.875H84.4688V59.375ZM71.7812 59.375V58.875H71.3117L71.2822 59.3436L71.7812 59.375ZM7.8125 6.25V5.75H7.3125V6.25H7.8125ZM85.9375 6.25H86.4375V5.75H85.9375V6.25ZM7.8125 15.625H7.3125V16.125H7.8125V15.625ZM85.9375 15.625V16.125H86.4375V15.625H85.9375ZM7.8125 75H7.3125V75.5H7.8125V75ZM7.8125 18.75V18.25H7.3125V18.75H7.8125ZM67.6719 75V75.5H68.1414L68.1709 75.0314L67.6719 75ZM68.6562 59.375L69.1553 59.4064L69.1887 58.875H68.6562V59.375ZM65.625 59.375V58.875H65.6249L65.625 59.375ZM64.6366 59.0229L64.3204 59.4102L64.3204 59.4102L64.6366 59.0229ZM64.0938 58.125L63.6035 58.2231L63.6039 58.225L64.0938 58.125ZM60.9688 42.5L61.459 42.4019L61.4588 42.401L60.9688 42.5ZM61.2969 41.2031L61.6811 41.5234L61.6896 41.5126L61.2969 41.2031ZM61.8314 40.7746L61.6149 40.324H61.6149L61.8314 40.7746ZM62.5 40.625L62.4962 41.125H62.5V40.625ZM69.8549 41.0826L70.2084 40.7291V40.7291L69.8549 41.0826ZM70.3125 45.3125H69.8125V45.8125H70.3125V45.3125ZM73.4375 45.3125V45.8125H73.9375V45.3125H73.4375ZM73.8951 41.0826L73.5416 40.7291V40.7291L73.8951 41.0826ZM82.3549 41.0826L82.7084 40.7291V40.7291L82.3549 41.0826ZM82.8125 45.3125H82.3125V45.8125H82.8125V45.3125ZM85.9375 45.3125V45.8125H86.4375V45.3125H85.9375ZM85.9375 18.75H86.4375V18.25H85.9375V18.75ZM67.1875 84.375V83.875H66.6875V84.375H67.1875ZM89.0625 84.375H89.5625V83.875H89.0625V84.375ZM67.1875 87.5H66.6875V88H67.1875V87.5ZM89.0625 87.5V88H89.5625V87.5H89.0625ZM92.1875 93.75V94.25H92.6875V93.75H92.1875ZM64.0625 93.75H63.5625V94.25H64.0625V93.75ZM92.1875 90.625H92.6875V90.125H92.1875V90.625ZM64.0625 90.625V90.125H63.5625V90.625H64.0625ZM14.0625 9.375H14.5625V8.875H14.0625V9.375ZM10.9375 9.375V8.875H10.4375V9.375H10.9375ZM14.0625 12.5V13H14.5625V12.5H14.0625ZM10.9375 12.5H10.4375V13H10.9375V12.5ZM20.3125 9.375H20.8125V8.875H20.3125V9.375ZM17.1875 9.375V8.875H16.6875V9.375H17.1875ZM20.3125 12.5V13H20.8125V12.5H20.3125ZM17.1875 12.5H16.6875V13H17.1875V12.5ZM23.4375 9.375V8.875H22.9375V9.375H23.4375ZM26.5625 9.375H27.0625V8.875H26.5625V9.375ZM23.4375 12.5H22.9375V13H23.4375V12.5ZM26.5625 12.5V13H27.0625V12.5H26.5625ZM48.4375 68.75H47.9375V69.25H48.4375V68.75ZM39.0625 68.75V69.25H39.5625V68.75H39.0625ZM37.5 68.75H37V69.25H37.5V68.75ZM28.5826 58.2701L28.9362 58.6237L28.5826 58.2701ZM28.125 68.75V69.25H28.625V68.75H28.125ZM26.5625 68.75H26.0625V69.25H26.5625V68.75ZM26.1049 62.9576L25.7513 63.3112L26.1049 62.9576ZM17.6451 62.9576L17.9987 63.3112L17.6451 62.9576ZM17.1875 68.75V69.25H17.6875V68.75H17.1875ZM14.0625 68.75V68.25H13.5625V68.75H14.0625ZM14.0625 71.875H13.5625V72.375H14.0625V71.875ZM51.5625 71.875V72.375H52.0625V71.875H51.5625ZM51.5625 68.75H52.0625V68.25H51.5625V68.75ZM20.3125 68.75H19.8125V69.25H20.3125V68.75ZM23.4375 68.75V69.25H23.9375V68.75H23.4375ZM20.3125 65.625V65.125H19.8125V65.625H20.3125ZM23.4375 65.625H23.9375V65.125H23.4375V65.625ZM31.25 68.75H30.75V69.25H31.25V68.75ZM34.375 68.75V69.25H34.875V68.75H34.375ZM31.25 60.9375V60.4375H30.75V60.9375H31.25ZM34.375 60.9375H34.875V60.4375H34.375V60.9375ZM42.1875 68.75H41.6875V69.25H42.1875V68.75ZM45.3125 68.75V69.25H45.8125V68.75H45.3125ZM42.1875 56.25V55.75H41.6875V56.25H42.1875ZM45.3125 56.25H45.8125V55.75H45.3125V56.25ZM41.6472 47.8972L42.0008 48.2508L41.6472 47.8972ZM32.8125 51.5625V52.0625H32.8131L32.8125 51.5625ZM45.3125 39.0625L45.8125 39.0631V39.0625H45.3125ZM34.375 37.5H33.875V38H34.375V37.5ZM33.9174 27.0201L33.5638 27.3737L33.5638 27.3737L33.9174 27.0201ZM23.9737 30.2237L24.3272 30.5772L23.9737 30.2237ZM23.9737 47.9013L23.6201 48.2549L23.9737 47.9013ZM31.25 29.8172H31.75V29.2255L31.1666 29.3242L31.25 29.8172ZM31.7076 40.1674L32.0612 39.8138L31.7076 40.1674ZM42.0578 40.625L42.5508 40.7084L42.6495 40.125H42.0578V40.625ZM35.6642 47.9921L35.5122 47.5158L35.6642 47.9921ZM30.6016 48.1709L30.7196 47.6851H30.7196L30.6016 48.1709ZM23.7041 41.2734L23.2182 41.3914L23.7041 41.2734ZM23.8829 36.2108L23.4066 36.0588L23.8829 36.2108ZM26.6694 31.9804L26.3417 31.6028L26.6694 31.9804ZM37.5 21.875L37.5006 21.375H37.5V21.875ZM46.3347 25.5403L46.6883 25.1867L46.3347 25.5403ZM50 34.375H50.5V34.3744L50 34.375ZM39.0625 25.1297L39.1468 24.6368L38.5625 24.537V25.1297H39.0625ZM44.1261 27.7489L44.4797 27.3953L44.1261 27.7489ZM39.0625 32.8125H38.5625V33.3125H39.0625V32.8125ZM46.7453 32.8125V33.3125H47.338L47.2382 32.7282L46.7453 32.8125ZM93.75 87H92.1875V88H93.75V87ZM95.2084 87.6041C94.8216 87.2173 94.297 87 93.75 87V88C94.0318 88 94.302 88.1119 94.5013 88.3112L95.2084 87.6041ZM95.8125 89.0625C95.8125 88.5155 95.5952 87.9909 95.2084 87.6041L94.5013 88.3112C94.7006 88.5105 94.8125 88.7807 94.8125 89.0625H95.8125ZM95.8125 95.3125V89.0625H94.8125V95.3125H95.8125ZM95.2084 96.7709C95.5952 96.3841 95.8125 95.8595 95.8125 95.3125H94.8125C94.8125 95.5943 94.7006 95.8645 94.5013 96.0638L95.2084 96.7709ZM93.75 97.375C94.297 97.375 94.8216 97.1577 95.2084 96.7709L94.5013 96.0638C94.302 96.2631 94.0318 96.375 93.75 96.375V97.375ZM62.5 97.375H93.75V96.375H62.5V97.375ZM61.0416 96.7709C61.4284 97.1577 61.953 97.375 62.5 97.375V96.375C62.2182 96.375 61.948 96.2631 61.7487 96.0638L61.0416 96.7709ZM60.4375 95.3125C60.4375 95.8595 60.6548 96.3841 61.0416 96.7709L61.7487 96.0638C61.5494 95.8645 61.4375 95.5943 61.4375 95.3125H60.4375ZM60.4375 89.0625V95.3125H61.4375V89.0625H60.4375ZM61.0416 87.6041C60.6548 87.9909 60.4375 88.5155 60.4375 89.0625H61.4375C61.4375 88.7807 61.5494 88.5105 61.7487 88.3112L61.0416 87.6041ZM62.5 87C61.953 87 61.4284 87.2173 61.0416 87.6041L61.7487 88.3112C61.948 88.1119 62.2182 88 62.5 88V87ZM64.0625 87H62.5V88H64.0625V87ZM63.5625 82.8125V87.5H64.5625V82.8125H63.5625ZM64.1666 81.3541C63.7798 81.7409 63.5625 82.2655 63.5625 82.8125H64.5625C64.5625 82.5307 64.6744 82.2605 64.8737 82.0612L64.1666 81.3541ZM65.625 80.75C65.078 80.75 64.5534 80.9673 64.1666 81.3541L64.8737 82.0612C65.073 81.8619 65.3432 81.75 65.625 81.75V80.75ZM67.2813 80.75H65.625V81.75H67.2813V80.75ZM66.9854 78.0926L66.7823 81.2176L67.7802 81.2824L67.9833 78.1574L66.9854 78.0926ZM6.25 78.625H67.4844V77.625H6.25V78.625ZM4.79159 78.0209C5.17839 78.4077 5.70299 78.625 6.25 78.625V77.625C5.96821 77.625 5.69795 77.5131 5.4987 77.3138L4.79159 78.0209ZM4.1875 76.5625C4.1875 77.1095 4.4048 77.6341 4.79159 78.0209L5.4987 77.3138C5.29944 77.1145 5.1875 76.8443 5.1875 76.5625H4.1875ZM4.1875 4.6875V76.5625H5.1875V4.6875H4.1875ZM4.79159 3.22909C4.4048 3.61589 4.1875 4.14049 4.1875 4.6875H5.1875C5.1875 4.40571 5.29944 4.13546 5.4987 3.9362L4.79159 3.22909ZM6.25 2.625C5.70299 2.625 5.17839 2.8423 4.79159 3.22909L5.4987 3.9362C5.69796 3.73694 5.96821 3.625 6.25 3.625V2.625ZM87.5 2.625H6.25V3.625H87.5V2.625ZM88.9584 3.22909C88.5716 2.8423 88.047 2.625 87.5 2.625V3.625C87.7818 3.625 88.052 3.73694 88.2513 3.9362L88.9584 3.22909ZM89.5625 4.6875C89.5625 4.14049 89.3452 3.61589 88.9584 3.22909L88.2513 3.9362C88.4506 4.13545 88.5625 4.40571 88.5625 4.6875H89.5625ZM89.5625 40.625V4.6875H88.5625V40.625H89.5625ZM93.75 40.125H89.0625V41.125H93.75V40.125ZM94.6351 40.324C94.3579 40.1908 94.0538 40.1227 93.7462 40.125L93.7538 41.125C93.9089 41.1238 94.0622 41.1581 94.202 41.2253L94.6351 40.324ZM95.3459 40.8937C95.1555 40.6521 94.9124 40.4572 94.6351 40.324L94.202 41.2253C94.3418 41.2925 94.4644 41.3908 94.5604 41.5126L95.3459 40.8937ZM95.7494 41.6916C95.6742 41.3946 95.5334 41.1183 95.3372 40.8829L94.5691 41.5233C94.6694 41.6437 94.7415 41.785 94.7799 41.9369L95.7494 41.6916ZM95.7713 42.599C95.832 42.2987 95.8245 41.9886 95.7494 41.6916L94.7799 41.9369C94.8183 42.0888 94.8222 42.2474 94.7912 42.401L95.7713 42.599ZM92.6465 58.2231L95.7715 42.5981L94.791 42.4019L91.666 58.0269L92.6465 58.2231ZM91.9296 59.4102C92.2979 59.1096 92.551 58.6909 92.6461 58.225L91.6664 58.025C91.6174 58.265 91.487 58.4807 91.2972 58.6356L91.9296 59.4102ZM90.6249 59.875C91.1004 59.8751 91.5613 59.7109 91.9296 59.4102L91.2972 58.6356C91.1075 58.7905 90.87 58.875 90.6251 58.875L90.6249 59.875ZM87.5938 59.875H90.625V58.875H87.5938V59.875ZM89.4678 81.2186L88.0928 59.3436L87.0947 59.4064L88.4697 81.2814L89.4678 81.2186ZM90.625 80.75H88.9688V81.75H90.625V80.75ZM92.0834 81.3541C91.6966 80.9673 91.172 80.75 90.625 80.75V81.75C90.9068 81.75 91.177 81.8619 91.3763 82.0612L92.0834 81.3541ZM92.6875 82.8125C92.6875 82.2655 92.4702 81.7409 92.0834 81.3541L91.3763 82.0612C91.5756 82.2605 91.6875 82.5307 91.6875 82.8125H92.6875ZM92.6875 87.5V82.8125H91.6875V87.5H92.6875ZM89.0625 44.25H91.8438V43.25H89.0625V44.25ZM89.5625 46.875V43.75H88.5625V46.875H89.5625ZM88.9584 48.3334C89.3452 47.9466 89.5625 47.422 89.5625 46.875H88.5625C88.5625 47.1568 88.4506 47.427 88.2513 47.6263L88.9584 48.3334ZM87.5 48.9375C88.047 48.9375 88.5716 48.7202 88.9584 48.3334L88.2513 47.6263C88.052 47.8256 87.7818 47.9375 87.5 47.9375V48.9375ZM81.25 48.9375H87.5V47.9375H81.25V48.9375ZM79.7916 48.3334C80.1784 48.7202 80.703 48.9375 81.25 48.9375V47.9375C80.9682 47.9375 80.698 47.8256 80.4987 47.6263L79.7916 48.3334ZM79.1875 46.875C79.1875 47.422 79.4048 47.9466 79.7916 48.3334L80.4987 47.6263C80.2994 47.427 80.1875 47.1568 80.1875 46.875H79.1875ZM79.1875 43.75V46.875H80.1875V43.75H79.1875ZM76.5625 44.25H79.6875V43.25H76.5625V44.25ZM77.0625 46.875V43.75H76.0625V46.875H77.0625ZM76.4584 48.3334C76.8452 47.9466 77.0625 47.422 77.0625 46.875H76.0625C76.0625 47.1568 75.9506 47.427 75.7513 47.6263L76.4584 48.3334ZM75 48.9375C75.547 48.9375 76.0716 48.7202 76.4584 48.3334L75.7513 47.6263C75.552 47.8256 75.2818 47.9375 75 47.9375V48.9375ZM68.75 48.9375H75V47.9375H68.75V48.9375ZM67.2916 48.3334C67.6784 48.7202 68.203 48.9375 68.75 48.9375V47.9375C68.4682 47.9375 68.198 47.8256 67.9987 47.6263L67.2916 48.3334ZM66.6875 46.875C66.6875 47.422 66.9048 47.9466 67.2916 48.3334L67.9987 47.6263C67.7994 47.427 67.6875 47.1568 67.6875 46.875H66.6875ZM66.6875 43.75V46.875H67.6875V43.75H66.6875ZM64.4062 44.25H67.1875V43.25H64.4062V44.25ZM66.1465 49.9019L64.8965 43.6519L63.916 43.8481L65.166 50.0981L66.1465 49.9019ZM70.3125 49.5H65.6562V50.5H70.3125V49.5ZM70.8125 53.125V50H69.8125V53.125H70.8125ZM66.2812 53.625H70.3125V52.625H66.2812V53.625ZM67.3965 56.1519L66.7715 53.0269L65.791 53.2231L66.416 56.3481L67.3965 56.1519ZM89.3438 55.75H66.9062V56.75H89.3438V55.75ZM89.4785 53.0269L88.8535 56.1519L89.834 56.3481L90.459 53.2231L89.4785 53.0269ZM73.4375 53.625H89.9688V52.625H73.4375V53.625ZM72.9375 50V53.125H73.9375V50H72.9375ZM90.5938 49.5H73.4375V50.5H90.5938V49.5ZM91.3535 43.6519L90.1035 49.9019L91.084 50.0981L92.334 43.8481L91.3535 43.6519ZM85.8438 80.75H70.4062V81.75H85.8438V80.75ZM83.9697 59.4064L85.3447 81.2814L86.3428 81.2186L84.9678 59.3436L83.9697 59.4064ZM71.7812 59.875H84.4688V58.875H71.7812V59.875ZM70.9053 81.2814L72.2803 59.4064L71.2822 59.3436L69.9072 81.2186L70.9053 81.2814ZM7.8125 6.75H85.9375V5.75H7.8125V6.75ZM8.3125 15.625V6.25H7.3125V15.625H8.3125ZM85.9375 15.125H7.8125V16.125H85.9375V15.125ZM85.4375 6.25V15.625H86.4375V6.25H85.4375ZM8.3125 75V18.75H7.3125V75H8.3125ZM67.6719 74.5H7.8125V75.5H67.6719V74.5ZM68.1572 59.3436L67.1729 74.9686L68.1709 75.0314L69.1553 59.4064L68.1572 59.3436ZM65.625 59.875H68.6562V58.875H65.625V59.875ZM64.3204 59.4102C64.6887 59.7109 65.1496 59.8751 65.6251 59.875L65.6249 58.875C65.38 58.875 65.1425 58.7905 64.9528 58.6356L64.3204 59.4102ZM63.6039 58.225C63.6989 58.6909 63.9521 59.1096 64.3204 59.4102L64.9528 58.6356C64.763 58.4807 64.6326 58.265 64.5836 58.025L63.6039 58.225ZM62.3535 51.9731L63.6035 58.2231L64.584 58.0269L63.334 51.7769L62.3535 51.9731ZM60.4785 42.5981L62.3535 51.9731L63.334 51.7769L61.459 42.4019L60.4785 42.5981ZM60.5006 41.6916C60.4255 41.9886 60.418 42.2987 60.4787 42.599L61.4588 42.401C61.4278 42.2474 61.4317 42.0888 61.4701 41.9369L60.5006 41.6916ZM60.9128 40.8829C60.7167 41.1183 60.5758 41.3946 60.5006 41.6916L61.4701 41.9369C61.5085 41.785 61.5806 41.6437 61.6809 41.5233L60.9128 40.8829ZM61.6149 40.324C61.3376 40.4572 61.0945 40.6521 60.9041 40.8937L61.6896 41.5126C61.7856 41.3908 61.9082 41.2925 62.048 41.2253L61.6149 40.324ZM62.5038 40.125C62.1962 40.1227 61.8921 40.1908 61.6149 40.324L62.048 41.2253C62.1878 41.1581 62.3411 41.1238 62.4962 41.125L62.5038 40.125ZM68.75 40.125H62.5V41.125H68.75V40.125ZM70.2084 40.7291C69.8216 40.3423 69.297 40.125 68.75 40.125V41.125C69.0318 41.125 69.302 41.2369 69.5013 41.4362L70.2084 40.7291ZM70.8125 42.1875C70.8125 41.6405 70.5952 41.1159 70.2084 40.7291L69.5013 41.4362C69.7006 41.6355 69.8125 41.9057 69.8125 42.1875H70.8125ZM70.8125 45.3125V42.1875H69.8125V45.3125H70.8125ZM73.4375 44.8125H70.3125V45.8125H73.4375V44.8125ZM72.9375 42.1875V45.3125H73.9375V42.1875H72.9375ZM73.5416 40.7291C73.1548 41.1159 72.9375 41.6405 72.9375 42.1875H73.9375C73.9375 41.9057 74.0494 41.6355 74.2487 41.4362L73.5416 40.7291ZM75 40.125C74.453 40.125 73.9284 40.3423 73.5416 40.7291L74.2487 41.4362C74.448 41.2369 74.7182 41.125 75 41.125V40.125ZM81.25 40.125H75V41.125H81.25V40.125ZM82.7084 40.7291C82.3216 40.3423 81.797 40.125 81.25 40.125V41.125C81.5318 41.125 81.802 41.2369 82.0013 41.4362L82.7084 40.7291ZM83.3125 42.1875C83.3125 41.6405 83.0952 41.1159 82.7084 40.7291L82.0013 41.4362C82.2006 41.6355 82.3125 41.9057 82.3125 42.1875H83.3125ZM83.3125 45.3125V42.1875H82.3125V45.3125H83.3125ZM85.9375 44.8125H82.8125V45.8125H85.9375V44.8125ZM85.4375 18.75V45.3125H86.4375V18.75H85.4375ZM7.8125 19.25H85.9375V18.25H7.8125V19.25ZM67.1875 84.875H89.0625V83.875H67.1875V84.875ZM67.6875 87.5V84.375H66.6875V87.5H67.6875ZM89.0625 87H67.1875V88H89.0625V87ZM88.5625 84.375V87.5H89.5625V84.375H88.5625ZM92.1875 93.25H64.0625V94.25H92.1875V93.25ZM91.6875 90.625V93.75H92.6875V90.625H91.6875ZM64.0625 91.125H92.1875V90.125H64.0625V91.125ZM64.5625 93.75V90.625H63.5625V93.75H64.5625ZM14.0625 8.875H10.9375V9.875H14.0625V8.875ZM14.5625 12.5V9.375H13.5625V12.5H14.5625ZM10.9375 13H14.0625V12H10.9375V13ZM10.4375 9.375V12.5H11.4375V9.375H10.4375ZM20.3125 8.875H17.1875V9.875H20.3125V8.875ZM20.8125 12.5V9.375H19.8125V12.5H20.8125ZM17.1875 13H20.3125V12H17.1875V13ZM16.6875 9.375V12.5H17.6875V9.375H16.6875ZM23.4375 9.875H26.5625V8.875H23.4375V9.875ZM23.9375 12.5V9.375H22.9375V12.5H23.9375ZM26.5625 12H23.4375V13H26.5625V12ZM26.0625 9.375V12.5H27.0625V9.375H26.0625ZM47.9375 54.6875V68.75H48.9375V54.6875H47.9375ZM47.6263 53.9362C47.8256 54.1355 47.9375 54.4057 47.9375 54.6875H48.9375C48.9375 54.1405 48.7202 53.6159 48.3334 53.2291L47.6263 53.9362ZM46.875 53.625C47.1568 53.625 47.427 53.7369 47.6263 53.9362L48.3334 53.2291C47.9466 52.8423 47.422 52.625 46.875 52.625V53.625ZM40.625 53.625H46.875V52.625H40.625V53.625ZM39.8737 53.9362C40.073 53.7369 40.3432 53.625 40.625 53.625V52.625C40.078 52.625 39.5534 52.8423 39.1666 53.2291L39.8737 53.9362ZM39.5625 54.6875C39.5625 54.4057 39.6744 54.1355 39.8737 53.9362L39.1666 53.2291C38.7798 53.6159 38.5625 54.1405 38.5625 54.6875H39.5625ZM39.5625 68.75V54.6875H38.5625V68.75H39.5625ZM37.5 69.25H39.0625V68.25H37.5V69.25ZM37 59.375V68.75H38V59.375H37ZM36.6888 58.6237C36.8881 58.823 37 59.0932 37 59.375H38C38 58.828 37.7827 58.3034 37.3959 57.9166L36.6888 58.6237ZM35.9375 58.3125C36.2193 58.3125 36.4895 58.4244 36.6888 58.6237L37.3959 57.9166C37.0091 57.5298 36.4845 57.3125 35.9375 57.3125V58.3125ZM29.6875 58.3125H35.9375V57.3125H29.6875V58.3125ZM28.9362 58.6237C29.1355 58.4244 29.4057 58.3125 29.6875 58.3125V57.3125C29.1405 57.3125 28.6159 57.5298 28.2291 57.9166L28.9362 58.6237ZM28.625 59.375C28.625 59.0932 28.7369 58.823 28.9362 58.6237L28.2291 57.9166C27.8423 58.3034 27.625 58.828 27.625 59.375H28.625ZM28.625 68.75V59.375H27.625V68.75H28.625ZM26.5625 69.25H28.125V68.25H26.5625V69.25ZM26.0625 64.0625V68.75H27.0625V64.0625H26.0625ZM25.7513 63.3112C25.9506 63.5105 26.0625 63.7807 26.0625 64.0625H27.0625C27.0625 63.5155 26.8452 62.9909 26.4584 62.6041L25.7513 63.3112ZM25 63C25.2818 63 25.552 63.1119 25.7513 63.3112L26.4584 62.6041C26.0716 62.2173 25.547 62 25 62V63ZM18.75 63H25V62H18.75V63ZM17.9987 63.3112C18.198 63.1119 18.4682 63 18.75 63V62C18.203 62 17.6784 62.2173 17.2916 62.6041L17.9987 63.3112ZM17.6875 64.0625C17.6875 63.7807 17.7994 63.5105 17.9987 63.3112L17.2916 62.6041C16.9048 62.9909 16.6875 63.5155 16.6875 64.0625H17.6875ZM17.6875 68.75V64.0625H16.6875V68.75H17.6875ZM14.0625 69.25H17.1875V68.25H14.0625V69.25ZM14.5625 71.875V68.75H13.5625V71.875H14.5625ZM51.5625 71.375H14.0625V72.375H51.5625V71.375ZM51.0625 68.75V71.875H52.0625V68.75H51.0625ZM48.4375 69.25H51.5625V68.25H48.4375V69.25ZM20.3125 69.25H23.4375V68.25H20.3125V69.25ZM19.8125 65.625V68.75H20.8125V65.625H19.8125ZM23.4375 65.125H20.3125V66.125H23.4375V65.125ZM23.9375 68.75V65.625H22.9375V68.75H23.9375ZM31.25 69.25H34.375V68.25H31.25V69.25ZM30.75 60.9375V68.75H31.75V60.9375H30.75ZM34.375 60.4375H31.25V61.4375H34.375V60.4375ZM34.875 68.75V60.9375H33.875V68.75H34.875ZM42.1875 69.25H45.3125V68.25H42.1875V69.25ZM41.6875 56.25V68.75H42.6875V56.25H41.6875ZM45.3125 55.75H42.1875V56.75H45.3125V55.75ZM45.8125 68.75V56.25H44.8125V68.75H45.8125ZM41.2937 47.5437C39.0439 49.7934 35.9936 51.0589 32.8119 51.0625L32.8131 52.0625C36.2595 52.0586 39.5637 50.6878 42.0008 48.2508L41.2937 47.5437ZM44.8125 39.0619C44.8089 42.2436 43.5434 45.2939 41.2937 47.5437L42.0008 48.2508C44.4378 45.8137 45.8086 42.5095 45.8125 39.0631L44.8125 39.0619ZM44.5013 38.3112C44.7006 38.5105 44.8125 38.7807 44.8125 39.0625H45.8125C45.8125 38.5155 45.5952 37.9909 45.2084 37.6041L44.5013 38.3112ZM43.75 38C44.0318 38 44.302 38.1119 44.5013 38.3112L45.2084 37.6041C44.8216 37.2173 44.297 37 43.75 37V38ZM34.375 38H43.75V37H34.375V38ZM33.875 28.125V37.5H34.875V28.125H33.875ZM33.5638 27.3737C33.7631 27.573 33.875 27.8432 33.875 28.125H34.875C34.875 27.578 34.6577 27.0534 34.2709 26.6666L33.5638 27.3737ZM32.8125 27.0625C33.0943 27.0625 33.3645 27.1744 33.5638 27.3737L34.2709 26.6666C33.8841 26.2798 33.3595 26.0625 32.8125 26.0625V27.0625ZM24.3272 30.5772C26.5777 28.3268 29.6299 27.0625 32.8125 27.0625V26.0625C29.3647 26.0625 26.0581 27.4321 23.6201 29.8701L24.3272 30.5772ZM20.8125 39.0625C20.8125 35.8799 22.0768 32.8277 24.3272 30.5772L23.6201 29.8701C21.1821 32.3081 19.8125 35.6147 19.8125 39.0625H20.8125ZM24.3272 47.5478C22.0768 45.2973 20.8125 42.2451 20.8125 39.0625H19.8125C19.8125 42.5103 21.1821 45.8169 23.6201 48.2549L24.3272 47.5478ZM32.8125 51.0625C29.6299 51.0625 26.5777 49.7982 24.3272 47.5478L23.6201 48.2549C26.0581 50.6929 29.3647 52.0625 32.8125 52.0625V51.0625ZM31.75 39.0625V29.8172H30.75V39.0625H31.75ZM32.0612 39.8138C31.8619 39.6145 31.75 39.3443 31.75 39.0625H30.75C30.75 39.6095 30.9673 40.1341 31.3541 40.5209L32.0612 39.8138ZM32.8125 40.125C32.5307 40.125 32.2605 40.0131 32.0612 39.8138L31.3541 40.5209C31.7409 40.9077 32.2655 41.125 32.8125 41.125V40.125ZM42.0578 40.125H32.8125V41.125H42.0578V40.125ZM40.2722 45.5333C41.4601 44.1646 42.2484 42.4953 42.5508 40.7084L41.5648 40.5416C41.2931 42.1475 40.5846 43.6477 39.517 44.8779L40.2722 45.5333ZM35.8162 48.4684C37.5427 47.9175 39.0844 46.9021 40.2722 45.5333L39.517 44.8779C38.4494 46.108 37.0639 47.0206 35.5122 47.5158L35.8162 48.4684ZM30.4836 48.6568C32.2448 49.0845 34.0896 49.0194 35.8162 48.4684L35.5122 47.5158C33.9605 48.0109 32.3024 48.0695 30.7196 47.6851L30.4836 48.6568ZM25.8316 46.0434C27.1131 47.325 28.7225 48.2291 30.4836 48.6568L30.7196 47.6851C29.1369 47.3006 27.6904 46.4881 26.5387 45.3363L25.8316 46.0434ZM23.2182 41.3914C23.6459 43.1525 24.55 44.7619 25.8316 46.0434L26.5387 45.3363C25.3869 44.1846 24.5744 42.7381 24.1899 41.1554L23.2182 41.3914ZM23.4066 36.0588C22.8556 37.7854 22.7905 39.6303 23.2182 41.3914L24.1899 41.1554C23.8055 39.5726 23.8641 37.9145 24.3592 36.3628L23.4066 36.0588ZM26.3417 31.6028C24.9729 32.7906 23.9575 34.3323 23.4066 36.0588L24.3592 36.3628C24.8544 34.8111 25.767 33.4256 26.9971 32.358L26.3417 31.6028ZM31.1666 29.3242C29.3797 29.6266 27.7104 30.4149 26.3417 31.6028L26.9971 32.358C28.2273 31.2904 29.7275 30.5819 31.3334 30.3102L31.1666 29.3242ZM37.5 36.4375H48.4375V35.4375H37.5V36.4375ZM36.0416 35.8334C36.4284 36.2202 36.953 36.4375 37.5 36.4375V35.4375C37.2182 35.4375 36.948 35.3256 36.7487 35.1263L36.0416 35.8334ZM35.4375 34.375C35.4375 34.922 35.6548 35.4466 36.0416 35.8334L36.7487 35.1263C36.5494 34.927 36.4375 34.6568 36.4375 34.375H35.4375ZM35.4375 23.4375V34.375H36.4375V23.4375H35.4375ZM36.0416 21.9791C35.6548 22.3659 35.4375 22.8905 35.4375 23.4375H36.4375C36.4375 23.1557 36.5494 22.8855 36.7487 22.6862L36.0416 21.9791ZM37.5 21.375C36.953 21.375 36.4284 21.5923 36.0416 21.9791L36.7487 22.6862C36.948 22.4869 37.2182 22.375 37.5 22.375V21.375ZM46.6883 25.1867C44.2512 22.7497 40.947 21.3789 37.5006 21.375L37.4994 22.375C40.6811 22.3786 43.7314 23.6441 45.9812 25.8938L46.6883 25.1867ZM50.5 34.3744C50.4961 30.928 49.1253 27.6238 46.6883 25.1867L45.9812 25.8938C48.2309 28.1436 49.4964 31.1939 49.5 34.3756L50.5 34.3744ZM49.8959 35.8334C50.2827 35.4466 50.5 34.922 50.5 34.375H49.5C49.5 34.6568 49.3881 34.927 49.1888 35.1263L49.8959 35.8334ZM48.4375 36.4375C48.9845 36.4375 49.5091 36.2202 49.8959 35.8334L49.1888 35.1263C48.9895 35.3256 48.7193 35.4375 48.4375 35.4375V36.4375ZM38.9782 25.6225C40.7945 25.933 42.4696 26.7995 43.7726 28.1024L44.4797 27.3953C43.0304 25.946 41.167 24.9822 39.1468 24.6368L38.9782 25.6225ZM39.5625 32.8125V25.1297H38.5625V32.8125H39.5625ZM46.7453 32.3125H39.0625V33.3125H46.7453V32.3125ZM43.7726 28.1024C45.0755 29.4054 45.942 31.0805 46.2525 32.8968L47.2382 32.7282C46.8928 30.708 45.929 28.8446 44.4797 27.3953L43.7726 28.1024Z" fill="url(#paint1_linear)" mask="url(#path-1-outside-1)"/>
<defs>
<linearGradient id="paint0_linear" x1="5.16405" y1="5.11156" x2="98.7083" y2="8.81873" gradientUnits="userSpaceOnUse">
<stop stop-color="#0BB9F6"/>
<stop offset="1" stop-color="#5B6FED"/>
</linearGradient>
<linearGradient id="paint1_linear" x1="5.16405" y1="5.11156" x2="98.7083" y2="8.81873" gradientUnits="userSpaceOnUse">
<stop stop-color="#0BB9F6"/>
<stop offset="1" stop-color="#5B6FED"/>
</linearGradient>
</defs>
</svg>
