<svg width="96" height="85" viewBox="0 0 96 85" fill="none" xmlns="http://www.w3.org/2000/svg">
<mask id="path-1-outside-1" maskUnits="userSpaceOnUse" x="0.125" y="0.128906" width="96" height="85" fill="black">
<rect fill="white" x="0.125" y="0.128906" width="96" height="85"/>
<path fill-rule="evenodd" clip-rule="evenodd" d="M63.625 12.0626H62.0625V2.68759C62.0621 2.43737 62.0024 2.19083 61.8883 1.96813C61.7742 1.74543 61.609 1.55291 61.4063 1.40634C61.1978 1.26539 60.9592 1.17504 60.7097 1.14249C60.4601 1.10994 60.2064 1.13608 59.9688 1.21884L38.3594 8.93759H24.5625C24.1481 8.93759 23.7507 9.10221 23.4576 9.39523C23.1646 9.68826 23 10.0857 23 10.5001V10.8438L17.9375 12.1095C17.5987 12.1932 17.2978 12.3879 17.0826 12.6626C16.8673 12.9373 16.7503 13.2761 16.75 13.6251V19.8751C16.7503 20.224 16.8673 20.5629 17.0826 20.8375C17.2978 21.1122 17.5987 21.307 17.9375 21.3907L23 22.6563V23.0001C23 23.4145 23.1646 23.8119 23.4576 24.1049C23.7507 24.398 24.1481 24.5626 24.5625 24.5626H26.125V37.0626C26.125 37.477 26.2896 37.8744 26.5826 38.1674C26.8757 38.4605 27.2731 38.6251 27.6875 38.6251H33.9375C34.3222 38.6274 34.6939 38.4862 34.9799 38.229C35.266 37.9718 35.4459 37.6172 35.4844 37.2345L36.8906 24.5626H38.3594L59.9688 32.2813C60.2046 32.3689 60.4583 32.3979 60.7078 32.3658C60.9574 32.3336 61.1954 32.2413 61.4014 32.0968C61.6073 31.9523 61.7751 31.76 61.8903 31.5362C62.0055 31.3125 62.0646 31.0642 62.0625 30.8126V21.4376H63.625C64.8682 21.4376 66.0605 20.9437 66.9396 20.0647C67.8186 19.1856 68.3125 17.9933 68.3125 16.7501C68.3125 15.5069 67.8186 14.3146 66.9396 13.4355C66.0605 12.5564 64.8682 12.0626 63.625 12.0626ZM23 19.4376L19.875 18.6563V14.8438L23 14.0626V19.4376ZM32.5312 35.5001H29.25V24.5626H33.75L32.5312 35.5001ZM37.0625 21.4376H26.125V12.0626H37.0625V21.4376ZM58.9375 28.5938L40.1875 21.8907V11.6095L58.9375 4.90634V28.5938ZM63.625 18.3126H62.0625V15.1876H63.625C64.0394 15.1876 64.4368 15.3522 64.7299 15.6452C65.0229 15.9383 65.1875 16.3357 65.1875 16.7501C65.1875 17.1645 65.0229 17.5619 64.7299 17.8549C64.4368 18.148 64.0394 18.3126 63.625 18.3126ZM70.9016 25.5893C73.2421 23.243 74.5565 20.0642 74.5565 16.7502C74.5565 13.4361 73.2421 10.2574 70.9016 7.91113L68.6922 10.1205C70.4476 11.8803 71.4334 14.2645 71.4334 16.7502C71.4334 19.2359 70.4476 21.6201 68.6922 23.3799L70.9016 25.5893ZM75.7781 28.9033L73.5688 26.694C76.2022 24.0547 77.6812 20.4786 77.6812 16.7502C77.6812 13.0218 76.2022 9.44571 73.5688 6.80645L75.7781 4.59707C78.9967 7.82277 80.8042 12.1934 80.8042 16.7502C80.8042 21.307 78.9967 25.6776 75.7781 28.9033ZM91.75 68.3126V19.8751C91.7463 18.633 91.2512 17.4429 90.373 16.5646C89.4947 15.6864 88.3046 15.1913 87.0625 15.1876H83.9375V18.3126H87.0625C87.4769 18.3126 87.8743 18.4772 88.1674 18.7702C88.4604 19.0633 88.625 19.4607 88.625 19.8751V68.3126H7.375V19.8751C7.375 19.4607 7.53962 19.0633 7.83265 18.7702C8.12567 18.4772 8.5231 18.3126 8.9375 18.3126H12.0625V15.1876H8.9375C7.69544 15.1913 6.50531 15.6864 5.62704 16.5646C4.74876 17.4429 4.25371 18.633 4.25 19.8751V68.3126C3.42196 68.3151 2.62854 68.6451 2.04302 69.2306C1.45751 69.8161 1.12747 70.6096 1.125 71.4376V76.1251C1.125 78.1971 1.9481 80.1842 3.41323 81.6494C4.87836 83.1145 6.8655 83.9376 8.9375 83.9376H87.0625C89.1345 83.9376 91.1216 83.1145 92.5868 81.6494C94.0519 80.1842 94.875 78.1971 94.875 76.1251V71.4376C94.8725 70.6096 94.5425 69.8161 93.957 69.2306C93.3715 68.6451 92.578 68.3151 91.75 68.3126ZM40.1875 71.4376H55.8125V74.5626H40.1875V71.4376ZM91.75 76.1251C91.7463 77.3672 91.2512 78.5573 90.373 79.4356C89.4947 80.3138 88.3046 80.8089 87.0625 80.8126H8.9375C7.69544 80.8089 6.50531 80.3138 5.62704 79.4356C4.74876 78.5573 4.25371 77.3672 4.25 76.1251V71.4376H37.0625V74.5626C37.065 75.3906 37.395 76.1841 37.9805 76.7696C38.566 77.3551 39.3595 77.6851 40.1875 77.6876H55.8125C56.6405 77.6851 57.434 77.3551 58.0195 76.7696C58.605 76.1841 58.935 75.3906 58.9375 74.5626V71.4376H91.75V76.1251ZM46.4375 41.7501V62.0626H49.5625V65.1876H12.0625V62.0626H15.1875V52.6876C15.1875 52.2732 15.3521 51.8758 15.6451 51.5827C15.9382 51.2897 16.3356 51.1251 16.75 51.1251H23C23.4144 51.1251 23.8118 51.2897 24.1049 51.5827C24.3979 51.8758 24.5625 52.2732 24.5625 52.6876V62.0626H26.125V48.0001C26.125 47.5857 26.2896 47.1883 26.5826 46.8952C26.8757 46.6022 27.2731 46.4376 27.6875 46.4376H33.9375C34.3519 46.4376 34.7493 46.6022 35.0424 46.8952C35.3354 47.1883 35.5 47.5857 35.5 48.0001V62.0626H37.0625V41.7501C37.0625 41.3357 37.2271 40.9383 37.5201 40.6452C37.8132 40.3522 38.2106 40.1876 38.625 40.1876H44.875C45.2894 40.1876 45.6868 40.3522 45.9799 40.6452C46.2729 40.9383 46.4375 41.3357 46.4375 41.7501ZM18.3125 54.2501V62.0626H21.4375V54.2501H18.3125ZM29.25 62.0626H32.375V49.5626H29.25V62.0626ZM40.1875 62.0626H43.3125V43.3126H40.1875V62.0626ZM68.3125 40.1876C65.8402 40.1876 63.4235 40.9207 61.3679 42.2942C59.3123 43.6677 57.7101 45.62 56.764 47.904C55.8179 50.1881 55.5704 52.7015 56.0527 55.1262C56.535 57.551 57.7255 59.7783 59.4737 61.5264C61.2218 63.2746 63.4491 64.4651 65.8739 64.9474C68.2986 65.4297 70.812 65.1822 73.096 64.2361C75.3801 63.29 77.3324 61.6878 78.7059 59.6322C80.0794 57.5766 80.8125 55.1599 80.8125 52.6876C80.8125 52.2732 80.6479 51.8758 80.3549 51.5827C80.0618 51.2897 79.6644 51.1251 79.25 51.1251H69.875V41.7501C69.875 41.3357 69.7104 40.9383 69.4174 40.6452C69.1243 40.3522 68.7269 40.1876 68.3125 40.1876ZM77.5578 54.2501C77.2707 55.9465 76.5223 57.5313 75.3946 58.8307C74.2669 60.1301 72.8033 61.0941 71.1642 61.6172C69.525 62.1402 67.7736 62.2021 66.1016 61.796C64.4297 61.39 62.9017 60.5316 61.6851 59.315C60.4685 58.0984 59.6101 56.5704 59.2041 54.8985C58.798 53.2265 58.8599 51.4751 59.3829 49.8359C59.906 48.1968 60.87 46.7332 62.1694 45.6055C63.4688 44.4777 65.0536 43.7294 66.75 43.4423V52.6876C66.75 53.102 66.9146 53.4994 67.2076 53.7924C67.5007 54.0855 67.8981 54.2501 68.3125 54.2501H77.5578ZM81.8347 39.1654C84.1781 41.5088 85.4963 44.686 85.5 48.0001C85.5 48.4145 85.3354 48.8119 85.0424 49.1049C84.7493 49.398 84.3519 49.5626 83.9375 49.5626H73C72.5856 49.5626 72.1882 49.398 71.8951 49.1049C71.6021 48.8119 71.4375 48.4145 71.4375 48.0001V37.0626C71.4375 36.6482 71.6021 36.2508 71.8951 35.9577C72.1882 35.6647 72.5856 35.5001 73 35.5001C76.3141 35.5038 79.4913 36.822 81.8347 39.1654ZM74.5625 38.7548V46.4376H82.2453C81.9174 44.5193 81.0022 42.7501 79.6261 41.374C78.25 39.9979 76.4808 39.0827 74.5625 38.7548Z"/>
</mask>
<path fill-rule="evenodd" clip-rule="evenodd" d="M63.625 12.0626H62.0625V2.68759C62.0621 2.43737 62.0024 2.19083 61.8883 1.96813C61.7742 1.74543 61.609 1.55291 61.4063 1.40634C61.1978 1.26539 60.9592 1.17504 60.7097 1.14249C60.4601 1.10994 60.2064 1.13608 59.9688 1.21884L38.3594 8.93759H24.5625C24.1481 8.93759 23.7507 9.10221 23.4576 9.39523C23.1646 9.68826 23 10.0857 23 10.5001V10.8438L17.9375 12.1095C17.5987 12.1932 17.2978 12.3879 17.0826 12.6626C16.8673 12.9373 16.7503 13.2761 16.75 13.6251V19.8751C16.7503 20.224 16.8673 20.5629 17.0826 20.8375C17.2978 21.1122 17.5987 21.307 17.9375 21.3907L23 22.6563V23.0001C23 23.4145 23.1646 23.8119 23.4576 24.1049C23.7507 24.398 24.1481 24.5626 24.5625 24.5626H26.125V37.0626C26.125 37.477 26.2896 37.8744 26.5826 38.1674C26.8757 38.4605 27.2731 38.6251 27.6875 38.6251H33.9375C34.3222 38.6274 34.6939 38.4862 34.9799 38.229C35.266 37.9718 35.4459 37.6172 35.4844 37.2345L36.8906 24.5626H38.3594L59.9688 32.2813C60.2046 32.3689 60.4583 32.3979 60.7078 32.3658C60.9574 32.3336 61.1954 32.2413 61.4014 32.0968C61.6073 31.9523 61.7751 31.76 61.8903 31.5362C62.0055 31.3125 62.0646 31.0642 62.0625 30.8126V21.4376H63.625C64.8682 21.4376 66.0605 20.9437 66.9396 20.0647C67.8186 19.1856 68.3125 17.9933 68.3125 16.7501C68.3125 15.5069 67.8186 14.3146 66.9396 13.4355C66.0605 12.5564 64.8682 12.0626 63.625 12.0626ZM23 19.4376L19.875 18.6563V14.8438L23 14.0626V19.4376ZM32.5312 35.5001H29.25V24.5626H33.75L32.5312 35.5001ZM37.0625 21.4376H26.125V12.0626H37.0625V21.4376ZM58.9375 28.5938L40.1875 21.8907V11.6095L58.9375 4.90634V28.5938ZM63.625 18.3126H62.0625V15.1876H63.625C64.0394 15.1876 64.4368 15.3522 64.7299 15.6452C65.0229 15.9383 65.1875 16.3357 65.1875 16.7501C65.1875 17.1645 65.0229 17.5619 64.7299 17.8549C64.4368 18.148 64.0394 18.3126 63.625 18.3126ZM70.9016 25.5893C73.2421 23.243 74.5565 20.0642 74.5565 16.7502C74.5565 13.4361 73.2421 10.2574 70.9016 7.91113L68.6922 10.1205C70.4476 11.8803 71.4334 14.2645 71.4334 16.7502C71.4334 19.2359 70.4476 21.6201 68.6922 23.3799L70.9016 25.5893ZM75.7781 28.9033L73.5688 26.694C76.2022 24.0547 77.6812 20.4786 77.6812 16.7502C77.6812 13.0218 76.2022 9.44571 73.5688 6.80645L75.7781 4.59707C78.9967 7.82277 80.8042 12.1934 80.8042 16.7502C80.8042 21.307 78.9967 25.6776 75.7781 28.9033ZM91.75 68.3126V19.8751C91.7463 18.633 91.2512 17.4429 90.373 16.5646C89.4947 15.6864 88.3046 15.1913 87.0625 15.1876H83.9375V18.3126H87.0625C87.4769 18.3126 87.8743 18.4772 88.1674 18.7702C88.4604 19.0633 88.625 19.4607 88.625 19.8751V68.3126H7.375V19.8751C7.375 19.4607 7.53962 19.0633 7.83265 18.7702C8.12567 18.4772 8.5231 18.3126 8.9375 18.3126H12.0625V15.1876H8.9375C7.69544 15.1913 6.50531 15.6864 5.62704 16.5646C4.74876 17.4429 4.25371 18.633 4.25 19.8751V68.3126C3.42196 68.3151 2.62854 68.6451 2.04302 69.2306C1.45751 69.8161 1.12747 70.6096 1.125 71.4376V76.1251C1.125 78.1971 1.9481 80.1842 3.41323 81.6494C4.87836 83.1145 6.8655 83.9376 8.9375 83.9376H87.0625C89.1345 83.9376 91.1216 83.1145 92.5868 81.6494C94.0519 80.1842 94.875 78.1971 94.875 76.1251V71.4376C94.8725 70.6096 94.5425 69.8161 93.957 69.2306C93.3715 68.6451 92.578 68.3151 91.75 68.3126ZM40.1875 71.4376H55.8125V74.5626H40.1875V71.4376ZM91.75 76.1251C91.7463 77.3672 91.2512 78.5573 90.373 79.4356C89.4947 80.3138 88.3046 80.8089 87.0625 80.8126H8.9375C7.69544 80.8089 6.50531 80.3138 5.62704 79.4356C4.74876 78.5573 4.25371 77.3672 4.25 76.1251V71.4376H37.0625V74.5626C37.065 75.3906 37.395 76.1841 37.9805 76.7696C38.566 77.3551 39.3595 77.6851 40.1875 77.6876H55.8125C56.6405 77.6851 57.434 77.3551 58.0195 76.7696C58.605 76.1841 58.935 75.3906 58.9375 74.5626V71.4376H91.75V76.1251ZM46.4375 41.7501V62.0626H49.5625V65.1876H12.0625V62.0626H15.1875V52.6876C15.1875 52.2732 15.3521 51.8758 15.6451 51.5827C15.9382 51.2897 16.3356 51.1251 16.75 51.1251H23C23.4144 51.1251 23.8118 51.2897 24.1049 51.5827C24.3979 51.8758 24.5625 52.2732 24.5625 52.6876V62.0626H26.125V48.0001C26.125 47.5857 26.2896 47.1883 26.5826 46.8952C26.8757 46.6022 27.2731 46.4376 27.6875 46.4376H33.9375C34.3519 46.4376 34.7493 46.6022 35.0424 46.8952C35.3354 47.1883 35.5 47.5857 35.5 48.0001V62.0626H37.0625V41.7501C37.0625 41.3357 37.2271 40.9383 37.5201 40.6452C37.8132 40.3522 38.2106 40.1876 38.625 40.1876H44.875C45.2894 40.1876 45.6868 40.3522 45.9799 40.6452C46.2729 40.9383 46.4375 41.3357 46.4375 41.7501ZM18.3125 54.2501V62.0626H21.4375V54.2501H18.3125ZM29.25 62.0626H32.375V49.5626H29.25V62.0626ZM40.1875 62.0626H43.3125V43.3126H40.1875V62.0626ZM68.3125 40.1876C65.8402 40.1876 63.4235 40.9207 61.3679 42.2942C59.3123 43.6677 57.7101 45.62 56.764 47.904C55.8179 50.1881 55.5704 52.7015 56.0527 55.1262C56.535 57.551 57.7255 59.7783 59.4737 61.5264C61.2218 63.2746 63.4491 64.4651 65.8739 64.9474C68.2986 65.4297 70.812 65.1822 73.096 64.2361C75.3801 63.29 77.3324 61.6878 78.7059 59.6322C80.0794 57.5766 80.8125 55.1599 80.8125 52.6876C80.8125 52.2732 80.6479 51.8758 80.3549 51.5827C80.0618 51.2897 79.6644 51.1251 79.25 51.1251H69.875V41.7501C69.875 41.3357 69.7104 40.9383 69.4174 40.6452C69.1243 40.3522 68.7269 40.1876 68.3125 40.1876ZM77.5578 54.2501C77.2707 55.9465 76.5223 57.5313 75.3946 58.8307C74.2669 60.1301 72.8033 61.0941 71.1642 61.6172C69.525 62.1402 67.7736 62.2021 66.1016 61.796C64.4297 61.39 62.9017 60.5316 61.6851 59.315C60.4685 58.0984 59.6101 56.5704 59.2041 54.8985C58.798 53.2265 58.8599 51.4751 59.3829 49.8359C59.906 48.1968 60.87 46.7332 62.1694 45.6055C63.4688 44.4777 65.0536 43.7294 66.75 43.4423V52.6876C66.75 53.102 66.9146 53.4994 67.2076 53.7924C67.5007 54.0855 67.8981 54.2501 68.3125 54.2501H77.5578ZM81.8347 39.1654C84.1781 41.5088 85.4963 44.686 85.5 48.0001C85.5 48.4145 85.3354 48.8119 85.0424 49.1049C84.7493 49.398 84.3519 49.5626 83.9375 49.5626H73C72.5856 49.5626 72.1882 49.398 71.8951 49.1049C71.6021 48.8119 71.4375 48.4145 71.4375 48.0001V37.0626C71.4375 36.6482 71.6021 36.2508 71.8951 35.9577C72.1882 35.6647 72.5856 35.5001 73 35.5001C76.3141 35.5038 79.4913 36.822 81.8347 39.1654ZM74.5625 38.7548V46.4376H82.2453C81.9174 44.5193 81.0022 42.7501 79.6261 41.374C78.25 39.9979 76.4808 39.0827 74.5625 38.7548Z" fill="url(#paint0_linear)"/>
<path d="M62.0625 12.0626H61.5625V12.5626H62.0625V12.0626ZM62.0625 2.68759H62.5625V2.68669L62.0625 2.68759ZM61.8883 1.96813L61.4433 2.19606L61.4433 2.19607L61.8883 1.96813ZM61.4063 1.40634L61.6992 1.00111L61.6928 0.996509L61.6863 0.992111L61.4063 1.40634ZM60.7097 1.14249L60.7744 0.64669V0.64669L60.7097 1.14249ZM59.9688 1.21884L59.8043 0.746625L59.8006 0.747973L59.9688 1.21884ZM38.3594 8.93759V9.43759H38.446L38.5276 9.40845L38.3594 8.93759ZM23.4576 9.39523L23.8112 9.74879V9.74879L23.4576 9.39523ZM23 10.8438L23.1213 11.3289L23.5 11.2342V10.8438H23ZM17.9375 12.1095L18.0575 12.5948L18.0588 12.5945L17.9375 12.1095ZM16.75 13.6251L16.25 13.6247V13.6251H16.75ZM16.75 19.8751H16.25V19.8755L16.75 19.8751ZM17.9375 21.3907L18.0588 20.9056L18.0575 20.9053L17.9375 21.3907ZM23 22.6563H23.5V22.2659L23.1213 22.1713L23 22.6563ZM23.4576 24.1049L23.8112 23.7514V23.7514L23.4576 24.1049ZM26.125 24.5626H26.625V24.0626H26.125V24.5626ZM26.5826 38.1674L26.9362 37.8139L26.5826 38.1674ZM33.9375 38.6251L33.9405 38.1251H33.9375V38.6251ZM34.9799 38.229L34.6457 37.8572L34.9799 38.229ZM35.4844 37.2345L34.9874 37.1793L34.9869 37.1844L35.4844 37.2345ZM36.8906 24.5626V24.0626H36.443L36.3937 24.5074L36.8906 24.5626ZM38.3594 24.5626L38.5276 24.0917L38.446 24.0626H38.3594V24.5626ZM59.9688 32.2813L60.1428 31.8126L60.1369 31.8105L59.9688 32.2813ZM62.0625 30.8126H61.5625L61.5625 30.8167L62.0625 30.8126ZM62.0625 21.4376V20.9376H61.5625V21.4376H62.0625ZM66.9396 20.0647L67.2931 20.4182V20.4182L66.9396 20.0647ZM66.9396 13.4355L66.586 13.7891L66.9396 13.4355ZM19.875 18.6563H19.375V19.0467L19.7537 19.1414L19.875 18.6563ZM23 19.4376L22.8787 19.9227L23.5 20.078V19.4376H23ZM19.875 14.8438L19.7537 14.3588L19.375 14.4534V14.8438H19.875ZM23 14.0626H23.5V13.4222L22.8787 13.5775L23 14.0626ZM29.25 35.5001H28.75V36.0001H29.25V35.5001ZM32.5312 35.5001V36.0001H32.9786L33.0282 35.5555L32.5312 35.5001ZM29.25 24.5626V24.0626H28.75V24.5626H29.25ZM33.75 24.5626L34.2469 24.618L34.3088 24.0626H33.75V24.5626ZM26.125 21.4376H25.625V21.9376H26.125V21.4376ZM37.0625 21.4376V21.9376H37.5625V21.4376H37.0625ZM26.125 12.0626V11.5626H25.625V12.0626H26.125ZM37.0625 12.0626H37.5625V11.5626H37.0625V12.0626ZM40.1875 21.8907H39.6875V22.243L40.0192 22.3615L40.1875 21.8907ZM58.9375 28.5938L58.7692 29.0647L59.4375 29.3036V28.5938H58.9375ZM40.1875 11.6095L40.0192 11.1386L39.6875 11.2572V11.6095H40.1875ZM58.9375 4.90634H59.4375V4.1966L58.7692 4.43552L58.9375 4.90634ZM62.0625 18.3126H61.5625V18.8126H62.0625V18.3126ZM62.0625 15.1876V14.6876H61.5625V15.1876H62.0625ZM64.7299 15.6452L64.3763 15.9988L64.7299 15.6452ZM64.7299 17.8549L64.3763 17.5014L64.7299 17.8549ZM70.9016 25.5893L70.548 25.9428L70.902 26.2968L71.2555 25.9424L70.9016 25.5893ZM70.9016 7.91113L71.2555 7.55801L70.902 7.20359L70.548 7.55758L70.9016 7.91113ZM68.6922 10.1205L68.3386 9.76695L67.9855 10.1201L68.3382 10.4736L68.6922 10.1205ZM68.6922 23.3799L68.3382 23.0268L67.9855 23.3803L68.3386 23.7334L68.6922 23.3799ZM73.5688 26.694L73.2148 26.3408L72.862 26.6943L73.2152 27.0475L73.5688 26.694ZM75.7781 28.9033L75.4246 29.2569L75.7785 29.6108L76.1321 29.2565L75.7781 28.9033ZM73.5688 6.80645L73.2152 6.4529L72.862 6.80606L73.2148 7.15961L73.5688 6.80645ZM75.7781 4.59707L76.1321 4.24392L75.7785 3.88957L75.4246 4.24352L75.7781 4.59707ZM91.75 19.8751H92.25V19.8736L91.75 19.8751ZM91.75 68.3126H91.25V68.8111L91.7485 68.8126L91.75 68.3126ZM90.373 16.5646L90.0194 16.9182V16.9182L90.373 16.5646ZM87.0625 15.1876L87.064 14.6876H87.0625V15.1876ZM83.9375 15.1876V14.6876H83.4375V15.1876H83.9375ZM83.9375 18.3126H83.4375V18.8126H83.9375V18.3126ZM88.1674 18.7702L88.5209 18.4167V18.4167L88.1674 18.7702ZM88.625 68.3126V68.8126H89.125V68.3126H88.625ZM7.375 68.3126H6.875V68.8126H7.375V68.3126ZM12.0625 18.3126V18.8126H12.5625V18.3126H12.0625ZM12.0625 15.1876H12.5625V14.6876H12.0625V15.1876ZM8.9375 15.1876V14.6876L8.93601 14.6876L8.9375 15.1876ZM5.62704 16.5646L5.98059 16.9182L5.62704 16.5646ZM4.25 19.8751L3.75 19.8736V19.8751H4.25ZM4.25 68.3126L4.25149 68.8126L4.75 68.8111V68.3126H4.25ZM2.04302 69.2306L2.39657 69.5842H2.39658L2.04302 69.2306ZM1.125 71.4376L0.625 71.4361V71.4376H1.125ZM3.41323 81.6494L3.05967 82.0029H3.05968L3.41323 81.6494ZM94.875 71.4376H95.375V71.4361L94.875 71.4376ZM55.8125 71.4376H56.3125V70.9376H55.8125V71.4376ZM40.1875 71.4376V70.9376H39.6875V71.4376H40.1875ZM55.8125 74.5626V75.0626H56.3125V74.5626H55.8125ZM40.1875 74.5626H39.6875V75.0626H40.1875V74.5626ZM91.75 76.1251L92.25 76.1266V76.1251H91.75ZM87.0625 80.8126V81.3126H87.064L87.0625 80.8126ZM8.9375 80.8126L8.93601 81.3126H8.9375V80.8126ZM5.62704 79.4356L5.27348 79.7891H5.27348L5.62704 79.4356ZM4.25 76.1251H3.75L3.75 76.1266L4.25 76.1251ZM4.25 71.4376V70.9376H3.75V71.4376H4.25ZM37.0625 71.4376H37.5625V70.9376H37.0625V71.4376ZM37.0625 74.5626H36.5625L36.5625 74.5641L37.0625 74.5626ZM37.9805 76.7696L38.3341 76.416L37.9805 76.7696ZM40.1875 77.6876L40.186 78.1876H40.1875V77.6876ZM55.8125 77.6876V78.1876H55.814L55.8125 77.6876ZM58.0195 76.7696L57.6659 76.416L58.0195 76.7696ZM58.9375 74.5626L59.4375 74.5641V74.5626H58.9375ZM58.9375 71.4376V70.9376H58.4375V71.4376H58.9375ZM91.75 71.4376H92.25V70.9376H91.75V71.4376ZM46.4375 62.0626H45.9375V62.5626H46.4375V62.0626ZM49.5625 62.0626H50.0625V61.5626H49.5625V62.0626ZM49.5625 65.1876V65.6876H50.0625V65.1876H49.5625ZM12.0625 65.1876H11.5625V65.6876H12.0625V65.1876ZM12.0625 62.0626V61.5626H11.5625V62.0626H12.0625ZM15.1875 62.0626V62.5626H15.6875V62.0626H15.1875ZM15.6451 51.5827L15.9987 51.9363L15.6451 51.5827ZM24.1049 51.5827L23.7513 51.9363L24.1049 51.5827ZM24.5625 62.0626H24.0625V62.5626H24.5625V62.0626ZM26.125 62.0626V62.5626H26.625V62.0626H26.125ZM26.5826 46.8952L26.9362 47.2488L26.5826 46.8952ZM35.5 62.0626H35V62.5626H35.5V62.0626ZM37.0625 62.0626V62.5626H37.5625V62.0626H37.0625ZM18.3125 62.0626H17.8125V62.5626H18.3125V62.0626ZM18.3125 54.2501V53.7501H17.8125V54.2501H18.3125ZM21.4375 62.0626V62.5626H21.9375V62.0626H21.4375ZM21.4375 54.2501H21.9375V53.7501H21.4375V54.2501ZM32.375 62.0626V62.5626H32.875V62.0626H32.375ZM29.25 62.0626H28.75V62.5626H29.25V62.0626ZM32.375 49.5626H32.875V49.0626H32.375V49.5626ZM29.25 49.5626V49.0626H28.75V49.5626H29.25ZM43.3125 62.0626V62.5626H43.8125V62.0626H43.3125ZM40.1875 62.0626H39.6875V62.5626H40.1875V62.0626ZM43.3125 43.3126H43.8125V42.8126H43.3125V43.3126ZM40.1875 43.3126V42.8126H39.6875V43.3126H40.1875ZM61.3679 42.2942L61.6457 42.71L61.3679 42.2942ZM59.4737 61.5264L59.8272 61.1729L59.4737 61.5264ZM65.8739 64.9474L65.9714 64.457L65.8739 64.9474ZM73.096 64.2361L73.2874 64.698H73.2874L73.096 64.2361ZM80.3549 51.5827L80.7084 51.2292V51.2292L80.3549 51.5827ZM69.875 51.1251H69.375V51.6251H69.875V51.1251ZM69.4174 40.6452L69.0638 40.9988V40.9988L69.4174 40.6452ZM75.3946 58.8307L75.7722 59.1584L75.3946 58.8307ZM77.5578 54.2501L78.0508 54.3335L78.1495 53.7501H77.5578V54.2501ZM71.1642 61.6172L71.0122 61.1408H71.0122L71.1642 61.6172ZM66.1016 61.796L65.9836 62.2819L66.1016 61.796ZM61.6851 59.315L61.3316 59.6685L61.6851 59.315ZM59.2041 54.8985L58.7182 55.0165L59.2041 54.8985ZM59.3829 49.8359L58.9066 49.6839L59.3829 49.8359ZM62.1694 45.6055L61.8417 45.2279L62.1694 45.6055ZM66.75 43.4423H67.25V42.8506L66.6666 42.9493L66.75 43.4423ZM67.2076 53.7924L67.5612 53.4389V53.4389L67.2076 53.7924ZM85.5 48.0001H86V47.9995L85.5 48.0001ZM81.8347 39.1654L82.1883 38.8118L81.8347 39.1654ZM85.0424 49.1049L85.3959 49.4585V49.4585L85.0424 49.1049ZM71.8951 49.1049L71.5416 49.4585V49.4585L71.8951 49.1049ZM71.8951 35.9577L71.5416 35.6042V35.6042L71.8951 35.9577ZM73 35.5001L73.0006 35.0001H73V35.5001ZM74.5625 46.4376H74.0625V46.9376H74.5625V46.4376ZM74.5625 38.7548L74.6468 38.2619L74.0625 38.162V38.7548H74.5625ZM82.2453 46.4376V46.9376H82.8381L82.7382 46.3533L82.2453 46.4376ZM79.6261 41.374L79.9797 41.0204L79.6261 41.374ZM62.0625 12.5626H63.625V11.5626H62.0625V12.5626ZM61.5625 2.68759V12.0626H62.5625V2.68759H61.5625ZM61.4433 2.19607C61.5213 2.34849 61.5622 2.51723 61.5625 2.68848L62.5625 2.68669C62.5619 2.35752 62.4834 2.03317 62.3333 1.74019L61.4433 2.19607ZM61.1134 1.81156C61.2521 1.91188 61.3652 2.04364 61.4433 2.19606L62.3333 1.74019C62.1833 1.44721 61.9659 1.19394 61.6992 1.00111L61.1134 1.81156ZM60.645 1.63829C60.8174 1.66078 60.9822 1.72319 61.1262 1.82056L61.6863 0.992111C61.4133 0.807582 61.1011 0.689305 60.7744 0.64669L60.645 1.63829ZM60.1332 1.69103C60.2974 1.63386 60.4726 1.6158 60.645 1.63829L60.7744 0.64669C60.4476 0.604076 60.1155 0.6383 59.8043 0.746641L60.1332 1.69103ZM38.5276 9.40845L60.1369 1.6897L59.8006 0.747973L38.1912 8.46672L38.5276 9.40845ZM24.5625 9.43759H38.3594V8.43759H24.5625V9.43759ZM23.8112 9.74879C24.0105 9.54953 24.2807 9.43759 24.5625 9.43759V8.43759C24.0155 8.43759 23.4909 8.65488 23.1041 9.04168L23.8112 9.74879ZM23.5 10.5001C23.5 10.2183 23.6119 9.94804 23.8112 9.74879L23.1041 9.04168C22.7173 9.42847 22.5 9.95308 22.5 10.5001H23.5ZM23.5 10.8438V10.5001H22.5V10.8438H23.5ZM18.0588 12.5945L23.1213 11.3289L22.8787 10.3588L17.8162 11.6244L18.0588 12.5945ZM17.4761 12.971C17.6225 12.7842 17.8271 12.6518 18.0575 12.5948L17.8175 11.6241C17.3703 11.7346 16.9731 11.9917 16.689 12.3543L17.4761 12.971ZM17.25 13.6255C17.2502 13.3882 17.3298 13.1578 17.4761 12.971L16.689 12.3543C16.4049 12.7168 16.2504 13.1641 16.25 13.6247L17.25 13.6255ZM17.25 19.8751V13.6251H16.25V19.8751H17.25ZM17.4761 20.5292C17.3298 20.3424 17.2502 20.112 17.25 19.8747L16.25 19.8755C16.2504 20.3361 16.4049 20.7833 16.689 21.1459L17.4761 20.5292ZM18.0575 20.9053C17.8271 20.8484 17.6225 20.716 17.4761 20.5292L16.689 21.1459C16.9731 21.5085 17.3703 21.7655 17.8175 21.8761L18.0575 20.9053ZM23.1213 22.1713L18.0588 20.9056L17.8162 21.8758L22.8787 23.1414L23.1213 22.1713ZM23.5 23.0001V22.6563H22.5V23.0001H23.5ZM23.8112 23.7514C23.6119 23.5521 23.5 23.2819 23.5 23.0001H22.5C22.5 23.5471 22.7173 24.0717 23.1041 24.4585L23.8112 23.7514ZM24.5625 24.0626C24.2807 24.0626 24.0105 23.9506 23.8112 23.7514L23.1041 24.4585C23.4909 24.8453 24.0155 25.0626 24.5625 25.0626V24.0626ZM26.125 24.0626H24.5625V25.0626H26.125V24.0626ZM26.625 37.0626V24.5626H25.625V37.0626H26.625ZM26.9362 37.8139C26.7369 37.6146 26.625 37.3444 26.625 37.0626H25.625C25.625 37.6096 25.8423 38.1342 26.2291 38.521L26.9362 37.8139ZM27.6875 38.1251C27.4057 38.1251 27.1355 38.0131 26.9362 37.8139L26.2291 38.521C26.6159 38.9078 27.1405 39.1251 27.6875 39.1251V38.1251ZM33.9375 38.1251H27.6875V39.1251H33.9375V38.1251ZM34.6457 37.8572C34.4522 38.0311 34.2007 38.1267 33.9405 38.1251L33.9345 39.1251C34.4436 39.1282 34.9356 38.9412 35.3142 38.6008L34.6457 37.8572ZM34.9869 37.1844C34.9608 37.4433 34.8392 37.6832 34.6457 37.8572L35.3142 38.6008C35.6928 38.2605 35.9309 37.7911 35.9819 37.2845L34.9869 37.1844ZM36.3937 24.5074L34.9874 37.1793L35.9813 37.2896L37.3876 24.6177L36.3937 24.5074ZM38.3594 24.0626H36.8906V25.0626H38.3594V24.0626ZM60.1369 31.8105L38.5276 24.0917L38.1912 25.0335L59.8006 32.7522L60.1369 31.8105ZM60.6439 31.8699C60.4747 31.8917 60.3028 31.872 60.1428 31.8126L59.7947 32.7501C60.1065 32.8659 60.4418 32.9042 60.7717 32.8617L60.6439 31.8699ZM61.1142 31.6875C60.9745 31.7855 60.8132 31.8481 60.6439 31.8699L60.7717 32.8617C61.1016 32.8192 61.4162 32.6972 61.6885 32.5062L61.1142 31.6875ZM61.4458 31.3074C61.3677 31.4591 61.2539 31.5895 61.1142 31.6875L61.6885 32.5062C61.9608 32.3151 62.1826 32.0608 62.3349 31.7651L61.4458 31.3074ZM61.5625 30.8167C61.5639 30.9873 61.5239 31.1557 61.4458 31.3074L62.3349 31.7651C62.4871 31.4694 62.5652 31.1411 62.5625 30.8085L61.5625 30.8167ZM61.5625 21.4376V30.8126H62.5625V21.4376H61.5625ZM63.625 20.9376H62.0625V21.9376H63.625V20.9376ZM66.586 19.7111C65.8007 20.4964 64.7356 20.9376 63.625 20.9376V21.9376C65.0008 21.9376 66.3203 21.391 67.2931 20.4182L66.586 19.7111ZM67.8125 16.7501C67.8125 17.8607 67.3713 18.9258 66.586 19.7111L67.2931 20.4182C68.266 19.4454 68.8125 18.1259 68.8125 16.7501H67.8125ZM66.586 13.7891C67.3713 14.5744 67.8125 15.6395 67.8125 16.7501H68.8125C68.8125 15.3743 68.266 14.0548 67.2931 13.082L66.586 13.7891ZM63.625 12.5626C64.7356 12.5626 65.8007 13.0038 66.586 13.7891L67.2931 13.082C66.3203 12.1091 65.0008 11.5626 63.625 11.5626V12.5626ZM19.7537 19.1414L22.8787 19.9227L23.1213 18.9525L19.9963 18.1713L19.7537 19.1414ZM19.375 14.8438V18.6563H20.375V14.8438H19.375ZM22.8787 13.5775L19.7537 14.3588L19.9963 15.3289L23.1213 14.5477L22.8787 13.5775ZM23.5 19.4376V14.0626H22.5V19.4376H23.5ZM29.25 36.0001H32.5312V35.0001H29.25V36.0001ZM28.75 24.5626V35.5001H29.75V24.5626H28.75ZM33.75 24.0626H29.25V25.0626H33.75V24.0626ZM33.0282 35.5555L34.2469 24.618L33.2531 24.5072L32.0343 35.4447L33.0282 35.5555ZM26.125 21.9376H37.0625V20.9376H26.125V21.9376ZM25.625 12.0626V21.4376H26.625V12.0626H25.625ZM37.0625 11.5626H26.125V12.5626H37.0625V11.5626ZM37.5625 21.4376V12.0626H36.5625V21.4376H37.5625ZM40.0192 22.3615L58.7692 29.0647L59.1058 28.123L40.3558 21.4199L40.0192 22.3615ZM39.6875 11.6095V21.8907H40.6875V11.6095H39.6875ZM58.7692 4.43552L40.0192 11.1386L40.3558 12.0803L59.1058 5.37715L58.7692 4.43552ZM59.4375 28.5938V4.90634H58.4375V28.5938H59.4375ZM62.0625 18.8126H63.625V17.8126H62.0625V18.8126ZM61.5625 15.1876V18.3126H62.5625V15.1876H61.5625ZM63.625 14.6876H62.0625V15.6876H63.625V14.6876ZM65.0834 15.2917C64.6966 14.9049 64.172 14.6876 63.625 14.6876V15.6876C63.9068 15.6876 64.177 15.7995 64.3763 15.9988L65.0834 15.2917ZM65.6875 16.7501C65.6875 16.2031 65.4702 15.6785 65.0834 15.2917L64.3763 15.9988C64.5756 16.198 64.6875 16.4683 64.6875 16.7501H65.6875ZM65.0834 18.2085C65.4702 17.8217 65.6875 17.2971 65.6875 16.7501H64.6875C64.6875 17.0319 64.5756 17.3021 64.3763 17.5014L65.0834 18.2085ZM63.625 18.8126C64.172 18.8126 64.6966 18.5953 65.0834 18.2085L64.3763 17.5014C64.177 17.7006 63.9068 17.8126 63.625 17.8126V18.8126ZM74.0565 16.7502C74.0565 19.9318 72.7946 22.9836 70.5476 25.2361L71.2555 25.9424C73.6896 23.5024 75.0565 20.1966 75.0565 16.7502H74.0565ZM70.5476 8.26425C72.7946 10.5168 74.0565 13.5685 74.0565 16.7502H75.0565C75.0565 13.3037 73.6896 9.99799 71.2555 7.55801L70.5476 8.26425ZM69.0457 10.4741L71.2551 8.26469L70.548 7.55758L68.3386 9.76695L69.0457 10.4741ZM71.9334 16.7502C71.9334 14.1321 70.8951 11.6209 69.0462 9.7674L68.3382 10.4736C70.0001 12.1397 70.9334 14.3969 70.9334 16.7502H71.9334ZM69.0462 23.733C70.8951 21.8794 71.9334 19.3682 71.9334 16.7502H70.9334C70.9334 19.1035 70.0001 21.3607 68.3382 23.0268L69.0462 23.733ZM71.2551 25.2357L69.0457 23.0263L68.3386 23.7334L70.548 25.9428L71.2551 25.2357ZM73.2152 27.0475L75.4246 29.2569L76.1317 28.5498L73.9223 26.3404L73.2152 27.0475ZM77.1812 16.7502C77.1812 20.3462 75.7547 23.7953 73.2148 26.3408L73.9227 27.0471C76.6497 24.3141 78.1812 20.611 78.1812 16.7502H77.1812ZM73.2148 7.15961C75.7547 9.70514 77.1812 13.1542 77.1812 16.7502H78.1812C78.1812 12.8894 76.6497 9.18629 73.9227 6.45329L73.2148 7.15961ZM75.4246 4.24352L73.2152 6.4529L73.9223 7.16L76.1317 4.95063L75.4246 4.24352ZM81.3042 16.7502C81.3042 12.061 79.4441 7.56334 76.1321 4.24392L75.4242 4.95023C78.5492 8.08219 80.3042 12.3259 80.3042 16.7502H81.3042ZM76.1321 29.2565C79.4441 25.9371 81.3042 21.4394 81.3042 16.7502H80.3042C80.3042 21.1745 78.5492 25.4182 75.4242 28.5502L76.1321 29.2565ZM91.25 19.8751V68.3126H92.25V19.8751H91.25ZM90.0194 16.9182C90.8043 17.7031 91.2467 18.7666 91.25 19.8766L92.25 19.8736C92.2459 18.4994 91.6982 17.1828 90.7265 16.2111L90.0194 16.9182ZM87.061 15.6876C88.171 15.6909 89.2345 16.1333 90.0194 16.9182L90.7265 16.2111C89.7548 15.2394 88.4381 14.6917 87.064 14.6876L87.061 15.6876ZM83.9375 15.6876H87.0625V14.6876H83.9375V15.6876ZM84.4375 18.3126V15.1876H83.4375V18.3126H84.4375ZM87.0625 17.8126H83.9375V18.8126H87.0625V17.8126ZM88.5209 18.4167C88.1341 18.0299 87.6095 17.8126 87.0625 17.8126V18.8126C87.3443 18.8126 87.6145 18.9245 87.8138 19.1238L88.5209 18.4167ZM89.125 19.8751C89.125 19.3281 88.9077 18.8035 88.5209 18.4167L87.8138 19.1238C88.0131 19.323 88.125 19.5933 88.125 19.8751H89.125ZM89.125 68.3126V19.8751H88.125V68.3126H89.125ZM7.375 68.8126H88.625V67.8126H7.375V68.8126ZM6.875 19.8751V68.3126H7.875V19.8751H6.875ZM7.47909 18.4167C7.0923 18.8035 6.875 19.3281 6.875 19.8751H7.875C7.875 19.5933 7.98694 19.323 8.1862 19.1238L7.47909 18.4167ZM8.9375 17.8126C8.39049 17.8126 7.86589 18.0299 7.47909 18.4167L8.1862 19.1238C8.38546 18.9245 8.65571 18.8126 8.9375 18.8126V17.8126ZM12.0625 17.8126H8.9375V18.8126H12.0625V17.8126ZM11.5625 15.1876V18.3126H12.5625V15.1876H11.5625ZM8.9375 15.6876H12.0625V14.6876H8.9375V15.6876ZM5.98059 16.9182C6.76546 16.1333 7.82902 15.6909 8.93899 15.6876L8.93601 14.6876C7.56186 14.6917 6.24516 15.2394 5.27348 16.2111L5.98059 16.9182ZM4.75 19.8766C4.75331 18.7666 5.19572 17.7031 5.98059 16.9182L5.27348 16.2111C4.30181 17.1828 3.75411 18.4994 3.75 19.8736L4.75 19.8766ZM4.75 68.3126V19.8751H3.75V68.3126H4.75ZM2.39658 69.5842C2.88869 69.0921 3.55555 68.8147 4.25149 68.8126L4.24851 67.8126C3.28837 67.8155 2.36839 68.1982 1.68947 68.8771L2.39658 69.5842ZM1.625 71.4391C1.62708 70.7431 1.90446 70.0763 2.39657 69.5842L1.68947 68.8771C1.01055 69.556 0.62787 70.476 0.625002 71.4361L1.625 71.4391ZM1.625 76.1251V71.4376H0.625V76.1251H1.625ZM3.76678 81.2958C2.39542 79.9244 1.625 78.0645 1.625 76.1251H0.625C0.625 78.3297 1.50078 80.444 3.05967 82.0029L3.76678 81.2958ZM8.9375 83.4376C6.9981 83.4376 5.13814 82.6672 3.76678 81.2958L3.05968 82.0029C4.61857 83.5618 6.73289 84.4376 8.9375 84.4376V83.4376ZM87.0625 83.4376H8.9375V84.4376H87.0625V83.4376ZM92.2332 81.2958C90.8619 82.6672 89.0019 83.4376 87.0625 83.4376V84.4376C89.2671 84.4376 91.3814 83.5618 92.9403 82.0029L92.2332 81.2958ZM94.375 76.1251C94.375 78.0645 93.6046 79.9244 92.2332 81.2958L92.9403 82.0029C94.4992 80.444 95.375 78.3297 95.375 76.1251H94.375ZM94.375 71.4376V76.1251H95.375V71.4376H94.375ZM93.6034 69.5842C94.0955 70.0763 94.3729 70.7431 94.375 71.4391L95.375 71.4361C95.3721 70.476 94.9894 69.556 94.3105 68.8771L93.6034 69.5842ZM91.7485 68.8126C92.4445 68.8147 93.1113 69.0921 93.6034 69.5842L94.3105 68.8771C93.6316 68.1982 92.7116 67.8155 91.7515 67.8126L91.7485 68.8126ZM55.8125 70.9376H40.1875V71.9376H55.8125V70.9376ZM56.3125 74.5626V71.4376H55.3125V74.5626H56.3125ZM40.1875 75.0626H55.8125V74.0626H40.1875V75.0626ZM39.6875 71.4376V74.5626H40.6875V71.4376H39.6875ZM90.7265 79.7891C91.6982 78.8174 92.2459 77.5007 92.25 76.1266L91.25 76.1236C91.2467 77.2336 90.8043 78.2971 90.0194 79.082L90.7265 79.7891ZM87.064 81.3126C88.4381 81.3085 89.7548 80.7608 90.7265 79.7891L90.0194 79.082C89.2345 79.8669 88.171 80.3093 87.061 80.3126L87.064 81.3126ZM8.9375 81.3126H87.0625V80.3126H8.9375V81.3126ZM5.27348 79.7891C6.24516 80.7608 7.56186 81.3085 8.93601 81.3126L8.93899 80.3126C7.82902 80.3093 6.76546 79.8669 5.98059 79.082L5.27348 79.7891ZM3.75 76.1266C3.75411 77.5007 4.30181 78.8174 5.27348 79.7891L5.98059 79.082C5.19572 78.2971 4.75331 77.2336 4.75 76.1236L3.75 76.1266ZM3.75 71.4376V76.1251H4.75V71.4376H3.75ZM37.0625 70.9376H4.25V71.9376H37.0625V70.9376ZM37.5625 74.5626V71.4376H36.5625V74.5626H37.5625ZM38.3341 76.416C37.842 75.9239 37.5646 75.257 37.5625 74.5611L36.5625 74.5641C36.5654 75.5242 36.948 76.4442 37.627 77.1231L38.3341 76.416ZM40.189 77.1876C39.493 77.1855 38.8262 76.9081 38.3341 76.416L37.627 77.1231C38.3059 77.802 39.2259 78.1847 40.186 78.1876L40.189 77.1876ZM55.8125 77.1876H40.1875V78.1876H55.8125V77.1876ZM57.6659 76.416C57.1738 76.9081 56.507 77.1855 55.811 77.1876L55.814 78.1876C56.7741 78.1847 57.6941 77.802 58.373 77.1231L57.6659 76.416ZM58.4375 74.5611C58.4354 75.257 58.158 75.9239 57.6659 76.416L58.373 77.1231C59.0519 76.4442 59.4346 75.5242 59.4375 74.5641L58.4375 74.5611ZM58.4375 71.4376V74.5626H59.4375V71.4376H58.4375ZM91.75 70.9376H58.9375V71.9376H91.75V70.9376ZM92.25 76.1251V71.4376H91.25V76.1251H92.25ZM46.9375 62.0626V41.7501H45.9375V62.0626H46.9375ZM49.5625 61.5626H46.4375V62.5626H49.5625V61.5626ZM50.0625 65.1876V62.0626H49.0625V65.1876H50.0625ZM12.0625 65.6876H49.5625V64.6876H12.0625V65.6876ZM11.5625 62.0626V65.1876H12.5625V62.0626H11.5625ZM15.1875 61.5626H12.0625V62.5626H15.1875V61.5626ZM14.6875 52.6876V62.0626H15.6875V52.6876H14.6875ZM15.2916 51.2292C14.9048 51.616 14.6875 52.1406 14.6875 52.6876H15.6875C15.6875 52.4058 15.7994 52.1355 15.9987 51.9363L15.2916 51.2292ZM16.75 50.6251C16.203 50.6251 15.6784 50.8424 15.2916 51.2292L15.9987 51.9363C16.198 51.737 16.4682 51.6251 16.75 51.6251V50.6251ZM23 50.6251H16.75V51.6251H23V50.6251ZM24.4584 51.2292C24.0716 50.8424 23.547 50.6251 23 50.6251V51.6251C23.2818 51.6251 23.552 51.737 23.7513 51.9363L24.4584 51.2292ZM25.0625 52.6876C25.0625 52.1406 24.8452 51.616 24.4584 51.2292L23.7513 51.9363C23.9506 52.1355 24.0625 52.4058 24.0625 52.6876H25.0625ZM25.0625 62.0626V52.6876H24.0625V62.0626H25.0625ZM26.125 61.5626H24.5625V62.5626H26.125V61.5626ZM25.625 48.0001V62.0626H26.625V48.0001H25.625ZM26.2291 46.5417C25.8423 46.9285 25.625 47.4531 25.625 48.0001H26.625C26.625 47.7183 26.7369 47.448 26.9362 47.2488L26.2291 46.5417ZM27.6875 45.9376C27.1405 45.9376 26.6159 46.1549 26.2291 46.5417L26.9362 47.2488C27.1355 47.0495 27.4057 46.9376 27.6875 46.9376V45.9376ZM33.9375 45.9376H27.6875V46.9376H33.9375V45.9376ZM35.3959 46.5417C35.0091 46.1549 34.4845 45.9376 33.9375 45.9376V46.9376C34.2193 46.9376 34.4895 47.0495 34.6888 47.2488L35.3959 46.5417ZM36 48.0001C36 47.4531 35.7827 46.9285 35.3959 46.5417L34.6888 47.2488C34.8881 47.448 35 47.7183 35 48.0001H36ZM36 62.0626V48.0001H35V62.0626H36ZM37.0625 61.5626H35.5V62.5626H37.0625V61.5626ZM36.5625 41.7501V62.0626H37.5625V41.7501H36.5625ZM37.1666 40.2917C36.7798 40.6785 36.5625 41.2031 36.5625 41.7501H37.5625C37.5625 41.4683 37.6744 41.198 37.8737 40.9988L37.1666 40.2917ZM38.625 39.6876C38.078 39.6876 37.5534 39.9049 37.1666 40.2917L37.8737 40.9988C38.073 40.7995 38.3432 40.6876 38.625 40.6876V39.6876ZM44.875 39.6876H38.625V40.6876H44.875V39.6876ZM46.3334 40.2917C45.9466 39.9049 45.422 39.6876 44.875 39.6876V40.6876C45.1568 40.6876 45.427 40.7995 45.6263 40.9988L46.3334 40.2917ZM46.9375 41.7501C46.9375 41.2031 46.7202 40.6785 46.3334 40.2917L45.6263 40.9988C45.8256 41.198 45.9375 41.4683 45.9375 41.7501H46.9375ZM18.8125 62.0626V54.2501H17.8125V62.0626H18.8125ZM21.4375 61.5626H18.3125V62.5626H21.4375V61.5626ZM20.9375 54.2501V62.0626H21.9375V54.2501H20.9375ZM18.3125 54.7501H21.4375V53.7501H18.3125V54.7501ZM32.375 61.5626H29.25V62.5626H32.375V61.5626ZM31.875 49.5626V62.0626H32.875V49.5626H31.875ZM29.25 50.0626H32.375V49.0626H29.25V50.0626ZM29.75 62.0626V49.5626H28.75V62.0626H29.75ZM43.3125 61.5626H40.1875V62.5626H43.3125V61.5626ZM42.8125 43.3126V62.0626H43.8125V43.3126H42.8125ZM40.1875 43.8126H43.3125V42.8126H40.1875V43.8126ZM40.6875 62.0626V43.3126H39.6875V62.0626H40.6875ZM61.6457 42.71C63.6191 41.3914 65.9391 40.6876 68.3125 40.6876V39.6876C65.7413 39.6876 63.2279 40.45 61.0901 41.8785L61.6457 42.71ZM57.226 48.0954C58.1342 45.9027 59.6723 44.0285 61.6457 42.71L61.0901 41.8785C58.9523 43.3069 57.286 45.3373 56.3021 47.7127L57.226 48.0954ZM56.5431 55.0287C56.0801 52.7009 56.3177 50.2881 57.226 48.0954L56.3021 47.7127C55.3181 50.0881 55.0607 52.702 55.5623 55.2238L56.5431 55.0287ZM59.8272 61.1729C58.149 59.4946 57.0061 57.3564 56.5431 55.0287L55.5623 55.2238C56.0639 57.7455 57.302 60.0619 59.1201 61.88L59.8272 61.1729ZM65.9714 64.457C63.6437 63.994 61.5055 62.8511 59.8272 61.1729L59.1201 61.88C60.9382 63.6981 63.2546 64.9362 65.7763 65.4378L65.9714 64.457ZM72.9047 63.7741C70.712 64.6824 68.2992 64.92 65.9714 64.457L65.7763 65.4378C68.2981 65.9394 70.9119 65.682 73.2874 64.698L72.9047 63.7741ZM78.2901 59.3544C76.9716 61.3278 75.0974 62.8659 72.9047 63.7741L73.2874 64.698C75.6628 63.7141 77.6931 62.0478 79.1216 59.91L78.2901 59.3544ZM80.3125 52.6876C80.3125 55.061 79.6087 57.381 78.2901 59.3544L79.1216 59.91C80.5501 57.7722 81.3125 55.2587 81.3125 52.6876H80.3125ZM80.0013 51.9363C80.2006 52.1355 80.3125 52.4058 80.3125 52.6876H81.3125C81.3125 52.1406 81.0952 51.616 80.7084 51.2292L80.0013 51.9363ZM79.25 51.6251C79.5318 51.6251 79.802 51.737 80.0013 51.9363L80.7084 51.2292C80.3216 50.8424 79.797 50.6251 79.25 50.6251V51.6251ZM69.875 51.6251H79.25V50.6251H69.875V51.6251ZM69.375 41.7501V51.1251H70.375V41.7501H69.375ZM69.0638 40.9988C69.2631 41.1981 69.375 41.4683 69.375 41.7501H70.375C70.375 41.2031 70.1577 40.6785 69.7709 40.2917L69.0638 40.9988ZM68.3125 40.6876C68.5943 40.6876 68.8645 40.7995 69.0638 40.9988L69.7709 40.2917C69.3841 39.9049 68.8595 39.6876 68.3125 39.6876V40.6876ZM75.7722 59.1584C76.9601 57.7897 77.7484 56.1204 78.0508 54.3335L77.0648 54.1667C76.7931 55.7726 76.0846 57.2728 75.017 58.503L75.7722 59.1584ZM71.3162 62.0935C73.0427 61.5426 74.5844 60.5271 75.7722 59.1584L75.017 58.503C73.9494 59.7331 72.5639 60.6457 71.0122 61.1408L71.3162 62.0935ZM65.9836 62.2819C67.7448 62.7096 69.5896 62.6445 71.3162 62.0935L71.0122 61.1408C69.4605 61.636 67.8024 61.6946 66.2196 61.3102L65.9836 62.2819ZM61.3316 59.6685C62.6131 60.95 64.2225 61.8542 65.9836 62.2819L66.2196 61.3102C64.6369 60.9257 63.1904 60.1132 62.0387 58.9614L61.3316 59.6685ZM58.7182 55.0165C59.1459 56.7776 60.0501 58.387 61.3316 59.6685L62.0387 58.9614C60.8869 57.8097 60.0744 56.3632 59.6899 54.7805L58.7182 55.0165ZM58.9066 49.6839C58.3556 51.4105 58.2905 53.2553 58.7182 55.0165L59.6899 54.7805C59.3055 53.1977 59.3641 51.5396 59.8592 49.9879L58.9066 49.6839ZM61.8417 45.2279C60.473 46.4157 59.4575 47.9574 58.9066 49.6839L59.8592 49.9879C60.3544 48.4362 61.267 47.0507 62.4971 45.9831L61.8417 45.2279ZM66.6666 42.9493C64.8797 43.2517 63.2104 44.04 61.8417 45.2279L62.4971 45.9831C63.7273 44.9155 65.2275 44.207 66.8334 43.9353L66.6666 42.9493ZM67.25 52.6876V43.4423H66.25V52.6876H67.25ZM67.5612 53.4389C67.3619 53.2396 67.25 52.9694 67.25 52.6876H66.25C66.25 53.2346 66.4673 53.7592 66.8541 54.146L67.5612 53.4389ZM68.3125 53.7501C68.0307 53.7501 67.7605 53.6381 67.5612 53.4389L66.8541 54.146C67.2409 54.5328 67.7655 54.7501 68.3125 54.7501V53.7501ZM77.5578 53.7501H68.3125V54.7501H77.5578V53.7501ZM86 47.9995C85.9961 44.5531 84.6253 41.2488 82.1883 38.8118L81.4812 39.5189C83.7309 41.7687 84.9964 44.819 85 48.0007L86 47.9995ZM85.3959 49.4585C85.7827 49.0717 86 48.5471 86 48.0001H85C85 48.2819 84.8881 48.5521 84.6888 48.7514L85.3959 49.4585ZM83.9375 50.0626C84.4845 50.0626 85.0091 49.8453 85.3959 49.4585L84.6888 48.7514C84.4895 48.9506 84.2193 49.0626 83.9375 49.0626V50.0626ZM73 50.0626H83.9375V49.0626H73V50.0626ZM71.5416 49.4585C71.9284 49.8453 72.453 50.0626 73 50.0626V49.0626C72.7182 49.0626 72.448 48.9506 72.2487 48.7514L71.5416 49.4585ZM70.9375 48.0001C70.9375 48.5471 71.1548 49.0717 71.5416 49.4585L72.2487 48.7514C72.0494 48.5521 71.9375 48.2819 71.9375 48.0001H70.9375ZM70.9375 37.0626V48.0001H71.9375V37.0626H70.9375ZM71.5416 35.6042C71.1548 35.991 70.9375 36.5156 70.9375 37.0626H71.9375C71.9375 36.7808 72.0494 36.5105 72.2487 36.3113L71.5416 35.6042ZM73 35.0001C72.453 35.0001 71.9284 35.2174 71.5416 35.6042L72.2487 36.3113C72.448 36.112 72.7182 36.0001 73 36.0001V35.0001ZM82.1883 38.8118C79.7513 36.3748 76.447 35.004 73.0006 35.0001L72.9994 36.0001C76.1811 36.0037 79.2314 37.2692 81.4812 39.5189L82.1883 38.8118ZM75.0625 46.4376V38.7548H74.0625V46.4376H75.0625ZM82.2453 45.9376H74.5625V46.9376H82.2453V45.9376ZM79.2726 41.7275C80.5755 43.0305 81.442 44.7056 81.7525 46.5219L82.7382 46.3533C82.3928 44.333 81.4289 42.4697 79.9797 41.0204L79.2726 41.7275ZM74.4782 39.2476C76.2945 39.5581 77.9696 40.4246 79.2726 41.7275L79.9797 41.0204C78.5304 39.5711 76.6671 38.6073 74.6468 38.2619L74.4782 39.2476Z" fill="url(#paint1_linear)" mask="url(#path-1-outside-1)"/>
<defs>
<linearGradient id="paint0_linear" x1="1.61799" y1="2.88362" x2="98.3315" y2="7.37243" gradientUnits="userSpaceOnUse">
<stop stop-color="#0BB9F6"/>
<stop offset="1" stop-color="#5B6FED"/>
</linearGradient>
<linearGradient id="paint1_linear" x1="1.61799" y1="2.88362" x2="98.3315" y2="7.37243" gradientUnits="userSpaceOnUse">
<stop stop-color="#0BB9F6"/>
<stop offset="1" stop-color="#5B6FED"/>
</linearGradient>
</defs>
</svg>
