<svg width="100" height="100" viewBox="0 0 100 100" fill="none" xmlns="http://www.w3.org/2000/svg">
<mask id="path-1-outside-1" maskUnits="userSpaceOnUse" x="2.125" y="2.125" width="96" height="96" fill="black">
<rect fill="white" x="2.125" y="2.125" width="96" height="96"/>
<path fill-rule="evenodd" clip-rule="evenodd" d="M92.1875 40.625H87.4844C87.1529 40.6237 86.8305 40.517 86.5637 40.3204C86.2968 40.1238 86.0994 39.8474 86 39.5312C85.2447 36.894 84.191 34.3515 82.8594 31.9531C82.7055 31.6582 82.6498 31.3218 82.7004 30.993C82.751 30.6642 82.9052 30.3601 83.1406 30.125L86.4531 26.7969C87.3309 25.918 87.824 24.7266 87.824 23.4844C87.824 22.2422 87.3309 21.0508 86.4531 20.1719L79.8281 13.5469C78.9492 12.6691 77.7578 12.176 76.5156 12.176C75.2734 12.176 74.082 12.6691 73.2031 13.5469L69.875 16.8594C69.6399 17.0948 69.3358 17.249 69.007 17.2996C68.6782 17.3501 68.3418 17.2945 68.0469 17.1406C65.6458 15.8105 63.1041 14.7519 60.4688 13.9844C60.1523 13.8905 59.8747 13.6967 59.6775 13.432C59.4803 13.1672 59.3742 12.8457 59.375 12.5156V7.8125C59.3713 6.57044 58.8762 5.38031 57.998 4.50203C57.1197 3.62376 55.9296 3.12871 54.6875 3.125H45.3125C44.0704 3.12871 42.8803 3.62376 42.002 4.50203C41.1238 5.38031 40.6287 6.57044 40.625 7.8125V12.5156C40.6237 12.8471 40.517 13.1695 40.3204 13.4363C40.1238 13.7032 39.8474 13.9006 39.5312 14C36.894 14.7553 34.3515 15.809 31.9531 17.1406C31.6582 17.2945 31.3218 17.3501 30.993 17.2996C30.6642 17.249 30.3601 17.0948 30.125 16.8594L26.7969 13.5469C25.918 12.6691 24.7266 12.176 23.4844 12.176C22.2422 12.176 21.0508 12.6691 20.1719 13.5469L13.5469 20.1719C12.6691 21.0508 12.176 22.2422 12.176 23.4844C12.176 24.7266 12.6691 25.918 13.5469 26.7969L16.8594 30.125C17.0948 30.3601 17.249 30.6642 17.2996 30.993C17.3501 31.3218 17.2945 31.6582 17.1406 31.9531C15.8105 34.3542 14.7519 36.8959 13.9844 39.5312C13.8905 39.8477 13.6967 40.1253 13.432 40.3225C13.1672 40.5197 12.8457 40.6258 12.5156 40.625H7.8125C6.57044 40.6287 5.38031 41.1238 4.50203 42.002C3.62376 42.8803 3.12871 44.0704 3.125 45.3125V54.6875C3.12871 55.9296 3.62376 57.1197 4.50203 57.998C5.38031 58.8762 6.57044 59.3713 7.8125 59.375H12.5156C12.8471 59.3763 13.1695 59.483 13.4363 59.6796C13.7032 59.8762 13.9006 60.1526 14 60.4688C14.7553 63.106 15.809 65.6485 17.1406 68.0469C17.2945 68.3418 17.3501 68.6782 17.2996 69.007C17.249 69.3358 17.0948 69.6399 16.8594 69.875L13.5469 73.2031C13.1111 73.6377 12.7654 74.154 12.5295 74.7224C12.2935 75.2908 12.1721 75.9002 12.1721 76.5156C12.1721 77.1311 12.2935 77.7404 12.5295 78.3089C12.7654 78.8773 13.1111 79.3936 13.5469 79.8281L20.1719 86.4531C21.0508 87.3309 22.2422 87.824 23.4844 87.824C24.7266 87.824 25.918 87.3309 26.7969 86.4531L30.125 83.1406C30.3601 82.9052 30.6642 82.751 30.993 82.7004C31.3218 82.6498 31.6582 82.7055 31.9531 82.8594C34.3542 84.1895 36.8959 85.2481 39.5312 86.0156C39.8477 86.1095 40.1253 86.3033 40.3225 86.568C40.5197 86.8328 40.6258 87.1543 40.625 87.4844V92.1875C40.6287 93.4296 41.1238 94.6197 42.002 95.498C42.8803 96.3762 44.0704 96.8713 45.3125 96.875H54.6875C55.9296 96.8713 57.1197 96.3762 57.998 95.498C58.8762 94.6197 59.3713 93.4296 59.375 92.1875V87.4844C59.3763 87.1529 59.483 86.8305 59.6796 86.5637C59.8762 86.2968 60.1526 86.0994 60.4688 86C63.106 85.2447 65.6485 84.191 68.0469 82.8594C68.3418 82.7055 68.6782 82.6498 69.007 82.7004C69.3358 82.751 69.6399 82.9052 69.875 83.1406L73.2031 86.4531C74.082 87.3309 75.2734 87.824 76.5156 87.824C77.7578 87.824 78.9492 87.3309 79.8281 86.4531L86.4531 79.8281C86.8889 79.3936 87.2346 78.8773 87.4706 78.3089C87.7065 77.7404 87.8279 77.1311 87.8279 76.5156C87.8279 75.9002 87.7065 75.2908 87.4706 74.7224C87.2346 74.154 86.8889 73.6377 86.4531 73.2031L83.1406 69.875C82.9052 69.6399 82.751 69.3358 82.7004 69.007C82.6498 68.6782 82.7055 68.3418 82.8594 68.0469C84.1895 65.6458 85.2481 63.1041 86.0156 60.4688C86.1095 60.1523 86.3033 59.8747 86.568 59.6775C86.8328 59.4803 87.1543 59.3742 87.4844 59.375H92.1875C93.4296 59.3713 94.6197 58.8762 95.498 57.998C96.3762 57.1197 96.8713 55.9296 96.875 54.6875V45.3125C96.8713 44.0704 96.3762 42.8803 95.498 42.002C94.6197 41.1238 93.4296 40.6287 92.1875 40.625ZM93.75 54.6875C93.75 55.1019 93.5854 55.4993 93.2924 55.7924C92.9993 56.0854 92.6019 56.25 92.1875 56.25H87.4844C86.4768 56.2514 85.4965 56.5774 84.6888 57.1797C83.881 57.7819 83.2888 58.6285 83 59.5938C82.3074 62.0126 81.343 64.3452 80.125 66.5469C79.6474 67.4352 79.4671 68.4532 79.6105 69.4515C79.7539 70.4498 80.2135 71.3758 80.9219 72.0938L84.25 75.4062C84.5405 75.7024 84.7032 76.1008 84.7032 76.5156C84.7032 76.9305 84.5405 77.3288 84.25 77.625L77.625 84.25C77.3264 84.5358 76.929 84.6952 76.5156 84.6952C76.1023 84.6952 75.7049 84.5358 75.4062 84.25L72.0938 80.9219C71.3758 80.2135 70.4498 79.7539 69.4515 79.6105C68.4532 79.4671 67.4352 79.6474 66.5469 80.125C64.3452 81.343 62.0126 82.3074 59.5938 83C58.6285 83.2888 57.7819 83.881 57.1797 84.6888C56.5774 85.4965 56.2514 86.4768 56.25 87.4844V92.1875C56.25 92.6019 56.0854 92.9993 55.7924 93.2924C55.4993 93.5854 55.1019 93.75 54.6875 93.75H45.3125C44.8981 93.75 44.5007 93.5854 44.2076 93.2924C43.9146 92.9993 43.75 92.6019 43.75 92.1875V87.4844C43.7486 86.4768 43.4226 85.4965 42.8203 84.6888C42.2181 83.881 41.3715 83.2888 40.4062 83C37.9874 82.3074 35.6548 81.343 33.4531 80.125C32.7722 79.7549 32.0094 79.5615 31.2344 79.5625C29.9897 79.5618 28.7945 80.0499 27.9062 80.9219L24.5938 84.25C24.2951 84.5358 23.8977 84.6952 23.4844 84.6952C23.071 84.6952 22.6736 84.5358 22.375 84.25L15.75 77.625C15.4595 77.3288 15.2968 76.9305 15.2968 76.5156C15.2968 76.1008 15.4595 75.7024 15.75 75.4062L19.0781 72.0938C19.7865 71.3758 20.2461 70.4498 20.3895 69.4515C20.5329 68.4532 20.3526 67.4352 19.875 66.5469C18.657 64.3452 17.6925 62.0126 17 59.5938C16.7112 58.6285 16.119 57.7819 15.3112 57.1797C14.5035 56.5774 13.5232 56.2514 12.5156 56.25H7.8125C7.3981 56.25 7.00067 56.0854 6.70765 55.7924C6.41462 55.4993 6.25 55.1019 6.25 54.6875V45.3125C6.25 44.8981 6.41462 44.5007 6.70765 44.2076C7.00067 43.9146 7.3981 43.75 7.8125 43.75H12.5156C13.5232 43.7486 14.5035 43.4226 15.3112 42.8203C16.119 42.2181 16.7112 41.3715 17 40.4062C17.6925 37.9874 18.657 35.6548 19.875 33.4531C20.3526 32.5648 20.5329 31.5468 20.3895 30.5485C20.2461 29.5502 19.7865 28.6242 19.0781 27.9062L15.75 24.5938C15.4595 24.2976 15.2968 23.8992 15.2968 23.4844C15.2968 23.0695 15.4595 22.6712 15.75 22.375L22.375 15.75C22.6736 15.4642 23.071 15.3048 23.4844 15.3048C23.8977 15.3048 24.2951 15.4642 24.5938 15.75L27.9062 19.0781C28.6242 19.7865 29.5502 20.2461 30.5485 20.3895C31.5468 20.5329 32.5648 20.3526 33.4531 19.875C35.6548 18.657 37.9874 17.6925 40.4062 17C41.3715 16.7112 42.2181 16.119 42.8203 15.3112C43.4226 14.5035 43.7486 13.5232 43.75 12.5156V7.8125C43.75 7.3981 43.9146 7.00067 44.2076 6.70765C44.5007 6.41462 44.8981 6.25 45.3125 6.25H54.6875C55.1019 6.25 55.4993 6.41462 55.7924 6.70765C56.0854 7.00067 56.25 7.3981 56.25 7.8125V12.5156C56.2514 13.5232 56.5774 14.5035 57.1797 15.3112C57.7819 16.119 58.6285 16.7112 59.5938 17C62.0126 17.6925 64.3452 18.657 66.5469 19.875C67.4352 20.3526 68.4532 20.5329 69.4515 20.3895C70.4498 20.2461 71.3758 19.7865 72.0938 19.0781L75.4062 15.75C75.7049 15.4642 76.1023 15.3048 76.5156 15.3048C76.929 15.3048 77.3264 15.4642 77.625 15.75L84.25 22.375C84.5405 22.6712 84.7032 23.0695 84.7032 23.4844C84.7032 23.8992 84.5405 24.2976 84.25 24.5938L80.9219 27.9062C80.2135 28.6242 79.7539 29.5502 79.6105 30.5485C79.4671 31.5468 79.6474 32.5648 80.125 33.4531C81.343 35.6548 82.3074 37.9874 83 40.4062C83.2888 41.3715 83.881 42.2181 84.6888 42.8203C85.4965 43.4226 86.4768 43.7486 87.4844 43.75H92.1875C92.6019 43.75 92.9993 43.9146 93.2924 44.2076C93.5854 44.5007 93.75 44.8981 93.75 45.3125V54.6875ZM50 21.875C44.4374 21.875 38.9997 23.5245 34.3746 26.6149C29.7495 29.7053 26.1446 34.0979 24.0159 39.237C21.8872 44.3762 21.3302 50.0312 22.4154 55.4869C23.5006 60.9426 26.1793 65.954 30.1126 69.8874C34.046 73.8207 39.0574 76.4994 44.5131 77.5846C49.9688 78.6698 55.6238 78.1128 60.763 75.9841C65.9022 73.8554 70.2947 70.2505 73.3851 65.6254C76.4755 61.0003 78.125 55.5626 78.125 50C78.1138 42.5442 75.1471 35.397 69.8751 30.1249C64.603 24.8529 57.4558 21.8862 50 21.875ZM50 75C45.0555 75 40.222 73.5338 36.1108 70.7867C31.9995 68.0397 28.7952 64.1352 26.903 59.5671C25.0108 54.9989 24.5158 49.9723 25.4804 45.1227C26.445 40.2732 28.826 35.8186 32.3223 32.3223C35.8187 28.826 40.2732 26.445 45.1228 25.4804C49.9723 24.5157 54.9989 25.0108 59.5671 26.903C64.1353 28.7952 68.0397 31.9995 70.7867 36.1107C73.5338 40.222 75 45.0555 75 50C74.9913 56.6277 72.3546 62.9815 67.6681 67.6681C62.9816 72.3546 56.6278 74.9913 50 75ZM64.0625 42.1875H65.625C66.8682 42.1875 68.0605 42.6814 68.9396 43.5605C69.8186 44.4396 70.3125 45.6318 70.3125 46.875C70.3125 48.1182 69.8186 49.3105 68.9396 50.1896C68.0605 51.0687 66.8682 51.5625 65.625 51.5625H64.0625V59.375C64.0625 59.7894 63.8979 60.1869 63.6049 60.4799C63.3118 60.7729 62.9144 60.9375 62.5 60.9375C62.3019 60.9406 62.1052 60.9034 61.9219 60.8282L46.5781 54.6875H45.125L43.7344 65.8125C43.6886 66.191 43.5061 66.5396 43.2212 66.7929C42.9363 67.0461 42.5687 67.1865 42.1875 67.1875H35.9375C35.5231 67.1875 35.1257 67.0229 34.8326 66.7299C34.5396 66.4369 34.375 66.0394 34.375 65.625V52.6875L30.75 51.4844C30.4414 51.3768 30.1737 51.1764 29.9835 50.9106C29.7933 50.6449 29.6899 50.3268 29.6875 50V43.75C29.6899 43.4233 29.7933 43.1052 29.9835 42.8395C30.1737 42.5737 30.4414 42.3733 30.75 42.2657L34.375 41.0625V40.625C34.375 40.2106 34.5396 39.8132 34.8326 39.5202C35.1257 39.2272 35.5231 39.0625 35.9375 39.0625H46.5781L61.9219 32.9219C62.159 32.8275 62.4157 32.7926 62.6695 32.8203C62.9233 32.8479 63.1664 32.9374 63.3776 33.0808C63.5888 33.2241 63.7616 33.4171 63.881 33.6427C64.0004 33.8683 64.0627 34.1198 64.0625 34.375V42.1875ZM32.8125 48.875L34.375 49.3907V44.3594L32.8125 44.875V48.875ZM37.5 64.0625H40.8125L41.9844 54.6875H37.5V64.0625ZM37.5 51.5625H45.3125V42.1875H37.5V51.5625ZM48.4375 52.0625L60.9375 57.0625V36.6875L48.4375 41.6875V52.0625ZM64.0625 48.4375H65.625C66.0394 48.4375 66.4368 48.2729 66.7299 47.9799C67.0229 47.6869 67.1875 47.2894 67.1875 46.875C67.1875 46.4606 67.0229 46.0632 66.7299 45.7702C66.4368 45.4772 66.0394 45.3125 65.625 45.3125H64.0625V48.4375Z"/>
</mask>
<path fill-rule="evenodd" clip-rule="evenodd" d="M92.1875 40.625H87.4844C87.1529 40.6237 86.8305 40.517 86.5637 40.3204C86.2968 40.1238 86.0994 39.8474 86 39.5312C85.2447 36.894 84.191 34.3515 82.8594 31.9531C82.7055 31.6582 82.6498 31.3218 82.7004 30.993C82.751 30.6642 82.9052 30.3601 83.1406 30.125L86.4531 26.7969C87.3309 25.918 87.824 24.7266 87.824 23.4844C87.824 22.2422 87.3309 21.0508 86.4531 20.1719L79.8281 13.5469C78.9492 12.6691 77.7578 12.176 76.5156 12.176C75.2734 12.176 74.082 12.6691 73.2031 13.5469L69.875 16.8594C69.6399 17.0948 69.3358 17.249 69.007 17.2996C68.6782 17.3501 68.3418 17.2945 68.0469 17.1406C65.6458 15.8105 63.1041 14.7519 60.4688 13.9844C60.1523 13.8905 59.8747 13.6967 59.6775 13.432C59.4803 13.1672 59.3742 12.8457 59.375 12.5156V7.8125C59.3713 6.57044 58.8762 5.38031 57.998 4.50203C57.1197 3.62376 55.9296 3.12871 54.6875 3.125H45.3125C44.0704 3.12871 42.8803 3.62376 42.002 4.50203C41.1238 5.38031 40.6287 6.57044 40.625 7.8125V12.5156C40.6237 12.8471 40.517 13.1695 40.3204 13.4363C40.1238 13.7032 39.8474 13.9006 39.5312 14C36.894 14.7553 34.3515 15.809 31.9531 17.1406C31.6582 17.2945 31.3218 17.3501 30.993 17.2996C30.6642 17.249 30.3601 17.0948 30.125 16.8594L26.7969 13.5469C25.918 12.6691 24.7266 12.176 23.4844 12.176C22.2422 12.176 21.0508 12.6691 20.1719 13.5469L13.5469 20.1719C12.6691 21.0508 12.176 22.2422 12.176 23.4844C12.176 24.7266 12.6691 25.918 13.5469 26.7969L16.8594 30.125C17.0948 30.3601 17.249 30.6642 17.2996 30.993C17.3501 31.3218 17.2945 31.6582 17.1406 31.9531C15.8105 34.3542 14.7519 36.8959 13.9844 39.5312C13.8905 39.8477 13.6967 40.1253 13.432 40.3225C13.1672 40.5197 12.8457 40.6258 12.5156 40.625H7.8125C6.57044 40.6287 5.38031 41.1238 4.50203 42.002C3.62376 42.8803 3.12871 44.0704 3.125 45.3125V54.6875C3.12871 55.9296 3.62376 57.1197 4.50203 57.998C5.38031 58.8762 6.57044 59.3713 7.8125 59.375H12.5156C12.8471 59.3763 13.1695 59.483 13.4363 59.6796C13.7032 59.8762 13.9006 60.1526 14 60.4688C14.7553 63.106 15.809 65.6485 17.1406 68.0469C17.2945 68.3418 17.3501 68.6782 17.2996 69.007C17.249 69.3358 17.0948 69.6399 16.8594 69.875L13.5469 73.2031C13.1111 73.6377 12.7654 74.154 12.5295 74.7224C12.2935 75.2908 12.1721 75.9002 12.1721 76.5156C12.1721 77.1311 12.2935 77.7404 12.5295 78.3089C12.7654 78.8773 13.1111 79.3936 13.5469 79.8281L20.1719 86.4531C21.0508 87.3309 22.2422 87.824 23.4844 87.824C24.7266 87.824 25.918 87.3309 26.7969 86.4531L30.125 83.1406C30.3601 82.9052 30.6642 82.751 30.993 82.7004C31.3218 82.6498 31.6582 82.7055 31.9531 82.8594C34.3542 84.1895 36.8959 85.2481 39.5312 86.0156C39.8477 86.1095 40.1253 86.3033 40.3225 86.568C40.5197 86.8328 40.6258 87.1543 40.625 87.4844V92.1875C40.6287 93.4296 41.1238 94.6197 42.002 95.498C42.8803 96.3762 44.0704 96.8713 45.3125 96.875H54.6875C55.9296 96.8713 57.1197 96.3762 57.998 95.498C58.8762 94.6197 59.3713 93.4296 59.375 92.1875V87.4844C59.3763 87.1529 59.483 86.8305 59.6796 86.5637C59.8762 86.2968 60.1526 86.0994 60.4688 86C63.106 85.2447 65.6485 84.191 68.0469 82.8594C68.3418 82.7055 68.6782 82.6498 69.007 82.7004C69.3358 82.751 69.6399 82.9052 69.875 83.1406L73.2031 86.4531C74.082 87.3309 75.2734 87.824 76.5156 87.824C77.7578 87.824 78.9492 87.3309 79.8281 86.4531L86.4531 79.8281C86.8889 79.3936 87.2346 78.8773 87.4706 78.3089C87.7065 77.7404 87.8279 77.1311 87.8279 76.5156C87.8279 75.9002 87.7065 75.2908 87.4706 74.7224C87.2346 74.154 86.8889 73.6377 86.4531 73.2031L83.1406 69.875C82.9052 69.6399 82.751 69.3358 82.7004 69.007C82.6498 68.6782 82.7055 68.3418 82.8594 68.0469C84.1895 65.6458 85.2481 63.1041 86.0156 60.4688C86.1095 60.1523 86.3033 59.8747 86.568 59.6775C86.8328 59.4803 87.1543 59.3742 87.4844 59.375H92.1875C93.4296 59.3713 94.6197 58.8762 95.498 57.998C96.3762 57.1197 96.8713 55.9296 96.875 54.6875V45.3125C96.8713 44.0704 96.3762 42.8803 95.498 42.002C94.6197 41.1238 93.4296 40.6287 92.1875 40.625ZM93.75 54.6875C93.75 55.1019 93.5854 55.4993 93.2924 55.7924C92.9993 56.0854 92.6019 56.25 92.1875 56.25H87.4844C86.4768 56.2514 85.4965 56.5774 84.6888 57.1797C83.881 57.7819 83.2888 58.6285 83 59.5938C82.3074 62.0126 81.343 64.3452 80.125 66.5469C79.6474 67.4352 79.4671 68.4532 79.6105 69.4515C79.7539 70.4498 80.2135 71.3758 80.9219 72.0938L84.25 75.4062C84.5405 75.7024 84.7032 76.1008 84.7032 76.5156C84.7032 76.9305 84.5405 77.3288 84.25 77.625L77.625 84.25C77.3264 84.5358 76.929 84.6952 76.5156 84.6952C76.1023 84.6952 75.7049 84.5358 75.4062 84.25L72.0938 80.9219C71.3758 80.2135 70.4498 79.7539 69.4515 79.6105C68.4532 79.4671 67.4352 79.6474 66.5469 80.125C64.3452 81.343 62.0126 82.3074 59.5938 83C58.6285 83.2888 57.7819 83.881 57.1797 84.6888C56.5774 85.4965 56.2514 86.4768 56.25 87.4844V92.1875C56.25 92.6019 56.0854 92.9993 55.7924 93.2924C55.4993 93.5854 55.1019 93.75 54.6875 93.75H45.3125C44.8981 93.75 44.5007 93.5854 44.2076 93.2924C43.9146 92.9993 43.75 92.6019 43.75 92.1875V87.4844C43.7486 86.4768 43.4226 85.4965 42.8203 84.6888C42.2181 83.881 41.3715 83.2888 40.4062 83C37.9874 82.3074 35.6548 81.343 33.4531 80.125C32.7722 79.7549 32.0094 79.5615 31.2344 79.5625C29.9897 79.5618 28.7945 80.0499 27.9062 80.9219L24.5938 84.25C24.2951 84.5358 23.8977 84.6952 23.4844 84.6952C23.071 84.6952 22.6736 84.5358 22.375 84.25L15.75 77.625C15.4595 77.3288 15.2968 76.9305 15.2968 76.5156C15.2968 76.1008 15.4595 75.7024 15.75 75.4062L19.0781 72.0938C19.7865 71.3758 20.2461 70.4498 20.3895 69.4515C20.5329 68.4532 20.3526 67.4352 19.875 66.5469C18.657 64.3452 17.6925 62.0126 17 59.5938C16.7112 58.6285 16.119 57.7819 15.3112 57.1797C14.5035 56.5774 13.5232 56.2514 12.5156 56.25H7.8125C7.3981 56.25 7.00067 56.0854 6.70765 55.7924C6.41462 55.4993 6.25 55.1019 6.25 54.6875V45.3125C6.25 44.8981 6.41462 44.5007 6.70765 44.2076C7.00067 43.9146 7.3981 43.75 7.8125 43.75H12.5156C13.5232 43.7486 14.5035 43.4226 15.3112 42.8203C16.119 42.2181 16.7112 41.3715 17 40.4062C17.6925 37.9874 18.657 35.6548 19.875 33.4531C20.3526 32.5648 20.5329 31.5468 20.3895 30.5485C20.2461 29.5502 19.7865 28.6242 19.0781 27.9062L15.75 24.5938C15.4595 24.2976 15.2968 23.8992 15.2968 23.4844C15.2968 23.0695 15.4595 22.6712 15.75 22.375L22.375 15.75C22.6736 15.4642 23.071 15.3048 23.4844 15.3048C23.8977 15.3048 24.2951 15.4642 24.5938 15.75L27.9062 19.0781C28.6242 19.7865 29.5502 20.2461 30.5485 20.3895C31.5468 20.5329 32.5648 20.3526 33.4531 19.875C35.6548 18.657 37.9874 17.6925 40.4062 17C41.3715 16.7112 42.2181 16.119 42.8203 15.3112C43.4226 14.5035 43.7486 13.5232 43.75 12.5156V7.8125C43.75 7.3981 43.9146 7.00067 44.2076 6.70765C44.5007 6.41462 44.8981 6.25 45.3125 6.25H54.6875C55.1019 6.25 55.4993 6.41462 55.7924 6.70765C56.0854 7.00067 56.25 7.3981 56.25 7.8125V12.5156C56.2514 13.5232 56.5774 14.5035 57.1797 15.3112C57.7819 16.119 58.6285 16.7112 59.5938 17C62.0126 17.6925 64.3452 18.657 66.5469 19.875C67.4352 20.3526 68.4532 20.5329 69.4515 20.3895C70.4498 20.2461 71.3758 19.7865 72.0938 19.0781L75.4062 15.75C75.7049 15.4642 76.1023 15.3048 76.5156 15.3048C76.929 15.3048 77.3264 15.4642 77.625 15.75L84.25 22.375C84.5405 22.6712 84.7032 23.0695 84.7032 23.4844C84.7032 23.8992 84.5405 24.2976 84.25 24.5938L80.9219 27.9062C80.2135 28.6242 79.7539 29.5502 79.6105 30.5485C79.4671 31.5468 79.6474 32.5648 80.125 33.4531C81.343 35.6548 82.3074 37.9874 83 40.4062C83.2888 41.3715 83.881 42.2181 84.6888 42.8203C85.4965 43.4226 86.4768 43.7486 87.4844 43.75H92.1875C92.6019 43.75 92.9993 43.9146 93.2924 44.2076C93.5854 44.5007 93.75 44.8981 93.75 45.3125V54.6875ZM50 21.875C44.4374 21.875 38.9997 23.5245 34.3746 26.6149C29.7495 29.7053 26.1446 34.0979 24.0159 39.237C21.8872 44.3762 21.3302 50.0312 22.4154 55.4869C23.5006 60.9426 26.1793 65.954 30.1126 69.8874C34.046 73.8207 39.0574 76.4994 44.5131 77.5846C49.9688 78.6698 55.6238 78.1128 60.763 75.9841C65.9022 73.8554 70.2947 70.2505 73.3851 65.6254C76.4755 61.0003 78.125 55.5626 78.125 50C78.1138 42.5442 75.1471 35.397 69.8751 30.1249C64.603 24.8529 57.4558 21.8862 50 21.875ZM50 75C45.0555 75 40.222 73.5338 36.1108 70.7867C31.9995 68.0397 28.7952 64.1352 26.903 59.5671C25.0108 54.9989 24.5158 49.9723 25.4804 45.1227C26.445 40.2732 28.826 35.8186 32.3223 32.3223C35.8187 28.826 40.2732 26.445 45.1228 25.4804C49.9723 24.5157 54.9989 25.0108 59.5671 26.903C64.1353 28.7952 68.0397 31.9995 70.7867 36.1107C73.5338 40.222 75 45.0555 75 50C74.9913 56.6277 72.3546 62.9815 67.6681 67.6681C62.9816 72.3546 56.6278 74.9913 50 75ZM64.0625 42.1875H65.625C66.8682 42.1875 68.0605 42.6814 68.9396 43.5605C69.8186 44.4396 70.3125 45.6318 70.3125 46.875C70.3125 48.1182 69.8186 49.3105 68.9396 50.1896C68.0605 51.0687 66.8682 51.5625 65.625 51.5625H64.0625V59.375C64.0625 59.7894 63.8979 60.1869 63.6049 60.4799C63.3118 60.7729 62.9144 60.9375 62.5 60.9375C62.3019 60.9406 62.1052 60.9034 61.9219 60.8282L46.5781 54.6875H45.125L43.7344 65.8125C43.6886 66.191 43.5061 66.5396 43.2212 66.7929C42.9363 67.0461 42.5687 67.1865 42.1875 67.1875H35.9375C35.5231 67.1875 35.1257 67.0229 34.8326 66.7299C34.5396 66.4369 34.375 66.0394 34.375 65.625V52.6875L30.75 51.4844C30.4414 51.3768 30.1737 51.1764 29.9835 50.9106C29.7933 50.6449 29.6899 50.3268 29.6875 50V43.75C29.6899 43.4233 29.7933 43.1052 29.9835 42.8395C30.1737 42.5737 30.4414 42.3733 30.75 42.2657L34.375 41.0625V40.625C34.375 40.2106 34.5396 39.8132 34.8326 39.5202C35.1257 39.2272 35.5231 39.0625 35.9375 39.0625H46.5781L61.9219 32.9219C62.159 32.8275 62.4157 32.7926 62.6695 32.8203C62.9233 32.8479 63.1664 32.9374 63.3776 33.0808C63.5888 33.2241 63.7616 33.4171 63.881 33.6427C64.0004 33.8683 64.0627 34.1198 64.0625 34.375V42.1875ZM32.8125 48.875L34.375 49.3907V44.3594L32.8125 44.875V48.875ZM37.5 64.0625H40.8125L41.9844 54.6875H37.5V64.0625ZM37.5 51.5625H45.3125V42.1875H37.5V51.5625ZM48.4375 52.0625L60.9375 57.0625V36.6875L48.4375 41.6875V52.0625ZM64.0625 48.4375H65.625C66.0394 48.4375 66.4368 48.2729 66.7299 47.9799C67.0229 47.6869 67.1875 47.2894 67.1875 46.875C67.1875 46.4606 67.0229 46.0632 66.7299 45.7702C66.4368 45.4772 66.0394 45.3125 65.625 45.3125H64.0625V48.4375Z" fill="url(#paint0_linear)"/>
<path d="M87.4844 40.625L87.4824 41.125H87.4844V40.625ZM92.1875 40.625L92.189 40.125H92.1875V40.625ZM86 39.5312L85.5192 39.669L85.523 39.6813L86 39.5312ZM82.8594 31.9531L82.4159 32.1844L82.4222 32.1958L82.8594 31.9531ZM82.7004 30.993L83.1946 31.069V31.069L82.7004 30.993ZM83.1406 30.125L83.4939 30.4788L83.495 30.4777L83.1406 30.125ZM86.4531 26.7969L86.0993 26.4435L86.0987 26.4442L86.4531 26.7969ZM86.4531 20.1719L86.8069 19.8185L86.8067 19.8183L86.4531 20.1719ZM79.8281 13.5469L80.1817 13.1933L80.1815 13.1931L79.8281 13.5469ZM73.2031 13.5469L73.5558 13.9013L73.5565 13.9006L73.2031 13.5469ZM69.875 16.8594L69.5223 16.505L69.5212 16.5061L69.875 16.8594ZM69.007 17.2996L68.931 16.8054V16.8054L69.007 17.2996ZM68.0469 17.1406L67.8045 17.5781L67.8157 17.584L68.0469 17.1406ZM60.4688 13.9844L60.3266 14.4638L60.3289 14.4644L60.4688 13.9844ZM59.6775 13.432L59.2765 13.7306V13.7306L59.6775 13.432ZM59.375 12.5156L59.875 12.5168V12.5156H59.375ZM59.375 7.8125H59.875L59.875 7.81101L59.375 7.8125ZM57.998 4.50203L58.3515 4.14848V4.14848L57.998 4.50203ZM54.6875 3.125L54.689 2.625H54.6875V3.125ZM45.3125 3.125V2.625L45.311 2.625L45.3125 3.125ZM42.002 4.50203L41.6485 4.14848V4.14848L42.002 4.50203ZM40.625 7.8125L40.125 7.81101V7.8125H40.625ZM40.625 12.5156L41.125 12.5176V12.5156H40.625ZM40.3204 13.4363L39.9179 13.1397V13.1397L40.3204 13.4363ZM39.5312 14L39.669 14.4808L39.6812 14.477L39.5312 14ZM31.9531 17.1406L32.1844 17.5841L32.1958 17.5778L31.9531 17.1406ZM30.993 17.2996L30.9169 17.7937V17.7937L30.993 17.2996ZM30.125 16.8594L30.4788 16.506L30.4777 16.505L30.125 16.8594ZM26.7969 13.5469L26.4435 13.9006L26.4442 13.9013L26.7969 13.5469ZM20.1719 13.5469L19.8185 13.1931L19.8183 13.1933L20.1719 13.5469ZM13.5469 20.1719L13.1933 19.8183L13.1931 19.8185L13.5469 20.1719ZM13.5469 26.7969L13.9013 26.4442L13.9006 26.4435L13.5469 26.7969ZM16.8594 30.125L16.505 30.4777L16.506 30.4788L16.8594 30.125ZM17.2996 30.993L17.7937 30.9169H17.7937L17.2996 30.993ZM17.1406 31.9531L17.5781 32.1955L17.584 32.1843L17.1406 31.9531ZM13.9844 39.5312L14.4638 39.6734L14.4644 39.6711L13.9844 39.5312ZM13.432 40.3225L13.7306 40.7235H13.7306L13.432 40.3225ZM12.5156 40.625L12.5168 40.125H12.5156V40.625ZM7.8125 40.625V40.125L7.81101 40.125L7.8125 40.625ZM4.50203 42.002L4.14848 41.6485H4.14848L4.50203 42.002ZM3.125 45.3125L2.625 45.311V45.3125H3.125ZM3.125 54.6875H2.625L2.625 54.689L3.125 54.6875ZM4.50203 57.998L4.14848 58.3515H4.14848L4.50203 57.998ZM7.8125 59.375L7.81101 59.875H7.8125V59.375ZM12.5156 59.375L12.5176 58.875H12.5156V59.375ZM13.4363 59.6796L13.1397 60.0821H13.1397L13.4363 59.6796ZM14 60.4688L14.4808 60.331L14.477 60.3188L14 60.4688ZM17.1406 68.0469L17.5841 67.8156L17.5778 67.8042L17.1406 68.0469ZM17.2996 69.007L16.8054 68.931H16.8054L17.2996 69.007ZM16.8594 69.875L16.506 69.5212L16.505 69.5223L16.8594 69.875ZM13.5469 73.2031L13.8999 73.5572L13.9013 73.5558L13.5469 73.2031ZM12.5295 78.3089L12.0676 78.5005L12.0676 78.5005L12.5295 78.3089ZM13.5469 79.8281L13.9004 79.4746L13.8999 79.4741L13.5469 79.8281ZM20.1719 86.4531L19.8183 86.8067L19.8185 86.8069L20.1719 86.4531ZM26.7969 86.4531L26.4442 86.0987L26.4435 86.0993L26.7969 86.4531ZM30.125 83.1406L30.4777 83.495L30.4788 83.4939L30.125 83.1406ZM30.993 82.7004L31.069 83.1946H31.069L30.993 82.7004ZM31.9531 82.8594L32.1955 82.4219L32.1844 82.4161L31.9531 82.8594ZM39.5312 86.0156L39.6734 85.5362L39.6711 85.5356L39.5312 86.0156ZM40.625 87.4844L40.125 87.4832V87.4844H40.625ZM40.625 92.1875H40.125L40.125 92.189L40.625 92.1875ZM42.002 95.498L42.3556 95.1444L42.002 95.498ZM45.3125 96.875L45.311 97.375H45.3125V96.875ZM54.6875 96.875V97.375H54.689L54.6875 96.875ZM57.998 95.498L57.6444 95.1444L57.998 95.498ZM59.375 92.1875L59.875 92.189V92.1875H59.375ZM59.375 87.4844L58.875 87.4824V87.4844H59.375ZM60.4688 86L60.331 85.5192L60.3187 85.523L60.4688 86ZM68.0469 82.8594L67.8156 82.4159L67.8042 82.4222L68.0469 82.8594ZM69.007 82.7004L68.931 83.1946H68.931L69.007 82.7004ZM69.875 83.1406L69.5212 83.4939L69.5223 83.495L69.875 83.1406ZM73.2031 86.4531L73.5565 86.0993L73.5558 86.0987L73.2031 86.4531ZM79.8281 86.4531L80.1815 86.8069L80.1817 86.8067L79.8281 86.4531ZM86.4531 79.8281L86.1001 79.4741L86.0996 79.4746L86.4531 79.8281ZM87.4706 78.3089L87.9324 78.5005V78.5005L87.4706 78.3089ZM86.4531 73.2031L86.0987 73.5558L86.1001 73.5572L86.4531 73.2031ZM83.1406 69.875L83.495 69.5223L83.4939 69.5212L83.1406 69.875ZM82.7004 69.007L83.1946 68.931V68.931L82.7004 69.007ZM82.8594 68.0469L82.4219 67.8045L82.4161 67.8157L82.8594 68.0469ZM86.0156 60.4688L85.5362 60.3266L85.5356 60.3289L86.0156 60.4688ZM87.4844 59.375L87.4832 59.875H87.4844V59.375ZM92.1875 59.375V59.875L92.189 59.875L92.1875 59.375ZM95.498 57.998L95.1444 57.6444L95.498 57.998ZM96.875 54.6875L97.375 54.689V54.6875H96.875ZM96.875 45.3125H97.375V45.311L96.875 45.3125ZM95.498 42.002L95.1444 42.3556L95.498 42.002ZM93.2924 55.7924L93.6459 56.1459V56.1459L93.2924 55.7924ZM87.4844 56.25V55.75H87.4837L87.4844 56.25ZM83 59.5938L82.521 59.4504L82.5193 59.4561L83 59.5938ZM80.125 66.5469L79.6875 66.3048L79.6846 66.3101L80.125 66.5469ZM79.6105 69.4515L80.1054 69.3804L79.6105 69.4515ZM80.9219 72.0938L80.5659 72.4449L80.5692 72.4481L80.9219 72.0938ZM84.25 75.4062L84.607 75.0561L84.6027 75.0519L84.25 75.4062ZM84.25 77.625L84.6036 77.9786L84.607 77.9751L84.25 77.625ZM77.625 84.25L77.9708 84.6114L77.9786 84.6036L77.625 84.25ZM75.4062 84.25L75.0518 84.6028L75.0606 84.6113L75.4062 84.25ZM72.0938 80.9219L72.4482 80.5691L72.4449 80.566L72.0938 80.9219ZM69.4515 79.6105L69.3804 80.1054L69.4515 79.6105ZM66.5469 80.125L66.3101 79.6846L66.3048 79.6875L66.5469 80.125ZM59.5938 83L59.4561 82.5193L59.4504 82.521L59.5938 83ZM56.25 87.4844L55.75 87.4837V87.4844H56.25ZM55.7924 93.2924L56.1459 93.6459H56.1459L55.7924 93.2924ZM44.2076 93.2924L43.8541 93.6459H43.8541L44.2076 93.2924ZM43.75 87.4844H44.25V87.4837L43.75 87.4844ZM40.4062 83L40.5496 82.521L40.5439 82.5193L40.4062 83ZM33.4531 80.125L33.6952 79.6875L33.6919 79.6857L33.4531 80.125ZM31.2344 79.5625L31.2341 80.0625H31.235L31.2344 79.5625ZM27.9062 80.9219L27.556 80.565L27.5519 80.5692L27.9062 80.9219ZM24.5938 84.25L24.9395 84.6114L24.9481 84.6027L24.5938 84.25ZM22.375 84.25L22.0214 84.6036L22.0293 84.6113L22.375 84.25ZM15.75 77.625L15.393 77.9751L15.3964 77.9786L15.75 77.625ZM15.75 75.4062L15.3973 75.0518L15.393 75.0561L15.75 75.4062ZM19.0781 72.0938L19.4309 72.4482L19.434 72.4449L19.0781 72.0938ZM20.3895 69.4515L19.8946 69.3804L20.3895 69.4515ZM19.875 66.5469L20.3154 66.3101L20.3125 66.3048L19.875 66.5469ZM17 59.5938L17.4807 59.4561L17.479 59.4504L17 59.5938ZM12.5156 56.25L12.5163 55.75H12.5156V56.25ZM6.70765 55.7924L6.35409 56.1459H6.35409L6.70765 55.7924ZM6.70765 44.2076L6.35409 43.8541H6.35409L6.70765 44.2076ZM12.5156 43.75V44.25H12.5163L12.5156 43.75ZM17 40.4062L17.479 40.5496L17.4807 40.5439L17 40.4062ZM19.875 33.4531L20.3125 33.6952L20.3154 33.6899L19.875 33.4531ZM20.3895 30.5485L19.8946 30.6196V30.6196L20.3895 30.5485ZM19.0781 27.9062L19.4341 27.5551L19.4308 27.5519L19.0781 27.9062ZM15.75 24.5938L15.393 24.9439L15.3973 24.9481L15.75 24.5938ZM15.75 22.375L15.3964 22.0214L15.393 22.0249L15.75 22.375ZM22.375 15.75L22.0292 15.3886L22.0214 15.3964L22.375 15.75ZM24.5938 15.75L24.9482 15.3972L24.9394 15.3887L24.5938 15.75ZM27.9062 19.0781L27.5519 19.4309L27.5551 19.434L27.9062 19.0781ZM30.5485 20.3895L30.6196 19.8946H30.6196L30.5485 20.3895ZM33.4531 19.875L33.6899 20.3154L33.6952 20.3125L33.4531 19.875ZM40.4062 17L40.5439 17.4807L40.5496 17.479L40.4062 17ZM43.75 12.5156L44.25 12.5163V12.5156H43.75ZM44.2076 6.70765L43.8541 6.35409V6.35409L44.2076 6.70765ZM55.7924 6.70765L56.1459 6.35409V6.35409L55.7924 6.70765ZM56.25 12.5156H55.75V12.5163L56.25 12.5156ZM59.5938 17L59.4504 17.479L59.4561 17.4807L59.5938 17ZM66.5469 19.875L66.3048 20.3125L66.3101 20.3154L66.5469 19.875ZM69.4515 20.3895L69.3804 19.8946L69.4515 20.3895ZM72.0938 19.0781L72.4449 19.4341L72.4481 19.4308L72.0938 19.0781ZM75.4062 15.75L75.0605 15.3886L75.0519 15.3973L75.4062 15.75ZM77.625 15.75L77.9786 15.3964L77.9707 15.3887L77.625 15.75ZM84.25 22.375L84.607 22.0249L84.6036 22.0214L84.25 22.375ZM84.25 24.5938L84.6027 24.9482L84.607 24.9438L84.25 24.5938ZM80.9219 27.9062L80.5691 27.5519L80.566 27.5551L80.9219 27.9062ZM79.6105 30.5485L80.1054 30.6196L79.6105 30.5485ZM80.125 33.4531L79.6846 33.6899L79.6875 33.6952L80.125 33.4531ZM83 40.4062L82.5193 40.5439L82.521 40.5496L83 40.4062ZM87.4844 43.75L87.4837 44.25H87.4844V43.75ZM93.2924 44.2076L93.6459 43.8541V43.8541L93.2924 44.2076ZM34.3746 26.6149L34.6524 27.0307L34.3746 26.6149ZM50 21.875L50.0008 21.375H50V21.875ZM24.0159 39.237L23.554 39.0457L24.0159 39.237ZM30.1126 69.8874L29.7591 70.2409L30.1126 69.8874ZM44.5131 77.5846L44.4156 78.075L44.5131 77.5846ZM78.125 50H78.625V49.9992L78.125 50ZM69.8751 30.1249L69.5215 30.4785L69.8751 30.1249ZM50 75V75.5H50.0007L50 75ZM32.3223 32.3223L31.9688 31.9688L32.3223 32.3223ZM45.1228 25.4804L45.0252 24.99L45.1228 25.4804ZM59.5671 26.903L59.7584 26.4411V26.4411L59.5671 26.903ZM70.7867 36.1107L70.371 36.3885L70.7867 36.1107ZM75 50L75.5 50.0007V50H75ZM67.6681 67.6681L68.0216 68.0216L67.6681 67.6681ZM64.0625 42.1875H63.5625V42.6875H64.0625V42.1875ZM68.9396 43.5605L68.586 43.914L68.9396 43.5605ZM68.9396 50.1896L68.586 49.836L68.9396 50.1896ZM64.0625 51.5625V51.0625H63.5625V51.5625H64.0625ZM62.5 60.9375V60.4375L62.4923 60.4376L62.5 60.9375ZM61.9219 60.8282L62.1116 60.3656L62.1077 60.364L61.9219 60.8282ZM46.5781 54.6875L46.7639 54.2233L46.6745 54.1875H46.5781V54.6875ZM45.125 54.6875V54.1875H44.6836L44.6289 54.6255L45.125 54.6875ZM43.7344 65.8125L43.2382 65.7505L43.238 65.7525L43.7344 65.8125ZM42.1875 67.1875V67.6875H42.1889L42.1875 67.1875ZM34.8326 66.7299L35.1862 66.3763L35.1862 66.3763L34.8326 66.7299ZM34.375 52.6875H34.875V52.3267L34.5325 52.213L34.375 52.6875ZM30.75 51.4844L30.5853 51.9566L30.5925 51.959L30.75 51.4844ZM29.9835 50.9106L29.5769 51.2017L29.5769 51.2017L29.9835 50.9106ZM29.6875 50H29.1875L29.1875 50.0037L29.6875 50ZM29.6875 43.75L29.1875 43.7464V43.75H29.6875ZM29.9835 42.8395L29.5769 42.5484H29.5769L29.9835 42.8395ZM30.75 42.2657L30.5925 41.7911L30.5853 41.7936L30.75 42.2657ZM34.375 41.0625L34.5325 41.5371L34.875 41.4234V41.0625H34.375ZM46.5781 39.0625V39.5625H46.6745L46.7639 39.5268L46.5781 39.0625ZM61.9219 32.9219L61.7369 32.4574L61.7361 32.4577L61.9219 32.9219ZM62.6695 32.8203L62.7237 32.3232L62.6695 32.8203ZM63.3776 33.0808L63.6584 32.6671L63.6584 32.6671L63.3776 33.0808ZM64.0625 34.375L63.5625 34.3746V34.375H64.0625ZM34.375 49.3907L34.2183 49.8655L34.875 50.0822V49.3907H34.375ZM32.8125 48.875H32.3125V49.2366L32.6558 49.3499L32.8125 48.875ZM34.375 44.3594H34.875V43.6679L34.2183 43.8846L34.375 44.3594ZM32.8125 44.875L32.6558 44.4002L32.3125 44.5135V44.875H32.8125ZM40.8125 64.0625V64.5625H41.2539L41.3086 64.1246L40.8125 64.0625ZM37.5 64.0625H37V64.5625H37.5V64.0625ZM41.9844 54.6875L42.4805 54.7496L42.5508 54.1875H41.9844V54.6875ZM37.5 54.6875V54.1875H37V54.6875H37.5ZM45.3125 51.5625V52.0625H45.8125V51.5625H45.3125ZM37.5 51.5625H37V52.0625H37.5V51.5625ZM45.3125 42.1875H45.8125V41.6875H45.3125V42.1875ZM37.5 42.1875V41.6875H37V42.1875H37.5ZM60.9375 57.0625L60.7518 57.5268L61.4375 57.8011V57.0625H60.9375ZM48.4375 52.0625H47.9375V52.4011L48.2518 52.5268L48.4375 52.0625ZM60.9375 36.6875H61.4375V35.949L60.7518 36.2233L60.9375 36.6875ZM48.4375 41.6875L48.2518 41.2233L47.9375 41.349V41.6875H48.4375ZM64.0625 48.4375H63.5625V48.9375H64.0625V48.4375ZM66.7299 47.9799L67.0834 48.3335L67.0834 48.3335L66.7299 47.9799ZM64.0625 45.3125V44.8125H63.5625V45.3125H64.0625ZM87.4844 41.125H92.1875V40.125H87.4844V41.125ZM86.2671 40.7229C86.6193 40.9825 87.0449 41.1233 87.4824 41.125L87.4863 40.125C87.261 40.1241 87.0417 40.0516 86.8603 39.9179L86.2671 40.7229ZM85.523 39.6813C85.6543 40.0986 85.9148 40.4634 86.2671 40.7229L86.8603 39.9179C86.6788 39.7842 86.5446 39.5963 86.477 39.3812L85.523 39.6813ZM82.4222 32.1958C83.7354 34.561 84.7745 37.0682 85.5193 39.6689L86.4807 39.3936C85.7149 36.7198 84.6466 34.1421 83.2965 31.7104L82.4222 32.1958ZM82.2063 30.9169C82.1395 31.351 82.213 31.795 82.4161 32.1844L83.3027 31.7219C83.1981 31.5213 83.1602 31.2926 83.1946 31.069L82.2063 30.9169ZM82.7873 29.7712C82.4766 30.0815 82.273 30.4829 82.2063 30.917L83.1946 31.069C83.229 30.8454 83.3339 30.6386 83.4939 30.4788L82.7873 29.7712ZM86.0987 26.4442L82.7862 29.7723L83.495 30.4777L86.8075 27.1496L86.0987 26.4442ZM87.324 23.4844C87.324 24.5941 86.8835 25.6584 86.0993 26.4435L86.8069 27.1502C87.7784 26.1775 88.324 24.8591 88.324 23.4844H87.324ZM86.0993 20.5252C86.8835 21.3104 87.324 22.3747 87.324 23.4844H88.324C88.324 22.1097 87.7784 20.7912 86.8069 19.8185L86.0993 20.5252ZM79.4746 13.9004L86.0996 20.5254L86.8067 19.8183L80.1817 13.1933L79.4746 13.9004ZM76.5156 12.676C77.6253 12.676 78.6896 13.1165 79.4748 13.9006L80.1815 13.1931C79.2088 12.2217 77.8903 11.676 76.5156 11.676V12.676ZM73.5565 13.9006C74.3416 13.1165 75.4059 12.676 76.5156 12.676V11.676C75.1409 11.676 73.8224 12.2217 72.8498 13.1931L73.5565 13.9006ZM70.2277 17.2138L73.5558 13.9013L72.8504 13.1925L69.5223 16.505L70.2277 17.2138ZM69.083 17.7937C69.5171 17.727 69.9185 17.5234 70.2288 17.2127L69.5212 16.5061C69.3614 16.6661 69.1546 16.771 68.931 16.8054L69.083 17.7937ZM67.8157 17.584C68.205 17.787 68.649 17.8605 69.083 17.7937L68.931 16.8054C68.7074 16.8398 68.4787 16.8019 68.2781 16.6973L67.8157 17.584ZM60.3289 14.4644C62.9287 15.2216 65.436 16.2659 67.8046 17.578L68.2892 16.7032C65.8556 15.3552 63.2796 14.2823 60.6086 13.5043L60.3289 14.4644ZM59.2765 13.7306C59.5382 14.082 59.9066 14.3392 60.3266 14.4637L60.6109 13.505C60.3979 13.4419 60.2112 13.3115 60.0785 13.1333L59.2765 13.7306ZM58.875 12.5144C58.874 12.9525 59.0148 13.3792 59.2765 13.7306L60.0785 13.1334C59.9459 12.9552 59.8745 12.7389 59.875 12.5168L58.875 12.5144ZM58.875 7.8125V12.5156H59.875V7.8125H58.875ZM57.6444 4.85559C58.4293 5.64046 58.8717 6.70402 58.875 7.81399L59.875 7.81101C59.8709 6.43686 59.3232 5.12016 58.3515 4.14848L57.6444 4.85559ZM54.686 3.625C55.796 3.62831 56.8595 4.07072 57.6444 4.85559L58.3515 4.14848C57.3798 3.17681 56.0631 2.62911 54.689 2.625L54.686 3.625ZM45.3125 3.625H54.6875V2.625H45.3125V3.625ZM42.3556 4.85559C43.1405 4.07072 44.204 3.62831 45.314 3.625L45.311 2.625C43.9369 2.62911 42.6202 3.17681 41.6485 4.14848L42.3556 4.85559ZM41.125 7.81399C41.1283 6.70402 41.5707 5.64046 42.3556 4.85559L41.6485 4.14848C40.6768 5.12016 40.1291 6.43686 40.125 7.81101L41.125 7.81399ZM41.125 12.5156V7.8125H40.125V12.5156H41.125ZM40.7229 13.7329C40.9825 13.3807 41.1233 12.9551 41.125 12.5176L40.125 12.5137C40.1241 12.739 40.0516 12.9583 39.9179 13.1397L40.7229 13.7329ZM39.6812 14.477C40.0986 14.3457 40.4634 14.0852 40.7229 13.7329L39.9179 13.1397C39.7842 13.3212 39.5963 13.4554 39.3813 13.523L39.6812 14.477ZM32.1958 17.5778C34.561 16.2646 37.0682 15.2255 39.6689 14.4807L39.3936 13.5193C36.7198 14.2851 34.1421 15.3534 31.7104 16.7035L32.1958 17.5778ZM30.9169 17.7937C31.351 17.8605 31.795 17.787 32.1843 17.584L31.7219 16.6973C31.5213 16.8019 31.2926 16.8398 31.069 16.8054L30.9169 17.7937ZM29.7712 17.2127C30.0815 17.5234 30.4829 17.727 30.9169 17.7937L31.069 16.8054C30.8454 16.771 30.6386 16.6661 30.4788 16.506L29.7712 17.2127ZM26.4442 13.9013L29.7723 17.2138L30.4777 16.505L27.1496 13.1925L26.4442 13.9013ZM23.4844 12.676C24.5941 12.676 25.6584 13.1165 26.4435 13.9006L27.1502 13.1931C26.1775 12.2217 24.8591 11.676 23.4844 11.676V12.676ZM20.5252 13.9006C21.3104 13.1165 22.3747 12.676 23.4844 12.676V11.676C22.1097 11.676 20.7912 12.2217 19.8185 13.1931L20.5252 13.9006ZM13.9004 20.5254L20.5254 13.9004L19.8183 13.1933L13.1933 19.8183L13.9004 20.5254ZM12.676 23.4844C12.676 22.3747 13.1165 21.3104 13.9006 20.5252L13.1931 19.8185C12.2217 20.7912 11.676 22.1097 11.676 23.4844H12.676ZM13.9006 26.4435C13.1165 25.6584 12.676 24.5941 12.676 23.4844H11.676C11.676 24.8591 12.2217 26.1775 13.1931 27.1502L13.9006 26.4435ZM17.2138 29.7723L13.9013 26.4442L13.1925 27.1496L16.505 30.4777L17.2138 29.7723ZM17.7937 30.9169C17.727 30.4829 17.5234 30.0815 17.2127 29.7712L16.506 30.4788C16.6661 30.6386 16.771 30.8454 16.8054 31.069L17.7937 30.9169ZM17.584 32.1843C17.787 31.795 17.8605 31.351 17.7937 30.9169L16.8054 31.069C16.8398 31.2926 16.8019 31.5213 16.6973 31.7219L17.584 32.1843ZM14.4644 39.6711C15.2216 37.0713 16.2659 34.564 17.578 32.1954L16.7033 31.7108C15.3552 34.1444 14.2823 36.7204 13.5043 39.3914L14.4644 39.6711ZM13.7306 40.7235C14.082 40.4618 14.3392 40.0934 14.4637 39.6734L13.505 39.3891C13.4419 39.6021 13.3115 39.7888 13.1333 39.9215L13.7306 40.7235ZM12.5144 41.125C12.9525 41.126 13.3792 40.9852 13.7306 40.7235L13.1334 39.9215C12.9552 40.0541 12.7389 40.1255 12.5168 40.125L12.5144 41.125ZM7.8125 41.125H12.5156V40.125H7.8125V41.125ZM4.85559 42.3556C5.64046 41.5707 6.70402 41.1283 7.81399 41.125L7.81101 40.125C6.43686 40.1291 5.12016 40.6768 4.14848 41.6485L4.85559 42.3556ZM3.625 45.314C3.62831 44.204 4.07072 43.1405 4.85559 42.3556L4.14848 41.6485C3.17681 42.6202 2.62911 43.9369 2.625 45.311L3.625 45.314ZM3.625 54.6875V45.3125H2.625V54.6875H3.625ZM4.85559 57.6444C4.07072 56.8595 3.62831 55.796 3.625 54.686L2.625 54.689C2.62911 56.0631 3.17681 57.3798 4.14848 58.3515L4.85559 57.6444ZM7.81399 58.875C6.70402 58.8717 5.64046 58.4293 4.85559 57.6444L4.14848 58.3515C5.12016 59.3232 6.43686 59.8709 7.81101 59.875L7.81399 58.875ZM12.5156 58.875H7.8125V59.875H12.5156V58.875ZM13.7329 59.2771C13.3807 59.0175 12.9551 58.8767 12.5176 58.875L12.5137 59.875C12.739 59.8759 12.9583 59.9484 13.1397 60.0821L13.7329 59.2771ZM14.477 60.3188C14.3457 59.9014 14.0852 59.5366 13.7329 59.2771L13.1397 60.0821C13.3212 60.2158 13.4554 60.4037 13.523 60.6187L14.477 60.3188ZM17.5778 67.8042C16.2646 65.439 15.2255 62.9318 14.4807 60.3311L13.5193 60.6064C14.2851 63.2802 15.3534 65.8579 16.7035 68.2896L17.5778 67.8042ZM17.7937 69.083C17.8605 68.649 17.787 68.205 17.584 67.8157L16.6973 68.2781C16.8019 68.4787 16.8398 68.7074 16.8054 68.931L17.7937 69.083ZM17.2127 70.2288C17.5234 69.9185 17.727 69.5171 17.7937 69.083L16.8054 68.931C16.771 69.1546 16.6661 69.3614 16.5061 69.5212L17.2127 70.2288ZM13.9013 73.5558L17.2138 70.2277L16.505 69.5223L13.1925 72.8504L13.9013 73.5558ZM12.9913 74.9141C13.202 74.4064 13.5107 73.9453 13.8999 73.5572L13.1938 72.8491C12.7115 73.3301 12.3288 73.9016 12.0676 74.5307L12.9913 74.9141ZM12.6721 76.5156C12.6721 75.966 12.7806 75.4217 12.9913 74.9141L12.0676 74.5307C11.8065 75.1599 11.6721 75.8344 11.6721 76.5156H12.6721ZM12.9913 78.1172C12.7806 77.6095 12.6721 77.0653 12.6721 76.5156H11.6721C11.6721 77.1968 11.8065 77.8713 12.0676 78.5005L12.9913 78.1172ZM13.8999 79.4741C13.5107 79.086 13.202 78.6249 12.9913 78.1172L12.0676 78.5005C12.3288 79.1297 12.7115 79.7011 13.1938 80.1822L13.8999 79.4741ZM20.5254 86.0996L13.9004 79.4746L13.1933 80.1817L19.8183 86.8067L20.5254 86.0996ZM23.4844 87.324C22.3747 87.324 21.3104 86.8835 20.5252 86.0993L19.8185 86.8069C20.7912 87.7784 22.1097 88.324 23.4844 88.324V87.324ZM26.4435 86.0993C25.6584 86.8835 24.5941 87.324 23.4844 87.324V88.324C24.8591 88.324 26.1775 87.7784 27.1502 86.8069L26.4435 86.0993ZM29.7723 82.7862L26.4442 86.0987L27.1496 86.8075L30.4777 83.495L29.7723 82.7862ZM30.917 82.2063C30.4829 82.273 30.0815 82.4766 29.7712 82.7873L30.4788 83.4939C30.6386 83.3339 30.8454 83.229 31.069 83.1946L30.917 82.2063ZM32.1844 82.4161C31.795 82.213 31.351 82.1395 30.9169 82.2063L31.069 83.1946C31.2926 83.1602 31.5213 83.1981 31.7219 83.3027L32.1844 82.4161ZM39.6711 85.5356C37.0713 84.7784 34.564 83.7341 32.1954 82.422L31.7108 83.2968C34.1444 84.6448 36.7204 85.7177 39.3914 86.4957L39.6711 85.5356ZM40.7235 86.2694C40.4618 85.918 40.0934 85.6608 39.6734 85.5362L39.3891 86.495C39.6021 86.5581 39.7888 86.6885 39.9215 86.8666L40.7235 86.2694ZM41.125 87.4856C41.126 87.0475 40.9852 86.6208 40.7235 86.2694L39.9215 86.8666C40.0541 87.0448 40.1255 87.2611 40.125 87.4832L41.125 87.4856ZM41.125 92.1875V87.4844H40.125V92.1875H41.125ZM42.3556 95.1444C41.5707 94.3595 41.1283 93.296 41.125 92.186L40.125 92.189C40.1291 93.5631 40.6768 94.8798 41.6485 95.8515L42.3556 95.1444ZM45.314 96.375C44.204 96.3717 43.1405 95.9293 42.3556 95.1444L41.6485 95.8515C42.6202 96.8232 43.9369 97.3709 45.311 97.375L45.314 96.375ZM54.6875 96.375H45.3125V97.375H54.6875V96.375ZM57.6444 95.1444C56.8595 95.9293 55.796 96.3717 54.686 96.375L54.689 97.375C56.0631 97.3709 57.3798 96.8232 58.3515 95.8515L57.6444 95.1444ZM58.875 92.186C58.8717 93.296 58.4293 94.3595 57.6444 95.1444L58.3515 95.8515C59.3232 94.8798 59.8709 93.5631 59.875 92.189L58.875 92.186ZM58.875 87.4844V92.1875H59.875V87.4844H58.875ZM59.2771 86.2671C59.0175 86.6193 58.8767 87.0449 58.875 87.4824L59.875 87.4863C59.8759 87.261 59.9484 87.0417 60.0821 86.8603L59.2771 86.2671ZM60.3187 85.523C59.9014 85.6543 59.5366 85.9148 59.2771 86.2671L60.0821 86.8603C60.2158 86.6788 60.4037 86.5446 60.6188 86.477L60.3187 85.523ZM67.8042 82.4222C65.439 83.7354 62.9318 84.7745 60.3311 85.5193L60.6064 86.4807C63.2802 85.7149 65.8579 84.6466 68.2896 83.2965L67.8042 82.4222ZM69.0831 82.2063C68.649 82.1395 68.205 82.213 67.8157 82.4161L68.2781 83.3027C68.4787 83.1981 68.7074 83.1602 68.931 83.1946L69.0831 82.2063ZM70.2288 82.7873C69.9185 82.4766 69.5171 82.273 69.083 82.2063L68.931 83.1946C69.1546 83.229 69.3614 83.3339 69.5212 83.4939L70.2288 82.7873ZM73.5558 86.0987L70.2277 82.7862L69.5223 83.495L72.8504 86.8075L73.5558 86.0987ZM76.5156 87.324C75.4059 87.324 74.3416 86.8835 73.5565 86.0993L72.8498 86.8069C73.8224 87.7784 75.1409 88.324 76.5156 88.324V87.324ZM79.4748 86.0993C78.6896 86.8835 77.6253 87.324 76.5156 87.324V88.324C77.8903 88.324 79.2088 87.7784 80.1815 86.8069L79.4748 86.0993ZM86.0996 79.4746L79.4746 86.0996L80.1817 86.8067L86.8067 80.1817L86.0996 79.4746ZM87.0087 78.1172C86.798 78.6249 86.4893 79.086 86.1001 79.4741L86.8062 80.1822C87.2885 79.7011 87.6712 79.1297 87.9324 78.5005L87.0087 78.1172ZM87.3279 76.5156C87.3279 77.0653 87.2194 77.6095 87.0087 78.1172L87.9324 78.5005C88.1935 77.8713 88.3279 77.1968 88.3279 76.5156H87.3279ZM87.0087 74.9141C87.2194 75.4217 87.3279 75.966 87.3279 76.5156H88.3279C88.3279 75.8344 88.1935 75.1599 87.9324 74.5307L87.0087 74.9141ZM86.1001 73.5572C86.4893 73.9453 86.798 74.4064 87.0087 74.9141L87.9324 74.5307C87.6712 73.9016 87.2885 73.3301 86.8062 72.8491L86.1001 73.5572ZM82.7862 70.2277L86.0987 73.5558L86.8075 72.8504L83.495 69.5223L82.7862 70.2277ZM82.2063 69.083C82.273 69.5171 82.4766 69.9185 82.7873 70.2288L83.4939 69.5212C83.3339 69.3614 83.229 69.1546 83.1946 68.931L82.2063 69.083ZM82.4161 67.8157C82.213 68.205 82.1395 68.649 82.2063 69.0831L83.1946 68.931C83.1602 68.7074 83.1981 68.4787 83.3027 68.2781L82.4161 67.8157ZM85.5356 60.3289C84.7784 62.9287 83.7341 65.436 82.422 67.8046L83.2968 68.2892C84.6448 65.8556 85.7177 63.2796 86.4957 60.6086L85.5356 60.3289ZM86.2694 59.2765C85.918 59.5382 85.6608 59.9066 85.5362 60.3266L86.495 60.6109C86.5581 60.3979 86.6885 60.2112 86.8666 60.0785L86.2694 59.2765ZM87.4856 58.875C87.0475 58.874 86.6208 59.0148 86.2694 59.2765L86.8666 60.0785C87.0448 59.9459 87.2611 59.8745 87.4832 59.875L87.4856 58.875ZM92.1875 58.875H87.4844V59.875H92.1875V58.875ZM95.1444 57.6444C94.3595 58.4293 93.296 58.8717 92.186 58.875L92.189 59.875C93.5631 59.8709 94.8798 59.3232 95.8515 58.3515L95.1444 57.6444ZM96.375 54.686C96.3717 55.796 95.9293 56.8595 95.1444 57.6444L95.8515 58.3515C96.8232 57.3798 97.3709 56.0631 97.375 54.689L96.375 54.686ZM96.375 45.3125V54.6875H97.375V45.3125H96.375ZM95.1444 42.3556C95.9293 43.1405 96.3717 44.204 96.375 45.314L97.375 45.311C97.3709 43.9369 96.8232 42.6202 95.8515 41.6485L95.1444 42.3556ZM92.186 41.125C93.296 41.1283 94.3595 41.5707 95.1444 42.3556L95.8515 41.6485C94.8798 40.6768 93.5631 40.1291 92.189 40.125L92.186 41.125ZM93.6459 56.1459C94.0327 55.7591 94.25 55.2345 94.25 54.6875H93.25C93.25 54.9693 93.1381 55.2395 92.9388 55.4388L93.6459 56.1459ZM92.1875 56.75C92.7345 56.75 93.2591 56.5327 93.6459 56.1459L92.9388 55.4388C92.7395 55.6381 92.4693 55.75 92.1875 55.75V56.75ZM87.4844 56.75H92.1875V55.75H87.4844V56.75ZM84.9876 57.5805C85.7092 57.0424 86.585 56.7512 87.4851 56.75L87.4837 55.75C86.3687 55.7515 85.2838 56.1123 84.3899 56.7788L84.9876 57.5805ZM83.479 59.7371C83.737 58.8748 84.2661 58.1185 84.9876 57.5805L84.3899 56.7788C83.496 57.4453 82.8406 58.3822 82.521 59.4504L83.479 59.7371ZM80.5625 66.7889C81.7988 64.5542 82.7777 62.1866 83.4807 59.7314L82.5193 59.4561C81.8372 61.8387 80.8872 64.1363 79.6875 66.3048L80.5625 66.7889ZM80.1054 69.3804C79.9772 68.4879 80.1384 67.5778 80.5654 66.7836L79.6846 66.3101C79.1564 67.2926 78.957 68.4184 79.1156 69.5226L80.1054 69.3804ZM81.2778 71.7426C80.6445 71.1008 80.2337 70.2729 80.1054 69.3804L79.1156 69.5226C79.2742 70.6267 79.7825 71.6509 80.566 72.4449L81.2778 71.7426ZM84.6027 75.0519L81.2746 71.7394L80.5692 72.4481L83.8973 75.7606L84.6027 75.0519ZM85.2032 76.5156C85.2032 75.9698 84.9891 75.4458 84.607 75.0562L83.893 75.7563C84.0918 75.9591 84.2032 76.2317 84.2032 76.5156H85.2032ZM84.607 77.9751C84.9891 77.5854 85.2032 77.0614 85.2032 76.5156H84.2032C84.2032 76.7996 84.0918 77.0722 83.893 77.2749L84.607 77.9751ZM77.9786 84.6036L84.6036 77.9786L83.8964 77.2714L77.2714 83.8964L77.9786 84.6036ZM76.5156 85.1952C77.0578 85.1952 77.579 84.9861 77.9707 84.6113L77.2793 83.8887C77.0737 84.0854 76.8002 84.1952 76.5156 84.1952V85.1952ZM75.0606 84.6113C75.4523 84.9861 75.9735 85.1952 76.5156 85.1952V84.1952C76.2311 84.1952 75.9575 84.0854 75.7519 83.8887L75.0606 84.6113ZM71.7394 81.2746L75.0519 84.6027L75.7606 83.8973L72.4481 80.5692L71.7394 81.2746ZM69.3804 80.1054C70.2729 80.2337 71.1008 80.6445 71.7426 81.2778L72.4449 80.566C71.6509 79.7825 70.6267 79.2742 69.5226 79.1156L69.3804 80.1054ZM66.7836 80.5654C67.5778 80.1384 68.4879 79.9772 69.3804 80.1054L69.5226 79.1156C68.4184 78.957 67.2926 79.1564 66.3101 79.6846L66.7836 80.5654ZM59.7314 83.4807C62.1866 82.7777 64.5542 81.7988 66.7889 80.5625L66.3048 79.6875C64.1363 80.8872 61.8387 81.8372 59.4561 82.5193L59.7314 83.4807ZM57.5805 84.9876C58.1185 84.2661 58.8748 83.737 59.7371 83.479L59.4504 82.521C58.3822 82.8406 57.4453 83.496 56.7788 84.3899L57.5805 84.9876ZM56.75 87.4851C56.7512 86.585 57.0424 85.7092 57.5805 84.9876L56.7788 84.3899C56.1123 85.2838 55.7515 86.3687 55.75 87.4837L56.75 87.4851ZM56.75 92.1875V87.4844H55.75V92.1875H56.75ZM56.1459 93.6459C56.5327 93.2591 56.75 92.7345 56.75 92.1875H55.75C55.75 92.4693 55.6381 92.7395 55.4388 92.9388L56.1459 93.6459ZM54.6875 94.25C55.2345 94.25 55.7591 94.0327 56.1459 93.6459L55.4388 92.9388C55.2395 93.1381 54.9693 93.25 54.6875 93.25V94.25ZM45.3125 94.25H54.6875V93.25H45.3125V94.25ZM43.8541 93.6459C44.2409 94.0327 44.7655 94.25 45.3125 94.25V93.25C45.0307 93.25 44.7605 93.1381 44.5612 92.9388L43.8541 93.6459ZM43.25 92.1875C43.25 92.7345 43.4673 93.2591 43.8541 93.6459L44.5612 92.9388C44.3619 92.7395 44.25 92.4693 44.25 92.1875H43.25ZM43.25 87.4844V92.1875H44.25V87.4844H43.25ZM42.4195 84.9876C42.9576 85.7092 43.2488 86.585 43.25 87.4851L44.25 87.4837C44.2485 86.3687 43.8877 85.2838 43.2212 84.3899L42.4195 84.9876ZM40.2629 83.479C41.1252 83.737 41.8815 84.2661 42.4195 84.9876L43.2212 84.3899C42.5547 83.496 41.6178 82.8406 40.5496 82.521L40.2629 83.479ZM33.2111 80.5625C35.4458 81.7988 37.8134 82.7777 40.2686 83.4807L40.5439 82.5193C38.1613 81.8372 35.8637 80.8872 33.6952 79.6875L33.2111 80.5625ZM31.235 80.0625C31.9264 80.0616 32.6069 80.2342 33.2144 80.5643L33.6919 79.6857C32.9375 79.2757 32.0923 79.0614 31.2337 79.0625L31.235 80.0625ZM28.2565 81.2787C29.0512 80.4986 30.1205 80.0618 31.2341 80.0625L31.2347 79.0625C29.8589 79.0617 28.5378 79.6013 27.556 80.5651L28.2565 81.2787ZM24.9481 84.6027L28.2606 81.2746L27.5519 80.5692L24.2394 83.8973L24.9481 84.6027ZM23.4844 85.1952C24.0265 85.1952 24.5477 84.9861 24.9394 84.6113L24.2481 83.8887C24.0425 84.0854 23.7689 84.1952 23.4844 84.1952V85.1952ZM22.0293 84.6113C22.421 84.9861 22.9423 85.1952 23.4844 85.1952V84.1952C23.1998 84.1952 22.9263 84.0854 22.7207 83.8887L22.0293 84.6113ZM15.3964 77.9786L22.0214 84.6036L22.7286 83.8964L16.1036 77.2714L15.3964 77.9786ZM14.7968 76.5156C14.7968 77.0614 15.0109 77.5854 15.393 77.9751L16.107 77.2749C15.9082 77.0722 15.7968 76.7996 15.7968 76.5156H14.7968ZM15.393 75.0561C15.0109 75.4458 14.7968 75.9698 14.7968 76.5156H15.7968C15.7968 76.2317 15.9082 75.9591 16.107 75.7564L15.393 75.0561ZM18.7254 71.7394L15.3973 75.0519L16.1027 75.7606L19.4308 72.4481L18.7254 71.7394ZM19.8946 69.3804C19.7664 70.2729 19.3555 71.1008 18.7222 71.7426L19.434 72.4449C20.2175 71.6509 20.7258 70.6267 20.8844 69.5226L19.8946 69.3804ZM19.4346 66.7836C19.8616 67.5778 20.0228 68.4879 19.8946 69.3804L20.8844 69.5226C21.043 68.4184 20.8436 67.2926 20.3154 66.3101L19.4346 66.7836ZM16.5193 59.7314C17.2223 62.1866 18.2012 64.5542 19.4375 66.7889L20.3125 66.3048C19.1128 64.1363 18.1628 61.8387 17.4807 59.4561L16.5193 59.7314ZM15.0124 57.5805C15.7339 58.1185 16.263 58.8748 16.521 59.7371L17.479 59.4504C17.1594 58.3822 16.504 57.4453 15.6101 56.7788L15.0124 57.5805ZM12.5149 56.75C13.415 56.7512 14.2908 57.0424 15.0124 57.5805L15.6101 56.7788C14.7162 56.1123 13.6314 55.7515 12.5163 55.75L12.5149 56.75ZM7.8125 56.75H12.5156V55.75H7.8125V56.75ZM6.35409 56.1459C6.74089 56.5327 7.26549 56.75 7.8125 56.75V55.75C7.53071 55.75 7.26046 55.6381 7.0612 55.4388L6.35409 56.1459ZM5.75 54.6875C5.75 55.2345 5.9673 55.7591 6.35409 56.1459L7.0612 55.4388C6.86194 55.2395 6.75 54.9693 6.75 54.6875H5.75ZM5.75 45.3125V54.6875H6.75V45.3125H5.75ZM6.35409 43.8541C5.9673 44.2409 5.75 44.7655 5.75 45.3125H6.75C6.75 45.0307 6.86194 44.7605 7.0612 44.5612L6.35409 43.8541ZM7.8125 43.25C7.26549 43.25 6.74089 43.4673 6.35409 43.8541L7.0612 44.5612C7.26046 44.3619 7.53071 44.25 7.8125 44.25V43.25ZM12.5156 43.25H7.8125V44.25H12.5156V43.25ZM15.0124 42.4195C14.2908 42.9576 13.415 43.2488 12.5149 43.25L12.5163 44.25C13.6314 44.2485 14.7162 43.8877 15.6101 43.2212L15.0124 42.4195ZM16.521 40.2629C16.263 41.1252 15.7339 41.8815 15.0124 42.4195L15.6101 43.2212C16.504 42.5547 17.1594 41.6178 17.479 40.5496L16.521 40.2629ZM19.4375 33.2111C18.2012 35.4458 17.2223 37.8134 16.5193 40.2686L17.4807 40.5439C18.1628 38.1613 19.1128 35.8637 20.3125 33.6952L19.4375 33.2111ZM19.8946 30.6196C20.0228 31.5121 19.8616 32.4222 19.4346 33.2164L20.3154 33.6899C20.8436 32.7074 21.043 31.5815 20.8844 30.4774L19.8946 30.6196ZM18.7222 28.2574C19.3555 28.8993 19.7664 29.7271 19.8946 30.6196L20.8844 30.4774C20.7258 29.3733 20.2175 28.3491 19.434 27.5551L18.7222 28.2574ZM15.3973 24.9481L18.7254 28.2606L19.4308 27.5519L16.1027 24.2394L15.3973 24.9481ZM14.7968 23.4844C14.7968 24.0302 15.0109 24.5542 15.393 24.9438L16.107 24.2437C15.9082 24.0409 15.7968 23.7683 15.7968 23.4844H14.7968ZM15.393 22.0249C15.0109 22.4146 14.7968 22.9386 14.7968 23.4844H15.7968C15.7968 23.2004 15.9082 22.9278 16.107 22.7251L15.393 22.0249ZM22.0214 15.3964L15.3964 22.0214L16.1036 22.7286L22.7286 16.1036L22.0214 15.3964ZM23.4844 14.8048C22.9423 14.8048 22.421 15.0139 22.0293 15.3887L22.7207 16.1113C22.9263 15.9146 23.1998 15.8048 23.4844 15.8048V14.8048ZM24.9394 15.3887C24.5477 15.0139 24.0265 14.8048 23.4844 14.8048V15.8048C23.7689 15.8048 24.0425 15.9146 24.2481 16.1113L24.9394 15.3887ZM28.2606 18.7254L24.9481 15.3973L24.2394 16.1027L27.5519 19.4308L28.2606 18.7254ZM30.6196 19.8946C29.7271 19.7664 28.8993 19.3555 28.2574 18.7222L27.5551 19.434C28.3491 20.2175 29.3733 20.7258 30.4774 20.8844L30.6196 19.8946ZM33.2164 19.4346C32.4222 19.8616 31.5121 20.0228 30.6196 19.8946L30.4774 20.8844C31.5815 21.043 32.7074 20.8436 33.6899 20.3154L33.2164 19.4346ZM40.2686 16.5193C37.8134 17.2223 35.4458 18.2012 33.2111 19.4375L33.6952 20.3125C35.8637 19.1128 38.1613 18.1628 40.5439 17.4807L40.2686 16.5193ZM42.4195 15.0124C41.8815 15.7339 41.1252 16.263 40.2629 16.521L40.5496 17.479C41.6178 17.1594 42.5547 16.504 43.2212 15.6101L42.4195 15.0124ZM43.25 12.5149C43.2488 13.415 42.9576 14.2908 42.4195 15.0124L43.2212 15.6101C43.8877 14.7162 44.2485 13.6314 44.25 12.5163L43.25 12.5149ZM43.25 7.8125V12.5156H44.25V7.8125H43.25ZM43.8541 6.35409C43.4673 6.74089 43.25 7.26549 43.25 7.8125H44.25C44.25 7.53071 44.3619 7.26046 44.5612 7.0612L43.8541 6.35409ZM45.3125 5.75C44.7655 5.75 44.2409 5.9673 43.8541 6.35409L44.5612 7.0612C44.7605 6.86194 45.0307 6.75 45.3125 6.75V5.75ZM54.6875 5.75H45.3125V6.75H54.6875V5.75ZM56.1459 6.35409C55.7591 5.9673 55.2345 5.75 54.6875 5.75V6.75C54.9693 6.75 55.2395 6.86194 55.4388 7.0612L56.1459 6.35409ZM56.75 7.8125C56.75 7.26549 56.5327 6.74089 56.1459 6.35409L55.4388 7.0612C55.6381 7.26046 55.75 7.53071 55.75 7.8125H56.75ZM56.75 12.5156V7.8125H55.75V12.5156H56.75ZM57.5805 15.0124C57.0424 14.2908 56.7512 13.415 56.75 12.5149L55.75 12.5163C55.7515 13.6314 56.1123 14.7162 56.7788 15.6101L57.5805 15.0124ZM59.7371 16.521C58.8748 16.263 58.1185 15.7339 57.5805 15.0124L56.7788 15.6101C57.4453 16.504 58.3822 17.1594 59.4504 17.479L59.7371 16.521ZM66.7889 19.4375C64.5542 18.2012 62.1866 17.2223 59.7314 16.5193L59.4561 17.4807C61.8387 18.1628 64.1363 19.1128 66.3048 20.3125L66.7889 19.4375ZM69.3804 19.8946C68.4879 20.0228 67.5778 19.8616 66.7836 19.4346L66.3101 20.3154C67.2926 20.8436 68.4184 21.043 69.5226 20.8844L69.3804 19.8946ZM71.7426 18.7222C71.1008 19.3555 70.2729 19.7664 69.3804 19.8946L69.5226 20.8844C70.6267 20.7258 71.6509 20.2175 72.4449 19.434L71.7426 18.7222ZM75.0519 15.3973L71.7394 18.7254L72.4481 19.4308L75.7606 16.1027L75.0519 15.3973ZM76.5156 14.8048C75.9735 14.8048 75.4523 15.0139 75.0606 15.3887L75.7519 16.1113C75.9575 15.9146 76.2311 15.8048 76.5156 15.8048V14.8048ZM77.9707 15.3887C77.579 15.0139 77.0578 14.8048 76.5156 14.8048V15.8048C76.8002 15.8048 77.0737 15.9146 77.2793 16.1113L77.9707 15.3887ZM84.6036 22.0214L77.9786 15.3964L77.2714 16.1036L83.8964 22.7286L84.6036 22.0214ZM85.2032 23.4844C85.2032 22.9386 84.9891 22.4146 84.607 22.0249L83.893 22.7251C84.0918 22.9278 84.2032 23.2004 84.2032 23.4844H85.2032ZM84.607 24.9438C84.9891 24.5542 85.2032 24.0302 85.2032 23.4844H84.2032C84.2032 23.7683 84.0918 24.0409 83.893 24.2437L84.607 24.9438ZM81.2746 28.2606L84.6027 24.9481L83.8973 24.2394L80.5692 27.5519L81.2746 28.2606ZM80.1054 30.6196C80.2336 29.7271 80.6445 28.8993 81.2778 28.2574L80.566 27.5551C79.7825 28.3491 79.2742 29.3733 79.1156 30.4774L80.1054 30.6196ZM80.5654 33.2164C80.1384 32.4222 79.9772 31.5121 80.1054 30.6196L79.1156 30.4774C78.957 31.5815 79.1564 32.7074 79.6846 33.6899L80.5654 33.2164ZM83.4807 40.2686C82.7777 37.8134 81.7988 35.4458 80.5625 33.2111L79.6875 33.6952C80.8872 35.8637 81.8372 38.1613 82.5193 40.5439L83.4807 40.2686ZM84.9876 42.4195C84.2661 41.8815 83.737 41.1252 83.479 40.2629L82.521 40.5496C82.8406 41.6178 83.496 42.5547 84.3899 43.2212L84.9876 42.4195ZM87.4851 43.25C86.585 43.2488 85.7092 42.9576 84.9876 42.4195L84.3899 43.2212C85.2838 43.8877 86.3687 44.2485 87.4837 44.25L87.4851 43.25ZM92.1875 43.25H87.4844V44.25H92.1875V43.25ZM93.6459 43.8541C93.2591 43.4673 92.7345 43.25 92.1875 43.25V44.25C92.4693 44.25 92.7395 44.3619 92.9388 44.5612L93.6459 43.8541ZM94.25 45.3125C94.25 44.7655 94.0327 44.2409 93.6459 43.8541L92.9388 44.5612C93.1381 44.7605 93.25 45.0307 93.25 45.3125H94.25ZM94.25 54.6875V45.3125H93.25V54.6875H94.25ZM34.6524 27.0307C39.1953 23.9952 44.5363 22.375 50 22.375V21.375C44.3385 21.375 38.8042 23.0538 34.0968 26.1992L34.6524 27.0307ZM24.4778 39.4284C26.5687 34.3806 30.1095 30.0661 34.6524 27.0307L34.0968 26.1992C29.3895 29.3445 25.7205 33.8152 23.554 39.0457L24.4778 39.4284ZM22.9058 55.3894C21.8399 50.0306 22.387 44.4762 24.4778 39.4284L23.554 39.0457C21.3874 44.2762 20.8205 50.0318 21.925 55.5845L22.9058 55.3894ZM30.4662 69.5338C26.6028 65.6704 23.9717 60.7481 22.9058 55.3894L21.925 55.5845C23.0295 61.1372 25.7558 66.2376 29.7591 70.2409L30.4662 69.5338ZM44.6106 77.0942C39.2519 76.0283 34.3296 73.3972 30.4662 69.5338L29.7591 70.2409C33.7624 74.2442 38.8628 76.9705 44.4156 78.075L44.6106 77.0942ZM60.5716 75.5222C55.5238 77.613 49.9694 78.1601 44.6106 77.0942L44.4156 78.075C49.9683 79.1795 55.7238 78.6126 60.9543 76.446L60.5716 75.5222ZM72.9694 65.3476C69.9339 69.8905 65.6194 73.4313 60.5716 75.5222L60.9543 76.446C66.1849 74.2795 70.6555 70.6105 73.8008 65.9032L72.9694 65.3476ZM77.625 50C77.625 55.4637 76.0048 60.8047 72.9694 65.3476L73.8008 65.9032C76.9462 61.1958 78.625 55.6615 78.625 50H77.625ZM69.5215 30.4785C74.7 35.657 77.614 42.6773 77.625 50.0007L78.625 49.9992C78.6136 42.4111 75.5942 35.137 70.2286 29.7714L69.5215 30.4785ZM49.9993 22.375C57.3227 22.386 64.3431 25.3 69.5215 30.4785L70.2286 29.7714C64.863 24.4058 57.5889 21.3864 50.0008 21.375L49.9993 22.375ZM35.833 71.2025C40.0264 74.0044 44.9566 75.5 50 75.5V74.5C45.1544 74.5 40.4175 73.0631 36.3885 70.371L35.833 71.2025ZM26.4411 59.7584C28.3711 64.4179 31.6395 68.4005 35.833 71.2025L36.3885 70.371C32.3595 67.6789 29.2193 63.8525 27.365 59.3757L26.4411 59.7584ZM24.99 45.0252C24.0061 49.9717 24.511 55.0989 26.4411 59.7584L27.365 59.3757C25.5106 54.899 25.0254 49.9728 25.9708 45.2203L24.99 45.0252ZM31.9688 31.9688C28.4025 35.535 25.9739 40.0787 24.99 45.0252L25.9708 45.2203C26.9161 40.4678 29.2495 36.1023 32.6759 32.6759L31.9688 31.9688ZM45.0252 24.99C40.0787 25.9739 35.535 28.4025 31.9688 31.9688L32.6759 32.6759C36.1023 29.2495 40.4678 26.9161 45.2203 25.9708L45.0252 24.99ZM59.7584 26.4411C55.0989 24.511 49.9717 24.0061 45.0252 24.99L45.2203 25.9708C49.9728 25.0254 54.899 25.5106 59.3758 27.365L59.7584 26.4411ZM71.2025 35.833C68.4005 31.6395 64.418 28.3711 59.7584 26.4411L59.3758 27.365C63.8525 29.2193 67.6789 32.3595 70.371 36.3885L71.2025 35.833ZM75.5 50C75.5 44.9566 74.0045 40.0264 71.2025 35.833L70.371 36.3885C73.0631 40.4175 74.5 45.1544 74.5 50H75.5ZM68.0216 68.0216C72.8018 63.2415 75.4911 56.7608 75.5 50.0007L74.5 49.9993C74.4915 56.4947 71.9075 62.7216 67.3145 67.3145L68.0216 68.0216ZM50.0007 75.5C56.7608 75.4911 63.2415 72.8018 68.0216 68.0216L67.3145 67.3145C62.7216 71.9074 56.4947 74.4915 49.9994 74.5L50.0007 75.5ZM65.625 41.6875H64.0625V42.6875H65.625V41.6875ZM69.2931 43.2069C68.3203 42.2341 67.0008 41.6875 65.625 41.6875V42.6875C66.7356 42.6875 67.8007 43.1287 68.586 43.914L69.2931 43.2069ZM70.8125 46.875C70.8125 45.4992 70.266 44.1798 69.2931 43.2069L68.586 43.914C69.3713 44.6993 69.8125 45.7645 69.8125 46.875H70.8125ZM69.2931 50.5432C70.266 49.5703 70.8125 48.2509 70.8125 46.875H69.8125C69.8125 47.9856 69.3713 49.0507 68.586 49.836L69.2931 50.5432ZM65.625 52.0625C67.0008 52.0625 68.3203 51.516 69.2931 50.5432L68.586 49.836C67.8007 50.6214 66.7356 51.0625 65.625 51.0625V52.0625ZM64.0625 52.0625H65.625V51.0625H64.0625V52.0625ZM64.5625 59.375V51.5625H63.5625V59.375H64.5625ZM63.9584 60.8335C64.3452 60.4467 64.5625 59.922 64.5625 59.375H63.5625C63.5625 59.6568 63.4506 59.9271 63.2513 60.1263L63.9584 60.8335ZM62.5 61.4375C63.047 61.4375 63.5716 61.2202 63.9584 60.8335L63.2513 60.1263C63.052 60.3256 62.7818 60.4375 62.5 60.4375V61.4375ZM61.7321 61.2908C61.978 61.3916 62.2419 61.4416 62.5077 61.4375L62.4923 60.4376C62.3619 60.4396 62.2324 60.4151 62.1116 60.3656L61.7321 61.2908ZM46.3923 55.1517L61.7361 61.2924L62.1077 60.364L46.7639 54.2233L46.3923 55.1517ZM45.125 55.1875H46.5781V54.1875H45.125V55.1875ZM44.2305 65.8746L45.6211 54.7496L44.6289 54.6255L43.2382 65.7505L44.2305 65.8746ZM43.5534 67.1666C43.9295 66.8323 44.1704 66.3721 44.2308 65.8725L43.238 65.7525C43.2069 66.0099 43.0828 66.247 42.889 66.4192L43.5534 67.1666ZM42.1889 67.6875C42.692 67.6861 43.1773 67.5009 43.5534 67.1666L42.889 66.4192C42.6953 66.5914 42.4453 66.6868 42.1861 66.6875L42.1889 67.6875ZM35.9375 67.6875H42.1875V66.6875H35.9375V67.6875ZM34.4791 67.0834C34.8659 67.4702 35.3905 67.6875 35.9375 67.6875V66.6875C35.6557 66.6875 35.3855 66.5756 35.1862 66.3763L34.4791 67.0834ZM33.875 65.625C33.875 66.172 34.0923 66.6967 34.4791 67.0835L35.1862 66.3763C34.9869 66.1771 34.875 65.9068 34.875 65.625H33.875ZM33.875 52.6875V65.625H34.875V52.6875H33.875ZM30.5925 51.959L34.2175 53.1621L34.5325 52.213L30.9075 51.0099L30.5925 51.959ZM29.5769 51.2017C29.8272 51.5513 30.1794 51.8149 30.5853 51.9565L30.9147 51.0123C30.7035 50.9386 30.5203 50.8015 30.3901 50.6196L29.5769 51.2017ZM29.1875 50.0037C29.1907 50.4336 29.3267 50.8521 29.5769 51.2017L30.3901 50.6196C30.2599 50.4377 30.1891 50.22 30.1875 49.9964L29.1875 50.0037ZM29.1875 43.75V50H30.1875V43.75H29.1875ZM29.5769 42.5484C29.3267 42.898 29.1907 43.3165 29.1875 43.7464L30.1875 43.7537C30.1891 43.53 30.2599 43.3124 30.3901 43.1305L29.5769 42.5484ZM30.5853 41.7936C30.1794 41.9352 29.8272 42.1988 29.5769 42.5484L30.3901 43.1305C30.5203 42.9486 30.7035 42.8114 30.9147 42.7378L30.5853 41.7936ZM34.2175 40.588L30.5925 41.7911L30.9075 42.7402L34.5325 41.5371L34.2175 40.588ZM33.875 40.625V41.0625H34.875V40.625H33.875ZM34.4791 39.1666C34.0923 39.5534 33.875 40.078 33.875 40.625H34.875C34.875 40.3433 34.9869 40.073 35.1862 39.8737L34.4791 39.1666ZM35.9375 38.5625C35.3905 38.5625 34.8659 38.7798 34.4791 39.1666L35.1862 39.8737C35.3855 39.6745 35.6557 39.5625 35.9375 39.5625V38.5625ZM46.5781 38.5625H35.9375V39.5625H46.5781V38.5625ZM61.7361 32.4577L46.3923 38.5983L46.7639 39.5268L62.1077 33.3861L61.7361 32.4577ZM62.7237 32.3232C62.3888 32.2867 62.0499 32.3327 61.7369 32.4574L62.1069 33.3864C62.2681 33.3222 62.4427 33.2985 62.6153 33.3173L62.7237 32.3232ZM63.6584 32.6671C63.3796 32.4778 63.0587 32.3598 62.7237 32.3232L62.6153 33.3173C62.7878 33.3361 62.9531 33.397 63.0968 33.4944L63.6584 32.6671ZM64.323 33.4088C64.1654 33.111 63.9372 32.8563 63.6584 32.6671L63.0967 33.4944C63.2404 33.5919 63.3579 33.7231 63.4391 33.8766L64.323 33.4088ZM64.5625 34.3755C64.5628 34.0386 64.4806 33.7067 64.323 33.4088L63.4391 33.8766C63.5203 34.03 63.5627 34.201 63.5625 34.3746L64.5625 34.3755ZM64.5625 42.1875V34.375H63.5625V42.1875H64.5625ZM34.5317 48.9159L32.9692 48.4002L32.6558 49.3499L34.2183 49.8655L34.5317 48.9159ZM33.875 44.3594V49.3907H34.875V44.3594H33.875ZM32.9692 45.3499L34.5317 44.8342L34.2183 43.8846L32.6558 44.4002L32.9692 45.3499ZM33.3125 48.875V44.875H32.3125V48.875H33.3125ZM40.8125 63.5625H37.5V64.5625H40.8125V63.5625ZM41.4882 54.6255L40.3164 64.0005L41.3086 64.1246L42.4805 54.7496L41.4882 54.6255ZM37.5 55.1875H41.9844V54.1875H37.5V55.1875ZM38 64.0625V54.6875H37V64.0625H38ZM45.3125 51.0625H37.5V52.0625H45.3125V51.0625ZM44.8125 42.1875V51.5625H45.8125V42.1875H44.8125ZM37.5 42.6875H45.3125V41.6875H37.5V42.6875ZM38 51.5625V42.1875H37V51.5625H38ZM61.1232 56.5983L48.6232 51.5983L48.2518 52.5268L60.7518 57.5268L61.1232 56.5983ZM60.4375 36.6875V57.0625H61.4375V36.6875H60.4375ZM48.6232 42.1518L61.1232 37.1518L60.7518 36.2233L48.2518 41.2233L48.6232 42.1518ZM48.9375 52.0625V41.6875H47.9375V52.0625H48.9375ZM65.625 47.9375H64.0625V48.9375H65.625V47.9375ZM66.3763 47.6263C66.177 47.8256 65.9068 47.9375 65.625 47.9375V48.9375C66.172 48.9375 66.6966 48.7202 67.0834 48.3335L66.3763 47.6263ZM66.6875 46.875C66.6875 47.1568 66.5756 47.4271 66.3763 47.6263L67.0834 48.3335C67.4702 47.9467 67.6875 47.4221 67.6875 46.875H66.6875ZM66.3763 46.1237C66.5756 46.323 66.6875 46.5933 66.6875 46.875H67.6875C67.6875 46.328 67.4702 45.8034 67.0834 45.4166L66.3763 46.1237ZM65.625 45.8125C65.9068 45.8125 66.177 45.9245 66.3763 46.1237L67.0834 45.4166C66.6966 45.0298 66.172 44.8125 65.625 44.8125V45.8125ZM64.0625 45.8125H65.625V44.8125H64.0625V45.8125ZM64.5625 48.4375V45.3125H63.5625V48.4375H64.5625Z" fill="url(#paint1_linear)" mask="url(#path-1-outside-1)"/>
<defs>
<linearGradient id="paint0_linear" x1="3.61799" y1="5.11156" x2="100.377" y2="9.07837" gradientUnits="userSpaceOnUse">
<stop stop-color="#0BB9F6"/>
<stop offset="1" stop-color="#5B6FED"/>
</linearGradient>
<linearGradient id="paint1_linear" x1="3.61799" y1="5.11156" x2="100.377" y2="9.07837" gradientUnits="userSpaceOnUse">
<stop stop-color="#0BB9F6"/>
<stop offset="1" stop-color="#5B6FED"/>
</linearGradient>
</defs>
</svg>
