<svg width="100" height="100" viewBox="0 0 100 100" fill="none" xmlns="http://www.w3.org/2000/svg">
<mask id="path-1-outside-1" maskUnits="userSpaceOnUse" x="2.125" y="3.6875" width="96" height="94" fill="black">
<rect fill="white" x="2.125" y="3.6875" width="96" height="94"/>
<path fill-rule="evenodd" clip-rule="evenodd" d="M10.9375 4.6875H14.0625V7.8125H10.9375V4.6875ZM10.9375 10.9375H7.8125V7.8125H10.9375V10.9375ZM14.0625 10.9375V14.0625H10.9375V10.9375H14.0625ZM14.0625 10.9375H17.1875V7.8125H14.0625V10.9375ZM64.0625 53.125H65.625C66.0394 53.125 66.4368 53.2897 66.7299 53.5827C67.0229 53.8757 67.1875 54.2731 67.1875 54.6875V60.9375C67.1875 61.3519 67.0229 61.7494 66.7299 62.0424C66.4368 62.3354 66.0394 62.5 65.625 62.5H34.375C33.9606 62.5 33.5632 62.3354 33.2701 62.0424C32.9771 61.7494 32.8125 61.3519 32.8125 60.9375V54.6875C32.8125 54.2731 32.9771 53.8757 33.2701 53.5827C33.5632 53.2897 33.9606 53.125 34.375 53.125H35.9375V48.4375C35.9375 48.0231 36.1021 47.6257 36.3951 47.3327C36.6882 47.0397 37.0856 46.875 37.5 46.875H39.1562L40.5312 25H37.5C37.1398 25.0001 36.7906 24.8757 36.5116 24.648C36.2326 24.4202 36.0408 24.103 35.9688 23.75L34.7187 17.5L32.8438 8.12504C32.7979 7.8981 32.8036 7.66376 32.8604 7.4393C32.9172 7.21484 33.0236 7.006 33.1719 6.82817C33.3151 6.64645 33.4979 6.49989 33.7064 6.39969C33.915 6.29948 34.1437 6.2483 34.375 6.25004H40.625C41.0394 6.25004 41.4368 6.41466 41.7299 6.70769C42.0229 7.00071 42.1875 7.39814 42.1875 7.81254V10.9375H45.3125V7.81254C45.3125 7.39814 45.4771 7.00071 45.7701 6.70769C46.0632 6.41466 46.4606 6.25004 46.875 6.25004H53.125C53.5394 6.25004 53.9368 6.41466 54.2299 6.70769C54.5229 7.00071 54.6875 7.39814 54.6875 7.81254V10.9375H57.8125V7.81254C57.8125 7.39814 57.9771 7.00071 58.2701 6.70769C58.5632 6.41466 58.9606 6.25004 59.375 6.25004H65.625C65.8563 6.2483 66.085 6.29948 66.2936 6.39969C66.5021 6.49989 66.6849 6.64645 66.8281 6.82817C66.9764 7.006 67.0828 7.21484 67.1396 7.4393C67.1964 7.66376 67.2021 7.8981 67.1562 8.12504L64.0312 23.75C63.9592 24.103 63.7674 24.4202 63.4884 24.648C63.2094 24.8757 62.8602 25.0001 62.5 25H59.4688L60.8437 46.875H62.5C62.9144 46.875 63.3118 47.0397 63.6049 47.3327C63.8979 47.6257 64.0625 48.0231 64.0625 48.4375V53.125ZM38.1562 18.75L38.7812 21.875H61.2188L61.8438 18.75H45.3125V15.625H62.4688L63.7188 9.37504H60.9375V12.5C60.9375 12.9144 60.7729 13.3119 60.4799 13.6049C60.1868 13.8979 59.7894 14.0625 59.375 14.0625H53.125C52.7106 14.0625 52.3132 13.8979 52.0201 13.6049C51.7271 13.3119 51.5625 12.9144 51.5625 12.5V9.37504H48.4375V12.5C48.4375 12.9144 48.2729 13.3119 47.9799 13.6049C47.6868 13.8979 47.2894 14.0625 46.875 14.0625H40.625C40.2106 14.0625 39.8132 13.8979 39.5201 13.6049C39.2271 13.3119 39.0625 12.9144 39.0625 12.5V9.37504H36.2812L37.5312 15.625H42.1875V18.75H38.1562ZM42.2812 46.875H57.7187L56.3438 25H43.6562L42.2812 46.875ZM60.9375 50H39.0625V53.125H60.9375V50ZM35.9375 59.375H64.0625V56.25H35.9375V59.375ZM35.9375 85.9375H34.7187L36.7812 75.625C37.2989 73.0354 36.8621 70.3459 35.5516 68.0531L31.25 60.5219V58.0312L32.9469 52.0938C33.1746 51.302 33.2152 50.4682 33.0652 49.6581C32.9153 48.8481 32.579 48.084 32.083 47.4262C31.587 46.7685 30.9447 46.2351 30.2071 45.8683C29.4695 45.5014 28.6566 45.3112 27.8328 45.3125C26.678 45.3159 25.5554 45.6938 24.6336 46.3894C23.7118 47.085 23.0405 48.0608 22.7203 49.1703L20.5609 56.7188L18.3734 57.8125H16.4609L14.0625 54.2188V36.7188C14.0625 35.2683 13.4863 33.8773 12.4607 32.8518C11.4352 31.8262 10.0442 31.25 8.59375 31.25C7.14335 31.25 5.75235 31.8262 4.72676 32.8518C3.70117 33.8773 3.125 35.2683 3.125 36.7188V67.1875C3.12506 67.5664 3.26277 67.9323 3.5125 68.2172L14.0625 80.275V85.9375H12.5C12.0856 85.9375 11.6882 86.1021 11.3951 86.3951C11.1021 86.6882 10.9375 87.0856 10.9375 87.5V95.3125C10.9375 95.7269 11.1021 96.1243 11.3951 96.4174C11.6882 96.7104 12.0856 96.875 12.5 96.875H35.9375C36.3519 96.875 36.7493 96.7104 37.0424 96.4174C37.3354 96.1243 37.5 95.7269 37.5 95.3125V87.5C37.5 87.0856 37.3354 86.6882 37.0424 86.3951C36.7493 86.1021 36.3519 85.9375 35.9375 85.9375ZM16.8 78.6578L6.25 66.6016V36.7188C6.25 36.0971 6.49693 35.501 6.93647 35.0615C7.37601 34.6219 7.97215 34.375 8.59375 34.375C9.21535 34.375 9.81149 34.6219 10.251 35.0615C10.6906 35.501 10.9375 36.0971 10.9375 36.7188V54.6875C10.938 54.9961 11.0293 55.2977 11.2 55.5547L14.325 60.2422C14.4677 60.4561 14.6611 60.6315 14.8878 60.7528C15.1146 60.8741 15.3678 60.9375 15.625 60.9375H18.75C18.9918 60.9402 19.2308 60.8867 19.4484 60.7813L22.5734 59.2188C22.7671 59.1218 22.9386 58.9856 23.0768 58.8188C23.2151 58.652 23.3172 58.4583 23.3766 58.25L25.7203 50.0375C25.8514 49.5779 26.1283 49.1733 26.5093 48.8847C26.8904 48.5961 27.3548 48.4392 27.8328 48.4375C28.1727 48.4363 28.5082 48.5142 28.8126 48.6652C29.1171 48.8162 29.3822 49.036 29.587 49.3073C29.7917 49.5786 29.9304 49.8939 29.992 50.2281C30.0537 50.5623 30.0366 50.9063 29.9422 51.2328L28.1859 57.3828C28.1454 57.5224 28.1249 57.6671 28.125 57.8125V60.9375C28.1235 61.2116 28.1947 61.4811 28.3312 61.7188L32.8391 69.6078C33.7745 71.246 34.0864 73.1672 33.7172 75.0172L31.5312 85.9375H17.1875V79.6875C17.1874 79.3086 17.0497 78.9427 16.8 78.6578ZM34.375 93.75H14.0625V89.0625H34.375V93.75ZM91.4062 31.25C89.9558 31.25 88.5648 31.8262 87.5393 32.8518C86.5137 33.8773 85.9375 35.2683 85.9375 36.7188V54.2188L83.5312 57.8125H81.625L79.4375 56.7188L77.2812 49.1719C76.9593 48.0638 76.2879 47.0895 75.3672 46.394C74.4465 45.6986 73.3257 45.3192 72.1719 45.3125C71.3478 45.3114 70.5347 45.5017 69.7967 45.8684C69.0587 46.2351 68.4159 46.7682 67.919 47.4256C67.4221 48.0831 67.0847 48.8469 66.9334 49.657C66.782 50.4671 66.8209 51.3012 67.0469 52.0938L68.75 58.0312V60.5156L64.4531 68.0469C63.1412 70.3414 62.7028 73.0328 63.2188 75.625L65.2812 85.9375H64.0625C63.6481 85.9375 63.2507 86.1021 62.9576 86.3951C62.6646 86.6882 62.5 87.0856 62.5 87.5V95.3125C62.5 95.7269 62.6646 96.1243 62.9576 96.4174C63.2507 96.7104 63.6481 96.875 64.0625 96.875H87.5C87.9144 96.875 88.3118 96.7104 88.6049 96.4174C88.8979 96.1243 89.0625 95.7269 89.0625 95.3125V87.5C89.0625 87.0856 88.8979 86.6882 88.6049 86.3951C88.3118 86.1021 87.9144 85.9375 87.5 85.9375H85.9375V80.2812L96.4844 68.2188C96.7356 67.9339 96.8745 67.5673 96.875 67.1875V36.7188C96.875 35.2683 96.2988 33.8773 95.2732 32.8518C94.2477 31.8262 92.8567 31.25 91.4062 31.25ZM85.9375 93.75H65.625V89.0625H85.9375V93.75ZM93.75 66.5938L83.2031 78.6562C82.9519 78.9411 82.813 79.3077 82.8125 79.6875V85.9375H68.4688L66.2812 75.0156C65.9052 73.1671 66.2164 71.2449 67.1562 69.6094L71.6719 61.7188C71.801 61.4783 71.8706 61.2104 71.875 60.9375V57.8125C71.8785 57.6693 71.8573 57.5266 71.8125 57.3906L70.0625 51.2344C69.9701 50.9079 69.9546 50.5645 70.0171 50.231C70.0796 49.8975 70.2184 49.583 70.4227 49.3122C70.627 49.0413 70.8912 48.8214 71.1947 48.6696C71.4981 48.5179 71.8326 48.4384 72.1719 48.4375C72.6484 48.4399 73.1113 48.5965 73.4915 48.8837C73.8717 49.171 74.1487 49.5735 74.2812 50.0312L76.625 58.2344C76.6829 58.4425 76.7837 58.6362 76.921 58.8031C77.0582 58.9699 77.2288 59.1062 77.4219 59.2031L80.5469 60.7656C80.7646 60.8772 81.0054 60.936 81.25 60.9375H84.375C84.6324 60.9362 84.8854 60.8713 85.1116 60.7486C85.3379 60.626 85.5303 60.4493 85.6719 60.2344L88.7969 55.5469C88.9706 55.294 89.0633 54.9943 89.0625 54.6875V36.7188C89.0625 36.0971 89.3094 35.501 89.749 35.0615C90.1885 34.6219 90.7846 34.375 91.4062 34.375C92.0279 34.375 92.624 34.6219 93.0635 35.0615C93.5031 35.501 93.75 36.0971 93.75 36.7188V66.5938ZM21.875 23.4375H25V26.5625H21.875V23.4375ZM21.875 29.6875H18.75V26.5625H21.875V29.6875ZM21.875 29.6875V32.8125H25V29.6875H28.125V26.5625H25V29.6875H21.875ZM85.9375 4.6875H89.0625V7.8125H85.9375V4.6875ZM85.9375 10.9375H82.8125V7.8125H85.9375V10.9375ZM89.0625 10.9375V14.0625H85.9375V10.9375H89.0625ZM89.0625 10.9375H92.1875V7.8125H89.0625V10.9375ZM75 23.4375H78.125V26.5625H75V23.4375ZM75 29.6875H78.125V32.8125H75V29.6875ZM75 29.6875V26.5625H71.875V29.6875H75ZM78.125 29.6875H81.25V26.5625H78.125V29.6875Z"/>
</mask>
<path fill-rule="evenodd" clip-rule="evenodd" d="M10.9375 4.6875H14.0625V7.8125H10.9375V4.6875ZM10.9375 10.9375H7.8125V7.8125H10.9375V10.9375ZM14.0625 10.9375V14.0625H10.9375V10.9375H14.0625ZM14.0625 10.9375H17.1875V7.8125H14.0625V10.9375ZM64.0625 53.125H65.625C66.0394 53.125 66.4368 53.2897 66.7299 53.5827C67.0229 53.8757 67.1875 54.2731 67.1875 54.6875V60.9375C67.1875 61.3519 67.0229 61.7494 66.7299 62.0424C66.4368 62.3354 66.0394 62.5 65.625 62.5H34.375C33.9606 62.5 33.5632 62.3354 33.2701 62.0424C32.9771 61.7494 32.8125 61.3519 32.8125 60.9375V54.6875C32.8125 54.2731 32.9771 53.8757 33.2701 53.5827C33.5632 53.2897 33.9606 53.125 34.375 53.125H35.9375V48.4375C35.9375 48.0231 36.1021 47.6257 36.3951 47.3327C36.6882 47.0397 37.0856 46.875 37.5 46.875H39.1562L40.5312 25H37.5C37.1398 25.0001 36.7906 24.8757 36.5116 24.648C36.2326 24.4202 36.0408 24.103 35.9688 23.75L34.7187 17.5L32.8438 8.12504C32.7979 7.8981 32.8036 7.66376 32.8604 7.4393C32.9172 7.21484 33.0236 7.006 33.1719 6.82817C33.3151 6.64645 33.4979 6.49989 33.7064 6.39969C33.915 6.29948 34.1437 6.2483 34.375 6.25004H40.625C41.0394 6.25004 41.4368 6.41466 41.7299 6.70769C42.0229 7.00071 42.1875 7.39814 42.1875 7.81254V10.9375H45.3125V7.81254C45.3125 7.39814 45.4771 7.00071 45.7701 6.70769C46.0632 6.41466 46.4606 6.25004 46.875 6.25004H53.125C53.5394 6.25004 53.9368 6.41466 54.2299 6.70769C54.5229 7.00071 54.6875 7.39814 54.6875 7.81254V10.9375H57.8125V7.81254C57.8125 7.39814 57.9771 7.00071 58.2701 6.70769C58.5632 6.41466 58.9606 6.25004 59.375 6.25004H65.625C65.8563 6.2483 66.085 6.29948 66.2936 6.39969C66.5021 6.49989 66.6849 6.64645 66.8281 6.82817C66.9764 7.006 67.0828 7.21484 67.1396 7.4393C67.1964 7.66376 67.2021 7.8981 67.1562 8.12504L64.0312 23.75C63.9592 24.103 63.7674 24.4202 63.4884 24.648C63.2094 24.8757 62.8602 25.0001 62.5 25H59.4688L60.8437 46.875H62.5C62.9144 46.875 63.3118 47.0397 63.6049 47.3327C63.8979 47.6257 64.0625 48.0231 64.0625 48.4375V53.125ZM38.1562 18.75L38.7812 21.875H61.2188L61.8438 18.75H45.3125V15.625H62.4688L63.7188 9.37504H60.9375V12.5C60.9375 12.9144 60.7729 13.3119 60.4799 13.6049C60.1868 13.8979 59.7894 14.0625 59.375 14.0625H53.125C52.7106 14.0625 52.3132 13.8979 52.0201 13.6049C51.7271 13.3119 51.5625 12.9144 51.5625 12.5V9.37504H48.4375V12.5C48.4375 12.9144 48.2729 13.3119 47.9799 13.6049C47.6868 13.8979 47.2894 14.0625 46.875 14.0625H40.625C40.2106 14.0625 39.8132 13.8979 39.5201 13.6049C39.2271 13.3119 39.0625 12.9144 39.0625 12.5V9.37504H36.2812L37.5312 15.625H42.1875V18.75H38.1562ZM42.2812 46.875H57.7187L56.3438 25H43.6562L42.2812 46.875ZM60.9375 50H39.0625V53.125H60.9375V50ZM35.9375 59.375H64.0625V56.25H35.9375V59.375ZM35.9375 85.9375H34.7187L36.7812 75.625C37.2989 73.0354 36.8621 70.3459 35.5516 68.0531L31.25 60.5219V58.0312L32.9469 52.0938C33.1746 51.302 33.2152 50.4682 33.0652 49.6581C32.9153 48.8481 32.579 48.084 32.083 47.4262C31.587 46.7685 30.9447 46.2351 30.2071 45.8683C29.4695 45.5014 28.6566 45.3112 27.8328 45.3125C26.678 45.3159 25.5554 45.6938 24.6336 46.3894C23.7118 47.085 23.0405 48.0608 22.7203 49.1703L20.5609 56.7188L18.3734 57.8125H16.4609L14.0625 54.2188V36.7188C14.0625 35.2683 13.4863 33.8773 12.4607 32.8518C11.4352 31.8262 10.0442 31.25 8.59375 31.25C7.14335 31.25 5.75235 31.8262 4.72676 32.8518C3.70117 33.8773 3.125 35.2683 3.125 36.7188V67.1875C3.12506 67.5664 3.26277 67.9323 3.5125 68.2172L14.0625 80.275V85.9375H12.5C12.0856 85.9375 11.6882 86.1021 11.3951 86.3951C11.1021 86.6882 10.9375 87.0856 10.9375 87.5V95.3125C10.9375 95.7269 11.1021 96.1243 11.3951 96.4174C11.6882 96.7104 12.0856 96.875 12.5 96.875H35.9375C36.3519 96.875 36.7493 96.7104 37.0424 96.4174C37.3354 96.1243 37.5 95.7269 37.5 95.3125V87.5C37.5 87.0856 37.3354 86.6882 37.0424 86.3951C36.7493 86.1021 36.3519 85.9375 35.9375 85.9375ZM16.8 78.6578L6.25 66.6016V36.7188C6.25 36.0971 6.49693 35.501 6.93647 35.0615C7.37601 34.6219 7.97215 34.375 8.59375 34.375C9.21535 34.375 9.81149 34.6219 10.251 35.0615C10.6906 35.501 10.9375 36.0971 10.9375 36.7188V54.6875C10.938 54.9961 11.0293 55.2977 11.2 55.5547L14.325 60.2422C14.4677 60.4561 14.6611 60.6315 14.8878 60.7528C15.1146 60.8741 15.3678 60.9375 15.625 60.9375H18.75C18.9918 60.9402 19.2308 60.8867 19.4484 60.7813L22.5734 59.2188C22.7671 59.1218 22.9386 58.9856 23.0768 58.8188C23.2151 58.652 23.3172 58.4583 23.3766 58.25L25.7203 50.0375C25.8514 49.5779 26.1283 49.1733 26.5093 48.8847C26.8904 48.5961 27.3548 48.4392 27.8328 48.4375C28.1727 48.4363 28.5082 48.5142 28.8126 48.6652C29.1171 48.8162 29.3822 49.036 29.587 49.3073C29.7917 49.5786 29.9304 49.8939 29.992 50.2281C30.0537 50.5623 30.0366 50.9063 29.9422 51.2328L28.1859 57.3828C28.1454 57.5224 28.1249 57.6671 28.125 57.8125V60.9375C28.1235 61.2116 28.1947 61.4811 28.3312 61.7188L32.8391 69.6078C33.7745 71.246 34.0864 73.1672 33.7172 75.0172L31.5312 85.9375H17.1875V79.6875C17.1874 79.3086 17.0497 78.9427 16.8 78.6578ZM34.375 93.75H14.0625V89.0625H34.375V93.75ZM91.4062 31.25C89.9558 31.25 88.5648 31.8262 87.5393 32.8518C86.5137 33.8773 85.9375 35.2683 85.9375 36.7188V54.2188L83.5312 57.8125H81.625L79.4375 56.7188L77.2812 49.1719C76.9593 48.0638 76.2879 47.0895 75.3672 46.394C74.4465 45.6986 73.3257 45.3192 72.1719 45.3125C71.3478 45.3114 70.5347 45.5017 69.7967 45.8684C69.0587 46.2351 68.4159 46.7682 67.919 47.4256C67.4221 48.0831 67.0847 48.8469 66.9334 49.657C66.782 50.4671 66.8209 51.3012 67.0469 52.0938L68.75 58.0312V60.5156L64.4531 68.0469C63.1412 70.3414 62.7028 73.0328 63.2188 75.625L65.2812 85.9375H64.0625C63.6481 85.9375 63.2507 86.1021 62.9576 86.3951C62.6646 86.6882 62.5 87.0856 62.5 87.5V95.3125C62.5 95.7269 62.6646 96.1243 62.9576 96.4174C63.2507 96.7104 63.6481 96.875 64.0625 96.875H87.5C87.9144 96.875 88.3118 96.7104 88.6049 96.4174C88.8979 96.1243 89.0625 95.7269 89.0625 95.3125V87.5C89.0625 87.0856 88.8979 86.6882 88.6049 86.3951C88.3118 86.1021 87.9144 85.9375 87.5 85.9375H85.9375V80.2812L96.4844 68.2188C96.7356 67.9339 96.8745 67.5673 96.875 67.1875V36.7188C96.875 35.2683 96.2988 33.8773 95.2732 32.8518C94.2477 31.8262 92.8567 31.25 91.4062 31.25ZM85.9375 93.75H65.625V89.0625H85.9375V93.75ZM93.75 66.5938L83.2031 78.6562C82.9519 78.9411 82.813 79.3077 82.8125 79.6875V85.9375H68.4688L66.2812 75.0156C65.9052 73.1671 66.2164 71.2449 67.1562 69.6094L71.6719 61.7188C71.801 61.4783 71.8706 61.2104 71.875 60.9375V57.8125C71.8785 57.6693 71.8573 57.5266 71.8125 57.3906L70.0625 51.2344C69.9701 50.9079 69.9546 50.5645 70.0171 50.231C70.0796 49.8975 70.2184 49.583 70.4227 49.3122C70.627 49.0413 70.8912 48.8214 71.1947 48.6696C71.4981 48.5179 71.8326 48.4384 72.1719 48.4375C72.6484 48.4399 73.1113 48.5965 73.4915 48.8837C73.8717 49.171 74.1487 49.5735 74.2812 50.0312L76.625 58.2344C76.6829 58.4425 76.7837 58.6362 76.921 58.8031C77.0582 58.9699 77.2288 59.1062 77.4219 59.2031L80.5469 60.7656C80.7646 60.8772 81.0054 60.936 81.25 60.9375H84.375C84.6324 60.9362 84.8854 60.8713 85.1116 60.7486C85.3379 60.626 85.5303 60.4493 85.6719 60.2344L88.7969 55.5469C88.9706 55.294 89.0633 54.9943 89.0625 54.6875V36.7188C89.0625 36.0971 89.3094 35.501 89.749 35.0615C90.1885 34.6219 90.7846 34.375 91.4062 34.375C92.0279 34.375 92.624 34.6219 93.0635 35.0615C93.5031 35.501 93.75 36.0971 93.75 36.7188V66.5938ZM21.875 23.4375H25V26.5625H21.875V23.4375ZM21.875 29.6875H18.75V26.5625H21.875V29.6875ZM21.875 29.6875V32.8125H25V29.6875H28.125V26.5625H25V29.6875H21.875ZM85.9375 4.6875H89.0625V7.8125H85.9375V4.6875ZM85.9375 10.9375H82.8125V7.8125H85.9375V10.9375ZM89.0625 10.9375V14.0625H85.9375V10.9375H89.0625ZM89.0625 10.9375H92.1875V7.8125H89.0625V10.9375ZM75 23.4375H78.125V26.5625H75V23.4375ZM75 29.6875H78.125V32.8125H75V29.6875ZM75 29.6875V26.5625H71.875V29.6875H75ZM78.125 29.6875H81.25V26.5625H78.125V29.6875Z" fill="url(#paint0_linear)"/>
<path d="M14.0625 4.6875H14.5625V4.1875H14.0625V4.6875ZM10.9375 4.6875V4.1875H10.4375V4.6875H10.9375ZM7.8125 10.9375H7.3125V11.4375H7.8125V10.9375ZM7.8125 7.8125V7.3125H7.3125V7.8125H7.8125ZM14.0625 14.0625V14.5625H14.5625V14.0625H14.0625ZM10.9375 14.0625H10.4375V14.5625H10.9375V14.0625ZM17.1875 10.9375V11.4375H17.6875V10.9375H17.1875ZM17.1875 7.8125H17.6875V7.3125H17.1875V7.8125ZM64.0625 53.125H63.5625V53.625H64.0625V53.125ZM33.2701 62.0424L33.6237 61.6888L33.2701 62.0424ZM33.2701 53.5827L33.6237 53.9362L33.2701 53.5827ZM35.9375 53.125V53.625H36.4375V53.125H35.9375ZM39.1562 46.875V47.375H39.6258L39.6553 46.9064L39.1562 46.875ZM40.5312 25L41.0303 25.0314L41.0637 24.5H40.5312V25ZM37.5 25V24.5H37.4999L37.5 25ZM36.5116 24.648L36.1954 25.0353V25.0353L36.5116 24.648ZM35.9688 23.75L35.4785 23.8481L35.4789 23.85L35.9688 23.75ZM34.7187 17.5L34.2285 17.5981V17.5981L34.7187 17.5ZM32.8438 8.12504L33.334 8.02698L33.3338 8.02603L32.8438 8.12504ZM32.8604 7.4393L32.3756 7.31666V7.31666L32.8604 7.4393ZM33.1719 6.82817L33.5561 7.14847L33.5646 7.13763L33.1719 6.82817ZM33.7064 6.39969L33.4899 5.94901L33.4899 5.94902L33.7064 6.39969ZM34.375 6.25004L34.3712 6.75004H34.375V6.25004ZM41.7299 6.70769L42.0834 6.35414V6.35414L41.7299 6.70769ZM42.1875 10.9375H41.6875V11.4375H42.1875V10.9375ZM45.3125 10.9375V11.4375H45.8125V10.9375H45.3125ZM45.7701 6.70769L45.4166 6.35414V6.35414L45.7701 6.70769ZM54.2299 6.70769L54.5834 6.35414V6.35414L54.2299 6.70769ZM54.6875 10.9375H54.1875V11.4375H54.6875V10.9375ZM57.8125 10.9375V11.4375H58.3125V10.9375H57.8125ZM58.2701 6.70769L57.9166 6.35414V6.35414L58.2701 6.70769ZM65.625 6.25004V6.75006L65.6288 6.75003L65.625 6.25004ZM66.2936 6.39969L66.5101 5.94902L66.5101 5.94901L66.2936 6.39969ZM66.8281 6.82817L66.4352 7.13775L66.4441 7.14835L66.8281 6.82817ZM67.1396 7.4393L66.6549 7.56194V7.56195L67.1396 7.4393ZM67.1562 8.12504L66.6661 8.02604L66.666 8.02698L67.1562 8.12504ZM64.0312 23.75L64.5212 23.85L64.5215 23.8481L64.0312 23.75ZM63.4884 24.648L63.8046 25.0353V25.0353L63.4884 24.648ZM62.5 25L62.5001 24.5H62.5V25ZM59.4688 25V24.5H58.9363L58.9697 25.0314L59.4688 25ZM60.8437 46.875L60.3447 46.9064L60.3742 47.375H60.8437V46.875ZM38.7812 21.875L38.291 21.9731L38.3713 22.375H38.7812V21.875ZM38.1562 18.75V18.25H37.5463L37.666 18.8481L38.1562 18.75ZM61.2188 21.875V22.375H61.6287L61.709 21.9731L61.2188 21.875ZM61.8438 18.75L62.334 18.8481L62.4537 18.25H61.8438V18.75ZM45.3125 18.75H44.8125V19.25H45.3125V18.75ZM45.3125 15.625V15.125H44.8125V15.625H45.3125ZM62.4688 15.625V16.125H62.8787L62.959 15.7231L62.4688 15.625ZM63.7188 9.37504L64.209 9.4731L64.3287 8.87504H63.7188V9.37504ZM60.9375 9.37504V8.87504H60.4375V9.37504H60.9375ZM60.4799 13.6049L60.8334 13.9585L60.4799 13.6049ZM52.0201 13.6049L51.6666 13.9585L52.0201 13.6049ZM51.5625 9.37504H52.0625V8.87504H51.5625V9.37504ZM48.4375 9.37504V8.87504H47.9375V9.37504H48.4375ZM47.9799 13.6049L48.3334 13.9585L47.9799 13.6049ZM39.5201 13.6049L39.1666 13.9585L39.5201 13.6049ZM39.0625 9.37504H39.5625V8.87504H39.0625V9.37504ZM36.2812 9.37504V8.87504H35.6713L35.791 9.4731L36.2812 9.37504ZM37.5312 15.625L37.041 15.7231L37.1213 16.125H37.5312V15.625ZM42.1875 15.625H42.6875V15.125H42.1875V15.625ZM42.1875 18.75V19.25H42.6875V18.75H42.1875ZM57.7187 46.875V47.375H58.2512L58.2178 46.8437L57.7187 46.875ZM42.2812 46.875L41.7822 46.8437L41.7488 47.375H42.2812V46.875ZM56.3438 25L56.8428 24.9687L56.8133 24.5H56.3438V25ZM43.6562 25V24.5H43.1867L43.1572 24.9687L43.6562 25ZM39.0625 50V49.5H38.5625V50H39.0625ZM60.9375 50H61.4375V49.5H60.9375V50ZM39.0625 53.125H38.5625V53.625H39.0625V53.125ZM60.9375 53.125V53.625H61.4375V53.125H60.9375ZM64.0625 59.375V59.875H64.5625V59.375H64.0625ZM35.9375 59.375H35.4375V59.875H35.9375V59.375ZM64.0625 56.25H64.5625V55.75H64.0625V56.25ZM35.9375 56.25V55.75H35.4375V56.25H35.9375ZM34.7187 85.9375L34.2285 85.8394L34.1088 86.4375H34.7187V85.9375ZM36.7812 75.625L37.2715 75.7231L37.2715 75.723L36.7812 75.625ZM35.5516 68.0531L35.1174 68.3011L35.1175 68.3013L35.5516 68.0531ZM31.25 60.5219H30.75V60.6546L30.8158 60.7699L31.25 60.5219ZM31.25 58.0312L30.7692 57.8939L30.75 57.9612V58.0312H31.25ZM32.9469 52.0938L32.4664 51.9555L32.4661 51.9564L32.9469 52.0938ZM32.083 47.4262L32.4822 47.1252H32.4822L32.083 47.4262ZM30.2071 45.8683L29.9845 46.316L30.2071 45.8683ZM27.8328 45.3125L27.832 44.8125L27.8313 44.8125L27.8328 45.3125ZM22.7203 49.1703L22.2399 49.0317L22.2396 49.0328L22.7203 49.1703ZM20.5609 56.7188L20.7845 57.166L20.9812 57.0676L21.0417 56.8563L20.5609 56.7188ZM18.3734 57.8125V58.3125H18.4915L18.597 58.2597L18.3734 57.8125ZM16.4609 57.8125L16.0451 58.0901L16.1935 58.3125H16.4609V57.8125ZM14.0625 54.2188H13.5625V54.3703L13.6466 54.4963L14.0625 54.2188ZM12.4607 32.8518L12.8143 32.4982H12.8143L12.4607 32.8518ZM4.72676 32.8518L4.37321 32.4982L4.72676 32.8518ZM3.125 67.1875H2.625V67.1876L3.125 67.1875ZM3.5125 68.2172L3.8888 67.8879L3.8885 67.8876L3.5125 68.2172ZM14.0625 80.275H14.5625V80.0871L14.4388 79.9458L14.0625 80.275ZM14.0625 85.9375V86.4375H14.5625V85.9375H14.0625ZM11.3951 86.3951L11.0416 86.0416H11.0416L11.3951 86.3951ZM11.3951 96.4174L11.0416 96.7709H11.0416L11.3951 96.4174ZM37.0424 96.4174L37.3959 96.7709H37.3959L37.0424 96.4174ZM37.0424 86.3951L37.3959 86.0416H37.3959L37.0424 86.3951ZM6.25 66.6016H5.75V66.7894L5.87372 66.9308L6.25 66.6016ZM16.8 78.6578L16.4237 78.9871L16.424 78.9874L16.8 78.6578ZM6.93647 35.0615L6.58291 34.7079H6.58291L6.93647 35.0615ZM10.9375 54.6875H10.4375L10.4375 54.6883L10.9375 54.6875ZM11.2 55.5547L10.7835 55.8313L10.784 55.832L11.2 55.5547ZM14.325 60.2422L13.909 60.5195L13.9091 60.5197L14.325 60.2422ZM15.625 60.9375V60.4375H15.6249L15.625 60.9375ZM18.75 60.9375L18.7555 60.4375H18.75V60.9375ZM19.4484 60.7813L19.6665 61.2313L19.672 61.2285L19.4484 60.7813ZM22.5734 59.2188L22.797 59.666L22.7973 59.6659L22.5734 59.2188ZM23.0768 58.8188L22.6919 58.4997L22.6919 58.4997L23.0768 58.8188ZM23.3766 58.25L22.8958 58.1128L22.8957 58.1129L23.3766 58.25ZM25.7203 50.0375L26.2011 50.1747L26.2011 50.1746L25.7203 50.0375ZM26.5093 48.8847L26.8112 49.2833L26.8112 49.2833L26.5093 48.8847ZM27.8328 48.4375L27.8345 48.9375H27.8346L27.8328 48.4375ZM28.8126 48.6652L29.0348 48.2173L29.0348 48.2173L28.8126 48.6652ZM29.587 49.3073L29.9861 49.0062V49.0062L29.587 49.3073ZM29.9422 51.2328L29.4619 51.0939L29.4614 51.0955L29.9422 51.2328ZM28.1859 57.3828L28.6661 57.5222L28.6667 57.5201L28.1859 57.3828ZM28.125 57.8125H28.625V57.8121L28.125 57.8125ZM28.125 60.9375L28.625 60.9402V60.9375H28.125ZM28.3312 61.7188L28.7654 61.4707L28.7648 61.4696L28.3312 61.7188ZM32.8391 69.6078L33.2733 69.3599L33.2732 69.3597L32.8391 69.6078ZM33.7172 75.0172L34.2075 75.1153L34.2075 75.115L33.7172 75.0172ZM31.5312 85.9375V86.4375H31.9411L32.0215 86.0356L31.5312 85.9375ZM17.1875 85.9375H16.6875V86.4375H17.1875V85.9375ZM17.1875 79.6875H17.6875V79.6874L17.1875 79.6875ZM14.0625 93.75H13.5625V94.25H14.0625V93.75ZM34.375 93.75V94.25H34.875V93.75H34.375ZM14.0625 89.0625V88.5625H13.5625V89.0625H14.0625ZM34.375 89.0625H34.875V88.5625H34.375V89.0625ZM85.9375 54.2188L86.353 54.4969L86.4375 54.3707V54.2188H85.9375ZM83.5312 57.8125V58.3125H83.7982L83.9467 58.0907L83.5312 57.8125ZM81.625 57.8125L81.4014 58.2597L81.507 58.3125H81.625V57.8125ZM79.4375 56.7188L78.9567 56.8561L79.0172 57.0676L79.2139 57.166L79.4375 56.7188ZM77.2812 49.1719L77.762 49.0345L77.7614 49.0324L77.2812 49.1719ZM72.1719 45.3125L72.1748 44.8125L72.1725 44.8125L72.1719 45.3125ZM67.919 47.4256L67.5201 47.1241L67.919 47.4256ZM66.9334 49.657L66.4419 49.5652V49.5652L66.9334 49.657ZM67.0469 52.0938L66.566 52.2309L66.5663 52.2316L67.0469 52.0938ZM68.75 58.0312H69.25V57.961L69.2306 57.8934L68.75 58.0312ZM68.75 60.5156L69.1843 60.7634L69.25 60.6482V60.5156H68.75ZM64.4531 68.0469L64.8872 68.2951L64.8874 68.2947L64.4531 68.0469ZM63.2188 75.625L62.7284 75.7226L62.7285 75.7231L63.2188 75.625ZM65.2812 85.9375V86.4375H65.8912L65.7715 85.8394L65.2812 85.9375ZM62.9576 86.3951L62.6041 86.0416H62.6041L62.9576 86.3951ZM62.9576 96.4174L62.6041 96.7709H62.6041L62.9576 96.4174ZM88.6049 96.4174L88.9584 96.7709L88.9584 96.7709L88.6049 96.4174ZM88.6049 86.3951L88.9584 86.0416L88.9584 86.0416L88.6049 86.3951ZM85.9375 85.9375H85.4375V86.4375H85.9375V85.9375ZM85.9375 80.2812L85.5611 79.9521L85.4375 80.0935V80.2812H85.9375ZM96.4844 68.2188L96.1094 67.888L96.108 67.8896L96.4844 68.2188ZM96.875 67.1875L97.375 67.1882V67.1875H96.875ZM65.625 93.75H65.125V94.25H65.625V93.75ZM85.9375 93.75V94.25H86.4375V93.75H85.9375ZM65.625 89.0625V88.5625H65.125V89.0625H65.625ZM85.9375 89.0625H86.4375V88.5625H85.9375V89.0625ZM83.2031 78.6562L83.5781 78.987L83.5795 78.9854L83.2031 78.6562ZM93.75 66.5938L94.1264 66.9229L94.25 66.7815V66.5938H93.75ZM82.8125 79.6875L82.3125 79.6868V79.6875H82.8125ZM82.8125 85.9375V86.4375H83.3125V85.9375H82.8125ZM68.4688 85.9375L67.9785 86.0357L68.059 86.4375H68.4688V85.9375ZM66.2812 75.0156L66.7715 74.9174L66.7712 74.916L66.2812 75.0156ZM67.1562 69.6094L67.5898 69.8585L67.5902 69.8577L67.1562 69.6094ZM71.6719 61.7188L72.106 61.9672L72.1124 61.9553L71.6719 61.7188ZM71.875 60.9375L72.375 60.9455V60.9375H71.875ZM71.875 57.8125L71.375 57.8003V57.8125H71.875ZM71.8125 57.3906L71.3316 57.5273L71.3344 57.5373L71.3376 57.5472L71.8125 57.3906ZM70.0625 51.2344L69.5814 51.3705L69.5816 51.3711L70.0625 51.2344ZM70.0171 50.231L69.5256 50.1389V50.1389L70.0171 50.231ZM70.4227 49.3122L70.8219 49.6132V49.6132L70.4227 49.3122ZM71.1947 48.6696L70.9711 48.2224L70.971 48.2224L71.1947 48.6696ZM72.1719 48.4375L72.1744 47.9375L72.1705 47.9375L72.1719 48.4375ZM74.2812 50.0312L74.762 49.8939L74.7615 49.8922L74.2812 50.0312ZM76.625 58.2344L77.1067 58.1004L77.1058 58.097L76.625 58.2344ZM77.4219 59.2031L77.1975 59.6499L77.1983 59.6503L77.4219 59.2031ZM80.5469 60.7656L80.7749 60.3206L80.7705 60.3184L80.5469 60.7656ZM81.25 60.9375L81.247 61.4375H81.25V60.9375ZM84.375 60.9375V61.4375L84.3776 61.4375L84.375 60.9375ZM85.1116 60.7486L84.8733 60.3091L85.1116 60.7486ZM85.6719 60.2344L85.2558 59.957L85.2543 59.9594L85.6719 60.2344ZM88.7969 55.5469L88.3847 55.2637L88.3809 55.2695L88.7969 55.5469ZM89.0625 54.6875H88.5625V54.6887L89.0625 54.6875ZM89.749 35.0615L90.1025 35.415V35.415L89.749 35.0615ZM93.0635 35.0615L92.71 35.415V35.415L93.0635 35.0615ZM25 23.4375H25.5V22.9375H25V23.4375ZM21.875 23.4375V22.9375H21.375V23.4375H21.875ZM18.75 29.6875H18.25V30.1875H18.75V29.6875ZM18.75 26.5625V26.0625H18.25V26.5625H18.75ZM21.875 32.8125H21.375V33.3125H21.875V32.8125ZM25 32.8125V33.3125H25.5V32.8125H25ZM28.125 29.6875V30.1875H28.625V29.6875H28.125ZM28.125 26.5625H28.625V26.0625H28.125V26.5625ZM89.0625 4.6875H89.5625V4.1875H89.0625V4.6875ZM85.9375 4.6875V4.1875H85.4375V4.6875H85.9375ZM82.8125 10.9375H82.3125V11.4375H82.8125V10.9375ZM82.8125 7.8125V7.3125H82.3125V7.8125H82.8125ZM89.0625 14.0625V14.5625H89.5625V14.0625H89.0625ZM85.9375 14.0625H85.4375V14.5625H85.9375V14.0625ZM92.1875 10.9375V11.4375H92.6875V10.9375H92.1875ZM92.1875 7.8125H92.6875V7.3125H92.1875V7.8125ZM78.125 23.4375H78.625V22.9375H78.125V23.4375ZM75 23.4375V22.9375H74.5V23.4375H75ZM78.125 32.8125V33.3125H78.625V32.8125H78.125ZM75 32.8125H74.5V33.3125H75V32.8125ZM71.875 26.5625V26.0625H71.375V26.5625H71.875ZM71.875 29.6875H71.375V30.1875H71.875V29.6875ZM81.25 29.6875V30.1875H81.75V29.6875H81.25ZM81.25 26.5625H81.75V26.0625H81.25V26.5625ZM14.0625 4.1875H10.9375V5.1875H14.0625V4.1875ZM14.5625 7.8125V4.6875H13.5625V7.8125H14.5625ZM10.9375 8.3125H14.0625V7.3125H10.9375V8.3125ZM10.4375 4.6875V7.8125H11.4375V4.6875H10.4375ZM7.8125 11.4375H10.9375V10.4375H7.8125V11.4375ZM7.3125 7.8125V10.9375H8.3125V7.8125H7.3125ZM10.9375 7.3125H7.8125V8.3125H10.9375V7.3125ZM11.4375 10.9375V7.8125H10.4375V10.9375H11.4375ZM14.5625 14.0625V10.9375H13.5625V14.0625H14.5625ZM10.9375 14.5625H14.0625V13.5625H10.9375V14.5625ZM10.4375 10.9375V14.0625H11.4375V10.9375H10.4375ZM14.0625 10.4375H10.9375V11.4375H14.0625V10.4375ZM14.0625 11.4375H17.1875V10.4375H14.0625V11.4375ZM17.6875 10.9375V7.8125H16.6875V10.9375H17.6875ZM17.1875 7.3125H14.0625V8.3125H17.1875V7.3125ZM13.5625 7.8125V10.9375H14.5625V7.8125H13.5625ZM65.625 52.625H64.0625V53.625H65.625V52.625ZM67.0834 53.2291C66.6966 52.8423 66.172 52.625 65.625 52.625V53.625C65.9068 53.625 66.177 53.737 66.3763 53.9362L67.0834 53.2291ZM67.6875 54.6875C67.6875 54.1405 67.4702 53.6159 67.0834 53.2291L66.3763 53.9362C66.5756 54.1355 66.6875 54.4057 66.6875 54.6875H67.6875ZM67.6875 60.9375V54.6875H66.6875V60.9375H67.6875ZM67.0834 62.396C67.4702 62.0092 67.6875 61.4846 67.6875 60.9375H66.6875C66.6875 61.2193 66.5756 61.4896 66.3763 61.6888L67.0834 62.396ZM65.625 63C66.172 63 66.6966 62.7827 67.0834 62.396L66.3763 61.6888C66.177 61.8881 65.9068 62 65.625 62V63ZM34.375 63H65.625V62H34.375V63ZM32.9166 62.396C33.3034 62.7827 33.828 63 34.375 63V62C34.0932 62 33.823 61.8881 33.6237 61.6888L32.9166 62.396ZM32.3125 60.9375C32.3125 61.4846 32.5298 62.0092 32.9166 62.396L33.6237 61.6888C33.4244 61.4896 33.3125 61.2193 33.3125 60.9375H32.3125ZM32.3125 54.6875V60.9375H33.3125V54.6875H32.3125ZM32.9166 53.2291C32.5298 53.6159 32.3125 54.1405 32.3125 54.6875H33.3125C33.3125 54.4057 33.4244 54.1355 33.6237 53.9362L32.9166 53.2291ZM34.375 52.625C33.828 52.625 33.3034 52.8423 32.9166 53.2291L33.6237 53.9362C33.823 53.737 34.0932 53.625 34.375 53.625V52.625ZM35.9375 52.625H34.375V53.625H35.9375V52.625ZM35.4375 48.4375V53.125H36.4375V48.4375H35.4375ZM36.0416 46.9791C35.6548 47.3659 35.4375 47.8905 35.4375 48.4375H36.4375C36.4375 48.1557 36.5494 47.8855 36.7487 47.6862L36.0416 46.9791ZM37.5 46.375C36.953 46.375 36.4284 46.5923 36.0416 46.9791L36.7487 47.6862C36.948 47.487 37.2182 47.375 37.5 47.375V46.375ZM39.1562 46.375H37.5V47.375H39.1562V46.375ZM40.0322 24.9687L38.6572 46.8437L39.6553 46.9064L41.0303 25.0314L40.0322 24.9687ZM37.5 25.5H40.5312V24.5H37.5V25.5ZM36.1954 25.0353C36.5637 25.336 37.0246 25.5001 37.5001 25.5L37.4999 24.5C37.255 24.5001 37.0175 24.4155 36.8278 24.2606L36.1954 25.0353ZM35.4789 23.85C35.5739 24.3159 35.8271 24.7346 36.1954 25.0353L36.8278 24.2606C36.638 24.1057 36.5076 23.89 36.4586 23.65L35.4789 23.85ZM34.2285 17.5981L35.4785 23.8481L36.459 23.652L35.209 17.402L34.2285 17.5981ZM32.3535 8.2231L34.2285 17.5981L35.209 17.402L33.334 8.02698L32.3535 8.2231ZM32.3756 7.31666C32.3005 7.61367 32.293 7.92376 32.3537 8.22405L33.3338 8.02603C33.3028 7.87244 33.3067 7.71384 33.3451 7.56194L32.3756 7.31666ZM32.7878 6.50799C32.5917 6.7433 32.4508 7.01965 32.3756 7.31666L33.3451 7.56194C33.3835 7.41004 33.4556 7.2687 33.5559 7.14835L32.7878 6.50799ZM33.4899 5.94902C33.2126 6.08224 32.9695 6.2771 32.7791 6.51871L33.5646 7.13763C33.6606 7.0158 33.7832 6.91754 33.923 6.85035L33.4899 5.94902ZM34.3788 5.75006C34.0712 5.74774 33.7671 5.81579 33.4899 5.94901L33.923 6.85036C34.0628 6.78318 34.2161 6.74886 34.3712 6.75003L34.3788 5.75006ZM40.625 5.75004H34.375V6.75004H40.625V5.75004ZM42.0834 6.35414C41.6966 5.96734 41.172 5.75004 40.625 5.75004V6.75004C40.9068 6.75004 41.177 6.86198 41.3763 7.06124L42.0834 6.35414ZM42.6875 7.81254C42.6875 7.26553 42.4702 6.74093 42.0834 6.35414L41.3763 7.06124C41.5756 7.2605 41.6875 7.53075 41.6875 7.81254H42.6875ZM42.6875 10.9375V7.81254H41.6875V10.9375H42.6875ZM45.3125 10.4375H42.1875V11.4375H45.3125V10.4375ZM44.8125 7.81254V10.9375H45.8125V7.81254H44.8125ZM45.4166 6.35414C45.0298 6.74093 44.8125 7.26553 44.8125 7.81254H45.8125C45.8125 7.53075 45.9244 7.2605 46.1237 7.06124L45.4166 6.35414ZM46.875 5.75004C46.328 5.75004 45.8034 5.96734 45.4166 6.35414L46.1237 7.06124C46.323 6.86198 46.5932 6.75004 46.875 6.75004V5.75004ZM53.125 5.75004H46.875V6.75004H53.125V5.75004ZM54.5834 6.35414C54.1966 5.96734 53.672 5.75004 53.125 5.75004V6.75004C53.4068 6.75004 53.677 6.86198 53.8763 7.06124L54.5834 6.35414ZM55.1875 7.81254C55.1875 7.26553 54.9702 6.74093 54.5834 6.35414L53.8763 7.06124C54.0756 7.2605 54.1875 7.53075 54.1875 7.81254H55.1875ZM55.1875 10.9375V7.81254H54.1875V10.9375H55.1875ZM57.8125 10.4375H54.6875V11.4375H57.8125V10.4375ZM57.3125 7.81254V10.9375H58.3125V7.81254H57.3125ZM57.9166 6.35414C57.5298 6.74093 57.3125 7.26553 57.3125 7.81254H58.3125C58.3125 7.53075 58.4244 7.2605 58.6237 7.06124L57.9166 6.35414ZM59.375 5.75004C58.828 5.75004 58.3034 5.96734 57.9166 6.35414L58.6237 7.06124C58.823 6.86198 59.0932 6.75004 59.375 6.75004V5.75004ZM65.625 5.75004H59.375V6.75004H65.625V5.75004ZM66.5101 5.94901C66.2329 5.81579 65.9288 5.74774 65.6212 5.75006L65.6288 6.75003C65.7839 6.74886 65.9372 6.78318 66.077 6.85036L66.5101 5.94901ZM67.2209 6.51871C67.0305 6.2771 66.7874 6.08224 66.5101 5.94902L66.077 6.85035C66.2168 6.91754 66.3394 7.0158 66.4354 7.13763L67.2209 6.51871ZM67.6244 7.31666C67.5492 7.01966 67.4083 6.7433 67.2122 6.50799L66.4441 7.14835C66.5444 7.2687 66.6165 7.41003 66.6549 7.56194L67.6244 7.31666ZM67.6463 8.22405C67.707 7.92376 67.6995 7.61367 67.6244 7.31665L66.6549 7.56195C66.6933 7.71384 66.6972 7.87244 66.6661 8.02604L67.6463 8.22405ZM64.5215 23.8481L67.6465 8.2231L66.666 8.02698L63.541 23.652L64.5215 23.8481ZM63.8046 25.0353C64.1729 24.7346 64.4261 24.3159 64.5211 23.85L63.5414 23.65C63.4924 23.89 63.362 24.1057 63.1722 24.2606L63.8046 25.0353ZM62.4999 25.5C62.9754 25.5001 63.4363 25.336 63.8046 25.0353L63.1722 24.2606C62.9825 24.4155 62.745 24.5001 62.5001 24.5L62.4999 25.5ZM59.4688 25.5H62.5V24.5H59.4688V25.5ZM61.3428 46.8437L59.9678 24.9687L58.9697 25.0314L60.3447 46.9064L61.3428 46.8437ZM62.5 46.375H60.8437V47.375H62.5V46.375ZM63.9584 46.9791C63.5716 46.5923 63.047 46.375 62.5 46.375V47.375C62.7818 47.375 63.052 47.487 63.2513 47.6862L63.9584 46.9791ZM64.5625 48.4375C64.5625 47.8905 64.3452 47.3659 63.9584 46.9791L63.2513 47.6862C63.4506 47.8855 63.5625 48.1557 63.5625 48.4375H64.5625ZM64.5625 53.125V48.4375H63.5625V53.125H64.5625ZM39.2715 21.777L38.6465 18.652L37.666 18.8481L38.291 21.9731L39.2715 21.777ZM61.2188 21.375H38.7812V22.375H61.2188V21.375ZM61.3535 18.652L60.7285 21.777L61.709 21.9731L62.334 18.8481L61.3535 18.652ZM45.3125 19.25H61.8438V18.25H45.3125V19.25ZM44.8125 15.625V18.75H45.8125V15.625H44.8125ZM62.4688 15.125H45.3125V16.125H62.4688V15.125ZM63.2285 9.27699L61.9785 15.527L62.959 15.7231L64.209 9.4731L63.2285 9.27699ZM60.9375 9.87504H63.7188V8.87504H60.9375V9.87504ZM61.4375 12.5V9.37504H60.4375V12.5H61.4375ZM60.8334 13.9585C61.2202 13.5717 61.4375 13.0471 61.4375 12.5H60.4375C60.4375 12.7818 60.3256 13.0521 60.1263 13.2513L60.8334 13.9585ZM59.375 14.5625C59.922 14.5625 60.4466 14.3452 60.8334 13.9585L60.1263 13.2513C59.927 13.4506 59.6568 13.5625 59.375 13.5625V14.5625ZM53.125 14.5625H59.375V13.5625H53.125V14.5625ZM51.6666 13.9585C52.0534 14.3452 52.578 14.5625 53.125 14.5625V13.5625C52.8432 13.5625 52.573 13.4506 52.3737 13.2513L51.6666 13.9585ZM51.0625 12.5C51.0625 13.0471 51.2798 13.5717 51.6666 13.9585L52.3737 13.2513C52.1744 13.0521 52.0625 12.7818 52.0625 12.5H51.0625ZM51.0625 9.37504V12.5H52.0625V9.37504H51.0625ZM48.4375 9.87504H51.5625V8.87504H48.4375V9.87504ZM48.9375 12.5V9.37504H47.9375V12.5H48.9375ZM48.3334 13.9585C48.7202 13.5717 48.9375 13.0471 48.9375 12.5H47.9375C47.9375 12.7818 47.8256 13.0521 47.6263 13.2513L48.3334 13.9585ZM46.875 14.5625C47.422 14.5625 47.9466 14.3452 48.3334 13.9585L47.6263 13.2513C47.427 13.4506 47.1568 13.5625 46.875 13.5625V14.5625ZM40.625 14.5625H46.875V13.5625H40.625V14.5625ZM39.1666 13.9585C39.5534 14.3452 40.078 14.5625 40.625 14.5625V13.5625C40.3432 13.5625 40.073 13.4506 39.8737 13.2513L39.1666 13.9585ZM38.5625 12.5C38.5625 13.0471 38.7798 13.5717 39.1666 13.9585L39.8737 13.2513C39.6744 13.0521 39.5625 12.7818 39.5625 12.5H38.5625ZM38.5625 9.37504V12.5H39.5625V9.37504H38.5625ZM36.2812 9.87504H39.0625V8.87504H36.2812V9.87504ZM38.0215 15.527L36.7715 9.27699L35.791 9.4731L37.041 15.7231L38.0215 15.527ZM42.1875 15.125H37.5312V16.125H42.1875V15.125ZM42.6875 18.75V15.625H41.6875V18.75H42.6875ZM38.1562 19.25H42.1875V18.25H38.1562V19.25ZM57.7187 46.375H42.2812V47.375H57.7187V46.375ZM55.8447 25.0314L57.2197 46.9064L58.2178 46.8437L56.8428 24.9687L55.8447 25.0314ZM43.6562 25.5H56.3438V24.5H43.6562V25.5ZM42.7803 46.9064L44.1553 25.0314L43.1572 24.9687L41.7822 46.8437L42.7803 46.9064ZM39.0625 50.5H60.9375V49.5H39.0625V50.5ZM39.5625 53.125V50H38.5625V53.125H39.5625ZM60.9375 52.625H39.0625V53.625H60.9375V52.625ZM60.4375 50V53.125H61.4375V50H60.4375ZM64.0625 58.875H35.9375V59.875H64.0625V58.875ZM63.5625 56.25V59.375H64.5625V56.25H63.5625ZM35.9375 56.75H64.0625V55.75H35.9375V56.75ZM36.4375 59.375V56.25H35.4375V59.375H36.4375ZM34.7187 86.4375H35.9375V85.4375H34.7187V86.4375ZM36.291 75.5269L34.2285 85.8394L35.209 86.0356L37.2715 75.7231L36.291 75.5269ZM35.1175 68.3013C36.3681 70.4892 36.785 73.0557 36.291 75.527L37.2715 75.723C37.8129 73.015 37.3561 70.2025 35.9856 67.805L35.1175 68.3013ZM30.8158 60.7699L35.1174 68.3011L35.9857 67.8051L31.6842 60.2739L30.8158 60.7699ZM30.75 58.0312V60.5219H31.75V58.0312H30.75ZM32.4661 51.9564L30.7692 57.8939L31.7308 58.1686L33.4276 52.2311L32.4661 51.9564ZM32.5736 49.7491C32.7094 50.483 32.6727 51.2383 32.4664 51.9555L33.4274 52.232C33.6766 51.3658 33.7209 50.4535 33.5569 49.5672L32.5736 49.7491ZM31.6838 47.7273C32.1331 48.3231 32.4378 49.0153 32.5736 49.7491L33.5569 49.5672C33.3928 48.6808 33.0249 47.8448 32.4822 47.1252L31.6838 47.7273ZM29.9845 46.316C30.6527 46.6483 31.2344 47.1315 31.6838 47.7273L32.4822 47.1252C31.9395 46.4055 31.2368 45.822 30.4298 45.4206L29.9845 46.316ZM27.8336 45.8125C28.5799 45.8113 29.3162 45.9837 29.9845 46.316L30.4298 45.4206C29.6227 45.0192 28.7334 44.811 27.832 44.8125L27.8336 45.8125ZM24.9348 46.7885C25.7703 46.1581 26.7877 45.8156 27.8343 45.8125L27.8313 44.8125C26.5683 44.8162 25.3406 45.2295 24.3325 45.9902L24.9348 46.7885ZM23.2007 49.3089C23.4909 48.3033 24.0993 47.4189 24.9348 46.7885L24.3325 45.9902C23.3243 46.751 22.59 47.8182 22.2399 49.0317L23.2007 49.3089ZM21.0417 56.8563L23.201 49.3078L22.2396 49.0328L20.0802 56.5812L21.0417 56.8563ZM18.597 58.2597L20.7845 57.166L20.3373 56.2715L18.1498 57.3653L18.597 58.2597ZM16.4609 58.3125H18.3734V57.3125H16.4609V58.3125ZM13.6466 54.4963L16.0451 58.0901L16.8768 57.5349L14.4784 53.9412L13.6466 54.4963ZM13.5625 36.7188V54.2188H14.5625V36.7188H13.5625ZM12.1072 33.2053C13.039 34.1371 13.5625 35.401 13.5625 36.7188H14.5625C14.5625 35.1357 13.9337 33.6176 12.8143 32.4982L12.1072 33.2053ZM8.59375 31.75C9.91154 31.75 11.1754 32.2735 12.1072 33.2053L12.8143 32.4982C11.6949 31.3788 10.1768 30.75 8.59375 30.75V31.75ZM5.08031 33.2053C6.01213 32.2735 7.27596 31.75 8.59375 31.75V30.75C7.01074 30.75 5.49256 31.3788 4.37321 32.4982L5.08031 33.2053ZM3.625 36.7188C3.625 35.401 4.14849 34.1371 5.08031 33.2053L4.37321 32.4982C3.25385 33.6176 2.625 35.1357 2.625 36.7188H3.625ZM3.625 67.1875V36.7188H2.625V67.1875H3.625ZM3.8885 67.8876C3.71869 67.6939 3.62504 67.445 3.625 67.1874L2.625 67.1876C2.62508 67.6877 2.80686 68.1707 3.1365 68.5468L3.8885 67.8876ZM14.4388 79.9458L3.8888 67.8879L3.1362 68.5464L13.6862 80.6042L14.4388 79.9458ZM14.5625 85.9375V80.275H13.5625V85.9375H14.5625ZM12.5 86.4375H14.0625V85.4375H12.5V86.4375ZM11.7487 86.7487C11.948 86.5494 12.2182 86.4375 12.5 86.4375V85.4375C11.953 85.4375 11.4284 85.6548 11.0416 86.0416L11.7487 86.7487ZM11.4375 87.5C11.4375 87.2182 11.5494 86.948 11.7487 86.7487L11.0416 86.0416C10.6548 86.4284 10.4375 86.953 10.4375 87.5H11.4375ZM11.4375 95.3125V87.5H10.4375V95.3125H11.4375ZM11.7487 96.0638C11.5494 95.8645 11.4375 95.5943 11.4375 95.3125H10.4375C10.4375 95.8595 10.6548 96.3841 11.0416 96.7709L11.7487 96.0638ZM12.5 96.375C12.2182 96.375 11.948 96.2631 11.7487 96.0638L11.0416 96.7709C11.4284 97.1577 11.953 97.375 12.5 97.375V96.375ZM35.9375 96.375H12.5V97.375H35.9375V96.375ZM36.6888 96.0638C36.4895 96.2631 36.2193 96.375 35.9375 96.375V97.375C36.4845 97.375 37.0091 97.1577 37.3959 96.7709L36.6888 96.0638ZM37 95.3125C37 95.5943 36.8881 95.8645 36.6888 96.0638L37.3959 96.7709C37.7827 96.3841 38 95.8595 38 95.3125H37ZM37 87.5V95.3125H38V87.5H37ZM36.6888 86.7487C36.8881 86.948 37 87.2182 37 87.5H38C38 86.953 37.7827 86.4284 37.3959 86.0416L36.6888 86.7487ZM35.9375 86.4375C36.2193 86.4375 36.4895 86.5494 36.6888 86.7487L37.3959 86.0416C37.0091 85.6548 36.4845 85.4375 35.9375 85.4375V86.4375ZM5.87372 66.9308L16.4237 78.9871L17.1763 78.3285L6.62628 66.2723L5.87372 66.9308ZM5.75 36.7188V66.6016H6.75V36.7188H5.75ZM6.58291 34.7079C6.04961 35.2412 5.75 35.9645 5.75 36.7188H6.75C6.75 36.2298 6.94425 35.7608 7.29002 35.415L6.58291 34.7079ZM8.59375 33.875C7.83954 33.875 7.11622 34.1746 6.58291 34.7079L7.29002 35.415C7.63579 35.0693 8.10476 34.875 8.59375 34.875V33.875ZM10.6046 34.7079C10.0713 34.1746 9.34796 33.875 8.59375 33.875V34.875C9.08274 34.875 9.55171 35.0693 9.89748 35.415L10.6046 34.7079ZM11.4375 36.7188C11.4375 35.9645 11.1379 35.2412 10.6046 34.7079L9.89748 35.415C10.2432 35.7608 10.4375 36.2298 10.4375 36.7188H11.4375ZM11.4375 54.6875V36.7188H10.4375V54.6875H11.4375ZM11.6165 55.278C11.5001 55.1028 11.4378 54.8971 11.4375 54.6867L10.4375 54.6883C10.4381 55.095 10.5585 55.4925 10.7835 55.8313L11.6165 55.278ZM14.741 59.9648L11.616 55.2773L10.784 55.832L13.909 60.5195L14.741 59.9648ZM15.1237 60.3119C14.9694 60.2294 14.838 60.1102 14.7409 59.9647L13.9091 60.5197C14.0975 60.8021 14.3527 61.0336 14.652 61.1937L15.1237 60.3119ZM15.6249 60.4375C15.45 60.4375 15.2779 60.3944 15.1237 60.3119L14.652 61.1937C14.9514 61.3538 15.2856 61.4375 15.6251 61.4375L15.6249 60.4375ZM18.75 60.4375H15.625V61.4375H18.75V60.4375ZM19.2304 60.3313C19.0825 60.403 18.9199 60.4393 18.7555 60.4375L18.7445 61.4375C19.0636 61.441 19.3792 61.3704 19.6664 61.2312L19.2304 60.3313ZM22.3498 58.7715L19.2248 60.334L19.672 61.2285L22.797 59.666L22.3498 58.7715ZM22.6919 58.4997C22.5979 58.6131 22.4813 58.7057 22.3496 58.7717L22.7973 59.6659C23.053 59.5378 23.2793 59.3581 23.4618 59.1379L22.6919 58.4997ZM22.8957 58.1129C22.8553 58.2546 22.7859 58.3863 22.6919 58.4997L23.4618 59.1379C23.6443 58.9178 23.779 58.6621 23.8574 58.3871L22.8957 58.1129ZM25.2395 49.9003L22.8958 58.1128L23.8574 58.3872L26.2011 50.1747L25.2395 49.9003ZM26.2075 48.4861C25.74 48.8401 25.4003 49.3365 25.2395 49.9004L26.2011 50.1746C26.3025 49.8192 26.5166 49.5064 26.8112 49.2833L26.2075 48.4861ZM27.8311 47.9375C27.2447 47.9395 26.6749 48.1321 26.2075 48.4861L26.8112 49.2833C27.1058 49.0601 27.465 48.9388 27.8345 48.9375L27.8311 47.9375ZM29.0348 48.2173C28.6607 48.0318 28.2485 47.936 27.831 47.9375L27.8346 48.9375C28.0968 48.9365 28.3556 48.9967 28.5905 49.1132L29.0348 48.2173ZM29.9861 49.0062C29.7346 48.6729 29.4088 48.4028 29.0348 48.2173L28.5905 49.1132C28.8254 49.2296 29.0299 49.3992 29.1878 49.6085L29.9861 49.0062ZM30.4837 50.1374C30.408 49.7268 30.2376 49.3395 29.9861 49.0062L29.1878 49.6085C29.3458 49.8178 29.4528 50.061 29.5003 50.3188L30.4837 50.1374ZM30.4225 51.3717C30.5385 50.9706 30.5595 50.548 30.4837 50.1374L29.5003 50.3188C29.5479 50.5767 29.5347 50.842 29.4619 51.0939L30.4225 51.3717ZM28.6667 57.5201L30.423 51.3701L29.4614 51.0955L27.7052 57.2455L28.6667 57.5201ZM28.625 57.8121C28.6249 57.714 28.6388 57.6164 28.6661 57.5222L27.7058 57.2434C27.652 57.4284 27.6248 57.6202 27.625 57.8129L28.625 57.8121ZM28.625 60.9375V57.8125H27.625V60.9375H28.625ZM28.7648 61.4696C28.6722 61.3086 28.624 61.1259 28.625 60.9402L27.625 60.9348C27.6231 61.2972 27.7172 61.6536 27.8977 61.9679L28.7648 61.4696ZM33.2732 69.3597L28.7654 61.4707L27.8971 61.9668L32.4049 69.8559L33.2732 69.3597ZM34.2075 75.115C34.6003 73.1468 34.2685 71.1028 33.2733 69.3599L32.4049 69.8557C33.2805 71.3893 33.5724 73.1876 33.2269 74.9193L34.2075 75.115ZM32.0215 86.0356L34.2075 75.1153L33.2269 74.9191L31.041 85.8394L32.0215 86.0356ZM17.1875 86.4375H31.5312V85.4375H17.1875V86.4375ZM16.6875 79.6875V85.9375H17.6875V79.6875H16.6875ZM16.424 78.9874C16.5938 79.1811 16.6875 79.43 16.6875 79.6876L17.6875 79.6874C17.6874 79.1873 17.5056 78.7043 17.176 78.3282L16.424 78.9874ZM14.0625 94.25H34.375V93.25H14.0625V94.25ZM13.5625 89.0625V93.75H14.5625V89.0625H13.5625ZM34.375 88.5625H14.0625V89.5625H34.375V88.5625ZM34.875 93.75V89.0625H33.875V93.75H34.875ZM87.8928 33.2053C88.8246 32.2735 90.0885 31.75 91.4062 31.75V30.75C89.8232 30.75 88.3051 31.3788 87.1857 32.4982L87.8928 33.2053ZM86.4375 36.7188C86.4375 35.401 86.961 34.1371 87.8928 33.2053L87.1857 32.4982C86.0664 33.6176 85.4375 35.1357 85.4375 36.7188H86.4375ZM86.4375 54.2188V36.7188H85.4375V54.2188H86.4375ZM83.9467 58.0907L86.353 54.4969L85.522 53.9406L83.1158 57.5343L83.9467 58.0907ZM81.625 58.3125H83.5312V57.3125H81.625V58.3125ZM79.2139 57.166L81.4014 58.2597L81.8486 57.3653L79.6611 56.2715L79.2139 57.166ZM76.8005 49.3092L78.9567 56.8561L79.9183 56.5814L77.762 49.0345L76.8005 49.3092ZM75.0658 46.793C75.9006 47.4235 76.5092 48.3069 76.8011 49.3114L77.7614 49.0324C77.4094 47.8208 76.6753 46.7555 75.6686 45.9951L75.0658 46.793ZM72.169 45.8125C73.215 45.8186 74.2311 46.1625 75.0658 46.793L75.6686 45.9951C74.6619 45.2346 73.4364 44.8199 72.1748 44.8125L72.169 45.8125ZM70.0192 46.3162C70.6878 45.9839 71.4245 45.8115 72.1712 45.8125L72.1725 44.8125C71.271 44.8113 70.3815 45.0195 69.5742 45.4206L70.0192 46.3162ZM68.3179 47.7271C68.7681 47.1314 69.3505 46.6484 70.0192 46.3162L69.5742 45.4206C68.7668 45.8218 68.0637 46.4049 67.5201 47.1241L68.3179 47.7271ZM67.4249 49.7488C67.562 49.0149 67.8677 48.3228 68.3179 47.7271L67.5201 47.1241C66.9766 47.8434 66.6075 48.679 66.4419 49.5652L67.4249 49.7488ZM67.5277 51.9566C67.323 51.2386 67.2878 50.4828 67.4249 49.7488L66.4419 49.5652C66.2763 50.4514 66.3188 51.3639 66.566 52.2309L67.5277 51.9566ZM69.2306 57.8934L67.5275 51.9559L66.5663 52.2316L68.2694 58.1691L69.2306 57.8934ZM69.25 60.5156V58.0312H68.25V60.5156H69.25ZM64.8874 68.2947L69.1843 60.7634L68.3157 60.2678L64.0188 67.7991L64.8874 68.2947ZM63.7091 75.5274C63.2167 73.0534 63.6351 70.4849 64.8872 68.2951L64.0191 67.7987C62.6473 70.1979 62.1889 73.0121 62.7284 75.7226L63.7091 75.5274ZM65.7715 85.8394L63.709 75.5269L62.7285 75.7231L64.791 86.0356L65.7715 85.8394ZM64.0625 86.4375H65.2812V85.4375H64.0625V86.4375ZM63.3112 86.7487C63.5105 86.5494 63.7807 86.4375 64.0625 86.4375V85.4375C63.5155 85.4375 62.9909 85.6548 62.6041 86.0416L63.3112 86.7487ZM63 87.5C63 87.2182 63.1119 86.948 63.3112 86.7487L62.6041 86.0416C62.2173 86.4284 62 86.953 62 87.5H63ZM63 95.3125V87.5H62V95.3125H63ZM63.3112 96.0638C63.1119 95.8645 63 95.5943 63 95.3125H62C62 95.8595 62.2173 96.3841 62.6041 96.7709L63.3112 96.0638ZM64.0625 96.375C63.7807 96.375 63.5105 96.2631 63.3112 96.0638L62.6041 96.7709C62.9909 97.1577 63.5155 97.375 64.0625 97.375V96.375ZM87.5 96.375H64.0625V97.375H87.5V96.375ZM88.2513 96.0638C88.052 96.2631 87.7818 96.375 87.5 96.375V97.375C88.047 97.375 88.5716 97.1577 88.9584 96.7709L88.2513 96.0638ZM88.5625 95.3125C88.5625 95.5943 88.4506 95.8645 88.2513 96.0638L88.9584 96.7709C89.3452 96.3841 89.5625 95.8595 89.5625 95.3125H88.5625ZM88.5625 87.5V95.3125H89.5625V87.5H88.5625ZM88.2513 86.7487C88.4506 86.948 88.5625 87.2182 88.5625 87.5H89.5625C89.5625 86.953 89.3452 86.4284 88.9584 86.0416L88.2513 86.7487ZM87.5 86.4375C87.7818 86.4375 88.052 86.5494 88.2513 86.7487L88.9584 86.0416C88.5716 85.6548 88.047 85.4375 87.5 85.4375V86.4375ZM85.9375 86.4375H87.5V85.4375H85.9375V86.4375ZM85.4375 80.2812V85.9375H86.4375V80.2812H85.4375ZM96.108 67.8896L85.5611 79.9521L86.3139 80.6104L96.8608 68.5479L96.108 67.8896ZM96.375 67.1868C96.3746 67.445 96.2802 67.6943 96.1094 67.888L96.8594 68.5495C97.191 68.1735 97.3743 67.6896 97.375 67.1882L96.375 67.1868ZM96.375 36.7188V67.1875H97.375V36.7188H96.375ZM94.9197 33.2053C95.8515 34.1371 96.375 35.401 96.375 36.7188H97.375C97.375 35.1357 96.7461 33.6176 95.6268 32.4982L94.9197 33.2053ZM91.4062 31.75C92.724 31.75 93.9879 32.2735 94.9197 33.2053L95.6268 32.4982C94.5074 31.3788 92.9893 30.75 91.4062 30.75V31.75ZM65.625 94.25H85.9375V93.25H65.625V94.25ZM65.125 89.0625V93.75H66.125V89.0625H65.125ZM85.9375 88.5625H65.625V89.5625H85.9375V88.5625ZM86.4375 93.75V89.0625H85.4375V93.75H86.4375ZM83.5795 78.9854L94.1264 66.9229L93.3736 66.2646L82.8267 78.3271L83.5795 78.9854ZM83.3125 79.6882C83.3129 79.43 83.4073 79.1807 83.5781 78.987L82.8281 78.3255C82.4965 78.7015 82.3132 79.1854 82.3125 79.6868L83.3125 79.6882ZM83.3125 85.9375V79.6875H82.3125V85.9375H83.3125ZM68.4688 86.4375H82.8125V85.4375H68.4688V86.4375ZM65.791 75.1138L67.9785 86.0357L68.959 85.8393L66.7715 74.9174L65.791 75.1138ZM66.7227 69.3602C65.7222 71.1013 65.391 73.1475 65.7913 75.1153L66.7712 74.916C66.4195 73.1867 66.7105 71.3885 67.5898 69.8585L66.7227 69.3602ZM71.2379 61.4704L66.7223 69.361L67.5902 69.8577L72.1058 61.9671L71.2379 61.4704ZM71.3751 60.9295C71.372 61.1226 71.3227 61.3121 71.2314 61.4822L72.1124 61.9553C72.2793 61.6445 72.3693 61.2982 72.3749 60.9455L71.3751 60.9295ZM71.375 57.8125V60.9375H72.375V57.8125H71.375ZM71.3376 57.5472C71.3646 57.6288 71.3772 57.7144 71.3751 57.8003L72.3749 57.8247C72.3797 57.6242 72.3501 57.4245 72.2874 57.2341L71.3376 57.5472ZM69.5816 51.3711L71.3316 57.5273L72.2934 57.2539L70.5434 51.0977L69.5816 51.3711ZM69.5256 50.1389C69.4489 50.5482 69.468 50.9698 69.5814 51.3705L70.5436 51.0983C70.4723 50.8461 70.4603 50.5807 70.5085 50.3231L69.5256 50.1389ZM70.0235 49.0111C69.7727 49.3436 69.6023 49.7296 69.5256 50.1389L70.5085 50.3231C70.5568 50.0655 70.6641 49.8225 70.8219 49.6132L70.0235 49.0111ZM70.971 48.2224C70.5986 48.4087 70.2743 48.6786 70.0235 49.0111L70.8219 49.6132C70.9797 49.404 71.1839 49.2341 71.4183 49.1168L70.971 48.2224ZM72.1705 47.9375C71.7541 47.9386 71.3435 48.0362 70.9711 48.2224L71.4183 49.1168C71.6527 48.9996 71.9111 48.9382 72.1732 48.9375L72.1705 47.9375ZM73.7929 48.4848C73.3266 48.1325 72.7589 47.9405 72.1744 47.9375L72.1693 48.9375C72.5379 48.9394 72.896 49.0605 73.1901 49.2827L73.7929 48.4848ZM74.7615 49.8922C74.599 49.3308 74.2592 48.8371 73.7929 48.4848L73.1901 49.2827C73.4842 49.5049 73.6985 49.8163 73.801 50.1703L74.7615 49.8922ZM77.1058 58.097L74.762 49.8939L73.8005 50.1686L76.1442 58.3717L77.1058 58.097ZM77.3071 58.4854C77.2142 58.3725 77.1459 58.2413 77.1067 58.1004L76.1433 58.3684C76.2199 58.6437 76.3533 58.9 76.5348 59.1207L77.3071 58.4854ZM77.6463 58.7563C77.5155 58.6907 77.4 58.5984 77.3071 58.4854L76.5348 59.1207C76.7164 59.3414 76.9421 59.5217 77.1975 59.6499L77.6463 58.7563ZM80.7705 60.3184L77.6455 58.7559L77.1983 59.6503L80.3233 61.2128L80.7705 60.3184ZM81.253 60.4375C81.0867 60.4365 80.9229 60.3965 80.7749 60.3206L80.3189 61.2106C80.6062 61.3578 80.9241 61.4356 81.247 61.4375L81.253 60.4375ZM84.375 60.4375H81.25V61.4375H84.375V60.4375ZM84.8733 60.3091C84.7195 60.3925 84.5474 60.4366 84.3724 60.4375L84.3776 61.4375C84.7173 61.4357 85.0513 61.3501 85.35 61.1882L84.8733 60.3091ZM85.2543 59.9594C85.158 60.1055 85.0272 60.2257 84.8733 60.3091L85.35 61.1882C85.6486 61.0263 85.9026 60.7931 86.0895 60.5094L85.2543 59.9594ZM88.3809 55.2695L85.2559 59.957L86.0879 60.5117L89.2129 55.8242L88.3809 55.2695ZM88.5625 54.6887C88.563 54.894 88.501 55.0945 88.3848 55.2637L89.209 55.83C89.4402 55.4935 89.5635 55.0946 89.5625 54.6863L88.5625 54.6887ZM88.5625 36.7188V54.6875H89.5625V36.7188H88.5625ZM89.3954 34.7079C88.8621 35.2412 88.5625 35.9645 88.5625 36.7188H89.5625C89.5625 36.2298 89.7567 35.7608 90.1025 35.415L89.3954 34.7079ZM91.4062 33.875C90.652 33.875 89.9287 34.1746 89.3954 34.7079L90.1025 35.415C90.4483 35.0693 90.9173 34.875 91.4062 34.875V33.875ZM93.4171 34.7079C92.8838 34.1746 92.1605 33.875 91.4062 33.875V34.875C91.8952 34.875 92.3642 35.0693 92.71 35.415L93.4171 34.7079ZM94.25 36.7188C94.25 35.9645 93.9504 35.2412 93.4171 34.7079L92.71 35.415C93.0558 35.7608 93.25 36.2298 93.25 36.7188H94.25ZM94.25 66.5938V36.7188H93.25V66.5938H94.25ZM25 22.9375H21.875V23.9375H25V22.9375ZM25.5 26.5625V23.4375H24.5V26.5625H25.5ZM21.875 27.0625H25V26.0625H21.875V27.0625ZM21.375 23.4375V26.5625H22.375V23.4375H21.375ZM18.75 30.1875H21.875V29.1875H18.75V30.1875ZM18.25 26.5625V29.6875H19.25V26.5625H18.25ZM21.875 26.0625H18.75V27.0625H21.875V26.0625ZM22.375 29.6875V26.5625H21.375V29.6875H22.375ZM21.375 29.6875V32.8125H22.375V29.6875H21.375ZM21.875 33.3125H25V32.3125H21.875V33.3125ZM25.5 32.8125V29.6875H24.5V32.8125H25.5ZM25 30.1875H28.125V29.1875H25V30.1875ZM28.625 29.6875V26.5625H27.625V29.6875H28.625ZM28.125 26.0625H25V27.0625H28.125V26.0625ZM24.5 26.5625V29.6875H25.5V26.5625H24.5ZM25 29.1875H21.875V30.1875H25V29.1875ZM89.0625 4.1875H85.9375V5.1875H89.0625V4.1875ZM89.5625 7.8125V4.6875H88.5625V7.8125H89.5625ZM85.9375 8.3125H89.0625V7.3125H85.9375V8.3125ZM85.4375 4.6875V7.8125H86.4375V4.6875H85.4375ZM82.8125 11.4375H85.9375V10.4375H82.8125V11.4375ZM82.3125 7.8125V10.9375H83.3125V7.8125H82.3125ZM85.9375 7.3125H82.8125V8.3125H85.9375V7.3125ZM86.4375 10.9375V7.8125H85.4375V10.9375H86.4375ZM89.5625 14.0625V10.9375H88.5625V14.0625H89.5625ZM85.9375 14.5625H89.0625V13.5625H85.9375V14.5625ZM85.4375 10.9375V14.0625H86.4375V10.9375H85.4375ZM89.0625 10.4375H85.9375V11.4375H89.0625V10.4375ZM89.0625 11.4375H92.1875V10.4375H89.0625V11.4375ZM92.6875 10.9375V7.8125H91.6875V10.9375H92.6875ZM92.1875 7.3125H89.0625V8.3125H92.1875V7.3125ZM88.5625 7.8125V10.9375H89.5625V7.8125H88.5625ZM78.125 22.9375H75V23.9375H78.125V22.9375ZM78.625 26.5625V23.4375H77.625V26.5625H78.625ZM75 27.0625H78.125V26.0625H75V27.0625ZM74.5 23.4375V26.5625H75.5V23.4375H74.5ZM75 30.1875H78.125V29.1875H75V30.1875ZM77.625 29.6875V32.8125H78.625V29.6875H77.625ZM78.125 32.3125H75V33.3125H78.125V32.3125ZM75.5 32.8125V29.6875H74.5V32.8125H75.5ZM75.5 29.6875V26.5625H74.5V29.6875H75.5ZM75 26.0625H71.875V27.0625H75V26.0625ZM71.375 26.5625V29.6875H72.375V26.5625H71.375ZM71.875 30.1875H75V29.1875H71.875V30.1875ZM78.125 30.1875H81.25V29.1875H78.125V30.1875ZM81.75 29.6875V26.5625H80.75V29.6875H81.75ZM81.25 26.0625H78.125V27.0625H81.25V26.0625ZM77.625 26.5625V29.6875H78.625V26.5625H77.625Z" fill="url(#paint1_linear)" mask="url(#path-1-outside-1)"/>
<defs>
<linearGradient id="paint0_linear" x1="3.61799" y1="6.64095" x2="100.372" y2="10.6748" gradientUnits="userSpaceOnUse">
<stop stop-color="#0BB9F6"/>
<stop offset="1" stop-color="#5B6FED"/>
</linearGradient>
<linearGradient id="paint1_linear" x1="3.61799" y1="6.64095" x2="100.372" y2="10.6748" gradientUnits="userSpaceOnUse">
<stop stop-color="#0BB9F6"/>
<stop offset="1" stop-color="#5B6FED"/>
</linearGradient>
</defs>
</svg>
