<svg width="529" height="34" viewBox="0 0 529 34" fill="none" xmlns="http://www.w3.org/2000/svg">
<path d="M45.0562 27.2397L49.742 22.1347C50.2466 22.73 50.8414 23.2712 51.4902 23.7582C52.986 24.8045 54.536 25.3276 56.1219 25.3276C57.3475 25.3276 58.2846 25.075 58.9515 24.588C59.6183 24.0829 59.9607 23.4876 59.9607 22.7841C59.9607 22.1527 59.6183 21.6116 58.9154 21.1425C58.2126 20.6735 57.3475 20.2948 56.3202 19.9881C55.2929 19.6814 54.1575 19.2846 52.932 18.7795C51.7064 18.2744 50.5891 17.6972 49.5438 17.0478C48.4985 16.4164 47.6334 15.4784 46.9485 14.2878C46.2456 13.0792 45.9032 11.6542 45.9032 10.0126C45.9032 7.54131 46.9305 5.39468 49.0031 3.57276C51.0757 1.75084 53.797 0.848877 57.1672 0.848877C60.177 0.848877 62.8083 1.55243 65.0791 2.9775C66.1244 3.66297 66.9715 4.36648 67.5842 5.10607L62.8984 10.211C62.5019 9.76006 62.0694 9.38127 61.5828 9.05657C60.5375 8.26286 59.348 7.866 58.0143 7.866C56.9149 7.866 56.0679 8.06442 55.4731 8.47932C54.8964 8.89421 54.6081 9.39929 54.6081 9.99457C54.6081 10.6259 54.9505 11.1671 55.6534 11.6361C56.3562 12.1051 57.2213 12.4839 58.2486 12.7906C59.2759 13.0972 60.4113 13.4941 61.6368 13.9992C62.8624 14.5043 63.9797 15.0815 65.025 15.7309C66.0703 16.3803 66.9174 17.3003 67.6203 18.4908C68.3232 19.6994 68.6656 21.1246 68.6656 22.7661C68.6656 25.4358 67.6023 27.7087 65.4576 29.5667C63.3129 31.4247 60.4834 32.3627 56.969 32.3627C53.5628 32.3627 50.571 31.5149 47.9938 29.8012C46.8584 29.0616 45.8852 28.2138 45.0562 27.2397Z" fill="#00249E"/>
<path d="M79.9477 31.4964V20.8535L69.3145 1.67822H78.2536L83.9127 13.3854H84.0749L89.7339 1.67822H98.673L88.0398 20.8535V31.4964H79.9477Z" fill="#00249E"/>
<path d="M101.448 31.4964V1.67822H108.477L121.237 18.0755V1.67822H129.329V31.4964H122.3L109.54 15.0991V31.4964H101.448Z" fill="#00249E"/>
<path d="M135.907 31.4964V1.67822H158.67V8.91176H143.981V13.169H155.263V19.9876H143.981V24.2448H159.084V31.4784H135.907V31.4964Z" fill="#00249E"/>
<path d="M164.004 31.4964V1.67822H178.044C181.198 1.67822 183.793 2.65227 185.83 4.61851C187.866 6.58474 188.893 9.00196 188.893 11.9062C188.893 14.6301 188.046 16.8488 186.334 18.5445C185.595 19.3382 184.748 19.9696 183.775 20.4206L189.939 31.4964H181.432L176.53 22.1343H172.06V31.4964H164.004ZM172.078 14.9007H177.611C178.549 14.9007 179.305 14.612 179.9 14.0528C180.495 13.4936 180.801 12.7721 180.801 11.9243C180.801 11.0764 180.495 10.3549 179.9 9.7957C179.305 9.2365 178.531 8.94788 177.611 8.94788H172.078V14.9007Z" fill="#00249E"/>
<path d="M209.529 20.8536V14.8828H222.289V26.3916C221.406 27.4739 220.307 28.466 218.973 29.368C216.017 31.3523 212.737 32.3444 209.097 32.3444C204.357 32.3444 200.41 30.8111 197.238 27.7626C194.066 24.714 192.498 20.9799 192.498 16.5784C192.498 12.177 194.084 8.44295 197.238 5.39438C200.392 2.34582 204.357 0.8125 209.097 0.8125C212.665 0.8125 215.855 1.78657 218.667 3.71673C219.91 4.60063 220.974 5.55672 221.857 6.5669L216.955 12.1048C216.306 11.4013 215.585 10.7519 214.792 10.1927C212.954 8.91197 211.043 8.28056 209.097 8.28056C206.772 8.28056 204.807 9.0743 203.203 10.6798C201.599 12.2852 200.806 14.2514 200.806 16.5784C200.806 18.9055 201.599 20.8717 203.203 22.4772C204.807 24.0826 206.772 24.8763 209.097 24.8763C210.629 24.8763 211.926 24.5877 213.008 24.0285C213.458 23.794 213.927 23.5234 214.413 23.1807V20.8356H209.529V20.8536Z" fill="#00249E"/>
<path d="M234.634 31.4964V20.8535L224.001 1.67822H232.94L238.599 13.3854H238.761L244.42 1.67822H253.36L242.726 20.8535V31.4964H234.634Z" fill="#00249E"/>
<path d="M265.057 19.1579V1.69629H273.149V19.1579C273.149 20.8536 273.671 22.2426 274.699 23.3069C275.726 24.3712 277.06 24.9123 278.682 24.9123C280.304 24.9123 281.619 24.3712 282.665 23.3069C283.71 22.2426 284.214 20.8536 284.214 19.1579V1.69629H292.307V19.1579C292.307 23.0183 291.045 26.1931 288.504 28.6644C285.963 31.1357 282.701 32.3623 278.7 32.3623C274.699 32.3623 271.437 31.1357 268.895 28.6644C266.336 26.175 265.057 23.0183 265.057 19.1579Z" fill="#00249E"/>
<path d="M298.686 31.4964V1.67822H305.715L318.475 18.0755V1.67822H326.567V31.4964H319.538L306.778 15.0991V31.4964H298.686Z" fill="#00249E"/>
<path d="M333.145 31.4964V1.67822H341.237V31.4964H333.145Z" fill="#00249E"/>
<path d="M355.06 31.4964L344.427 1.67822H353.15L359.44 22.5491H359.602L365.892 1.67822H374.615L363.982 31.4964H355.06Z" fill="#00249E"/>
<path d="M377.823 31.4964V1.67822H400.585V8.91176H385.897V13.169H397.179V19.9876H385.897V24.2448H401V31.4784H377.823V31.4964Z" fill="#00249E"/>
<path d="M405.92 31.4964V1.67822H419.959C423.113 1.67822 425.709 2.65227 427.745 4.61851C429.782 6.58474 430.809 9.00196 430.809 11.9062C430.809 14.6301 429.962 16.8488 428.25 18.5445C427.511 19.3382 426.664 19.9696 425.691 20.4206L431.854 31.4964H423.348L418.446 22.1343H413.976V31.4964H405.92ZM413.994 14.9007H419.527C420.464 14.9007 421.221 14.612 421.816 14.0528C422.41 13.4936 422.717 12.7721 422.717 11.9243C422.717 11.0764 422.41 10.3549 421.816 9.7957C421.221 9.2365 420.446 8.94788 419.527 8.94788H413.994V14.9007Z" fill="#00249E"/>
<path d="M433.783 27.2394L438.469 22.1345C438.973 22.7298 439.568 23.2709 440.217 23.758C441.713 24.8042 443.263 25.3273 444.849 25.3273C446.074 25.3273 447.011 25.0748 447.678 24.5877C448.345 24.0826 448.687 23.4874 448.687 22.7838C448.687 22.1525 448.345 21.6113 447.642 21.1423C446.939 20.6733 446.074 20.2945 445.047 19.9878C444.019 19.6812 442.884 19.2843 441.659 18.7792C440.433 18.2741 439.316 17.6969 438.27 17.0475C437.225 16.4162 436.36 15.4781 435.675 14.2876C434.972 13.079 434.63 11.6539 434.63 10.0124C434.63 7.54107 435.657 5.39443 437.73 3.57251C439.802 1.75059 442.524 0.848633 445.894 0.848633C448.904 0.848633 451.535 1.55219 453.806 2.97726C454.851 3.66273 455.698 4.36623 456.311 5.10582L451.625 10.2108C451.228 9.75981 450.796 9.38103 450.309 9.05633C449.264 8.26262 448.075 7.86576 446.741 7.86576C445.642 7.86576 444.794 8.06418 444.2 8.47907C443.623 8.89397 443.335 9.39905 443.335 9.99433C443.335 10.6257 443.677 11.1669 444.38 11.6359C445.083 12.1049 445.948 12.4837 446.975 12.7903C448.002 13.097 449.138 13.4939 450.363 13.9989C451.589 14.504 452.706 15.0813 453.752 15.7307C454.797 16.3801 455.644 17.3 456.347 18.4906C457.05 19.6992 457.392 21.1243 457.392 22.7658C457.392 25.4356 456.329 27.7085 454.184 29.5665C452.039 31.4245 449.21 32.3625 445.696 32.3625C442.289 32.3625 439.298 31.5147 436.72 29.801C435.585 29.0614 434.612 28.2135 433.783 27.2394Z" fill="#00249E"/>
<path d="M461.862 31.4964V1.67822H469.954V31.4964H461.862Z" fill="#00249E"/>
<path d="M482.299 31.4965V8.92988H474.009V1.69629H498.7V8.92988H490.409V31.4965H482.299Z" fill="#00249E"/>
<path d="M509.531 31.4964V20.8535L498.898 1.67822H507.837L513.496 13.3854H513.658L519.317 1.67822H528.257L517.623 20.8535V31.4964H509.531Z" fill="#00249E"/>
<path d="M0 0V33.2817H33.2514V0H0ZM5.58696 27.7077V5.59206H27.6825V27.7077H5.58696Z" fill="#FF0040"/>
<path d="M19.8607 26.3368L20.113 26.5893V19.6263L17.1393 16.6499L20.131 13.6735V6.71045L10.1826 16.6499L19.8607 26.3368Z" fill="#FF0040"/>
</svg>
