<svg width="70" height="96" viewBox="0 0 70 96" fill="none" xmlns="http://www.w3.org/2000/svg">
<mask id="path-1-outside-1" maskUnits="userSpaceOnUse" x="-0.375" y="0.125" width="71" height="96" fill="black">
<rect fill="white" x="-0.375" y="0.125" width="71" height="96"/>
<path fill-rule="evenodd" clip-rule="evenodd" d="M69.2031 17.6094L64.6875 8.5625V5.8125C64.6838 4.57044 64.1887 3.38031 63.3105 2.50203C62.4322 1.62376 61.2421 1.12871 60 1.125H10C8.75794 1.12871 7.56781 1.62376 6.68953 2.50203C5.81126 3.38031 5.31621 4.57044 5.3125 5.8125V8.5625L0.796874 17.6094C0.685337 17.8271 0.626467 18.0679 0.625 18.3125C0.629488 19.6946 1.09199 21.0363 1.94014 22.1276C2.78829 23.2189 3.97426 23.9982 5.3125 24.3438V90.1875C5.31621 91.4296 5.81126 92.6197 6.68953 93.498C7.56781 94.3762 8.75794 94.8713 10 94.875H60C61.2421 94.8713 62.4322 94.3762 63.3105 93.498C64.1887 92.6197 64.6838 91.4296 64.6875 90.1875V24.3438C66.0257 23.9982 67.2117 23.2189 68.0599 22.1276C68.908 21.0363 69.3705 19.6946 69.375 18.3125C69.3735 18.0679 69.3147 17.8271 69.2031 17.6094ZM8.4375 5.8125C8.4375 5.3981 8.60212 5.00067 8.89515 4.70765C9.18817 4.41462 9.5856 4.25 10 4.25H60C60.4144 4.25 60.8118 4.41462 61.1049 4.70765C61.3979 5.00067 61.5625 5.3981 61.5625 5.8125V7.375H8.4375V5.8125ZM56.875 10.5V18.3125C56.875 19.1413 56.5458 19.9362 55.9597 20.5222C55.3737 21.1083 54.5788 21.4375 53.75 21.4375C52.9212 21.4375 52.1263 21.1083 51.5403 20.5222C50.9542 19.9362 50.625 19.1413 50.625 18.3125V10.5H56.875ZM47.5 10.5V18.3125C47.5 19.1413 47.1708 19.9362 46.5847 20.5222C45.9987 21.1083 45.2038 21.4375 44.375 21.4375C43.5462 21.4375 42.7513 21.1083 42.1653 20.5222C41.5792 19.9362 41.25 19.1413 41.25 18.3125V10.5H47.5ZM38.125 10.5V18.3125C38.125 19.1413 37.7958 19.9362 37.2097 20.5222C36.6237 21.1083 35.8288 21.4375 35 21.4375C34.1712 21.4375 33.3763 21.1083 32.7903 20.5222C32.2042 19.9362 31.875 19.1413 31.875 18.3125V10.5H38.125ZM28.75 10.5V18.3125C28.75 19.1413 28.4208 19.9362 27.8347 20.5222C27.2487 21.1083 26.4538 21.4375 25.625 21.4375C24.7962 21.4375 24.0013 21.1083 23.4153 20.5222C22.8292 19.9362 22.5 19.1413 22.5 18.3125V10.5H28.75ZM19.375 10.5V18.3125C19.375 19.1413 19.0458 19.9362 18.4597 20.5222C17.8737 21.1083 17.0788 21.4375 16.25 21.4375C15.4212 21.4375 14.6263 21.1083 14.0403 20.5222C13.4542 19.9362 13.125 19.1413 13.125 18.3125V10.5H19.375ZM3.76563 18.6406L7.84375 10.5H10V18.3125C10.0042 19.1157 9.69902 19.8897 9.14773 20.4738C8.59644 21.058 7.84139 21.4074 7.03929 21.4496C6.23719 21.4918 5.44963 21.2236 4.84007 20.7005C4.2305 20.1775 3.84574 19.4398 3.76563 18.6406ZM61.5625 90.1875C61.5625 90.6019 61.3979 90.9993 61.1049 91.2924C60.8118 91.5854 60.4144 91.75 60 91.75H10C9.5856 91.75 9.18817 91.5854 8.89515 91.2924C8.60212 90.9993 8.4375 90.6019 8.4375 90.1875V82.375H61.5625V90.1875ZM8.4375 79.25V24.3438C9.64782 24.0211 10.7353 23.3469 11.5625 22.4062C12.1421 23.0825 12.8611 23.6253 13.6702 23.9975C14.4793 24.3697 15.3594 24.5624 16.25 24.5624C17.1406 24.5624 18.0207 24.3697 18.8298 23.9975C19.6389 23.6253 20.3579 23.0825 20.9375 22.4062C21.5171 23.0825 22.2361 23.6253 23.0452 23.9975C23.8543 24.3697 24.7344 24.5624 25.625 24.5624C26.5156 24.5624 27.3957 24.3697 28.2048 23.9975C29.0139 23.6253 29.7329 23.0825 30.3125 22.4062C30.8921 23.0825 31.6111 23.6253 32.4202 23.9975C33.2293 24.3697 34.1094 24.5624 35 24.5624C35.8906 24.5624 36.7707 24.3697 37.5798 23.9975C38.3889 23.6253 39.1079 23.0825 39.6875 22.4062C40.2671 23.0825 40.9861 23.6253 41.7952 23.9975C42.6043 24.3697 43.4844 24.5624 44.375 24.5624C45.2656 24.5624 46.1457 24.3697 46.9548 23.9975C47.7639 23.6253 48.4829 23.0825 49.0625 22.4062C49.6421 23.0825 50.3611 23.6253 51.1702 23.9975C51.9793 24.3697 52.8594 24.5624 53.75 24.5624C54.6406 24.5624 55.5207 24.3697 56.3298 23.9975C57.1389 23.6253 57.8579 23.0825 58.4375 22.4062C59.2647 23.3469 60.3522 24.0211 61.5625 24.3438V79.25H8.4375ZM63.125 21.4375C62.297 21.435 61.5035 21.105 60.918 20.5195C60.3325 19.934 60.0025 19.1405 60 18.3125V10.5H62.1562L66.2344 18.6406C66.1533 19.4086 65.7907 20.1194 65.2165 20.6359C64.6423 21.1523 63.8973 21.4379 63.125 21.4375ZM31.875 85.5V88.625H38.125V85.5H31.875ZM53.75 43.3127H55.3125C56.5557 43.3127 57.748 43.8065 58.6271 44.6856C59.5061 45.5647 60 46.757 60 48.0002C60 49.2434 59.5061 50.4356 58.6271 51.3147C57.748 52.1938 56.5557 52.6877 55.3125 52.6877H53.75V62.0627C53.7521 62.3143 53.693 62.5626 53.5778 62.7863C53.4626 63.01 53.2948 63.2024 53.0889 63.3469C52.8829 63.4914 52.6449 63.5837 52.3953 63.6158C52.1458 63.648 51.8921 63.619 51.6562 63.5314L30.1406 55.8439L28.7344 68.4845C28.6959 68.8673 28.516 69.2219 28.2299 69.4791C27.9439 69.7362 27.5722 69.8775 27.1875 69.8752H20.9375C20.5231 69.8752 20.1257 69.7105 19.8326 69.4175C19.5396 69.1245 19.375 68.7271 19.375 68.3127V55.8127H17.8125C17.3981 55.8127 17.0007 55.648 16.7076 55.355C16.4146 55.062 16.25 54.6646 16.25 54.2502V53.9064L11.1875 52.6408C10.8487 52.557 10.5478 52.3623 10.3326 52.0876C10.1173 51.8129 10.0003 51.4741 10 51.1252V44.8752C10.0003 44.5262 10.1173 44.1874 10.3326 43.9127C10.5478 43.638 10.8487 43.4433 11.1875 43.3595L16.25 42.0939V41.7502C16.25 41.3358 16.4146 40.9383 16.7076 40.6453C17.0007 40.3523 17.3981 40.1877 17.8125 40.1877H30.0469L51.6562 32.4689C51.8939 32.3861 52.1476 32.36 52.3972 32.3926C52.6467 32.4251 52.8853 32.5155 53.0938 32.6564C53.2965 32.803 53.4617 32.9955 53.5758 33.2182C53.6899 33.4409 53.7496 33.6874 53.75 33.9377V43.3127ZM13.125 49.9064L16.25 50.6877V45.3127L13.125 46.0939V49.9064ZM22.5 66.7502H25.7812L27 55.8127H22.5V66.7502ZM19.375 52.6877H28.75V43.3127H19.375V52.6877ZM31.875 42.8439V53.1564L50.625 59.8439V36.1564L31.875 42.8439ZM53.75 49.5627H55.3125C55.7269 49.5627 56.1243 49.398 56.4174 49.105C56.7104 48.812 56.875 48.4146 56.875 48.0002C56.875 47.5858 56.7104 47.1883 56.4174 46.8953C56.1243 46.6023 55.7269 46.4377 55.3125 46.4377H53.75V49.5627Z"/>
</mask>
<path fill-rule="evenodd" clip-rule="evenodd" d="M69.2031 17.6094L64.6875 8.5625V5.8125C64.6838 4.57044 64.1887 3.38031 63.3105 2.50203C62.4322 1.62376 61.2421 1.12871 60 1.125H10C8.75794 1.12871 7.56781 1.62376 6.68953 2.50203C5.81126 3.38031 5.31621 4.57044 5.3125 5.8125V8.5625L0.796874 17.6094C0.685337 17.8271 0.626467 18.0679 0.625 18.3125C0.629488 19.6946 1.09199 21.0363 1.94014 22.1276C2.78829 23.2189 3.97426 23.9982 5.3125 24.3438V90.1875C5.31621 91.4296 5.81126 92.6197 6.68953 93.498C7.56781 94.3762 8.75794 94.8713 10 94.875H60C61.2421 94.8713 62.4322 94.3762 63.3105 93.498C64.1887 92.6197 64.6838 91.4296 64.6875 90.1875V24.3438C66.0257 23.9982 67.2117 23.2189 68.0599 22.1276C68.908 21.0363 69.3705 19.6946 69.375 18.3125C69.3735 18.0679 69.3147 17.8271 69.2031 17.6094ZM8.4375 5.8125C8.4375 5.3981 8.60212 5.00067 8.89515 4.70765C9.18817 4.41462 9.5856 4.25 10 4.25H60C60.4144 4.25 60.8118 4.41462 61.1049 4.70765C61.3979 5.00067 61.5625 5.3981 61.5625 5.8125V7.375H8.4375V5.8125ZM56.875 10.5V18.3125C56.875 19.1413 56.5458 19.9362 55.9597 20.5222C55.3737 21.1083 54.5788 21.4375 53.75 21.4375C52.9212 21.4375 52.1263 21.1083 51.5403 20.5222C50.9542 19.9362 50.625 19.1413 50.625 18.3125V10.5H56.875ZM47.5 10.5V18.3125C47.5 19.1413 47.1708 19.9362 46.5847 20.5222C45.9987 21.1083 45.2038 21.4375 44.375 21.4375C43.5462 21.4375 42.7513 21.1083 42.1653 20.5222C41.5792 19.9362 41.25 19.1413 41.25 18.3125V10.5H47.5ZM38.125 10.5V18.3125C38.125 19.1413 37.7958 19.9362 37.2097 20.5222C36.6237 21.1083 35.8288 21.4375 35 21.4375C34.1712 21.4375 33.3763 21.1083 32.7903 20.5222C32.2042 19.9362 31.875 19.1413 31.875 18.3125V10.5H38.125ZM28.75 10.5V18.3125C28.75 19.1413 28.4208 19.9362 27.8347 20.5222C27.2487 21.1083 26.4538 21.4375 25.625 21.4375C24.7962 21.4375 24.0013 21.1083 23.4153 20.5222C22.8292 19.9362 22.5 19.1413 22.5 18.3125V10.5H28.75ZM19.375 10.5V18.3125C19.375 19.1413 19.0458 19.9362 18.4597 20.5222C17.8737 21.1083 17.0788 21.4375 16.25 21.4375C15.4212 21.4375 14.6263 21.1083 14.0403 20.5222C13.4542 19.9362 13.125 19.1413 13.125 18.3125V10.5H19.375ZM3.76563 18.6406L7.84375 10.5H10V18.3125C10.0042 19.1157 9.69902 19.8897 9.14773 20.4738C8.59644 21.058 7.84139 21.4074 7.03929 21.4496C6.23719 21.4918 5.44963 21.2236 4.84007 20.7005C4.2305 20.1775 3.84574 19.4398 3.76563 18.6406ZM61.5625 90.1875C61.5625 90.6019 61.3979 90.9993 61.1049 91.2924C60.8118 91.5854 60.4144 91.75 60 91.75H10C9.5856 91.75 9.18817 91.5854 8.89515 91.2924C8.60212 90.9993 8.4375 90.6019 8.4375 90.1875V82.375H61.5625V90.1875ZM8.4375 79.25V24.3438C9.64782 24.0211 10.7353 23.3469 11.5625 22.4062C12.1421 23.0825 12.8611 23.6253 13.6702 23.9975C14.4793 24.3697 15.3594 24.5624 16.25 24.5624C17.1406 24.5624 18.0207 24.3697 18.8298 23.9975C19.6389 23.6253 20.3579 23.0825 20.9375 22.4062C21.5171 23.0825 22.2361 23.6253 23.0452 23.9975C23.8543 24.3697 24.7344 24.5624 25.625 24.5624C26.5156 24.5624 27.3957 24.3697 28.2048 23.9975C29.0139 23.6253 29.7329 23.0825 30.3125 22.4062C30.8921 23.0825 31.6111 23.6253 32.4202 23.9975C33.2293 24.3697 34.1094 24.5624 35 24.5624C35.8906 24.5624 36.7707 24.3697 37.5798 23.9975C38.3889 23.6253 39.1079 23.0825 39.6875 22.4062C40.2671 23.0825 40.9861 23.6253 41.7952 23.9975C42.6043 24.3697 43.4844 24.5624 44.375 24.5624C45.2656 24.5624 46.1457 24.3697 46.9548 23.9975C47.7639 23.6253 48.4829 23.0825 49.0625 22.4062C49.6421 23.0825 50.3611 23.6253 51.1702 23.9975C51.9793 24.3697 52.8594 24.5624 53.75 24.5624C54.6406 24.5624 55.5207 24.3697 56.3298 23.9975C57.1389 23.6253 57.8579 23.0825 58.4375 22.4062C59.2647 23.3469 60.3522 24.0211 61.5625 24.3438V79.25H8.4375ZM63.125 21.4375C62.297 21.435 61.5035 21.105 60.918 20.5195C60.3325 19.934 60.0025 19.1405 60 18.3125V10.5H62.1562L66.2344 18.6406C66.1533 19.4086 65.7907 20.1194 65.2165 20.6359C64.6423 21.1523 63.8973 21.4379 63.125 21.4375ZM31.875 85.5V88.625H38.125V85.5H31.875ZM53.75 43.3127H55.3125C56.5557 43.3127 57.748 43.8065 58.6271 44.6856C59.5061 45.5647 60 46.757 60 48.0002C60 49.2434 59.5061 50.4356 58.6271 51.3147C57.748 52.1938 56.5557 52.6877 55.3125 52.6877H53.75V62.0627C53.7521 62.3143 53.693 62.5626 53.5778 62.7863C53.4626 63.01 53.2948 63.2024 53.0889 63.3469C52.8829 63.4914 52.6449 63.5837 52.3953 63.6158C52.1458 63.648 51.8921 63.619 51.6562 63.5314L30.1406 55.8439L28.7344 68.4845C28.6959 68.8673 28.516 69.2219 28.2299 69.4791C27.9439 69.7362 27.5722 69.8775 27.1875 69.8752H20.9375C20.5231 69.8752 20.1257 69.7105 19.8326 69.4175C19.5396 69.1245 19.375 68.7271 19.375 68.3127V55.8127H17.8125C17.3981 55.8127 17.0007 55.648 16.7076 55.355C16.4146 55.062 16.25 54.6646 16.25 54.2502V53.9064L11.1875 52.6408C10.8487 52.557 10.5478 52.3623 10.3326 52.0876C10.1173 51.8129 10.0003 51.4741 10 51.1252V44.8752C10.0003 44.5262 10.1173 44.1874 10.3326 43.9127C10.5478 43.638 10.8487 43.4433 11.1875 43.3595L16.25 42.0939V41.7502C16.25 41.3358 16.4146 40.9383 16.7076 40.6453C17.0007 40.3523 17.3981 40.1877 17.8125 40.1877H30.0469L51.6562 32.4689C51.8939 32.3861 52.1476 32.36 52.3972 32.3926C52.6467 32.4251 52.8853 32.5155 53.0938 32.6564C53.2965 32.803 53.4617 32.9955 53.5758 33.2182C53.6899 33.4409 53.7496 33.6874 53.75 33.9377V43.3127ZM13.125 49.9064L16.25 50.6877V45.3127L13.125 46.0939V49.9064ZM22.5 66.7502H25.7812L27 55.8127H22.5V66.7502ZM19.375 52.6877H28.75V43.3127H19.375V52.6877ZM31.875 42.8439V53.1564L50.625 59.8439V36.1564L31.875 42.8439ZM53.75 49.5627H55.3125C55.7269 49.5627 56.1243 49.398 56.4174 49.105C56.7104 48.812 56.875 48.4146 56.875 48.0002C56.875 47.5858 56.7104 47.1883 56.4174 46.8953C56.1243 46.6023 55.7269 46.4377 55.3125 46.4377H53.75V49.5627Z" fill="url(#paint0_linear)"/>
<path d="M64.6875 8.5625H64.1875V8.68035L64.2401 8.7858L64.6875 8.5625ZM69.2031 17.6094L68.7557 17.8327L68.7581 17.8374L69.2031 17.6094ZM64.6875 5.8125L65.1875 5.8125L65.1875 5.81101L64.6875 5.8125ZM60 1.125L60.0015 0.625H60V1.125ZM10 1.125L10 0.624998L9.99851 0.625002L10 1.125ZM5.3125 5.8125L4.8125 5.81101V5.8125H5.3125ZM5.3125 8.5625L5.75987 8.7858L5.8125 8.68035V8.5625H5.3125ZM0.796874 17.6094L1.24189 17.8374L1.24424 17.8327L0.796874 17.6094ZM0.625 18.3125L0.124988 18.3095L0.125003 18.3141L0.625 18.3125ZM1.94014 22.1276L1.54535 22.4344L1.54535 22.4344L1.94014 22.1276ZM5.3125 24.3438H5.8125V23.9564L5.4375 23.8596L5.3125 24.3438ZM5.3125 90.1875H4.8125L4.8125 90.189L5.3125 90.1875ZM10 94.875L9.99851 95.375H10V94.875ZM60 94.875L60 95.375L60.0015 95.375L60 94.875ZM64.6875 90.1875L65.1875 90.189V90.1875H64.6875ZM64.6875 24.3438L64.5625 23.8596L64.1875 23.9564V24.3438H64.6875ZM69.375 18.3125L69.875 18.3141L69.875 18.3095L69.375 18.3125ZM8.89515 4.70765L8.54159 4.35409L8.54159 4.35409L8.89515 4.70765ZM61.5625 7.375V7.875H62.0625V7.375H61.5625ZM8.4375 7.375H7.9375V7.875H8.4375V7.375ZM56.875 10.5H57.375V10H56.875V10.5ZM50.625 10.5V10H50.125V10.5H50.625ZM47.5 10.5H48V10H47.5V10.5ZM41.25 10.5V10H40.75V10.5H41.25ZM38.125 10.5H38.625V10H38.125V10.5ZM31.875 10.5V10H31.375V10.5H31.875ZM28.75 10.5H29.25V10H28.75V10.5ZM22.5 10.5V10H22V10.5H22.5ZM19.375 10.5H19.875V10H19.375V10.5ZM13.125 10.5V10H12.625V10.5H13.125ZM7.84375 10.5V10H7.535L7.39671 10.2761L7.84375 10.5ZM3.76563 18.6406L3.31858 18.4167L3.25366 18.5463L3.26812 18.6905L3.76563 18.6406ZM10 10.5H10.5V10H10V10.5ZM10 18.3125L9.49999 18.3125L9.50001 18.3151L10 18.3125ZM8.89515 91.2924L8.54159 91.6459L8.5416 91.6459L8.89515 91.2924ZM8.4375 82.375V81.875H7.9375V82.375H8.4375ZM61.5625 82.375H62.0625V81.875H61.5625V82.375ZM8.4375 24.3438L8.30871 23.8606L7.9375 23.9596V24.3438H8.4375ZM8.4375 79.25H7.9375V79.75H8.4375V79.25ZM11.5625 22.4062L11.9422 22.0809L11.5674 21.6436L11.187 22.0761L11.5625 22.4062ZM20.9375 22.4062L21.3172 22.0809L20.9375 21.6379L20.5578 22.0809L20.9375 22.4062ZM30.3125 22.4062L30.6922 22.0809L30.3125 21.6379L29.9328 22.0809L30.3125 22.4062ZM39.6875 22.4062L40.0672 22.0809L39.6875 21.6379L39.3078 22.0809L39.6875 22.4062ZM49.0625 22.4062L49.4422 22.0809L49.0625 21.6379L48.6828 22.0809L49.0625 22.4062ZM58.4375 22.4062L58.813 22.0761L58.4326 21.6436L58.0578 22.0809L58.4375 22.4062ZM61.5625 24.3438H62.0625V23.9596L61.6913 23.8606L61.5625 24.3438ZM61.5625 79.25V79.75H62.0625V79.25H61.5625ZM63.125 21.4375L63.1235 21.9375L63.1247 21.9375L63.125 21.4375ZM60 18.3125L59.5 18.3125L59.5 18.314L60 18.3125ZM60 10.5V10H59.5V10.5H60ZM62.1562 10.5L62.6033 10.2761L62.465 10H62.1562V10.5ZM66.2344 18.6406L66.7316 18.6931L66.747 18.5476L66.6814 18.4167L66.2344 18.6406ZM31.875 88.625H31.375V89.125H31.875V88.625ZM31.875 85.5V85H31.375V85.5H31.875ZM38.125 88.625V89.125H38.625V88.625H38.125ZM38.125 85.5H38.625V85H38.125V85.5ZM53.75 43.3127H53.25V43.8127H53.75V43.3127ZM58.6271 44.6856L58.2735 45.0391L58.2735 45.0391L58.6271 44.6856ZM58.6271 51.3147L58.2735 50.9612L58.2735 50.9612L58.6271 51.3147ZM53.75 52.6877V52.1877H53.25V52.6877H53.75ZM53.75 62.0627L53.25 62.0627L53.25 62.0668L53.75 62.0627ZM53.5778 62.7863L54.0224 63.0152L54.0224 63.0152L53.5778 62.7863ZM53.0889 63.3469L53.376 63.7562L53.376 63.7562L53.0889 63.3469ZM52.3953 63.6158L52.3314 63.1199L52.3314 63.1199L52.3953 63.6158ZM51.6562 63.5314L51.8303 63.0626L51.8245 63.0606L51.6562 63.5314ZM30.1406 55.8439L30.3089 55.3731L29.7136 55.1604L29.6437 55.7886L30.1406 55.8439ZM28.7344 68.4845L28.2374 68.4292L28.2369 68.4345L28.7344 68.4845ZM28.2299 69.4791L27.8957 69.1072L27.8957 69.1072L28.2299 69.4791ZM27.1875 69.8752L27.1905 69.3752H27.1875V69.8752ZM19.375 55.8127H19.875V55.3127H19.375V55.8127ZM16.7076 55.355L16.3541 55.7086L16.3541 55.7086L16.7076 55.355ZM16.25 53.9064H16.75V53.516L16.3713 53.4213L16.25 53.9064ZM11.1875 52.6408L11.3088 52.1557L11.3075 52.1554L11.1875 52.6408ZM10.3326 52.0876L9.93898 52.396L9.93898 52.396L10.3326 52.0876ZM10 51.1252L9.5 51.1252L9.5 51.1255L10 51.1252ZM10 44.8752L9.5 44.8748V44.8752H10ZM10.3326 43.9127L9.93898 43.6043L9.93898 43.6043L10.3326 43.9127ZM11.1875 43.3595L11.3075 43.8449L11.3088 43.8446L11.1875 43.3595ZM16.25 42.0939L16.3713 42.579L16.75 42.4843V42.0939H16.25ZM16.7076 40.6453L17.0612 40.9989L17.0612 40.9989L16.7076 40.6453ZM30.0469 40.1877V40.6877H30.1335L30.2151 40.6585L30.0469 40.1877ZM51.6562 32.4689L51.4918 31.9967L51.4881 31.998L51.6562 32.4689ZM52.3972 32.3926L52.4619 31.8968L52.4619 31.8968L52.3972 32.3926ZM53.0938 32.6564L53.3867 32.2512L53.3803 32.2466L53.3738 32.2422L53.0938 32.6564ZM53.5758 33.2182L53.1308 33.4461L53.1308 33.4461L53.5758 33.2182ZM53.75 33.9377L54.25 33.9377L54.25 33.9368L53.75 33.9377ZM16.25 50.6877L16.1287 51.1727L16.75 51.328V50.6877H16.25ZM13.125 49.9064H12.625V50.2968L13.0037 50.3915L13.125 49.9064ZM16.25 45.3127H16.75V44.6723L16.1287 44.8276L16.25 45.3127ZM13.125 46.0939L13.0037 45.6088L12.625 45.7035V46.0939H13.125ZM25.7812 66.7502V67.2502H26.2286L26.2782 66.8055L25.7812 66.7502ZM22.5 66.7502H22V67.2502H22.5V66.7502ZM27 55.8127L27.4969 55.868L27.5588 55.3127H27V55.8127ZM22.5 55.8127V55.3127H22V55.8127H22.5ZM28.75 52.6877V53.1877H29.25V52.6877H28.75ZM19.375 52.6877H18.875V53.1877H19.375V52.6877ZM28.75 43.3127H29.25V42.8127H28.75V43.3127ZM19.375 43.3127V42.8127H18.875V43.3127H19.375ZM31.875 53.1564H31.375V53.5089L31.707 53.6273L31.875 53.1564ZM31.875 42.8439L31.707 42.373L31.375 42.4914V42.8439H31.875ZM50.625 59.8439L50.457 60.3148L51.125 60.5531V59.8439H50.625ZM50.625 36.1564H51.125V35.4472L50.457 35.6855L50.625 36.1564ZM53.75 49.5627H53.25V50.0627H53.75V49.5627ZM56.4174 49.105L56.7709 49.4586L56.7709 49.4586L56.4174 49.105ZM53.75 46.4377V45.9377H53.25V46.4377H53.75ZM64.2401 8.7858L68.7558 17.8327L69.6505 17.3861L65.1349 8.3392L64.2401 8.7858ZM64.1875 5.8125V8.5625H65.1875V5.8125H64.1875ZM62.9569 2.85559C63.7418 3.64046 64.1842 4.70402 64.1875 5.81399L65.1875 5.81101C65.1834 4.43685 64.6357 3.12016 63.664 2.14848L62.9569 2.85559ZM59.9985 1.625C61.1085 1.62831 62.172 2.07072 62.9569 2.85559L63.664 2.14848C62.6923 1.17681 61.3756 0.629106 60.0015 0.625002L59.9985 1.625ZM10 1.625H60V0.625H10V1.625ZM7.04309 2.85559C7.82796 2.07072 8.89152 1.62831 10.0015 1.625L9.99851 0.625002C8.62435 0.629106 7.30766 1.17681 6.33598 2.14848L7.04309 2.85559ZM5.8125 5.81399C5.81581 4.70402 6.25822 3.64046 7.04309 2.85559L6.33598 2.14848C5.3643 3.12016 4.81661 4.43686 4.8125 5.81101L5.8125 5.81399ZM5.8125 8.5625V5.8125H4.8125V8.5625H5.8125ZM1.24424 17.8327L5.75987 8.7858L4.86513 8.3392L0.349506 17.3861L1.24424 17.8327ZM1.12499 18.3155C1.12599 18.1492 1.16602 17.9854 1.24187 17.8374L0.351883 17.3814C0.204654 17.6687 0.126945 17.9866 0.125009 18.3095L1.12499 18.3155ZM2.33493 21.8207C1.55462 20.8167 1.12913 19.5824 1.125 18.3109L0.125003 18.3141C0.12985 19.8068 0.629347 21.2558 1.54535 22.4344L2.33493 21.8207ZM5.4375 23.8596C4.20631 23.5417 3.11523 22.8247 2.33493 21.8207L1.54535 22.4344C2.46136 23.613 3.7422 24.4547 5.1875 24.8279L5.4375 23.8596ZM5.8125 90.1875V24.3438H4.8125V90.1875H5.8125ZM7.04309 93.1444C6.25822 92.3595 5.81581 91.296 5.8125 90.186L4.8125 90.189C4.81661 91.5631 5.3643 92.8798 6.33598 93.8515L7.04309 93.1444ZM10.0015 94.375C8.89152 94.3717 7.82796 93.9293 7.04309 93.1444L6.33598 93.8515C7.30766 94.8232 8.62435 95.3709 9.99851 95.375L10.0015 94.375ZM60 94.375H10V95.375H60V94.375ZM62.9569 93.1444C62.172 93.9293 61.1085 94.3717 59.9985 94.375L60.0015 95.375C61.3756 95.3709 62.6923 94.8232 63.664 93.8515L62.9569 93.1444ZM64.1875 90.186C64.1842 91.296 63.7418 92.3595 62.9569 93.1444L63.664 93.8515C64.6357 92.8798 65.1834 91.5631 65.1875 90.189L64.1875 90.186ZM64.1875 24.3438V90.1875H65.1875V24.3438H64.1875ZM67.6651 21.8207C66.8848 22.8247 65.7937 23.5417 64.5625 23.8596L64.8125 24.8279C66.2578 24.4547 67.5386 23.613 68.4546 22.4344L67.6651 21.8207ZM68.875 18.3109C68.8709 19.5824 68.4454 20.8167 67.6651 21.8207L68.4546 22.4344C69.3707 21.2558 69.8702 19.8068 69.875 18.3141L68.875 18.3109ZM68.7581 17.8374C68.834 17.9854 68.874 18.1492 68.875 18.3155L69.875 18.3095C69.8731 17.9866 69.7953 17.6687 69.6481 17.3814L68.7581 17.8374ZM8.54159 4.35409C8.1548 4.74089 7.9375 5.26549 7.9375 5.8125H8.9375C8.9375 5.53071 9.04944 5.26046 9.2487 5.0612L8.54159 4.35409ZM10 3.75C9.45299 3.75 8.92839 3.9673 8.54159 4.35409L9.2487 5.0612C9.44796 4.86194 9.71821 4.75 10 4.75V3.75ZM60 3.75H10V4.75H60V3.75ZM61.4584 4.35409C61.0716 3.9673 60.547 3.75 60 3.75V4.75C60.2818 4.75 60.552 4.86194 60.7513 5.0612L61.4584 4.35409ZM62.0625 5.8125C62.0625 5.26549 61.8452 4.74089 61.4584 4.35409L60.7513 5.0612C60.9506 5.26046 61.0625 5.53071 61.0625 5.8125H62.0625ZM62.0625 7.375V5.8125H61.0625V7.375H62.0625ZM8.4375 7.875H61.5625V6.875H8.4375V7.875ZM7.9375 5.8125V7.375H8.9375V5.8125H7.9375ZM57.375 18.3125V10.5H56.375V18.3125H57.375ZM56.3133 20.8758C56.9931 20.1959 57.375 19.2739 57.375 18.3125H56.375C56.375 19.0087 56.0984 19.6764 55.6062 20.1687L56.3133 20.8758ZM53.75 21.9375C54.7114 21.9375 55.6334 21.5556 56.3133 20.8758L55.6062 20.1687C55.1139 20.6609 54.4462 20.9375 53.75 20.9375V21.9375ZM51.1867 20.8758C51.8666 21.5556 52.7886 21.9375 53.75 21.9375V20.9375C53.0538 20.9375 52.3861 20.6609 51.8938 20.1687L51.1867 20.8758ZM50.125 18.3125C50.125 19.2739 50.5069 20.1959 51.1867 20.8758L51.8938 20.1687C51.4016 19.6764 51.125 19.0087 51.125 18.3125H50.125ZM50.125 10.5V18.3125H51.125V10.5H50.125ZM56.875 10H50.625V11H56.875V10ZM48 18.3125V10.5H47V18.3125H48ZM46.9383 20.8758C47.6181 20.1959 48 19.2739 48 18.3125H47C47 19.0087 46.7234 19.6764 46.2312 20.1687L46.9383 20.8758ZM44.375 21.9375C45.3364 21.9375 46.2584 21.5556 46.9383 20.8758L46.2312 20.1687C45.7389 20.6609 45.0712 20.9375 44.375 20.9375V21.9375ZM41.8117 20.8758C42.4916 21.5556 43.4136 21.9375 44.375 21.9375V20.9375C43.6788 20.9375 43.0111 20.6609 42.5188 20.1687L41.8117 20.8758ZM40.75 18.3125C40.75 19.2739 41.1319 20.1959 41.8117 20.8758L42.5188 20.1687C42.0266 19.6764 41.75 19.0087 41.75 18.3125H40.75ZM40.75 10.5V18.3125H41.75V10.5H40.75ZM47.5 10H41.25V11H47.5V10ZM38.625 18.3125V10.5H37.625V18.3125H38.625ZM37.5633 20.8758C38.2431 20.1959 38.625 19.2739 38.625 18.3125H37.625C37.625 19.0087 37.3484 19.6764 36.8562 20.1687L37.5633 20.8758ZM35 21.9375C35.9614 21.9375 36.8834 21.5556 37.5633 20.8758L36.8562 20.1687C36.3639 20.6609 35.6962 20.9375 35 20.9375V21.9375ZM32.4367 20.8758C33.1166 21.5556 34.0386 21.9375 35 21.9375V20.9375C34.3038 20.9375 33.6361 20.6609 33.1438 20.1687L32.4367 20.8758ZM31.375 18.3125C31.375 19.2739 31.7569 20.1959 32.4367 20.8758L33.1438 20.1687C32.6516 19.6764 32.375 19.0087 32.375 18.3125H31.375ZM31.375 10.5V18.3125H32.375V10.5H31.375ZM38.125 10H31.875V11H38.125V10ZM29.25 18.3125V10.5H28.25V18.3125H29.25ZM28.1883 20.8758C28.8681 20.1959 29.25 19.2739 29.25 18.3125H28.25C28.25 19.0087 27.9734 19.6764 27.4812 20.1687L28.1883 20.8758ZM25.625 21.9375C26.5864 21.9375 27.5084 21.5556 28.1883 20.8758L27.4812 20.1687C26.9889 20.6609 26.3212 20.9375 25.625 20.9375V21.9375ZM23.0617 20.8758C23.7416 21.5556 24.6636 21.9375 25.625 21.9375V20.9375C24.9288 20.9375 24.2611 20.6609 23.7688 20.1687L23.0617 20.8758ZM22 18.3125C22 19.2739 22.3819 20.1959 23.0617 20.8758L23.7688 20.1687C23.2766 19.6764 23 19.0087 23 18.3125H22ZM22 10.5V18.3125H23V10.5H22ZM28.75 10H22.5V11H28.75V10ZM19.875 18.3125V10.5H18.875V18.3125H19.875ZM18.8133 20.8758C19.4931 20.1959 19.875 19.2739 19.875 18.3125H18.875C18.875 19.0087 18.5984 19.6764 18.1062 20.1687L18.8133 20.8758ZM16.25 21.9375C17.2114 21.9375 18.1334 21.5556 18.8133 20.8758L18.1062 20.1687C17.6139 20.6609 16.9462 20.9375 16.25 20.9375V21.9375ZM13.6867 20.8758C14.3666 21.5556 15.2886 21.9375 16.25 21.9375V20.9375C15.5538 20.9375 14.8861 20.6609 14.3938 20.1687L13.6867 20.8758ZM12.625 18.3125C12.625 19.2739 13.0069 20.1959 13.6867 20.8758L14.3938 20.1687C13.9016 19.6764 13.625 19.0087 13.625 18.3125H12.625ZM12.625 10.5V18.3125H13.625V10.5H12.625ZM19.375 10H13.125V11H19.375V10ZM7.39671 10.2761L3.31858 18.4167L4.21267 18.8646L8.29079 10.7239L7.39671 10.2761ZM10 10H7.84375V11H10V10ZM10.5 18.3125V10.5H9.5V18.3125H10.5ZM9.51136 20.817C10.1509 20.1394 10.5049 19.2416 10.5 18.3099L9.50001 18.3151C9.50356 18.9898 9.24719 19.64 8.7841 20.1306L9.51136 20.817ZM7.06557 21.9489C7.99601 21.9 8.87186 21.4946 9.51136 20.817L8.7841 20.1306C8.32101 20.6213 7.68677 20.9149 7.01301 20.9503L7.06557 21.9489ZM4.51447 21.08C5.22157 21.6867 6.13513 21.9979 7.06557 21.9489L7.01301 20.9503C6.33925 20.9858 5.6777 20.7604 5.16566 20.3211L4.51447 21.08ZM3.26812 18.6905C3.36105 19.6176 3.80737 20.4733 4.51447 21.08L5.16566 20.3211C4.65363 19.8817 4.33042 19.2621 4.26313 18.5908L3.26812 18.6905ZM61.4584 91.6459C61.8452 91.2591 62.0625 90.7345 62.0625 90.1875H61.0625C61.0625 90.4693 60.9506 90.7396 60.7513 90.9388L61.4584 91.6459ZM60 92.25C60.547 92.25 61.0716 92.0327 61.4584 91.6459L60.7513 90.9388C60.552 91.1381 60.2818 91.25 60 91.25V92.25ZM10 92.25H60V91.25H10V92.25ZM8.5416 91.6459C8.92839 92.0327 9.45299 92.25 10 92.25V91.25C9.71821 91.25 9.44796 91.1381 9.2487 90.9388L8.5416 91.6459ZM7.9375 90.1875C7.9375 90.7345 8.1548 91.2591 8.54159 91.6459L9.2487 90.9388C9.04944 90.7396 8.9375 90.4693 8.9375 90.1875H7.9375ZM7.9375 82.375V90.1875H8.9375V82.375H7.9375ZM61.5625 81.875H8.4375V82.875H61.5625V81.875ZM62.0625 90.1875V82.375H61.0625V90.1875H62.0625ZM7.9375 24.3438V79.25H8.9375V24.3438H7.9375ZM11.187 22.0761C10.4251 22.9424 9.42349 23.5634 8.30871 23.8606L8.56629 24.8269C9.87215 24.4788 11.0455 23.7513 11.938 22.7364L11.187 22.0761ZM13.8791 23.5433C13.1355 23.2012 12.4748 22.7024 11.9422 22.0809L11.1828 22.7316C11.8093 23.4626 12.5866 24.0494 13.4613 24.4518L13.8791 23.5433ZM16.25 24.0624C15.4315 24.0624 14.6227 23.8853 13.8791 23.5433L13.4613 24.4518C14.3359 24.8541 15.2873 25.0624 16.25 25.0624V24.0624ZM18.6209 23.5433C17.8773 23.8853 17.0685 24.0624 16.25 24.0624V25.0624C17.2127 25.0624 18.1641 24.8541 19.0387 24.4518L18.6209 23.5433ZM20.5578 22.0809C20.0252 22.7024 19.3645 23.2012 18.6209 23.5433L19.0387 24.4518C19.9134 24.0494 20.6907 23.4626 21.3172 22.7316L20.5578 22.0809ZM23.2541 23.5433C22.5105 23.2012 21.8498 22.7024 21.3172 22.0809L20.5578 22.7316C21.1843 23.4626 21.9616 24.0494 22.8363 24.4518L23.2541 23.5433ZM25.625 24.0624C24.8065 24.0624 23.9977 23.8853 23.2541 23.5433L22.8363 24.4518C23.7109 24.8541 24.6623 25.0624 25.625 25.0624V24.0624ZM27.9959 23.5433C27.2523 23.8853 26.4435 24.0624 25.625 24.0624V25.0624C26.5877 25.0624 27.5391 24.8541 28.4137 24.4518L27.9959 23.5433ZM29.9328 22.0809C29.4002 22.7024 28.7395 23.2012 27.9959 23.5433L28.4137 24.4518C29.2884 24.0494 30.0657 23.4626 30.6922 22.7316L29.9328 22.0809ZM32.6291 23.5433C31.8855 23.2012 31.2248 22.7024 30.6922 22.0809L29.9328 22.7316C30.5593 23.4626 31.3366 24.0494 32.2113 24.4518L32.6291 23.5433ZM35 24.0624C34.1815 24.0624 33.3727 23.8853 32.6291 23.5433L32.2113 24.4518C33.0859 24.8541 34.0373 25.0624 35 25.0624V24.0624ZM37.3709 23.5433C36.6273 23.8853 35.8185 24.0624 35 24.0624V25.0624C35.9627 25.0624 36.9141 24.8541 37.7888 24.4518L37.3709 23.5433ZM39.3078 22.0809C38.7752 22.7024 38.1145 23.2012 37.3709 23.5433L37.7888 24.4518C38.6634 24.0494 39.4407 23.4626 40.0672 22.7316L39.3078 22.0809ZM42.0041 23.5433C41.2605 23.2012 40.5998 22.7024 40.0672 22.0809L39.3078 22.7316C39.9343 23.4626 40.7116 24.0494 41.5862 24.4518L42.0041 23.5433ZM44.375 24.0624C43.5565 24.0624 42.7477 23.8853 42.0041 23.5433L41.5862 24.4518C42.4609 24.8541 43.4123 25.0624 44.375 25.0624V24.0624ZM46.7459 23.5433C46.0023 23.8853 45.1935 24.0624 44.375 24.0624V25.0624C45.3377 25.0624 46.2891 24.8541 47.1638 24.4518L46.7459 23.5433ZM48.6828 22.0809C48.1502 22.7024 47.4895 23.2012 46.7459 23.5433L47.1638 24.4518C48.0384 24.0494 48.8157 23.4626 49.4422 22.7316L48.6828 22.0809ZM51.3791 23.5433C50.6355 23.2012 49.9748 22.7024 49.4422 22.0809L48.6828 22.7316C49.3093 23.4626 50.0866 24.0494 50.9612 24.4518L51.3791 23.5433ZM53.75 24.0624C52.9315 24.0624 52.1227 23.8853 51.3791 23.5433L50.9612 24.4518C51.8359 24.8541 52.7873 25.0624 53.75 25.0624V24.0624ZM56.1209 23.5433C55.3773 23.8853 54.5685 24.0624 53.75 24.0624V25.0624C54.7127 25.0624 55.6641 24.8541 56.5388 24.4518L56.1209 23.5433ZM58.0578 22.0809C57.5252 22.7024 56.8645 23.2012 56.1209 23.5433L56.5388 24.4518C57.4134 24.0494 58.1907 23.4626 58.8172 22.7316L58.0578 22.0809ZM61.6913 23.8606C60.5765 23.5634 59.5749 22.9424 58.813 22.0761L58.062 22.7364C58.9545 23.7513 60.1279 24.4788 61.4337 24.8269L61.6913 23.8606ZM62.0625 79.25V24.3438H61.0625V79.25H62.0625ZM8.4375 79.75H61.5625V78.75H8.4375V79.75ZM60.5645 20.873C61.2434 21.5519 62.1634 21.9346 63.1235 21.9375L63.1265 20.9375C62.4305 20.9354 61.7637 20.658 61.2716 20.1659L60.5645 20.873ZM59.5 18.314C59.5029 19.2741 59.8856 20.1941 60.5645 20.873L61.2716 20.1659C60.7795 19.6738 60.5021 19.007 60.5 18.311L59.5 18.314ZM59.5 10.5V18.3125H60.5V10.5H59.5ZM62.1562 10H60V11H62.1562V10ZM66.6814 18.4167L62.6033 10.2761L61.7092 10.7239L65.7873 18.8646L66.6814 18.4167ZM65.5509 21.0076C66.2169 20.4085 66.6376 19.584 66.7316 18.6931L65.7371 18.5881C65.669 19.2333 65.3644 19.8303 64.8821 20.2641L65.5509 21.0076ZM63.1247 21.9375C64.0206 21.938 64.8849 21.6067 65.5509 21.0076L64.8821 20.2641C64.3998 20.698 63.774 20.9378 63.1253 20.9375L63.1247 21.9375ZM32.375 88.625V85.5H31.375V88.625H32.375ZM38.125 88.125H31.875V89.125H38.125V88.125ZM37.625 85.5V88.625H38.625V85.5H37.625ZM31.875 86H38.125V85H31.875V86ZM55.3125 42.8127H53.75V43.8127H55.3125V42.8127ZM58.9806 44.332C58.0078 43.3592 56.6883 42.8127 55.3125 42.8127V43.8127C56.4231 43.8127 57.4882 44.2538 58.2735 45.0391L58.9806 44.332ZM60.5 48.0002C60.5 46.6243 59.9535 45.3049 58.9806 44.332L58.2735 45.0391C59.0588 45.8245 59.5 46.8896 59.5 48.0002H60.5ZM58.9806 51.6683C59.9535 50.6954 60.5 49.376 60.5 48.0002H59.5C59.5 49.1107 59.0588 50.1759 58.2735 50.9612L58.9806 51.6683ZM55.3125 53.1877C56.6883 53.1877 58.0078 52.6411 58.9806 51.6683L58.2735 50.9612C57.4882 51.7465 56.4231 52.1877 55.3125 52.1877V53.1877ZM53.75 53.1877H55.3125V52.1877H53.75V53.1877ZM54.25 62.0627V52.6877H53.25V62.0627H54.25ZM54.0224 63.0152C54.1746 62.7194 54.2527 62.3912 54.25 62.0585L53.25 62.0668C53.2514 62.2374 53.2114 62.4058 53.1333 62.5575L54.0224 63.0152ZM53.376 63.7562C53.6483 63.5652 53.8701 63.3109 54.0224 63.0152L53.1333 62.5575C53.0552 62.7092 52.9414 62.8396 52.8017 62.9376L53.376 63.7562ZM52.4592 64.1117C52.7891 64.0693 53.1037 63.9473 53.376 63.7562L52.8017 62.9376C52.662 63.0356 52.5007 63.0981 52.3314 63.1199L52.4592 64.1117ZM51.4822 64.0001C51.794 64.1159 52.1293 64.1542 52.4592 64.1117L52.3314 63.1199C52.1622 63.1417 51.9903 63.1221 51.8303 63.0627L51.4822 64.0001ZM29.9724 56.3148L51.488 64.0023L51.8245 63.0606L30.3089 55.3731L29.9724 56.3148ZM29.2313 68.5398L30.6376 55.8992L29.6437 55.7886L28.2374 68.4292L29.2313 68.5398ZM28.5642 69.8509C28.9428 69.5105 29.1809 69.0412 29.2319 68.5346L28.2369 68.4345C28.2108 68.6934 28.0892 68.9333 27.8957 69.1072L28.5642 69.8509ZM27.1845 70.3751C27.6936 70.3782 28.1856 70.1913 28.5642 69.8509L27.8957 69.1072C27.7022 69.2812 27.4507 69.3767 27.1905 69.3752L27.1845 70.3751ZM20.9375 70.3752H27.1875V69.3752H20.9375V70.3752ZM19.4791 69.7711C19.8659 70.1579 20.3905 70.3752 20.9375 70.3752V69.3752C20.6557 69.3752 20.3855 69.2632 20.1862 69.064L19.4791 69.7711ZM18.875 68.3127C18.875 68.8597 19.0923 69.3843 19.4791 69.7711L20.1862 69.064C19.9869 68.8647 19.875 68.5944 19.875 68.3127H18.875ZM18.875 55.8127V68.3127H19.875V55.8127H18.875ZM17.8125 56.3127H19.375V55.3127H17.8125V56.3127ZM16.3541 55.7086C16.7409 56.0954 17.2655 56.3127 17.8125 56.3127V55.3127C17.5307 55.3127 17.2605 55.2007 17.0612 55.0015L16.3541 55.7086ZM15.75 54.2502C15.75 54.7972 15.9673 55.3218 16.3541 55.7086L17.0612 55.0015C16.8619 54.8022 16.75 54.5319 16.75 54.2502H15.75ZM15.75 53.9064V54.2502H16.75V53.9064H15.75ZM11.0662 53.1259L16.1287 54.3915L16.3713 53.4213L11.3088 52.1557L11.0662 53.1259ZM9.93898 52.396C10.2231 52.7586 10.6203 53.0156 11.0675 53.1262L11.3075 52.1554C11.0771 52.0984 10.8725 51.966 10.7261 51.7792L9.93898 52.396ZM9.5 51.1255C9.50036 51.5862 9.65489 52.0334 9.93898 52.396L10.7261 51.7792C10.5798 51.5925 10.5002 51.3621 10.5 51.1248L9.5 51.1255ZM9.5 44.8752V51.1252H10.5V44.8752H9.5ZM9.93898 43.6043C9.65489 43.9669 9.50036 44.4141 9.5 44.8748L10.5 44.8755C10.5002 44.6383 10.5798 44.4079 10.7261 44.2211L9.93898 43.6043ZM11.0675 42.8741C10.6203 42.9847 10.2231 43.2417 9.93898 43.6043L10.7261 44.2211C10.8725 44.0343 11.0771 43.9019 11.3075 43.8449L11.0675 42.8741ZM16.1287 41.6088L11.0662 42.8745L11.3088 43.8446L16.3713 42.579L16.1287 41.6088ZM15.75 41.7502V42.0939H16.75V41.7502H15.75ZM16.3541 40.2917C15.9673 40.6785 15.75 41.2031 15.75 41.7502H16.75C16.75 41.4684 16.8619 41.1981 17.0612 40.9989L16.3541 40.2917ZM17.8125 39.6877C17.2655 39.6877 16.7409 39.9049 16.3541 40.2918L17.0612 40.9989C17.2605 40.7996 17.5307 40.6877 17.8125 40.6877V39.6877ZM30.0469 39.6877H17.8125V40.6877H30.0469V39.6877ZM51.4881 31.998L29.8787 39.7168L30.2151 40.6585L51.8244 32.9398L51.4881 31.998ZM52.4619 31.8968C52.1351 31.8541 51.803 31.8884 51.4918 31.9967L51.8207 32.9411C51.9849 32.8839 52.1601 32.8659 52.3325 32.8884L52.4619 31.8968ZM53.3738 32.2422C53.1008 32.0577 52.7886 31.9394 52.4619 31.8968L52.3325 32.8884C52.5049 32.9108 52.6697 32.9733 52.8137 33.0706L53.3738 32.2422ZM54.0208 32.9903C53.8708 32.6973 53.6534 32.444 53.3867 32.2512L52.8009 33.0616C52.9396 33.1619 53.0527 33.2937 53.1308 33.4461L54.0208 32.9903ZM54.25 33.9368C54.2494 33.6076 54.1709 33.2832 54.0208 32.9903L53.1308 33.4461C53.2088 33.5986 53.2497 33.7673 53.25 33.9385L54.25 33.9368ZM54.25 43.3127V33.9377H53.25V43.3127H54.25ZM16.3713 50.2026L13.2463 49.4213L13.0037 50.3915L16.1287 51.1727L16.3713 50.2026ZM15.75 45.3127V50.6877H16.75V45.3127H15.75ZM13.2463 46.579L16.3713 45.7977L16.1287 44.8276L13.0037 45.6088L13.2463 46.579ZM13.625 49.9064V46.0939H12.625V49.9064H13.625ZM25.7812 66.2502H22.5V67.2502H25.7812V66.2502ZM26.5031 55.7573L25.2843 66.6948L26.2782 66.8055L27.4969 55.868L26.5031 55.7573ZM22.5 56.3127H27V55.3127H22.5V56.3127ZM23 66.7502V55.8127H22V66.7502H23ZM28.75 52.1877H19.375V53.1877H28.75V52.1877ZM28.25 43.3127V52.6877H29.25V43.3127H28.25ZM19.375 43.8127H28.75V42.8127H19.375V43.8127ZM19.875 52.6877V43.3127H18.875V52.6877H19.875ZM32.375 53.1564V42.8439H31.375V53.1564H32.375ZM50.793 59.373L32.043 52.6855L31.707 53.6273L50.457 60.3148L50.793 59.373ZM50.125 36.1564V59.8439H51.125V36.1564H50.125ZM32.043 43.3148L50.793 36.6273L50.457 35.6855L31.707 42.373L32.043 43.3148ZM55.3125 49.0627H53.75V50.0627H55.3125V49.0627ZM56.0638 48.7515C55.8645 48.9507 55.5943 49.0627 55.3125 49.0627V50.0627C55.8595 50.0627 56.3841 49.8454 56.7709 49.4586L56.0638 48.7515ZM56.375 48.0002C56.375 48.2819 56.2631 48.5522 56.0638 48.7515L56.7709 49.4586C57.1577 49.0718 57.375 48.5472 57.375 48.0002H56.375ZM56.0638 47.2489C56.2631 47.4481 56.375 47.7184 56.375 48.0002H57.375C57.375 47.4531 57.1577 46.9285 56.7709 46.5417L56.0638 47.2489ZM55.3125 46.9377C55.5943 46.9377 55.8645 47.0496 56.0638 47.2489L56.7709 46.5417C56.3841 46.155 55.8595 45.9377 55.3125 45.9377V46.9377ZM53.75 46.9377H55.3125V45.9377H53.75V46.9377ZM54.25 49.5627V46.4377H53.25V49.5627H54.25Z" fill="url(#paint1_linear)" mask="url(#path-1-outside-1)"/>
<defs>
<linearGradient id="paint0_linear" x1="0.986524" y1="3.11156" x2="71.9984" y2="5.24648" gradientUnits="userSpaceOnUse">
<stop stop-color="#0BB9F6"/>
<stop offset="1" stop-color="#5B6FED"/>
</linearGradient>
<linearGradient id="paint1_linear" x1="0.986524" y1="3.11156" x2="71.9984" y2="5.24648" gradientUnits="userSpaceOnUse">
<stop stop-color="#0BB9F6"/>
<stop offset="1" stop-color="#5B6FED"/>
</linearGradient>
</defs>
</svg>
