<svg width="245" height="218" viewBox="0 0 245 218" fill="none" xmlns="http://www.w3.org/2000/svg">
<g opacity="0.6" clip-path="url(#clip0)">
<path d="M208.5 45.9001C210.5 43.4001 210.5 40 208.7 37.3L232.8 13.2C235.7 15.2 239.6 15.1 242.1 12.5C245 9.70005 245 5.00005 242.1 2.10005C239.2 -0.799951 234.6 -0.799951 231.7 2.10005C229.1 4.60005 229 8.60005 230.9 11.4L206.8 35.6C204.1 33.8 200.8 33.8 198.2 35.8C160.6 3.40005 103.6 5.00005 67.9001 40.7001C67.5001 41.1001 67.2001 41.5 66.9001 41.9001L62.4001 37.4001C64.4001 34.5 64.3001 30.6 61.7001 28.1C58.8001 25.2001 54.2001 25.2001 51.3001 28.1C48.4001 31 48.4001 35.6 51.3001 38.5C53.9001 41.1 57.8001 41.2001 60.7001 39.2001L65.3001 43.7001C48.3001 62.3 39.8001 85.8 40.0001 109.3H14.4001C14.2001 107.9 13.6001 106.5 12.5001 105.3C9.60007 102.4 5.00007 102.4 2.10007 105.4C-0.799933 108.2 -0.699933 112.9 2.10007 115.8C5.00007 118.7 9.70007 118.7 12.5001 115.8C13.6001 114.7 14.1001 113.4 14.4001 111.9H40.0001C40.7001 133.1 48.4001 154.2 63.1001 171.2C61.2001 173.7 61.1001 177.1 62.9001 179.7L38.8001 203.8C36.0001 201.8 32.1001 201.9 29.5001 204.5C26.7001 207.4 26.7001 212.1 29.5001 214.9C32.4001 217.8 37.1001 217.8 39.9001 214.9C42.4001 212.3 42.6001 208.4 40.6001 205.5L64.7001 181.4C67.4001 183.2 70.7001 183.1 73.3001 181.2C111 213.7 168 212.1 203.8 176.4C239.4 140.7 240.9 83.6001 208.5 45.9001ZM69.7001 42.5C104.4 7.70005 160 6.20005 196.6 37.7001C195.1 40.2001 195.2 43.2001 196.8 45.7001L147.1 95.4C140.3 89.4 129.9 89.7 123.4 96.2C123 96.6 122.8 97 122.4 97.4L68.6001 43.6C69.0001 43.3 69.4001 42.9001 69.7001 42.5ZM66.9001 45.5L120.9 99.4C119.1 102.5 118.2 105.8 118.4 109.3H42.4001C42.2001 86.4 50.5001 63.5 66.9001 45.5ZM118.6 111.8C119.2 114.7 120.6 117.5 122.6 119.9L72.9001 169.6C70.5001 167.9 67.4001 167.9 65.0001 169.4C50.7001 152.8 43.3001 132.5 42.6001 111.9H118.6V111.8ZM74.9001 179.3C76.5001 176.9 76.4001 173.8 74.7001 171.4L124.4 121.7C131.2 127.6 141.6 127.4 148.1 120.9C154.6 114.4 154.9 104 148.9 97.2L198.6 47.5C201 49.2001 204.1 49.2001 206.6 47.7001C238.1 84.4001 236.6 139.8 201.9 174.6C167.1 209.3 111.6 210.9 74.9001 179.3Z" fill="#EFEDED"/>
</g>
<defs>
<clipPath id="clip0">
<rect width="244.3" height="217.1" fill="white"/>
</clipPath>
</defs>
</svg>
