<svg width="34" height="32" viewBox="0 0 34 32" fill="none" xmlns="http://www.w3.org/2000/svg">
<path d="M16.592 0C10.2421 0 5.07617 4.98215 5.07617 11.1054C5.07617 16.9996 15.5247 30.7705 15.9696 31.3536L16.3848 31.8985C16.4333 31.9626 16.5106 32 16.592 32C16.6746 32 16.7514 31.9626 16.8005 31.8985L17.2154 31.3536C17.6606 30.7705 28.1088 16.9996 28.1088 11.1054C28.1088 4.98215 22.942 0 16.592 0ZM16.592 7.12748C18.8672 7.12748 20.7173 8.91158 20.7173 11.1054C20.7173 13.2981 18.8671 15.0834 16.592 15.0834C14.3181 15.0834 12.4667 13.2981 12.4667 11.1054C12.4667 8.91158 14.3181 7.12748 16.592 7.12748Z" fill="white"/>
</svg>
