<svg width="295" height="43" viewBox="0 0 295 43" fill="none" xmlns="http://www.w3.org/2000/svg">
<path d="M25.4106 25.7371L21.1798 21.5063L25.4106 17.2626V8.81396L12.7183 21.5063L25.4106 34.1987V25.7371Z" fill="#FF0040"/>
<path d="M0 0.32666V42.6734H42.3468V0.32666H0ZM36.2991 36.6257H6.04768V6.37434H36.2991V36.6257Z" fill="#FF0040"/>
<path d="M62.3436 14.6712C62.3436 15.1799 62.1256 15.6159 61.7138 15.9792C61.302 16.3425 60.757 16.5242 60.1031 16.5242C59.6913 16.5242 59.2795 16.4636 58.8678 16.3304C58.456 16.2093 58.1048 16.064 57.8383 15.8944C57.5598 15.7249 57.2934 15.5311 57.0511 15.3131C56.8089 15.0951 56.6394 14.9498 56.5546 14.865C56.4698 14.7924 56.4093 14.7197 56.385 14.6712L53.6601 17.5173L53.9266 17.8201C54.1082 18.038 54.3989 18.2803 54.7985 18.5709C55.1861 18.8616 55.6463 19.1522 56.1549 19.4429C56.6636 19.7336 57.3176 19.9879 58.1169 20.1938C58.9162 20.3997 59.7397 20.4965 60.5996 20.4965C62.6948 20.4965 64.3782 19.9516 65.6498 18.8495C66.9093 17.7595 67.5512 16.4031 67.5512 14.7924C67.5512 13.9688 67.3938 13.2422 67.1031 12.6124C66.8003 11.9826 66.4128 11.4861 65.9405 11.1107C65.4682 10.7473 64.9474 10.4204 64.3661 10.1539C63.7848 9.88748 63.2155 9.66948 62.6463 9.49993C62.0771 9.33038 61.5564 9.16083 61.084 9.00339C60.6117 8.84595 60.2242 8.65218 59.9335 8.42207C59.6307 8.19196 59.4854 7.91342 59.4854 7.59854C59.4854 7.21099 59.655 6.85978 60.0183 6.55701C60.3695 6.26635 60.8176 6.10891 61.3505 6.10891C61.8591 6.10891 62.3557 6.24213 62.8522 6.49645C63.3488 6.76289 63.6758 6.96877 63.8332 7.1141C63.9906 7.25943 64.1117 7.38054 64.1965 7.47743L66.9336 4.61928L66.7035 4.37706C66.5702 4.1954 66.3401 3.98952 66.001 3.7473C65.6619 3.50508 65.2623 3.26287 64.8142 3.02065C64.3661 2.77844 63.7969 2.57255 63.0944 2.403C62.392 2.23345 61.6411 2.13656 60.8539 2.13656C58.9283 2.13656 57.3539 2.68155 56.1186 3.7473C54.8833 4.81305 54.2778 6.06046 54.2778 7.47743C54.2778 8.30096 54.4231 9.02761 54.7259 9.65737C55.0165 10.2871 55.4041 10.7958 55.8764 11.1591C56.3487 11.5345 56.8695 11.8494 57.4387 12.1159C58.0079 12.3823 58.5771 12.6124 59.1584 12.782C59.7397 12.9515 60.2605 13.1211 60.7328 13.2664C61.2051 13.4238 61.5927 13.6176 61.8955 13.8477C62.1861 14.0899 62.3436 14.3564 62.3436 14.6712ZM79.5714 2.63311L76.1077 9.33038L72.6319 2.63311H67.5454L73.7461 13.7993V20H78.4572V13.7993L84.658 2.63311H79.5714ZM97.9377 2.63311V12.3096L90.5017 2.63311H86.4082V20H91.1193V10.3235L98.5796 20H102.649V2.63311H97.9377ZM111.096 16.0277V13.0605H117.794V9.33038H111.096V6.60545H119.78V2.63311H106.385V20H120.022V16.0277H111.096ZM122.753 20H127.464V14.538H129.947L132.926 20H137.88L134.283 13.6782L134.61 13.4965C134.803 13.3996 135.046 13.2301 135.336 12.9636C135.627 12.6972 135.918 12.3823 136.208 12.0069C136.499 11.6314 136.741 11.147 136.947 10.5415C137.153 9.93592 137.262 9.29405 137.262 8.59162C137.262 6.90822 136.656 5.49126 135.47 4.35284C134.283 3.21442 132.769 2.64522 130.94 2.64522H122.753V20ZM132.551 8.59162C132.551 9.08816 132.369 9.49993 132.03 9.83903C131.679 10.166 131.231 10.3356 130.686 10.3356H127.464V6.87189H130.686C131.231 6.87189 131.679 7.02933 132.03 7.35632C132.369 7.68331 132.551 8.09508 132.551 8.59162ZM149.04 20.4965C149.96 20.4965 150.869 20.3754 151.741 20.1332C152.613 19.891 153.327 19.6125 153.884 19.3097C154.441 18.9948 154.962 18.6436 155.447 18.2439C155.931 17.8443 156.246 17.5657 156.403 17.4083C156.549 17.2508 156.658 17.1297 156.73 17.0329V10.3356H149.282V13.3148H152.007V15.1799L151.716 15.4463C151.511 15.6401 151.159 15.8339 150.663 16.0155C150.178 16.1972 149.633 16.2941 149.028 16.2941C147.611 16.2941 146.424 15.8218 145.479 14.8771C144.535 13.9325 144.062 12.7456 144.062 11.3287C144.062 9.89959 144.535 8.72484 145.479 7.7802C146.424 6.83555 147.611 6.37534 149.028 6.37534C149.561 6.37534 150.082 6.44801 150.59 6.60545C151.099 6.76289 151.511 6.94455 151.825 7.13832C152.14 7.3321 152.443 7.5622 152.734 7.81653C153.024 8.07086 153.218 8.25252 153.291 8.34941C153.376 8.44629 153.436 8.53107 153.485 8.59162L156.343 5.61236L156.064 5.26115C155.895 5.01893 155.604 4.72827 155.192 4.38917C154.78 4.05007 154.308 3.71097 153.763 3.37186C153.218 3.03276 152.528 2.7421 151.68 2.49989C150.844 2.25767 149.96 2.13656 149.028 2.13656C146.339 2.13656 144.05 3.04487 142.173 4.84938C140.296 6.65389 139.351 8.80962 139.351 11.3166C139.351 13.8356 140.296 15.9913 142.173 17.7958C144.05 19.6003 146.339 20.4965 149.04 20.4965ZM169.719 2.63311L166.256 9.33038L162.78 2.63311H157.693L163.894 13.7993V20H168.605V13.7993L174.806 2.63311H169.719ZM63.4578 41C65.2986 41 66.8125 40.4913 67.9993 39.474C69.1862 38.4567 69.7796 37.2699 69.7796 35.9135C69.7796 35.3321 69.6585 34.7993 69.4405 34.3027C69.2225 33.8183 68.9682 33.4307 68.7017 33.1401C68.4232 32.8615 68.1083 32.6072 67.7571 32.3892C67.3938 32.1712 67.1516 32.0259 67.0062 31.9653C66.8609 31.9048 66.7519 31.8563 66.6792 31.8321L66.9093 31.711C67.0668 31.6262 67.2484 31.493 67.4664 31.2992C67.6844 31.1055 67.9024 30.8875 68.1204 30.621C68.3384 30.3667 68.5201 30.0276 68.6775 29.5916C68.8228 29.1556 68.9076 28.7075 68.9076 28.2231C68.9076 26.9878 68.3626 25.922 67.2727 25.0016C66.1827 24.0933 64.7415 23.6331 62.9612 23.6331H55.1497V41H63.4578ZM59.8608 37.282V33.8062H63.0823C63.6273 33.8062 64.0754 33.9757 64.4266 34.3027C64.7657 34.6418 64.9474 35.0536 64.9474 35.5501C64.9474 36.0467 64.7657 36.4584 64.4266 36.7854C64.0754 37.1245 63.6273 37.282 63.0823 37.282H59.8608ZM62.4647 27.3632C62.9491 27.3632 63.3488 27.5086 63.6394 27.775C63.9301 28.0414 64.0754 28.4048 64.0754 28.8529C64.0754 29.301 63.9301 29.6643 63.6394 29.9307C63.3488 30.1972 62.9491 30.3304 62.4647 30.3304H59.8608V27.3632H62.4647ZM80.3223 37.282C79.4382 37.282 78.6752 36.955 78.0455 36.2768C77.4157 35.6107 77.1008 34.7872 77.1008 33.8062V23.6331H72.3897V33.8062C72.3897 35.9861 73.1406 37.8149 74.6423 39.2924C76.1441 40.7699 78.0334 41.4965 80.3223 41.4965C82.5991 41.4965 84.5005 40.7699 86.0023 39.2924C87.504 37.8149 88.2549 35.9861 88.2549 33.8062V23.6331H83.5438V33.8062C83.5438 34.7872 83.2168 35.6107 82.587 36.2768C81.9573 36.955 81.1943 37.282 80.3223 37.282ZM99.0519 35.6712C99.0519 36.1799 98.8339 36.6159 98.4221 36.9792C98.0104 37.3425 97.4654 37.5242 96.8114 37.5242C96.3996 37.5242 95.9879 37.4636 95.5761 37.3304C95.1643 37.2093 94.8131 37.064 94.5467 36.8944C94.2681 36.7249 94.0017 36.5311 93.7595 36.3131C93.5173 36.0951 93.3477 35.9498 93.2629 35.865C93.1782 35.7924 93.1176 35.7197 93.0934 35.6712L90.3685 38.5173L90.6349 38.8201C90.8166 39.038 91.1072 39.2803 91.5069 39.5709C91.8944 39.8616 92.3546 40.1522 92.8633 40.4429C93.3719 40.7336 94.0259 40.9879 94.8252 41.1938C95.6245 41.3997 96.4481 41.4965 97.3079 41.4965C99.4031 41.4965 101.087 40.9516 102.358 39.8495C103.618 38.7595 104.26 37.4031 104.26 35.7924C104.26 34.9688 104.102 34.2422 103.811 33.6124C103.509 32.9826 103.121 32.4861 102.649 32.1107C102.176 31.7473 101.656 31.4204 101.074 31.1539C100.493 30.8875 99.9239 30.6695 99.3547 30.4999C98.7855 30.3304 98.2647 30.1608 97.7924 30.0034C97.3201 29.8459 96.9325 29.6522 96.6419 29.4221C96.3391 29.192 96.1938 28.9134 96.1938 28.5985C96.1938 28.211 96.3633 27.8598 96.7266 27.557C97.0778 27.2663 97.5259 27.1089 98.0588 27.1089C98.5675 27.1089 99.064 27.2421 99.5606 27.4965C100.057 27.7629 100.384 27.9688 100.542 28.1141C100.699 28.2594 100.82 28.3805 100.905 28.4774L103.642 25.6193L103.412 25.3771C103.279 25.1954 103.048 24.9895 102.709 24.7473C102.37 24.5051 101.971 24.2629 101.523 24.0207C101.074 23.7784 100.505 23.5726 99.8028 23.403C99.1003 23.2334 98.3495 23.1366 97.5623 23.1366C95.6367 23.1366 94.0622 23.6815 92.8269 24.7473C91.5916 25.8131 90.9861 27.0605 90.9861 28.4774C90.9861 29.301 91.1314 30.0276 91.4342 30.6574C91.7249 31.2871 92.1124 31.7958 92.5847 32.1591C93.0571 32.5345 93.5778 32.8494 94.147 33.1159C94.7162 33.3823 95.2854 33.6124 95.8668 33.782C96.4481 33.9515 96.9688 34.1211 97.4412 34.2664C97.9135 34.4238 98.301 34.6176 98.6038 34.8477C98.8945 35.0899 99.0519 35.3564 99.0519 35.6712ZM106.749 41H111.46V23.6331H106.749V41ZM126.701 23.6331V33.3096L119.265 23.6331H115.172V41H119.883V31.3235L127.343 41H131.412V23.6331H126.701ZM139.86 37.0277V34.0605H146.557V30.3304H139.86V27.6054H148.543V23.6331H135.149V41H148.786V37.0277H139.86ZM158.711 35.6712C158.711 36.1799 158.493 36.6159 158.081 36.9792C157.669 37.3425 157.124 37.5242 156.47 37.5242C156.058 37.5242 155.647 37.4636 155.235 37.3304C154.823 37.2093 154.472 37.064 154.205 36.8944C153.927 36.7249 153.66 36.5311 153.418 36.3131C153.176 36.0951 153.007 35.9498 152.922 35.865C152.837 35.7924 152.776 35.7197 152.752 35.6712L150.027 38.5173L150.294 38.8201C150.475 39.038 150.766 39.2803 151.166 39.5709C151.553 39.8616 152.013 40.1522 152.522 40.4429C153.031 40.7336 153.685 40.9879 154.484 41.1938C155.283 41.3997 156.107 41.4965 156.967 41.4965C159.062 41.4965 160.745 40.9516 162.017 39.8495C163.276 38.7595 163.918 37.4031 163.918 35.7924C163.918 34.9688 163.761 34.2422 163.47 33.6124C163.167 32.9826 162.78 32.4861 162.308 32.1107C161.835 31.7473 161.315 31.4204 160.733 31.1539C160.152 30.8875 159.583 30.6695 159.013 30.4999C158.444 30.3304 157.923 30.1608 157.451 30.0034C156.979 29.8459 156.591 29.6522 156.301 29.4221C155.998 29.192 155.853 28.9134 155.853 28.5985C155.853 28.211 156.022 27.8598 156.385 27.557C156.737 27.2663 157.185 27.1089 157.718 27.1089C158.226 27.1089 158.723 27.2421 159.219 27.4965C159.716 27.7629 160.043 27.9688 160.2 28.1141C160.358 28.2594 160.479 28.3805 160.564 28.4774L163.301 25.6193L163.071 25.3771C162.937 25.1954 162.707 24.9895 162.368 24.7473C162.029 24.5051 161.629 24.2629 161.181 24.0207C160.733 23.7784 160.164 23.5726 159.462 23.403C158.759 23.2334 158.008 23.1366 157.221 23.1366C155.295 23.1366 153.721 23.6815 152.486 24.7473C151.25 25.8131 150.645 27.0605 150.645 28.4774C150.645 29.301 150.79 30.0276 151.093 30.6574C151.384 31.2871 151.771 31.7958 152.244 32.1591C152.716 32.5345 153.237 32.8494 153.806 33.1159C154.375 33.3823 154.944 33.6124 155.526 33.782C156.107 33.9515 156.628 34.1211 157.1 34.2664C157.572 34.4238 157.96 34.6176 158.263 34.8477C158.553 35.0899 158.711 35.3564 158.711 35.6712ZM173.601 35.6712C173.601 36.1799 173.383 36.6159 172.971 36.9792C172.56 37.3425 172.015 37.5242 171.361 37.5242C170.949 37.5242 170.537 37.4636 170.125 37.3304C169.714 37.2093 169.362 37.064 169.096 36.8944C168.817 36.7249 168.551 36.5311 168.309 36.3131C168.067 36.0951 167.897 35.9498 167.812 35.865C167.727 35.7924 167.667 35.7197 167.643 35.6712L164.918 38.5173L165.184 38.8201C165.366 39.038 165.656 39.2803 166.056 39.5709C166.444 39.8616 166.904 40.1522 167.413 40.4429C167.921 40.7336 168.575 40.9879 169.375 41.1938C170.174 41.3997 170.997 41.4965 171.857 41.4965C173.952 41.4965 175.636 40.9516 176.907 39.8495C178.167 38.7595 178.809 37.4031 178.809 35.7924C178.809 34.9688 178.651 34.2422 178.361 33.6124C178.058 32.9826 177.67 32.4861 177.198 32.1107C176.726 31.7473 176.205 31.4204 175.624 31.1539C175.042 30.8875 174.473 30.6695 173.904 30.4999C173.335 30.3304 172.814 30.1608 172.342 30.0034C171.869 29.8459 171.482 29.6522 171.191 29.4221C170.888 29.192 170.743 28.9134 170.743 28.5985C170.743 28.211 170.913 27.8598 171.276 27.557C171.627 27.2663 172.075 27.1089 172.608 27.1089C173.117 27.1089 173.613 27.2421 174.11 27.4965C174.606 27.7629 174.933 27.9688 175.091 28.1141C175.248 28.2594 175.369 28.3805 175.454 28.4774L178.191 25.6193L177.961 25.3771C177.828 25.1954 177.598 24.9895 177.259 24.7473C176.92 24.5051 176.52 24.2629 176.072 24.0207C175.624 23.7784 175.054 23.5726 174.352 23.403C173.65 23.2334 172.899 23.1366 172.112 23.1366C170.186 23.1366 168.612 23.6815 167.376 24.7473C166.141 25.8131 165.535 27.0605 165.535 28.4774C165.535 29.301 165.681 30.0276 165.983 30.6574C166.274 31.2871 166.662 31.7958 167.134 32.1591C167.606 32.5345 168.127 32.8494 168.696 33.1159C169.266 33.3823 169.835 33.6124 170.416 33.782C170.997 33.9515 171.518 34.1211 171.99 34.2664C172.463 34.4238 172.85 34.6176 173.153 34.8477C173.444 35.0899 173.601 35.3564 173.601 35.6712ZM193.451 35.6712C193.451 36.1799 193.233 36.6159 192.821 36.9792C192.41 37.3425 191.865 37.5242 191.211 37.5242C190.799 37.5242 190.387 37.4636 189.975 37.3304C189.564 37.2093 189.212 37.064 188.946 36.8944C188.667 36.7249 188.401 36.5311 188.159 36.3131C187.917 36.0951 187.747 35.9498 187.662 35.865C187.578 35.7924 187.517 35.7197 187.493 35.6712L184.768 38.5173L185.034 38.8201C185.216 39.038 185.507 39.2803 185.906 39.5709C186.294 39.8616 186.754 40.1522 187.263 40.4429C187.771 40.7336 188.425 40.9879 189.225 41.1938C190.024 41.3997 190.847 41.4965 191.707 41.4965C193.802 41.4965 195.486 40.9516 196.758 39.8495C198.017 38.7595 198.659 37.4031 198.659 35.7924C198.659 34.9688 198.501 34.2422 198.211 33.6124C197.908 32.9826 197.52 32.4861 197.048 32.1107C196.576 31.7473 196.055 31.4204 195.474 31.1539C194.892 30.8875 194.323 30.6695 193.754 30.4999C193.185 30.3304 192.664 30.1608 192.192 30.0034C191.719 29.8459 191.332 29.6522 191.041 29.4221C190.738 29.192 190.593 28.9134 190.593 28.5985C190.593 28.211 190.763 27.8598 191.126 27.557C191.477 27.2663 191.925 27.1089 192.458 27.1089C192.967 27.1089 193.463 27.2421 193.96 27.4965C194.456 27.7629 194.783 27.9688 194.941 28.1141C195.098 28.2594 195.219 28.3805 195.304 28.4774L198.041 25.6193L197.811 25.3771C197.678 25.1954 197.448 24.9895 197.109 24.7473C196.77 24.5051 196.37 24.2629 195.922 24.0207C195.474 23.7784 194.905 23.5726 194.202 23.403C193.5 23.2334 192.749 23.1366 191.962 23.1366C190.036 23.1366 188.462 23.6815 187.226 24.7473C185.991 25.8131 185.385 27.0605 185.385 28.4774C185.385 29.301 185.531 30.0276 185.834 30.6574C186.124 31.2871 186.512 31.7958 186.984 32.1591C187.456 32.5345 187.977 32.8494 188.546 33.1159C189.116 33.3823 189.685 33.6124 190.266 33.782C190.847 33.9515 191.368 34.1211 191.841 34.2664C192.313 34.4238 192.7 34.6176 193.003 34.8477C193.294 35.0899 193.451 35.3564 193.451 35.6712ZM204.866 32.3166C204.866 30.8996 205.338 29.7248 206.283 28.7802C207.228 27.8356 208.402 27.3632 209.831 27.3632C210.352 27.3632 210.873 27.448 211.382 27.6054C211.89 27.7629 212.302 27.9446 212.617 28.1383C212.932 28.3321 213.235 28.5622 213.525 28.8165C213.816 29.0709 214.01 29.2525 214.082 29.3494C214.167 29.4463 214.228 29.5311 214.276 29.5916L217.134 26.6124L216.856 26.2612C216.686 26.0189 216.395 25.7283 215.984 25.3892C215.572 25.0501 215.1 24.711 214.555 24.3719C214.01 24.0328 213.319 23.7421 212.472 23.4999C211.636 23.2577 210.752 23.1366 209.819 23.1366C207.131 23.1366 204.842 24.0449 202.965 25.8494C201.087 27.6539 200.143 29.8096 200.143 32.3166C200.143 34.8356 201.087 36.9913 202.965 38.7958C204.842 40.6003 207.131 41.4965 209.819 41.4965C210.764 41.4965 211.66 41.3754 212.532 41.1332C213.404 40.891 214.094 40.6125 214.627 40.2976C215.16 39.9948 215.645 39.6436 216.105 39.2439C216.565 38.8443 216.856 38.5657 216.977 38.4083C217.098 38.2508 217.195 38.1176 217.255 38.0207L214.53 35.0415L214.01 35.5986C213.671 35.9861 213.101 36.3616 212.314 36.7249C211.539 37.1003 210.703 37.282 209.819 37.282C208.402 37.282 207.215 36.8097 206.271 35.865C205.326 34.9204 204.866 33.7456 204.866 32.3166ZM235.246 23.6331H230.535V30.0882H224.213V23.6331H219.502V41H224.213V34.3027H230.535V41H235.246V23.6331ZM242.81 32.3166C242.81 30.8996 243.27 29.7248 244.202 28.7802C245.123 27.8356 246.273 27.3632 247.654 27.3632C249.022 27.3632 250.173 27.8356 251.093 28.7802C252.014 29.7248 252.474 30.8996 252.474 32.3166C252.474 33.7456 252.014 34.9204 251.093 35.865C250.173 36.8097 249.022 37.282 247.654 37.282C246.273 37.282 245.123 36.8097 244.202 35.865C243.27 34.9204 242.81 33.7456 242.81 32.3166ZM257.318 32.3166C257.318 29.8096 256.374 27.6539 254.497 25.8494C252.619 24.0449 250.33 23.1366 247.642 23.1366C244.953 23.1366 242.664 24.0449 240.787 25.8494C238.91 27.6539 237.977 29.8096 237.977 32.3166C237.977 34.8356 238.91 36.9913 240.787 38.7958C242.664 40.6003 244.953 41.4965 247.642 41.4965C250.33 41.4965 252.619 40.6003 254.497 38.7958C256.374 36.9913 257.318 34.8356 257.318 32.3166ZM263.901 32.3166C263.901 30.8996 264.361 29.7248 265.294 28.7802C266.214 27.8356 267.364 27.3632 268.745 27.3632C270.114 27.3632 271.264 27.8356 272.185 28.7802C273.105 29.7248 273.565 30.8996 273.565 32.3166C273.565 33.7456 273.105 34.9204 272.185 35.865C271.264 36.8097 270.114 37.282 268.745 37.282C267.364 37.282 266.214 36.8097 265.294 35.865C264.361 34.9204 263.901 33.7456 263.901 32.3166ZM278.41 32.3166C278.41 29.8096 277.465 27.6539 275.588 25.8494C273.711 24.0449 271.422 23.1366 268.733 23.1366C266.044 23.1366 263.755 24.0449 261.878 25.8494C260.001 27.6539 259.069 29.8096 259.069 32.3166C259.069 34.8356 260.001 36.9913 261.878 38.7958C263.755 40.6003 266.044 41.4965 268.733 41.4965C271.422 41.4965 273.711 40.6003 275.588 38.7958C277.465 36.9913 278.41 34.8356 278.41 32.3166ZM293.554 41V36.7854H285.864V23.6331H281.153V41H293.554Z" fill="#11253D"/>
</svg>
