<svg width="27" height="33" viewBox="0 0 27 33" fill="none" xmlns="http://www.w3.org/2000/svg">
<path d="M20.2469 11.897C21.1769 11.7823 22.107 11.4382 22.9208 11.4382C23.7346 11.4382 24.6646 11.6676 25.4784 11.897C25.3621 7.42351 20.5957 2.03231 16.643 1.8029C19.3169 4.78525 20.0144 8.22645 20.2469 11.897ZM6.41258 11.897C6.64509 8.22645 7.34262 4.67057 9.90023 1.68822C5.94756 2.03234 0.59983 8.11174 1.18111 11.7823C3.62246 11.2088 3.62246 11.2088 6.41258 11.897ZM19.2006 11.897C19.0844 9.48822 18.7356 7.07939 17.573 4.89997C16.9918 3.86762 16.2942 2.94998 15.4805 2.14704C15.1317 1.68821 14.4341 1.57349 13.8529 1.22937V12.0118C16.8755 10.9794 16.5268 11.2088 19.2006 11.897ZM7.34261 12.0118C9.20269 11.0941 10.9465 11.0941 12.8066 12.0118V1.22937C12.3416 1.45878 11.8766 1.57349 11.6441 1.8029C10.9465 2.37643 10.3652 2.94997 9.78394 3.75291C8.73764 5.3588 8.15642 7.07939 7.80766 8.91468C7.57515 9.83233 7.57512 10.8647 7.34261 12.0118ZM11.4115 28.5294C11.4115 28.3 11.4115 28.1853 11.4115 28.1853C9.78396 23.3676 8.15638 18.55 6.52881 13.6176C6.52881 13.5029 6.41257 13.2735 6.18006 13.1588C4.90125 12.1265 2.45991 12.1265 1.18111 13.1588C4.66876 18.2059 8.04014 23.2529 11.4115 28.5294ZM15.1317 28.3H15.2479C18.6193 23.2529 21.9907 18.0912 25.3621 13.0441C23.8508 12.1265 22.2233 12.0117 20.7119 12.9294C20.3632 13.0441 20.1307 13.3882 20.0144 13.7323C18.9681 16.8294 17.9218 20.0411 16.8755 23.1382C16.2943 24.8588 15.713 26.5794 15.1317 28.3ZM19.2006 13.1588C17.6893 12.2412 16.0618 12.1264 14.5504 12.8147C14.0854 13.0441 13.9692 13.2735 13.9692 13.7323C13.9692 18.3206 13.9692 22.9088 13.9692 27.3823C13.9692 27.7265 13.9692 28.1853 13.9692 28.5294H14.0854C15.713 23.4823 17.4568 18.3206 19.2006 13.1588ZM7.45884 13.1588C9.20266 18.3206 10.9465 23.4823 12.5741 28.6441C12.6903 23.5971 12.6903 18.55 12.6903 13.5029C12.6903 13.2735 12.5741 13.0441 12.3416 12.9294C10.9465 12.0117 9.08641 12.1265 7.45884 13.1588ZM13.3879 0.197021C20.3632 0.197021 26.0596 5.35881 26.6409 12.0118C26.6409 12.7 26.5247 13.2735 26.1759 13.847C22.107 19.9264 18.0381 26.0059 13.9692 32.2C13.3879 33.0029 13.1554 33.0029 12.5741 32.2C8.50516 26.0059 4.43623 19.9265 0.367306 13.7323C0.134796 13.3882 0.0185547 12.8147 0.0185547 12.3559C0.251065 6.39115 5.25002 1.22939 11.4115 0.426447C12.1091 0.311741 12.6904 0.311727 13.3879 0.197021Z" fill="#4C464C"/>
</svg>
