<svg width="40" height="47" viewBox="0 0 40 47" fill="none" xmlns="http://www.w3.org/2000/svg">
<path d="M29.7532 20.771H29.868C30.0977 20.771 30.3274 20.6577 30.6719 20.5444C30.7868 20.5444 30.9016 20.5444 31.0164 20.5444L33.6578 21.7908L35.7249 20.2045L35.2655 17.3717C35.2655 17.2584 35.2656 17.1451 35.3804 17.0318C35.4953 16.8052 35.6101 16.5786 35.7249 16.3519C35.7249 16.2386 35.8398 16.1253 35.9546 16.1253L38.5959 15.2188L38.9404 12.6127L36.6436 10.7998C36.5288 10.6865 36.5288 10.5732 36.4139 10.4599C36.4139 10.2332 36.2991 9.8933 36.1842 9.66668C36.1842 9.55337 36.1842 9.44007 36.1842 9.32676L37.3326 6.72062L35.7249 4.56775L32.9687 4.9077C32.8539 4.9077 32.7391 4.90769 32.6242 4.79438C32.3946 4.68107 32.1649 4.45446 31.9352 4.34115C31.8204 4.22784 31.7055 4.22783 31.7055 4.11452L30.6719 1.39509L28.0306 0.941862L26.308 3.20805C26.1932 3.32136 26.1932 3.32134 26.0783 3.43465C25.8487 3.43465 25.619 3.54798 25.2745 3.66129C25.1596 3.66129 25.0448 3.66129 24.9299 3.66129L22.2886 2.41487L20.2215 4.0012L20.6809 6.83394C20.6809 6.94725 20.6809 7.06058 20.566 7.17389C20.4512 7.40051 20.3364 7.6271 20.2215 7.85372C20.2215 7.96703 20.1067 8.08035 19.9918 8.08035L17.3505 8.98681L17.006 11.593L19.3028 13.4059C19.4177 13.5192 19.4176 13.6325 19.5325 13.7458C19.5325 13.9724 19.6473 14.3124 19.7622 14.539C19.7622 14.6523 19.7622 14.7656 19.7622 14.8789L18.6138 17.485L20.2215 19.6379L22.9777 19.298C23.0925 19.298 23.2074 19.298 23.3222 19.4113C23.5519 19.5246 23.7816 19.7512 24.0112 19.8645C24.1261 19.9778 24.2409 19.9779 24.2409 20.0912L25.2745 22.8106L27.9158 23.2638L29.6384 20.9976C29.6384 20.8843 29.7532 20.771 29.7532 20.771ZM33.8874 22.8106C33.7726 22.9239 33.6578 22.9239 33.4281 22.8106L30.7868 21.4509C30.672 21.4509 30.4423 21.5642 30.3274 21.5642L28.6048 23.9437C28.49 24.057 28.3751 24.1703 28.1454 24.1703L24.9299 23.6038C24.8151 23.6038 24.5854 23.4904 24.5854 23.2638L23.5519 20.4311C23.437 20.3178 23.2074 20.2045 23.0925 20.2045L20.2215 20.5444C20.1067 20.5444 19.877 20.4311 19.7622 20.3178L17.8099 17.7117C17.6951 17.5984 17.6951 17.3717 17.8099 17.2584L18.9583 14.539C18.9583 14.3124 18.8435 14.1991 18.8435 13.9725L16.4318 12.1595C16.317 12.0462 16.2021 11.9329 16.2021 11.7063L16.6615 8.53358C16.6615 8.42027 16.7763 8.19367 17.006 8.19367L19.7622 7.17389C19.877 7.06058 19.877 6.83393 19.9918 6.72062L19.5325 3.7746C19.5325 3.54798 19.5325 3.43465 19.7622 3.32134L22.2886 1.50841C22.4035 1.3951 22.6332 1.3951 22.748 1.50841L25.3893 2.8681C25.5042 2.8681 25.7338 2.75479 25.8487 2.75479L27.5713 0.375315C27.6861 0.262005 27.801 0.148682 28.0306 0.148682L31.2461 0.71523C31.361 0.71523 31.5906 0.828525 31.5906 1.05514L32.6242 3.88788C32.7391 4.00119 32.9688 4.11452 33.0836 4.11452L35.9546 3.7746C36.0695 3.7746 36.2991 3.88789 36.4139 4.0012L38.3662 6.60734C38.4811 6.72065 38.4811 6.94726 38.3662 7.06057L37.2178 9.77999C37.2178 10.0066 37.3326 10.1199 37.3326 10.3465L39.7443 12.1595C39.8592 12.2728 39.974 12.3861 39.974 12.6127L39.5146 15.7854C39.5146 16.012 39.3998 16.1253 39.1701 16.1253L36.4139 17.1451C36.2991 17.2584 36.2991 17.485 36.1842 17.5983L36.6436 20.5444C36.6436 20.771 36.6436 20.8843 36.4139 20.9976L33.8874 22.8106Z" fill="#4C464C"/>
<path d="M25.8495 7.85397C25.6198 7.96728 25.505 8.08061 25.2753 8.19392C23.2082 9.66694 22.8637 12.613 24.3566 14.7659C25.1605 15.7856 26.194 16.4655 27.4573 16.6921C28.7205 16.9188 29.8689 16.5788 30.9025 15.899C31.936 15.2191 32.5102 14.086 32.7399 12.8396C32.8547 11.5932 32.6251 10.3468 31.8212 9.32702C30.3283 7.40075 27.8018 6.83418 25.8495 7.85397ZM30.7877 17.1454C29.7541 17.7119 28.4909 17.9385 27.3425 17.7119C25.8495 17.4853 24.5863 16.5788 23.6676 15.3324C21.8301 12.7263 22.2895 9.21369 24.7011 7.40074C27.1127 5.58779 30.6728 6.26766 32.6251 8.76047C33.5438 10.0069 33.8883 11.4799 33.7735 12.9529C33.5438 14.4259 32.8547 15.7857 31.5915 16.5788C31.247 16.9187 31.0173 17.0321 30.7877 17.1454Z" fill="#4C464C"/>
<path d="M15.054 42.9795H15.1688C15.743 42.8662 16.3172 42.7529 16.8914 42.5263C17.0063 42.413 17.236 42.5263 17.3508 42.6396L18.9585 44.3392L20.1069 43.6594L19.4179 41.5065C19.3031 41.2799 19.4179 41.1666 19.5327 41.0533C19.9921 40.7133 20.3366 40.2601 20.796 39.8069C20.9108 39.6935 21.1405 39.5802 21.2553 39.6935L23.4373 40.3734L24.1263 39.2403L22.4037 37.654C22.2889 37.5407 22.1741 37.3141 22.2889 37.2007C22.5186 36.6342 22.6335 36.0676 22.7483 35.3878C22.7483 35.1612 22.8631 35.0478 23.0928 35.0478L25.2747 34.4813V33.1216L23.0928 32.555C22.8631 32.555 22.7483 32.3284 22.7483 32.2151C22.6335 31.6485 22.4038 30.9687 22.1741 30.4022C22.0593 30.1756 22.1741 30.0622 22.2889 29.9489L23.8967 28.3626L23.2076 27.1162L21.0257 27.796C20.796 27.796 20.6811 27.796 20.5663 27.6827C20.2218 27.2295 19.7625 26.7763 19.3031 26.4363C19.1883 26.323 19.0734 26.0964 19.1882 25.9831L19.7624 23.8302L18.614 23.1503L17.1211 24.85C17.0063 24.9633 16.7766 25.0766 16.6618 24.9633C16.0876 24.7367 15.5134 24.6234 14.9392 24.5101C14.7095 24.5101 14.5946 24.2835 14.5946 24.1701L14.0204 21.904H12.6424L12.183 24.1701C12.183 24.3968 11.9533 24.5101 11.8385 24.5101C11.2643 24.6234 10.6901 24.7367 10.1159 24.9633C10.001 25.0766 9.77137 24.9633 9.65653 24.85L8.04877 23.1503L6.90038 23.8302L7.58942 25.9831C7.70426 26.2097 7.58942 26.323 7.47458 26.4363C7.01522 26.7763 6.67069 27.2295 6.21133 27.6827C6.09649 27.796 5.86682 27.9093 5.75198 27.796L3.57003 27.1162L2.88098 28.2493L4.60358 29.8356C4.71842 29.9489 4.83327 30.1755 4.71843 30.2889C4.48875 30.8554 4.37388 31.422 4.25904 32.1018C4.25904 32.3284 4.14421 32.4417 3.91453 32.4417L1.73258 33.0083V34.368L3.91453 34.9346C4.14421 34.9346 4.25904 35.1612 4.25904 35.2745C4.37388 35.841 4.60356 36.5209 4.83324 37.0874C4.94808 37.314 4.83327 37.4273 4.71843 37.5407L3.11064 39.127L3.79969 40.3734L5.98164 39.6935C6.21132 39.6935 6.32618 39.6935 6.44102 39.8069C6.78554 40.2601 7.24487 40.7133 7.70423 41.0533C7.81907 41.1666 7.93392 41.3932 7.81908 41.5065L7.24488 43.6594L8.39328 44.3392L9.88622 42.6396C10.0011 42.5263 10.2307 42.413 10.3456 42.5263C10.9198 42.7529 11.494 42.8662 12.0682 42.9795C12.2978 42.9795 12.4127 43.2061 12.4127 43.3195L12.9869 45.5856H14.365L14.8243 43.3195C14.8243 43.0928 14.9392 42.9795 15.054 42.9795ZM19.1882 45.2457C18.9585 45.359 18.7289 45.2457 18.614 45.1324L17.0063 43.4328C16.5469 43.5461 16.2024 43.6594 15.743 43.7727L15.2837 46.0389C15.2837 46.2655 15.054 46.3788 14.8243 46.3788H12.7572C12.5275 46.3788 12.2978 46.2655 12.2978 46.0389L11.7236 43.7727C11.2643 43.6594 10.8049 43.5461 10.3456 43.4328L8.73782 45.1324C8.62298 45.2457 8.3933 45.359 8.16362 45.2457L6.32618 44.2259C6.0965 44.1126 6.09648 43.886 6.09648 43.6594L6.67068 41.3932C6.32616 41.0532 5.98165 40.7133 5.63713 40.3734L3.45518 41.0533C3.2255 41.1666 2.99582 41.0532 2.88098 40.8266L1.73258 39.0137C1.61774 38.7871 1.61775 38.5604 1.84743 38.4471L3.45518 36.8608C3.34034 36.4076 3.11064 35.9543 3.11064 35.5011L0.813845 34.9346C0.584165 34.9346 0.469339 34.7079 0.469339 34.4813L0.354492 32.3284C0.354492 32.1018 0.469353 31.8752 0.699033 31.8752L2.88098 31.3086C2.99582 30.8554 3.11065 30.4021 3.22549 29.9489L1.50289 28.3626C1.38805 28.2493 1.2732 28.0226 1.38804 27.796L2.42163 25.9831C2.53647 25.7565 2.76615 25.7565 2.99583 25.7565L5.29263 26.4363C5.63715 26.0964 5.86681 25.7565 6.21133 25.4165L5.52228 23.1503C5.40744 22.9237 5.5223 22.6971 5.75198 22.5838L7.47458 21.564C7.70426 21.4507 7.93393 21.4507 8.04877 21.6773L9.65653 23.377C10.1159 23.2637 10.4604 23.1504 10.9198 23.037L11.3791 20.7709C11.3791 20.5442 11.6088 20.4309 11.8385 20.4309H13.9056C14.1353 20.4309 14.365 20.5442 14.365 20.7709L14.9392 23.037C15.3985 23.1504 15.8579 23.2637 16.3172 23.377L17.925 21.6773C18.0398 21.564 18.2695 21.4507 18.4992 21.564L20.3366 22.5838C20.5663 22.6971 20.5663 22.9237 20.5663 23.1503L19.9921 25.4165C20.3366 25.7565 20.6812 26.0964 21.0257 26.4363L23.2076 25.7565C23.4373 25.6432 23.667 25.7565 23.7818 25.9831L24.9302 27.796C25.045 28.0226 25.0451 28.2493 24.8154 28.3626L23.2076 29.9489C23.3225 30.4021 23.5521 30.8554 23.5521 31.3086L25.8489 31.8752C26.0786 31.8752 26.1935 32.1018 26.1935 32.3284L26.3083 34.4813C26.3083 34.7079 26.1935 34.9346 25.9638 34.9346L23.7818 35.5011C23.667 35.9543 23.5521 36.4076 23.4373 36.8608L25.1599 38.4471C25.2747 38.5604 25.3896 38.7871 25.2747 39.0137L24.2412 40.8266C24.1264 41.0532 23.8967 41.0533 23.667 41.0533L21.3702 40.3734C21.0257 40.7133 20.796 41.0532 20.4515 41.3932L21.1405 43.6594C21.2553 43.886 21.1405 44.1126 20.9108 44.2259L19.1882 45.2457Z" fill="#4C464C"/>
<path d="M11.493 29.7224C10.804 30.0624 10.2298 30.6289 9.88526 31.3088C9.31107 32.3286 9.1962 33.4616 9.54072 34.4814C9.88524 35.6145 10.5743 36.521 11.6079 37.0876C12.6414 37.6541 13.675 37.7674 14.8234 37.5408C15.8569 37.2009 16.7756 36.521 17.235 35.6145C18.2686 33.575 17.5795 31.0822 15.5124 29.8358C14.2492 29.0426 12.7563 29.1559 11.493 29.7224ZM16.0866 38.1073C15.7421 38.2207 15.3976 38.4473 15.0531 38.4473C13.7898 38.7872 12.4117 38.5606 11.1485 37.8807C10.0001 37.2009 9.08138 36.0678 8.62202 34.7081C8.2775 33.3483 8.39233 31.9886 8.96652 30.7422C10.3446 28.2494 13.3304 27.4562 15.8569 28.9293C18.3834 30.4023 19.3021 33.575 17.9241 35.9545C17.5795 36.9743 16.8905 37.6541 16.0866 38.1073Z" fill="#4C464C"/>
</svg>
