<svg width="33" height="26" viewBox="0 0 33 26" fill="none" xmlns="http://www.w3.org/2000/svg">
<path d="M31.4684 25.2441H1.97319C1.62482 25.2441 1.39258 25.015 1.39258 24.6713C1.39258 24.3275 1.62482 24.0984 1.97319 24.0984H31.4684C31.8168 24.0984 32.0491 24.3275 32.0491 24.6713C31.9329 24.9004 31.7007 25.2441 31.4684 25.2441Z" fill="#4C464C"/>
<path d="M8.01079 14.3596C7.19793 14.3596 6.73344 14.245 6.38507 14.245H6.26894C3.94648 13.7867 0.695051 7.48508 0.114436 6.22475C-0.00168701 6.11017 -0.00168701 5.88103 0.114436 5.76645C0.230559 5.65188 0.346668 5.53732 0.462791 5.42274L4.29487 4.6207C4.411 4.6207 4.64323 4.6207 4.75936 4.73528L8.24305 7.48509C9.63653 6.79763 15.3265 4.16239 22.6423 2.78748C24.3841 2.44375 30.0742 2.10005 31.4677 3.81869C32.0483 4.50614 32.2805 5.30817 32.1644 6.1102C31.9322 7.14138 31.0032 8.17256 29.2613 8.97459C27.1711 10.0058 24.5003 10.9224 20.0876 12.0681C19.7392 12.1827 19.507 11.9536 19.3909 11.7244C19.2747 11.3807 19.507 11.1515 19.7392 11.0369C24.0358 9.89119 26.7066 9.08915 28.6807 8.05797C30.0742 7.37051 30.7709 6.68307 31.0032 5.88104C31.1193 5.42273 31.0032 4.96442 30.5387 4.50611C29.7258 3.47493 25.3131 3.47493 22.7584 3.93323C14.5137 5.42272 8.35918 8.63085 8.35918 8.63085C8.12693 8.74542 7.89469 8.74542 7.77856 8.63085L4.17874 5.88104L1.27567 6.45391C2.78527 9.31831 5.10771 12.9847 6.26894 13.2139H6.38507C7.08181 13.3284 8.24303 13.5576 11.4945 12.8702C11.8428 12.7556 12.0751 12.9847 12.1912 13.3285C12.3073 13.6722 12.0751 13.9013 11.7267 14.0159C10.101 14.2451 8.82365 14.3596 8.01079 14.3596Z" fill="#4C464C"/>
<path d="M8.47515 20.2034C8.35902 20.2034 8.12675 20.0888 8.01063 19.9742C7.8945 19.8596 7.89453 19.6305 7.89453 19.4013L13.1201 9.31867C13.2362 9.08952 13.5845 8.97493 13.9329 9.08951C14.1652 9.20409 14.2813 9.54782 14.1652 9.77697L9.52025 18.7139L14.049 17.4536L22.4099 7.14174C22.6422 6.91259 22.9905 6.91259 23.2228 7.02716C23.455 7.25631 23.5711 7.60005 23.3389 7.8292L14.8619 18.3701C14.7458 18.4847 14.6296 18.4847 14.5135 18.5993L8.59124 20.2034H8.47515Z" fill="#4C464C"/>
<path d="M11.4947 7.14155C11.3786 7.14155 11.2624 7.14154 11.1463 7.02697L4.5273 3.01682C4.29505 2.90224 4.17895 2.67309 4.29507 2.44394C4.41119 2.21479 4.52731 2.10022 4.75956 1.98564L10.6818 0.381592C10.798 0.381592 10.9141 0.381592 11.0302 0.381592L19.7394 3.36053C20.0878 3.47511 20.2039 3.81884 20.0878 4.04799C19.9717 4.27714 19.6233 4.50632 19.3911 4.39174L10.798 1.41277L6.26914 2.67311L11.8431 5.99579C12.0753 6.11037 12.1914 6.45408 12.0753 6.7978C11.9592 7.02695 11.7269 7.14155 11.4947 7.14155Z" fill="#4C464C"/>
<path d="M26.1258 6.79815C25.6613 6.79815 25.3129 6.68359 24.9645 6.56902C23.3388 5.65241 24.7323 3.01715 24.8484 2.788C24.9645 2.55885 25.3129 2.44429 25.6613 2.55887C25.8935 2.67344 26.0097 3.01718 25.8936 3.24633C25.5452 3.93378 25.0807 5.30869 25.5452 5.53784C26.1258 5.88157 29.0289 5.19412 31.3513 4.39209C31.6997 4.27751 31.9319 4.39207 32.0481 4.7358C32.1642 4.96495 32.0481 5.30869 31.6997 5.42326C30.7707 5.88156 27.9837 6.79815 26.1258 6.79815Z" fill="#4C464C"/>
<path d="M1.50848 8.28744C1.27623 8.28744 1.04398 8.17285 0.927861 7.94369C0.811738 7.59997 1.04397 7.37084 1.27622 7.25627L3.94703 6.56881C4.2954 6.45423 4.52765 6.68337 4.64378 6.91252C4.7599 7.25625 4.52767 7.48541 4.29542 7.59998L1.62457 8.28744H1.50848Z" fill="#4C464C"/>
<path d="M2.66961 10.1206C2.43736 10.1206 2.20512 10.006 2.08899 9.77682C1.97287 9.43309 2.2051 9.20393 2.43735 9.08936L4.17919 8.63106C4.52756 8.51648 4.75982 8.74566 4.87594 8.97481C4.99206 9.31853 4.7598 9.54766 4.52755 9.66223L2.7857 10.1206C2.66958 10.1206 2.66961 10.1206 2.66961 10.1206Z" fill="#4C464C"/>
<path d="M26.2427 22.151C25.8944 22.151 25.6621 21.9218 25.6621 21.5781V13.9015C25.6621 13.5578 25.8944 13.3286 26.2427 13.3286C26.5911 13.3286 26.8233 13.5578 26.8233 13.9015V21.5781C26.8233 21.8072 26.475 22.151 26.2427 22.151Z" fill="#4C464C"/>
<path d="M24.2677 16.3077C24.1515 16.3077 23.9193 16.3077 23.9193 16.1931C23.6871 15.9639 23.6871 15.6202 23.9193 15.391L25.8934 13.5578C26.1257 13.3287 26.474 13.3287 26.7062 13.5578C26.9385 13.787 26.9385 14.1307 26.7062 14.3599L24.7322 16.1931C24.6161 16.3077 24.3838 16.3077 24.2677 16.3077Z" fill="#4C464C"/>
<path d="M28.2159 16.3077C28.0998 16.3077 27.8675 16.3077 27.8675 16.1931L25.8934 14.3599C25.6612 14.1307 25.6612 13.787 25.8934 13.5578C26.1257 13.3287 26.474 13.3287 26.7063 13.5578L28.6804 15.391C28.9126 15.6202 28.9126 15.9639 28.6804 16.1931C28.4481 16.3077 28.332 16.3077 28.2159 16.3077Z" fill="#4C464C"/>
</svg>
