<svg width="36" height="52" viewBox="0 0 36 52" fill="none" xmlns="http://www.w3.org/2000/svg">
<path d="M19.3795 51.0135C19.0305 51.0135 18.7979 50.784 18.7979 50.4396V0.854179C18.7979 0.509836 19.0305 0.280273 19.3795 0.280273C19.7285 0.280273 19.9612 0.509836 19.9612 0.854179V50.4396C19.9612 50.6692 19.6122 51.0135 19.3795 51.0135Z" fill="#4C464C"/>
<path d="M35.1998 51.0135C34.8508 51.0135 34.6182 50.784 34.6182 50.4396V0.854179C34.6182 0.509836 34.8508 0.280273 35.1998 0.280273C35.5488 0.280273 35.7815 0.509836 35.7815 0.854179V50.4396C35.7815 50.6692 35.5488 51.0135 35.1998 51.0135Z" fill="#4C464C"/>
<path d="M2.04582 40.5683C1.92948 40.5683 1.92948 40.5683 2.04582 40.5683C1.69682 40.5683 1.58049 40.3387 1.46416 40.1092C1.34783 39.6501 -0.978776 29.5493 0.649862 23.1216C1.81317 18.6451 3.90713 17.4973 5.18677 17.153C6.58275 16.8086 7.97874 17.1529 8.90939 18.0712C10.6544 19.7929 10.7707 25.6467 8.21139 30.6971C5.76844 35.5179 2.62747 40.3388 2.62747 40.3388C2.39481 40.4535 2.16215 40.5683 2.04582 40.5683ZM6.11741 18.186C5.88475 18.186 5.65211 18.186 5.41945 18.3008C4.4888 18.5303 2.74382 19.5634 1.69684 23.4659C0.533524 28.2867 1.69683 35.6327 2.16215 38.617C3.20914 36.8953 5.30311 33.5666 6.93174 30.238C9.3747 25.3024 9.14202 20.1373 7.86238 18.8747C7.62972 18.4155 6.93173 18.186 6.11741 18.186Z" fill="#4C464C"/>
<path d="M8.32774 43.7825H6.69907C6.46641 43.7825 6.23374 43.6677 6.11741 43.4381L3.67449 37.0103C3.55815 36.666 3.67447 36.4365 4.02347 36.3217C4.37246 36.2069 4.60513 36.3217 4.72146 36.666L6.93175 42.6346H7.5134V35.633C7.5134 35.2886 7.74607 35.0591 8.09506 35.0591C8.44405 35.0591 8.67672 35.2886 8.67672 35.633V43.2085C8.90938 43.5529 8.67673 43.7825 8.32774 43.7825Z" fill="#4C464C"/>
<path d="M7.6297 36.5509C7.51337 36.5509 7.28071 36.4362 7.16438 36.3214C6.93172 36.0918 6.93172 35.7475 7.16438 35.5179C7.16438 35.5179 12.6319 30.8119 13.3299 27.0241C14.0279 23.2363 13.3299 19.9077 12.6319 18.6451C12.2829 18.1859 12.0503 17.8416 11.7013 17.4973C11.236 17.0381 10.887 16.579 10.887 15.8903C10.887 15.3164 11.236 14.9721 11.585 14.513C12.0503 13.9391 12.3993 13.4799 12.3993 12.6765C12.3993 11.4139 10.3053 10.0365 9.02565 10.0365C7.74601 10.0365 5.76839 10.7252 5.65206 11.873C5.30306 14.7425 7.04805 17.0381 7.16438 17.0381C7.39705 17.2677 7.28071 17.6121 7.04804 17.8416C6.81538 18.0712 6.46637 17.9564 6.23371 17.7268C6.11738 17.6121 4.02342 15.0869 4.48874 11.6435C4.72141 9.69217 7.28069 8.77393 9.02565 8.77393C10.7706 8.77393 13.5626 10.4956 13.5626 12.5617C13.5626 13.7095 12.8646 14.513 12.3993 15.0869C12.1666 15.3164 11.9339 15.6608 11.9339 15.7755C11.9339 16.0051 12.0503 16.1199 12.3993 16.579C12.632 16.9234 13.0973 17.2677 13.4463 17.8416C14.2606 19.1042 15.1912 22.7772 14.3769 27.0241C13.5626 31.1562 7.9787 35.977 7.74604 36.0918C7.86237 36.5509 7.74603 36.5509 7.6297 36.5509Z" fill="#4C464C"/>
<path d="M13.2125 14.169C12.9799 14.169 12.6309 13.9395 12.6309 13.7099C12.6309 13.4803 12.6309 13.3656 12.7472 13.2508C12.6309 13.136 12.6309 13.0212 12.6309 12.9064C12.6309 12.5621 12.8635 12.3325 13.2125 12.3325H19.2618C19.6107 12.3325 19.8434 12.5621 19.8434 12.9064C19.8434 13.2508 19.6108 13.4803 19.3781 13.4803L13.2125 14.169Z" fill="#4C464C"/>
<path d="M17.9829 26.2206H14.3766C14.0276 26.2206 13.7949 25.991 13.7949 25.6467C13.7949 25.3023 14.0276 25.0728 14.3766 25.0728H17.9829C18.3318 25.0728 18.5645 25.3023 18.5645 25.6467C18.5645 25.991 18.3318 26.2206 17.9829 26.2206Z" fill="#4C464C"/>
<path d="M18.9137 29.4347C18.681 29.4347 18.4483 29.3199 18.332 28.9755L17.4014 25.7617C17.4014 25.6469 17.4014 25.5321 17.4014 25.4173L18.681 22.5478C18.7973 22.2035 19.1463 22.0887 19.4953 22.2034C19.8443 22.3182 19.9607 22.6626 19.8443 23.0069L18.681 25.6469L19.4953 28.6312C19.6116 28.9755 19.379 29.2051 19.1463 29.3199C19.03 29.4347 19.03 29.4347 18.9137 29.4347Z" fill="#4C464C"/>
<path d="M5.18665 11.184C4.37234 11.184 3.32536 10.9544 2.39471 10.0362C2.16205 9.8066 2.16205 9.46228 2.39471 9.23272C2.62737 9.00316 2.97635 9.00316 3.20901 9.23272C4.48865 10.4953 6.11729 9.92141 6.11729 9.92141C6.46628 9.80663 6.69896 9.9214 6.93162 10.2657C7.04795 10.6101 6.93164 10.8397 6.58264 11.0692C6.58264 10.9544 6.00097 11.184 5.18665 11.184Z" fill="#4C464C"/>
<path d="M9.37425 13.8247C8.67626 13.8247 8.21094 13.2508 8.21094 12.6769C8.21094 11.9882 8.79259 11.5291 9.37425 11.5291C9.95591 11.5291 10.5376 12.103 10.5376 12.6769C10.5376 13.2508 10.0722 13.8247 9.37425 13.8247ZM9.37425 12.6769V13.2508V12.6769Z" fill="#4C464C"/>
</svg>
