<svg width="39" height="36" viewBox="0 0 39 36" fill="none" xmlns="http://www.w3.org/2000/svg">
<path d="M12.8471 35.2997C12.7315 35.2997 12.7315 35.2997 12.6159 35.2997C12.2692 35.1856 12.038 34.7295 12.1536 34.3873L24.5213 0.629885C24.6369 0.287748 25.0992 0.0596648 25.4459 0.17371C25.7927 0.287755 26.0239 0.743923 25.9083 1.08606L13.5406 34.8435C13.4251 35.0716 13.0783 35.2997 12.8471 35.2997Z" fill="#4C464C"/>
<path d="M0.825151 35.2994C0.709565 35.2994 0.709551 35.2994 0.593965 35.2994C0.247209 35.1854 0.0160448 34.7292 0.13163 34.3871L12.4993 0.62964C12.6149 0.287504 13.0772 0.0594206 13.424 0.173466C13.7707 0.287511 14.0019 0.743679 13.8863 1.08581L1.51867 34.8432C1.40309 35.0713 1.05632 35.2994 0.825151 35.2994Z" fill="#4C464C"/>
<path d="M37.5825 35.3001C37.2357 35.3001 37.0045 35.0721 36.8889 34.844L24.6369 1.08654C24.5213 0.744404 24.6369 0.288237 25.0992 0.174191C25.446 0.0601461 25.9083 0.174184 26.0239 0.630366L38.3916 34.3878C38.5072 34.7299 38.3916 35.1861 37.9292 35.3001C37.8137 35.3001 37.6981 35.3001 37.5825 35.3001Z" fill="#4C464C"/>
<path d="M25.2148 1.5426H13.0783C12.7315 1.5426 12.3848 1.20045 12.3848 0.858316C12.3848 0.51618 12.7315 0.174072 13.0783 0.174072H25.2148C25.5615 0.174072 25.9083 0.51618 25.9083 0.858316C26.0238 1.20045 25.6771 1.5426 25.2148 1.5426Z" fill="#4C464C"/>
<path d="M22.7872 8.15713H10.7663C10.4195 8.15713 10.0728 7.81499 10.0728 7.47285C10.0728 7.13072 10.4195 6.78857 10.7663 6.78857H22.7872C23.1339 6.78857 23.4807 7.13072 23.4807 7.47285C23.4807 7.92903 23.1339 8.15713 22.7872 8.15713Z" fill="#4C464C"/>
<path d="M20.2427 14.8859H8.22184C7.87508 14.8859 7.52832 14.5437 7.52832 14.2016C7.52832 13.8595 7.87508 13.5173 8.22184 13.5173H20.2427C20.5895 13.5173 20.9363 13.8595 20.9363 14.2016C20.9363 14.5437 20.7051 14.8859 20.2427 14.8859Z" fill="#4C464C"/>
<path d="M17.8161 21.5006H5.91081C5.56405 21.5006 5.21729 21.1585 5.21729 20.8163C5.21729 20.4742 5.56405 20.1321 5.91081 20.1321H17.8161C18.1629 20.1321 18.5096 20.4742 18.5096 20.8163C18.5096 21.1585 18.1629 21.5006 17.8161 21.5006Z" fill="#4C464C"/>
<path d="M15.2746 28.1151H3.36927C3.02251 28.1151 2.67578 27.773 2.67578 27.4309C2.67578 27.0887 3.02251 26.7466 3.36927 26.7466H15.2746C15.6214 26.7466 15.9681 27.0887 15.9681 27.4309C15.9681 27.773 15.6214 28.1151 15.2746 28.1151Z" fill="#4C464C"/>
</svg>
