<svg width="39" height="42" viewBox="0 0 39 42" fill="none" xmlns="http://www.w3.org/2000/svg">
<path d="M17.595 16.2349C21.6666 16.2349 25.0402 12.9062 25.0402 8.7741C25.0402 4.64198 21.6666 1.42811 17.595 1.31333C13.407 1.31333 10.1498 4.64198 10.1498 8.7741C10.1498 12.9062 13.5234 16.2349 17.595 16.2349ZM17.595 0.280273C22.3645 0.280273 26.2035 4.18283 26.2035 8.88886C26.2035 13.5949 22.3645 17.4974 17.595 17.4974C12.8254 17.4974 8.87012 13.5949 8.87012 8.88886C8.98645 4.18283 12.8254 0.280273 17.595 0.280273Z" fill="#4C464C"/>
<path d="M17.5953 16.1201C19.9219 14.7427 21.5505 11.7584 21.5505 8.7741C21.5505 5.90458 19.9219 2.80546 17.5953 1.42808C15.2686 2.80546 13.64 5.7898 13.64 8.7741C13.64 11.7584 15.2686 14.7427 17.5953 16.1201ZM17.5953 0.280273C17.7116 0.280273 17.8279 0.28028 17.8279 0.395062C20.6198 1.88722 22.7138 5.44542 22.7138 8.88886C22.7138 12.3323 20.6198 15.8905 17.8279 17.3827C17.7116 17.4975 17.4789 17.4975 17.2462 17.3827C14.4543 15.8905 12.3604 12.3323 12.3604 8.88886C12.3604 5.44542 14.4543 1.88722 17.2462 0.395062C17.3626 0.28028 17.4789 0.280273 17.5953 0.280273Z" fill="#4C464C"/>
<path d="M9.56896 8.3147H25.739C26.088 8.3147 26.3207 8.54426 26.3207 8.8886C26.3207 9.23295 26.088 9.46251 25.739 9.46251H9.56896C9.21997 9.46251 8.9873 9.23295 8.9873 8.8886C8.9873 8.54426 9.21997 8.3147 9.56896 8.3147Z" fill="#4C464C"/>
<path d="M17.5953 0.280273C17.9443 0.280273 18.177 0.509836 18.177 0.854179V16.8088C18.177 17.1531 17.9443 17.3827 17.5953 17.3827C17.2463 17.3827 17.0137 17.1531 17.0137 16.8088V0.854179C17.0137 0.509836 17.2463 0.280273 17.5953 0.280273Z" fill="#4C464C"/>
<path d="M5.84614 11.2993C6.31147 11.2993 6.89314 11.4141 7.24213 11.7584L7.47477 11.8732C8.28909 12.3323 8.75442 13.1358 8.75442 14.0541L8.9871 19.7931C8.9871 20.1375 9.10342 20.4818 9.33608 20.7114L15.0363 27.0243C15.3853 27.3687 15.7343 27.5982 16.1996 27.4835L24.8081 27.2539C25.3898 27.2539 25.8551 26.9096 26.0878 26.5652L27.0184 24.9583C27.3674 24.3844 27.2511 23.5809 26.7858 23.1218L24.6918 21.0557C24.3428 20.7114 24.1102 20.2522 23.9938 19.7931L23.6448 18.6453C23.4121 17.7271 23.6448 16.8088 24.2265 16.2349L24.3428 16.0053C24.8081 15.4314 25.5061 15.0871 26.3204 15.0871C27.0184 15.0871 27.8327 15.3167 28.2981 15.8906L32.6023 20.2523C33.0677 20.7114 33.3003 21.2853 33.4167 21.974L33.6493 26.4504C33.6493 27.1391 34.1146 27.5982 34.6963 27.8278L37.3719 28.6313C37.7209 28.7461 37.8372 29.0904 37.7209 29.32C37.6046 29.6643 37.2556 29.7791 37.0229 29.6643L34.3473 28.8608C33.3003 28.5165 32.486 27.5983 32.3697 26.4504L32.137 21.974C32.137 21.6296 32.0207 21.2853 31.6717 20.9409L27.3674 16.5793C27.0184 16.2349 26.6694 16.1201 26.2041 16.1201C25.7388 16.1201 25.3898 16.3497 25.0408 16.5793L24.9245 16.8088C24.5755 17.1532 24.4591 17.7271 24.5755 18.1862L24.9245 19.334C25.0408 19.5636 25.1571 19.7931 25.3898 20.0227L27.4838 22.0887C28.4144 23.007 28.5307 24.2696 27.9491 25.4174L27.0184 27.0243C26.5531 27.8278 25.7388 28.2869 24.8081 28.2869L16.1996 28.5165C15.3853 28.5165 14.571 28.1722 14.1057 27.5983L8.40544 21.2853C7.94012 20.8262 7.70745 20.2523 7.70745 19.6784L7.47477 13.9393C7.47477 13.4802 7.12577 13.021 6.77678 12.6767L6.54414 12.5619C6.07881 12.2176 5.49713 12.2176 5.03181 12.5619C4.56648 12.7915 4.21751 13.3654 4.21751 13.9393V22.2035C4.21751 22.5479 4.33384 23.007 4.68283 23.2365L15.0363 33.6816C15.1526 33.7964 15.3853 34.026 15.618 34.026L35.0453 40.5685H37.9536C38.3026 40.5685 38.5352 40.7981 38.5352 41.1424C38.5352 41.4868 38.3026 41.7163 37.9536 41.7163H34.929C34.8126 41.7163 34.8126 41.7163 34.6963 41.7163L15.269 35.1738C14.92 35.059 14.4547 34.8295 14.222 34.4851L3.8685 24.04C3.40317 23.5809 3.0542 22.8922 3.0542 22.2035V13.9393C3.0542 12.9063 3.5195 12.1028 4.45015 11.6437C4.91548 11.4141 5.38082 11.2993 5.84614 11.2993Z" fill="#4C464C"/>
<path d="M6.42752 32.1897C6.66018 32.1897 6.89284 32.4193 7.00917 32.6488C7.1255 32.9932 6.89285 33.2227 6.54385 33.3375L3.51923 34.141C2.70492 34.2557 2.00691 34.6001 1.54159 35.0592C1.1926 35.4036 1.19261 35.5183 1.19261 35.5183C1.19261 36.3218 1.89058 37.0105 2.7049 37.0105H23.9935C24.3425 37.0105 24.5752 37.24 24.5752 37.5844C24.5752 37.9287 24.3425 38.1583 23.9935 38.1583H2.7049C1.1926 38.1583 0.0292969 37.0105 0.0292969 35.5183C0.0292969 34.9444 0.494629 34.4853 0.727292 34.2557C1.42528 33.5671 2.35591 33.2227 3.28656 32.9931L6.31118 32.3045C6.31118 32.1897 6.42752 32.1897 6.42752 32.1897Z" fill="#4C464C"/>
<path d="M5.0318 23.8103C5.26446 23.8103 5.49712 23.9251 5.61346 24.1547C5.72979 24.499 5.61347 24.8433 5.26448 24.9581L3.05419 25.8764C2.58886 26.1059 2.23985 26.4503 2.12352 27.0242C2.00719 27.4833 2.23988 28.0572 2.58887 28.4015L7.82378 33.2224C8.05644 33.4519 8.40542 33.5667 8.75441 33.6815L14.92 34.0259C15.2689 34.0259 15.5016 34.2554 15.5016 34.5998C15.5016 34.9441 15.1526 35.1737 14.92 35.1737L8.75441 34.8293C8.17276 34.8293 7.47477 34.5997 7.00944 34.1406L1.77454 29.205C1.07655 28.6311 0.843874 27.7129 0.960205 26.7946C1.07654 25.8764 1.77455 25.1877 2.58887 24.8434L4.79916 23.9251C4.91549 23.9251 5.0318 23.8103 5.0318 23.8103Z" fill="#4C464C"/>
</svg>
