<svg width="13" height="12" viewBox="0 0 13 12" fill="none" xmlns="http://www.w3.org/2000/svg">
<path d="M12.2379 0.647917C12.0332 0.434544 11.7872 0.327881 11.4996 0.327881H1.04542C0.757937 0.327881 0.511898 0.434567 0.307052 0.647917C0.10232 0.861409 0 1.11783 0 1.41745V10.5697C0 10.8693 0.10232 11.1257 0.307052 11.3392C0.511898 11.5526 0.757937 11.6592 1.04542 11.6592H11.4998C11.7872 11.6592 12.0333 11.5526 12.238 11.3392C12.4427 11.1258 12.5452 10.8693 12.5452 10.5697V1.41745C12.5452 1.11783 12.4427 0.861409 12.2379 0.647917ZM2.509 10.3518C2.509 10.4698 2.46772 10.572 2.38494 10.6582C2.30219 10.7445 2.20419 10.7877 2.09087 10.7877H1.25459C1.14136 10.7877 1.04327 10.7445 0.960518 10.6582C0.87781 10.572 0.836342 10.4698 0.836342 10.3518V9.48015C0.836342 9.36214 0.87781 9.25994 0.960518 9.17364C1.04327 9.08747 1.14136 9.04427 1.25459 9.04427H2.0908C2.20413 9.04427 2.30212 9.08747 2.38487 9.17364C2.46765 9.25991 2.509 9.36211 2.509 9.48015V10.3518ZM2.509 7.73679C2.509 7.85481 2.46772 7.95708 2.38494 8.04321C2.30219 8.12939 2.20419 8.17268 2.09087 8.17268H1.25459C1.14136 8.17268 1.04327 8.12941 0.960518 8.04321C0.87781 7.95711 0.836342 7.85483 0.836342 7.73679V6.86506C0.836342 6.74704 0.87781 6.64493 0.960518 6.55864C1.04327 6.47244 1.14136 6.42927 1.25459 6.42927H2.0908C2.20413 6.42927 2.30212 6.47244 2.38487 6.55864C2.46765 6.64491 2.509 6.74701 2.509 6.86506V7.73679ZM2.509 5.12186C2.509 5.23997 2.46772 5.34213 2.38494 5.42835C2.30219 5.51462 2.20419 5.55777 2.09087 5.55777H1.25459C1.14136 5.55777 1.04327 5.51462 0.960518 5.42835C0.87781 5.34213 0.836342 5.23997 0.836342 5.12186V4.25029C0.836342 4.13218 0.87781 4.03002 0.960518 3.9438C1.04327 3.85753 1.14136 3.81438 1.25459 3.81438H2.0908C2.20413 3.81438 2.30212 3.85753 2.38487 3.9438C2.46765 4.03012 2.509 4.13227 2.509 4.25029V5.12186ZM2.509 2.50705C2.509 2.62507 2.46772 2.72724 2.38494 2.81354C2.30219 2.89976 2.20419 2.94291 2.09087 2.94291H1.25459C1.14136 2.94291 1.04327 2.89976 0.960518 2.81354C0.87781 2.72717 0.836342 2.62516 0.836342 2.50705V1.63543C0.836342 1.51732 0.87781 1.41521 0.960518 1.32894C1.04327 1.2427 1.14136 1.19957 1.25459 1.19957H2.0908C2.20413 1.19957 2.30212 1.24272 2.38487 1.32894C2.46765 1.41531 2.509 1.51741 2.509 1.63543V2.50705ZM9.19974 10.3518C9.19974 10.4698 9.15839 10.572 9.07561 10.6582C8.99284 10.7445 8.89477 10.7877 8.78151 10.7877H3.76353C3.65027 10.7877 3.55232 10.7445 3.46952 10.6582C3.38679 10.572 3.34539 10.4698 3.34539 10.3518V6.86522C3.34539 6.74737 3.38679 6.6451 3.46952 6.5588C3.55232 6.47261 3.65027 6.42941 3.76353 6.42941H8.78154C8.89477 6.42941 8.99284 6.47261 9.07563 6.5588C9.15841 6.64507 9.19976 6.74735 9.19976 6.86522V10.3518H9.19974ZM9.19974 5.12186C9.19974 5.23997 9.15839 5.34213 9.07561 5.42835C8.99284 5.51462 8.89477 5.55777 8.78151 5.55777H3.76353C3.65027 5.55777 3.55232 5.51462 3.46952 5.42835C3.38679 5.34213 3.34539 5.23997 3.34539 5.12186V1.63536C3.34539 1.51725 3.38679 1.41514 3.46952 1.32887C3.55232 1.24265 3.65027 1.1995 3.76353 1.1995H8.78154C8.89477 1.1995 8.99284 1.24265 9.07563 1.32887C9.15841 1.41524 9.19976 1.51734 9.19976 1.63536V5.12186H9.19974ZM11.7087 10.3518C11.7087 10.4698 11.6674 10.572 11.5847 10.6582C11.5018 10.7445 11.4038 10.7877 11.2905 10.7877H10.4542C10.341 10.7877 10.2429 10.7445 10.1602 10.6582C10.0773 10.572 10.036 10.4698 10.036 10.3518V9.48015C10.036 9.36214 10.0773 9.25994 10.1602 9.17364C10.2428 9.08747 10.341 9.04427 10.4542 9.04427H11.2905C11.4037 9.04427 11.5018 9.08747 11.5847 9.17364C11.6674 9.25991 11.7087 9.36211 11.7087 9.48015V10.3518ZM11.7087 7.73679C11.7087 7.85481 11.6674 7.95708 11.5847 8.04321C11.5018 8.12939 11.4038 8.17268 11.2905 8.17268H10.4542C10.341 8.17268 10.2429 8.12941 10.1602 8.04321C10.0773 7.95711 10.036 7.85483 10.036 7.73679V6.86506C10.036 6.74704 10.0773 6.64493 10.1602 6.55864C10.2428 6.47244 10.341 6.42927 10.4542 6.42927H11.2905C11.4037 6.42927 11.5018 6.47244 11.5847 6.55864C11.6674 6.64491 11.7087 6.74701 11.7087 6.86506V7.73679ZM11.7087 5.12186C11.7087 5.23997 11.6674 5.34213 11.5847 5.42835C11.5018 5.51462 11.4038 5.55777 11.2905 5.55777H10.4542C10.341 5.55777 10.2429 5.51462 10.1602 5.42835C10.0773 5.34213 10.036 5.23997 10.036 5.12186V4.25029C10.036 4.13218 10.0773 4.03002 10.1602 3.9438C10.2428 3.85753 10.341 3.81438 10.4542 3.81438H11.2905C11.4037 3.81438 11.5018 3.85753 11.5847 3.9438C11.6674 4.03012 11.7087 4.13227 11.7087 4.25029V5.12186ZM11.7087 2.50705C11.7087 2.62507 11.6674 2.72717 11.5847 2.81354C11.5018 2.89976 11.4038 2.94291 11.2905 2.94291H10.4542C10.341 2.94291 10.2429 2.89986 10.1602 2.81354C10.0773 2.72717 10.036 2.62516 10.036 2.50705V1.63543C10.036 1.51732 10.0773 1.41521 10.1602 1.32894C10.2428 1.2427 10.341 1.19957 10.4542 1.19957H11.2905C11.4037 1.19957 11.5018 1.24272 11.5847 1.32894C11.6674 1.41531 11.7087 1.51741 11.7087 1.63543V2.50705Z" fill="#BE3C50"/>
</svg>
