<svg width="32" height="32" viewBox="0 0 32 32" fill="none" xmlns="http://www.w3.org/2000/svg">
<path d="M16.9164 8.28879C18.2869 8.29152 18.5824 8.30313 19.2841 8.33527C20.1079 8.37299 20.6707 8.5019 21.1611 8.69368C21.6705 8.89176 22.1012 9.15585 22.5319 9.58658C22.9595 10.0142 23.2236 10.448 23.4217 10.9542C23.6103 11.4447 23.7424 12.0075 23.7801 12.8312C23.815 13.5939 23.8257 13.8768 23.8271 15.5818V16.4567C23.8257 18.1616 23.815 18.4446 23.7801 19.2073C23.7424 20.031 23.6135 20.5938 23.4217 21.0843C23.2236 21.5936 22.9595 22.0243 22.5288 22.455C22.098 22.8858 21.6673 23.1499 21.158 23.3479C20.6675 23.5366 20.1047 23.6686 19.281 23.7064C18.4573 23.7441 18.1932 23.7535 16.093 23.7535L15.8671 23.7535C13.9724 23.7528 13.6982 23.7427 12.9049 23.7064C12.0812 23.6686 11.5184 23.5397 11.028 23.3479C10.5186 23.1499 10.0879 22.8858 9.65717 22.455C9.22644 22.0243 8.96234 21.5936 8.76427 21.0843C8.57563 20.5938 8.44358 20.031 8.40585 19.2073C8.37371 18.5056 8.36211 18.21 8.35938 16.8396V15.1989C8.36211 13.8285 8.37371 13.5329 8.40585 12.8312C8.44358 12.0075 8.57249 11.4447 8.76427 10.9542C8.96234 10.448 9.22644 10.0142 9.65717 9.58658C10.0879 9.15585 10.5186 8.89176 11.028 8.69368C11.5184 8.5019 12.0812 8.36985 12.9081 8.33527C13.6098 8.30313 13.9054 8.29152 15.2758 8.28879H16.9164ZM16.3151 9.68093H15.8708C14.0084 9.68141 13.752 9.68859 12.9678 9.72492C12.2133 9.75951 11.8045 9.88527 11.531 9.99216C11.1694 10.1336 10.9116 10.3003 10.6412 10.5707C10.3709 10.841 10.2042 11.0989 10.0627 11.4604C9.95585 11.7339 9.83009 12.1427 9.79551 12.8972C9.76092 13.7115 9.75149 13.9568 9.75149 16.0224C9.75149 18.088 9.75778 18.3332 9.79551 19.1475C9.83009 19.9021 9.95585 20.3108 10.0627 20.5844C10.2042 20.9459 10.3709 21.2037 10.6412 21.4741C10.9116 21.7445 11.1694 21.9111 11.531 22.0526C11.8045 22.1595 12.2133 22.2853 12.9678 22.3198C13.7821 22.3544 14.0274 22.3639 16.093 22.3639L16.3151 22.3638C18.1775 22.3634 18.434 22.3562 19.2181 22.3198C19.9727 22.2853 20.3814 22.1595 20.6549 22.0526C21.0165 21.9111 21.2743 21.7445 21.5447 21.4741C21.8151 21.2037 21.9817 20.9459 22.1232 20.5844C22.2301 20.3108 22.3558 19.9021 22.3904 19.1475C22.425 18.3332 22.4345 18.088 22.4345 16.0224L22.4344 15.8002C22.4339 13.9378 22.4268 13.6814 22.3904 12.8972C22.3558 12.1427 22.2301 11.7339 22.1232 11.4604C21.9817 11.0989 21.8151 10.841 21.5447 10.5707C21.2743 10.3003 21.0165 10.1336 20.6549 9.99216C20.3814 9.88527 19.9727 9.75951 19.2181 9.72492C18.4038 9.68719 18.1586 9.6809 16.093 9.6809L16.3151 9.68093ZM16.093 12.0515C18.2875 12.0515 20.0639 13.831 20.0639 16.0224C20.0639 18.2138 18.2844 19.9933 16.093 19.9933C13.9016 19.9933 12.1221 18.2169 12.1221 16.0224C12.1221 13.8279 13.8984 12.0515 16.093 12.0515ZM16.093 13.4443C14.6687 13.4443 13.5149 14.5981 13.5149 16.0224C13.5149 17.4466 14.6687 18.6005 16.093 18.6005C17.5172 18.6005 18.6711 17.4466 18.6711 16.0224C18.6711 14.5981 17.5172 13.4443 16.093 13.4443ZM20.2242 10.9668C20.7364 10.9668 21.1517 11.3821 21.1517 11.8943C21.1517 12.4065 20.7364 12.8218 20.2242 12.8218C19.712 12.8218 19.2967 12.4065 19.2967 11.8943C19.2967 11.3821 19.712 10.9668 20.2242 10.9668Z" fill="white"/>
</svg>
