<svg width="270" height="25" viewBox="0 0 270 25" fill="none" xmlns="http://www.w3.org/2000/svg">
<path d="M144.67 0.558594H143.746V24.6325H144.67V0.558594Z" fill="white"/>
<path d="M38.8861 0.596462C39.2526 0.546315 39.6223 0.522849 39.9923 0.526257C40.3558 0.522558 40.7191 0.546028 41.079 0.596462L36.4395 8.77212C36.0802 8.82829 35.7166 8.85392 35.3528 8.84871C34.9826 8.85358 34.6125 8.82796 34.2466 8.77212L35.9254 5.82991L32.9517 0.596462C33.3182 0.546315 33.6879 0.522849 34.0579 0.526257C34.4193 0.522882 34.7804 0.54635 35.1381 0.596462L37.0121 4.06841L38.8861 0.596462Z" fill="white"/>
<path d="M49.1671 0.596497C49.8414 0.488016 50.5294 0.488016 51.2038 0.596497V8.77216C50.5299 8.88702 49.8409 8.88702 49.1671 8.77216V5.47892H45.7183V8.77216C45.0445 8.88702 44.3555 8.88702 43.6816 8.77216V0.596497C44.356 0.488016 45.0439 0.488016 45.7183 0.596497V3.78762H49.1671V0.596497Z" fill="white"/>
<path d="M61.8166 8.77216C61.1427 8.88702 60.4537 8.88702 59.7799 8.77216V3.97909L55.8756 8.77216C55.346 8.86147 54.8046 8.86147 54.2749 8.77216V0.596497C54.9493 0.488016 55.6372 0.488016 56.3116 0.596497V5.42148L60.2158 0.628409C60.7443 0.534883 61.2846 0.524111 61.8166 0.596497V8.77216Z" fill="white"/>
<path d="M68.4215 0.583766C69.1287 0.563556 69.8203 0.789667 70.3736 1.22199C70.613 1.40429 70.8059 1.63877 70.9369 1.90685C71.0679 2.17493 71.1335 2.46925 71.1284 2.7665C71.1428 3.14524 71.0423 3.51966 70.8396 3.84233C70.6369 4.165 70.3411 4.4214 69.9897 4.57906C70.3608 4.73524 70.6838 4.98386 70.9267 5.30025C71.1596 5.64155 71.28 6.04481 71.2716 6.45544C71.2854 6.77728 71.2233 7.09791 71.0901 7.39237C70.957 7.68682 70.7563 7.94716 70.5038 8.15311C69.908 8.59987 69.1706 8.82591 68.4215 8.79134H64.8296V0.596531L68.4215 0.583766ZM66.8793 3.9536H68.1808C68.4188 3.9636 68.6517 3.88365 68.8315 3.73022C68.9153 3.64657 68.9801 3.54644 69.0216 3.43643C69.0631 3.32642 69.0804 3.20902 69.0722 3.09199C69.0722 2.53035 68.7794 2.24954 68.1742 2.24954H66.8728L66.8793 3.9536ZM66.8793 7.10004H68.3239C68.4459 7.1171 68.5702 7.10608 68.6871 7.06785C68.804 7.02962 68.9102 6.96523 68.9973 6.87978C69.0844 6.79433 69.1501 6.69017 69.1891 6.57553C69.228 6.46089 69.2393 6.33893 69.2219 6.21929C69.2219 5.65127 68.8965 5.36407 68.2458 5.36407H66.8859L66.8793 7.10004Z" fill="white"/>
<path d="M79.7371 7.10019C79.8412 7.6529 79.8412 8.21964 79.7371 8.77234H73.9263V0.59668H79.7371C79.8412 1.14939 79.8412 1.71613 79.7371 2.26883H75.9826V3.80695H79.3011C79.4053 4.35966 79.4053 4.9264 79.3011 5.4791H75.9826V7.10019H79.7371Z" fill="white"/>
<path d="M85.6975 0.596809C86.5233 0.558604 87.3329 0.830157 87.962 1.3563C88.2465 1.60446 88.472 1.91082 88.6226 2.25377C88.7733 2.59672 88.8454 2.96792 88.8339 3.34118C88.8454 3.71444 88.7733 4.08563 88.6226 4.42859C88.472 4.77154 88.2465 5.0779 87.962 5.32606C87.3291 5.84301 86.5198 6.1053 85.6975 6.06002H84.4742V8.75332C83.8004 8.86819 83.1114 8.86819 82.4375 8.75332V0.596809H85.6975ZM85.6975 4.38148C85.9658 4.39371 86.2295 4.30977 86.4393 4.14534C86.5457 4.04304 86.6282 3.91928 86.681 3.78263C86.7338 3.64599 86.7557 3.49971 86.7451 3.35394C86.7561 3.20813 86.7344 3.06173 86.6816 2.92502C86.6288 2.7883 86.5461 2.66458 86.4393 2.56254C86.2355 2.38447 85.9704 2.28869 85.6975 2.29449H84.4742V4.40701L85.6975 4.38148Z" fill="white"/>
<path d="M96.0888 7.26619C96.9541 7.22869 97.7919 6.95698 98.5095 6.48117C98.5976 6.76625 98.6242 7.0662 98.5875 7.36192C98.5963 7.67923 98.5657 7.99642 98.4964 8.30649C97.5559 8.8032 96.4849 9.01155 95.4223 8.90459C94.3596 8.79763 93.3541 8.38028 92.536 7.70656C92.1151 7.31587 91.7819 6.8433 91.5578 6.31909C91.3337 5.79488 91.2236 5.23056 91.2346 4.66223C91.2236 4.0939 91.3337 3.52959 91.5578 3.00537C91.7819 2.48116 92.1151 2.00859 92.536 1.6179C92.9962 1.19857 93.5372 0.873616 94.1272 0.662092C94.7172 0.450572 95.3443 0.356747 95.9717 0.386121C96.8618 0.362362 97.7409 0.583444 98.5095 1.02435C98.5787 1.33443 98.6093 1.65161 98.6005 1.96892C98.6399 2.27092 98.6133 2.57769 98.5225 2.86882C97.8046 2.39467 96.9666 2.12513 96.1019 2.09018C95.3809 2.06902 94.6802 2.32561 94.1498 2.805C93.8851 3.04927 93.6777 3.34697 93.5417 3.67753C93.4058 4.0081 93.3446 4.36366 93.3624 4.71967C93.3437 5.07578 93.4045 5.4316 93.5405 5.76229C93.6765 6.09299 93.8844 6.39059 94.1498 6.63434C94.6802 7.11373 95.3809 7.37032 96.1019 7.34916L96.0888 7.26619Z" fill="white"/>
<path d="M109.149 8.77216C108.475 8.88702 107.786 8.88702 107.112 8.77216V3.97909L103.208 8.77216C102.678 8.86147 102.137 8.86147 101.607 8.77216V0.596497C102.281 0.488016 102.969 0.488016 103.644 0.596497V5.42148L107.548 0.628409C108.078 0.54547 108.618 0.54547 109.149 0.628409V8.77216Z" fill="white"/>
<path d="M118.323 0.59668C118.428 1.14939 118.428 1.71613 118.323 2.26883H116.072V8.77234C115.396 8.88718 114.705 8.88718 114.029 8.77234V2.26883H111.777C111.673 1.71613 111.673 1.14939 111.777 0.59668H118.323Z" fill="white"/>
<path d="M126.809 7.10019C126.913 7.6529 126.913 8.21964 126.809 8.77234H121.03V0.59668H126.835C126.939 1.14939 126.939 1.71613 126.835 2.26883H123.08V3.80695H126.399C126.503 4.35966 126.503 4.9264 126.399 5.4791H123.08V7.10019H126.809Z" fill="white"/>
<path d="M135.652 0.59668C135.756 1.14939 135.756 1.71613 135.652 2.26883H133.394V8.77234C132.718 8.88718 132.027 8.88718 131.351 8.77234V2.26883H129.099C128.995 1.71613 128.995 1.14939 129.099 0.59668H135.652Z" fill="white"/>
<path d="M40.0638 22.2004C41.4205 22.1435 42.7351 21.7218 43.8639 20.9814C43.9965 21.4287 44.0363 21.8974 43.981 22.36C43.9943 22.855 43.9484 23.3498 43.8444 23.8343C42.6365 24.5207 41.2575 24.8633 39.8621 24.8235C38.8835 24.8695 37.9054 24.7238 36.9849 24.3951C36.0643 24.0664 35.2197 23.5611 34.5003 22.9089C33.8453 22.2952 33.3281 21.5542 32.9819 20.7333C32.6357 19.9123 32.468 19.0295 32.4896 18.1413C32.4705 17.2518 32.6412 16.3681 32.9909 15.5471C33.3405 14.726 33.8613 13.9858 34.5198 13.3738C35.2398 12.7224 36.0845 12.2177 37.0049 11.8891C37.9254 11.5604 38.9031 11.4142 39.8816 11.4591C41.2764 11.4171 42.6555 11.7575 43.8639 12.442C43.9681 12.9286 44.014 13.4256 44.0005 13.9227C44.0553 14.3853 44.0155 14.8539 43.8834 15.3012C42.7564 14.5565 41.4411 14.1323 40.0833 14.0758C38.9495 14.0441 37.8478 14.4471 37.012 15.1991C36.6053 15.5751 36.2856 16.0323 36.0745 16.5399C35.8635 17.0475 35.766 17.5936 35.7887 18.1413C35.7613 18.6943 35.8564 19.2466 36.0676 19.7601C36.2788 20.2735 36.601 20.7359 37.012 21.1155C37.8463 21.8698 38.9491 22.2731 40.0833 22.2387L40.0638 22.2004Z" fill="white"/>
<path d="M58.5242 24.5687C57.46 24.7429 56.3738 24.7429 55.3097 24.5687V17.0631L49.2451 24.5687C48.4135 24.7027 47.5651 24.7027 46.7334 24.5687V11.7595C47.7906 11.5809 48.8712 11.5809 49.9284 11.7595V19.265L56.0124 11.7595C56.8441 11.6254 57.6925 11.6254 58.5242 11.7595V24.5687Z" fill="white"/>
<path d="M69.8917 11.7595C70.9488 11.5809 72.0294 11.5809 73.0866 11.7595V24.5687C72.0288 24.7408 70.9494 24.7408 69.8917 24.5687V19.4054H64.4908V24.5687C63.4331 24.7408 62.3536 24.7408 61.2959 24.5687V11.7595C62.3531 11.5809 63.4336 11.5809 64.4908 11.7595V16.7823H69.8917V11.7595Z" fill="white"/>
<path d="M85.0141 21.9454C85.1768 22.8124 85.1768 23.7014 85.0141 24.5685H75.9043V11.7593H85.0141C85.1768 12.6264 85.1768 13.5153 85.0141 14.3824H79.1578V16.7821H84.3634C84.5261 17.6492 84.5261 18.5381 84.3634 19.4052H79.1578V21.9581L85.0141 21.9454Z" fill="white"/>
<path d="M92.3474 11.7595C93.6407 11.7026 94.9086 12.124 95.9003 12.9402C96.347 13.3293 96.7009 13.81 96.9371 14.3483C97.1732 14.8865 97.2858 15.4691 97.2667 16.0548C97.2867 16.6405 97.1745 17.2234 96.9383 17.7618C96.7021 18.3002 96.3477 18.7808 95.9003 19.1693C94.9086 19.9856 93.6407 20.4069 92.3474 20.35H90.4474V24.5687C89.3896 24.7408 88.3102 24.7408 87.2524 24.5687V11.7595H92.3474ZM92.3474 17.6886C92.7802 17.7014 93.2023 17.5558 93.5317 17.2802C93.6997 17.1197 93.8298 16.9252 93.913 16.7102C93.9962 16.4952 94.0304 16.265 94.0132 16.0356C94.0303 15.8072 93.996 15.578 93.9128 15.364C93.8296 15.1501 93.6995 14.9567 93.5317 14.7975C93.2123 14.5174 92.7952 14.3688 92.367 14.3826H90.4474V17.7333L92.3474 17.6886Z" fill="white"/>
<path d="M108.173 11.7593C108.335 12.6264 108.335 13.5153 108.173 14.3824H102.811V24.5685C101.753 24.7406 100.674 24.7406 99.6157 24.5685V11.7593H108.173Z" fill="white"/>
<path d="M122.111 24.5687C121.055 24.741 119.978 24.741 118.922 24.5687V17.0631L112.832 24.5687C112 24.7027 111.152 24.7027 110.32 24.5687V11.7595C111.377 11.5809 112.458 11.5809 113.515 11.7595V19.265L119.605 11.7595C120.435 11.6254 121.281 11.6254 122.111 11.7595V24.5687Z" fill="white"/>
<path d="M134.91 24.5687C133.852 24.7408 132.773 24.7408 131.715 24.5687V20.2287H130.466L127.596 24.5687C126.436 24.7218 125.261 24.7218 124.102 24.5687L127.277 19.7565C126.528 19.4553 125.888 18.9387 125.444 18.2746C124.999 17.6105 124.769 16.83 124.785 16.0356C124.761 15.4609 124.865 14.8881 125.09 14.3569C125.315 13.8257 125.655 13.3488 126.086 12.9594C127.069 12.1404 128.332 11.7184 129.62 11.7786H134.903L134.91 24.5687ZM129.665 14.3571C129.237 14.3433 128.82 14.4919 128.5 14.7719C128.334 14.9242 128.205 15.1109 128.122 15.3185C128.038 15.5261 128.003 15.7492 128.019 15.9718C128.004 16.1943 128.039 16.4173 128.122 16.6248C128.205 16.8323 128.335 17.0191 128.5 17.1716C128.829 17.449 129.251 17.5969 129.685 17.5865H131.695V14.3571H129.665Z" fill="white"/>
<path d="M157.288 4.37483C158.3 4.3213 159.296 4.64757 160.073 5.28749C160.403 5.56914 160.666 5.91882 160.842 6.31157C161.019 6.70432 161.105 7.13046 161.094 7.55957C161.103 7.98656 161.016 8.41021 160.839 8.80061C160.663 9.19101 160.401 9.53862 160.073 9.81888C159.292 10.4602 158.291 10.7844 157.275 10.7252H153.435V0.532715H160.118C160.216 0.982937 160.216 1.44829 160.118 1.89852H155.069V4.37483H157.288ZM157.288 9.35937C157.867 9.39647 158.439 9.21109 158.882 8.8424C159.066 8.68238 159.212 8.48571 159.312 8.26557C159.412 8.04543 159.463 7.8069 159.461 7.56595C159.468 7.31777 159.419 7.07113 159.319 6.84305C159.219 6.61497 159.07 6.41087 158.882 6.24483C158.438 5.87849 157.867 5.69344 157.288 5.72787H155.062V9.41042L157.288 9.35937Z" fill="white"/>
<path d="M168.33 0.347228C169.06 0.323336 169.787 0.448904 170.465 0.715927C171.143 0.982946 171.756 1.38557 172.267 1.89812C172.766 2.3956 173.159 2.98631 173.422 3.63529C173.684 4.28427 173.811 4.97833 173.796 5.67641C173.812 6.37458 173.685 7.06885 173.423 7.71793C173.16 8.36702 172.767 8.95765 172.267 9.4547C171.209 10.4505 169.799 11.0066 168.333 11.0066C166.867 11.0066 165.458 10.4505 164.4 9.4547C163.899 8.95517 163.505 8.36243 163.241 7.71136C162.978 7.0603 162.849 6.36406 162.864 5.66364C162.844 4.95688 162.97 4.25349 163.234 3.59554C163.498 2.93758 163.894 2.33856 164.4 1.8343C164.906 1.32483 165.514 0.923926 166.186 0.65697C166.858 0.39001 167.579 0.262805 168.304 0.283406L168.33 0.347228ZM165.616 2.82354C164.881 3.60246 164.488 4.63441 164.523 5.69556C164.488 6.75485 164.881 7.78497 165.616 8.56118C165.969 8.91845 166.391 9.20253 166.858 9.39654C167.325 9.59056 167.826 9.69054 168.333 9.69054C168.84 9.69054 169.342 9.59056 169.808 9.39654C170.275 9.20253 170.697 8.91845 171.05 8.56118C171.781 7.78249 172.171 6.75351 172.137 5.69556C172.171 4.63564 171.781 3.60456 171.05 2.82354C170.697 2.46628 170.275 2.1822 169.808 1.98818C169.342 1.79417 168.84 1.69419 168.333 1.69419C167.826 1.69419 167.325 1.79417 166.858 1.98818C166.391 2.1822 165.969 2.46628 165.616 2.82354Z" fill="white"/>
<path d="M184.571 10.7575C184.033 10.866 183.477 10.866 182.938 10.7575V1.91805H179.106L178.455 7.9046C178.425 8.74104 178.142 9.54981 177.641 10.2278C177.401 10.4894 177.104 10.6942 176.771 10.8269C176.439 10.9595 176.08 11.0165 175.722 10.9936C175.44 11.0005 175.159 10.9639 174.889 10.8851C174.798 10.4342 174.798 9.97018 174.889 9.5193C175.021 9.55078 175.156 9.56791 175.292 9.57036C175.489 9.57952 175.686 9.54594 175.868 9.47203C176.05 9.39812 176.214 9.28569 176.347 9.14275C176.647 8.73528 176.815 8.24797 176.828 7.74504L177.602 0.552246H184.552L184.571 10.7575Z" fill="white"/>
<path d="M190.948 4.1453C191.978 4.08754 192.99 4.42387 193.772 5.08349C194.11 5.38405 194.377 5.75213 194.557 6.16283C194.736 6.57354 194.824 7.01729 194.813 7.46407C194.828 7.90772 194.744 8.34915 194.568 8.75793C194.391 9.16671 194.127 9.53311 193.792 9.83188C193.009 10.4954 191.994 10.8342 190.961 10.7765H187.142V0.552092C187.678 0.443573 188.232 0.443573 188.768 0.552092V4.1453H190.948ZM190.948 9.41065C191.539 9.4448 192.12 9.24737 192.562 8.86178C192.754 8.67957 192.905 8.45986 193.004 8.21688C193.104 7.9739 193.151 7.71308 193.141 7.45131C193.162 7.18748 193.125 6.9223 193.033 6.67354C192.941 6.42478 192.796 6.19818 192.608 6.00892C192.165 5.62333 191.585 5.4259 190.994 5.46004H188.768V9.39151L190.948 9.41065Z" fill="white"/>
<path d="M208.511 0.552092C209.054 0.443609 209.614 0.443609 210.157 0.552092V10.7637H197.052V0.552092C197.589 0.443573 198.142 0.443573 198.679 0.552092V9.39151H202.791V0.552092C203.328 0.443573 203.881 0.443573 204.418 0.552092V9.39151H208.511V0.552092Z" fill="white"/>
<path d="M219.84 9.34667C219.95 9.79548 219.95 10.2637 219.84 10.7125H212.779V0.52002H219.846C219.957 0.968817 219.957 1.43703 219.846 1.88582H214.406V4.85995H219.345C219.443 5.31018 219.443 5.77553 219.345 6.22575H214.406V9.41688L219.84 9.34667Z" fill="white"/>
<path d="M231.604 0.583923C232.147 0.475439 232.707 0.475439 233.251 0.583923V10.7955C232.707 10.904 232.147 10.904 231.604 10.7955V6.16201C231.231 6.51385 230.788 6.78745 230.303 6.96617C229.732 7.20191 229.119 7.32342 228.5 7.32358C228.049 7.35078 227.596 7.28219 227.174 7.1225C226.752 6.9628 226.37 6.71575 226.054 6.39815C225.455 5.72845 225.144 4.8565 225.188 3.96652V0.564776C225.727 0.456272 226.283 0.456272 226.822 0.564776V3.7559C226.822 5.23233 227.557 5.96842 229.027 5.96416C229.56 5.97285 230.087 5.85459 230.563 5.61952C230.97 5.43463 231.339 5.17709 231.65 4.86003L231.604 0.583923Z" fill="white"/>
<path d="M242.966 9.34667C243.076 9.79548 243.076 10.2637 242.966 10.7125H235.899V0.52002H242.966C243.076 0.968817 243.076 1.43703 242.966 1.88582H237.506V4.85995H242.445C242.543 5.31018 242.543 5.77553 242.445 6.22575H237.506V9.41688L242.966 9.34667Z" fill="white"/>
<path d="M257.509 10.7444C256.987 10.853 256.449 10.853 255.927 10.7444L254.249 3.39205L251.561 10.7444C251.119 10.8339 250.663 10.8339 250.221 10.7444L247.533 3.39205L245.855 10.7444C245.333 10.853 244.795 10.853 244.273 10.7444L246.707 0.532805C247.164 0.437124 247.636 0.437124 248.093 0.532805L250.911 8.1915L253.722 0.532805C254.181 0.436982 254.655 0.436982 255.114 0.532805L257.509 10.7444Z" fill="white"/>
<path d="M158.504 14.2547C159.229 14.2341 159.95 14.3613 160.622 14.6283C161.294 14.8952 161.903 15.2961 162.409 15.8056C162.915 16.2997 163.316 16.8889 163.585 17.5381C163.854 18.1873 163.988 18.8831 163.977 19.5839C163.991 20.2824 163.863 20.9766 163.599 21.6255C163.335 22.2745 162.941 22.865 162.441 23.3622C161.383 24.358 159.974 24.914 158.508 24.914C157.041 24.914 155.632 24.358 154.574 23.3622C154.074 22.8621 153.682 22.2691 153.419 21.6181C153.157 20.9671 153.029 20.2711 153.045 19.5711C153.024 18.8648 153.149 18.1615 153.411 17.5035C153.674 16.8456 154.07 16.2463 154.574 15.7418C155.084 15.2292 155.698 14.8266 156.376 14.5596C157.054 14.2926 157.781 14.167 158.511 14.1909L158.504 14.2547ZM155.784 16.731C155.055 17.5104 154.665 18.5389 154.698 19.5966C154.663 20.6566 155.053 21.6876 155.784 22.4687C156.137 22.8259 156.559 23.11 157.026 23.304C157.492 23.498 157.994 23.598 158.501 23.598C159.008 23.598 159.51 23.498 159.976 23.304C160.443 23.11 160.865 22.8259 161.218 22.4687C161.952 21.6891 162.342 20.657 162.304 19.5966C162.341 18.5384 161.951 17.5086 161.218 16.731C160.865 16.3738 160.443 16.0897 159.976 15.8957C159.51 15.7016 159.008 15.6017 158.501 15.6017C157.994 15.6017 157.492 15.7016 157.026 15.8957C156.559 16.0897 156.137 16.3738 155.784 16.731Z" fill="white"/>
<path d="M170.054 18.2822C171.072 18.224 172.073 18.5507 172.852 19.1948C173.176 19.4803 173.434 19.8292 173.611 20.219C173.788 20.6088 173.88 21.0307 173.88 21.4573C173.88 21.884 173.788 22.3059 173.611 22.6957C173.434 23.0854 173.176 23.4344 172.852 23.7199C172.073 24.364 171.072 24.6907 170.054 24.6325H166.202V14.4209H172.885C172.983 14.8711 172.983 15.3365 172.885 15.7867H167.835V18.263L170.054 18.2822ZM170.054 23.2667C170.636 23.3008 171.208 23.1159 171.655 22.7498C171.836 22.581 171.98 22.3781 172.078 22.1532C172.176 21.9283 172.227 21.6861 172.227 21.4414C172.227 21.1967 172.176 20.9545 172.078 20.7296C171.98 20.5047 171.836 20.3017 171.655 20.133C171.208 19.7669 170.636 19.5819 170.054 19.6161H167.881V23.2922L170.054 23.2667Z" fill="white"/>
<path d="M179.841 14.4591C180.871 14.4014 181.883 14.7377 182.665 15.3973C182.991 15.7079 183.25 16.0794 183.427 16.49C183.604 16.9005 183.695 17.3417 183.695 17.7875C183.695 18.2332 183.604 18.6745 183.427 19.085C183.25 19.4956 182.991 19.8671 182.665 20.1776C181.881 20.8388 180.867 21.1772 179.834 21.1222H177.642V24.6452C177.106 24.7602 176.551 24.7602 176.015 24.6452V14.4336L179.841 14.4591ZM179.841 19.7883C180.431 19.8197 181.011 19.6226 181.455 19.2394C181.827 18.8482 182.035 18.3326 182.035 17.7971C182.035 17.2615 181.827 16.746 181.455 16.3547C181.012 15.9691 180.432 15.7717 179.841 15.8058H177.642V19.7883H179.841Z" fill="white"/>
<path d="M194.176 24.6448C193.622 24.7597 193.05 24.7597 192.497 24.6448L191.443 22.0919H186.888L185.853 24.6448C185.3 24.7597 184.728 24.7597 184.175 24.6448L188.489 14.4332C188.941 14.3374 189.409 14.3374 189.862 14.4332L194.176 24.6448ZM190.922 20.7452L189.178 16.5074L187.402 20.7389L190.922 20.7452Z" fill="white"/>
<path d="M201.301 19.3607C201.858 19.521 202.344 19.8594 202.683 20.322C203.021 20.7845 203.192 21.3447 203.168 21.9136C203.183 22.3308 203.095 22.7452 202.911 23.1218C202.728 23.4984 202.454 23.8261 202.114 24.0772C201.311 24.6416 200.336 24.9227 199.349 24.8749C198.163 24.9176 196.992 24.606 195.991 23.9814C195.925 23.736 195.899 23.4818 195.913 23.2283C195.89 22.9796 195.923 22.7288 196.011 22.4944C196.967 23.1774 198.12 23.544 199.303 23.5411C199.879 23.5619 200.445 23.3983 200.917 23.0751C201.128 22.9243 201.297 22.7249 201.411 22.4945C201.524 22.264 201.578 22.0097 201.568 21.754C201.575 21.5343 201.536 21.3156 201.453 21.1114C201.37 20.9071 201.245 20.7218 201.086 20.5669C200.891 20.3981 200.663 20.2693 200.416 20.1882C200.169 20.1071 199.908 20.0753 199.648 20.0946H197.924C197.805 19.6771 197.805 19.2357 197.924 18.8182H199.616C199.841 18.8276 200.066 18.7924 200.278 18.7145C200.489 18.6367 200.682 18.5178 200.845 18.3651C200.999 18.2124 201.119 18.0307 201.199 17.831C201.278 17.6312 201.315 17.4177 201.307 17.2035C201.315 16.9787 201.272 16.755 201.181 16.5486C201.09 16.3422 200.953 16.1583 200.78 16.01C200.379 15.6803 199.865 15.5136 199.342 15.5441C198.205 15.5603 197.1 15.9215 196.18 16.578C196.09 16.353 196.056 16.11 196.082 15.8696C196.068 15.6161 196.095 15.362 196.16 15.1165C197.128 14.5023 198.262 14.1907 199.414 14.223C200.329 14.1692 201.234 14.4436 201.958 14.9952C202.258 15.2316 202.499 15.5322 202.663 15.8741C202.826 16.2159 202.908 16.5898 202.902 16.9673C202.912 17.4771 202.766 17.9781 202.483 18.4058C202.2 18.8335 201.793 19.1683 201.314 19.3671L201.301 19.3607Z" fill="white"/>
<path d="M210.216 14.2545C210.946 14.2298 211.673 14.355 212.351 14.6221C213.029 14.8891 213.643 15.2922 214.152 15.8054C214.653 16.3021 215.048 16.8925 215.311 17.5416C215.575 18.1906 215.703 18.8851 215.688 19.5837C215.703 20.2821 215.574 20.9764 215.31 21.6253C215.047 22.2743 214.653 22.8648 214.152 23.3619C213.095 24.3577 211.685 24.9138 210.219 24.9138C208.753 24.9138 207.343 24.3577 206.285 23.3619C205.785 22.8624 205.391 22.2697 205.127 21.6186C204.863 20.9675 204.735 20.2713 204.75 19.5709C204.73 18.8641 204.856 18.1607 205.12 17.5028C205.384 16.8448 205.78 16.2458 206.285 15.7415C206.791 15.2321 207.4 14.8312 208.072 14.5642C208.744 14.2973 209.465 14.1701 210.19 14.1907L210.216 14.2545ZM207.502 16.7308C206.769 17.5084 206.379 18.5381 206.416 19.5964C206.378 20.6568 206.768 21.6889 207.502 22.4684C207.855 22.8257 208.277 23.1098 208.744 23.3038C209.21 23.4978 209.712 23.5978 210.219 23.5978C210.726 23.5978 211.228 23.4978 211.694 23.3038C212.161 23.1098 212.583 22.8257 212.936 22.4684C213.669 21.6889 214.06 20.6568 214.022 19.5964C214.059 18.5381 213.668 17.5084 212.936 16.7308C212.583 16.3735 212.161 16.0894 211.694 15.8954C211.228 15.7014 210.726 15.6014 210.219 15.6014C209.712 15.6014 209.21 15.7014 208.744 15.8954C208.277 16.0894 207.855 16.3735 207.502 16.7308Z" fill="white"/>
<path d="M222.143 14.4717C222.988 14.4349 223.819 14.6902 224.492 15.1929C224.788 15.4184 225.025 15.7096 225.183 16.0425C225.341 16.3754 225.417 16.7405 225.403 17.1076C225.419 17.5956 225.281 18.0766 225.009 18.4853C224.736 18.8941 224.342 19.2107 223.88 19.3924C224.42 19.5667 224.894 19.8957 225.24 20.337C225.565 20.7737 225.734 21.3029 225.722 21.8432C225.736 22.2369 225.657 22.6285 225.491 22.9872C225.325 23.3459 225.077 23.6622 224.765 23.9111C224.016 24.4583 223.095 24.7294 222.163 24.6769H217.92V14.4654L222.143 14.4717ZM219.54 23.3431H222.052C222.582 23.3733 223.105 23.2121 223.523 22.8899C223.687 22.7353 223.818 22.5502 223.909 22.3453C223.999 22.1405 224.048 21.92 224.051 21.6967C224.054 21.4734 224.011 21.2518 223.926 21.0447C223.841 20.8375 223.715 20.6491 223.555 20.4902C223.141 20.1735 222.621 20.0189 222.097 20.0562H219.56L219.54 23.3431ZM219.54 18.9074H222.045C222.502 18.9318 222.95 18.7807 223.295 18.4862C223.449 18.341 223.571 18.1651 223.65 17.9703C223.73 17.7755 223.766 17.5662 223.757 17.3565C223.771 17.1434 223.733 16.93 223.647 16.7337C223.561 16.5375 223.429 16.3638 223.262 16.2269C222.891 15.9454 222.43 15.8008 221.961 15.8184H219.547L219.54 18.9074Z" fill="white"/>
<path d="M236.894 24.6448C236.341 24.7597 235.769 24.7597 235.216 24.6448L234.161 22.0919H229.607L228.572 24.6448C228.018 24.7597 227.447 24.7597 226.893 24.6448L231.207 14.4332C231.66 14.3374 232.128 14.3374 232.58 14.4332L236.894 24.6448ZM233.641 20.7452L231.897 16.5074L230.147 20.7389L233.641 20.7452Z" fill="white"/>
<path d="M246.128 14.4589C246.666 14.344 247.223 14.344 247.761 14.4589V24.6705C247.223 24.7854 246.666 24.7854 246.128 24.6705V20.1328H240.421V24.645C239.885 24.76 239.33 24.76 238.794 24.645V14.4334C239.33 14.3184 239.885 14.3184 240.421 14.4334V18.7606H246.128V14.4589Z" fill="white"/>
<path d="M259.285 24.645C258.747 24.7599 258.19 24.7599 257.652 24.645V17.1394L251.639 24.645C251.21 24.7287 250.767 24.7287 250.338 24.645V14.4334C250.876 14.3185 251.433 14.3185 251.971 14.4334V21.9644L257.997 14.4589C258.425 14.3623 258.87 14.3623 259.298 14.4589L259.285 24.645Z" fill="white"/>
<path d="M268.922 23.2535C269.033 23.7023 269.033 24.1705 268.922 24.6193H261.855V14.4077H268.922C269.033 14.8544 269.033 15.3205 268.922 15.7672H263.482V18.7477H268.421C268.519 19.1979 268.519 19.6632 268.421 20.1135H263.482V23.3046L268.922 23.2535Z" fill="white"/>
<path d="M0 0.545898V24.6517H24.577V0.545898H0ZM21.5057 21.6392H3.07131V3.55832H21.5057V21.6392ZM15.2655 20.6053L7.10566 12.5956L15.2655 4.59225V8.84921L11.4458 12.5956L15.2655 16.342V20.6053Z" fill="white"/>
</svg>
