<svg width="128" height="25" viewBox="0 0 128 25" fill="none" xmlns="http://www.w3.org/2000/svg">
<path d="M0 0.28125V24.387H24.577V0.28125H0ZM21.5057 21.3745H3.07131V3.29367H21.5057V21.3745ZM15.2655 20.3406L7.10566 12.3309L15.2655 4.3276V8.58456L11.4458 12.3309L15.2655 16.0773V20.3406Z" fill="white"/>
<path d="M41.4414 6.90821C41.4414 6.75586 41.3691 6.62305 41.2246 6.50977C41.0801 6.39649 40.8926 6.30274 40.6621 6.22852C40.4355 6.1543 40.1816 6.07617 39.9004 5.99414C39.623 5.90821 39.3457 5.80078 39.0684 5.67188C38.7949 5.54297 38.543 5.38867 38.3125 5.20899C38.0859 5.0293 37.9004 4.78711 37.7559 4.48242C37.6113 4.17774 37.5391 3.82617 37.5391 3.42774C37.5391 2.74024 37.8359 2.13867 38.4297 1.62305C39.0273 1.10352 39.791 0.84375 40.7207 0.84375C41.1035 0.84375 41.4648 0.88672 41.8047 0.97266C42.1445 1.05469 42.4219 1.1543 42.6367 1.27149C42.8555 1.38867 43.0469 1.50586 43.2109 1.62305C43.375 1.73633 43.4883 1.83789 43.5508 1.92774L43.6621 2.04492L42.3379 3.42774C42.2988 3.38086 42.2402 3.32227 42.1621 3.25195C42.0879 3.17774 41.9297 3.07813 41.6875 2.95313C41.4492 2.82813 41.207 2.76563 40.9609 2.76563C40.7031 2.76563 40.4883 2.83789 40.3164 2.98242C40.1445 3.12696 40.0586 3.29492 40.0586 3.48633C40.0586 3.63867 40.1309 3.77149 40.2754 3.88477C40.4199 3.99414 40.6055 4.08789 40.832 4.16602C41.0625 4.24024 41.3145 4.32031 41.5879 4.40625C41.8652 4.48828 42.1426 4.59375 42.4199 4.72266C42.7012 4.85156 42.9551 5.00586 43.1816 5.18555C43.4121 5.36524 43.5996 5.60742 43.7441 5.91211C43.8887 6.2168 43.9609 6.56836 43.9609 6.9668C43.9609 7.74414 43.6543 8.39844 43.041 8.92969C42.4277 9.46094 41.6133 9.72653 40.5977 9.72653C40.1836 9.72653 39.7832 9.67583 39.3965 9.57423C39.0137 9.47656 38.6973 9.35742 38.4473 9.2168C38.2012 9.07617 37.9824 8.93555 37.791 8.79492C37.5996 8.6543 37.459 8.53321 37.3691 8.43164L37.2402 8.28516L38.5586 6.90821C38.5742 6.93164 38.6016 6.96289 38.6406 7.00195C38.6836 7.04102 38.7637 7.11328 38.8809 7.21875C39.002 7.32422 39.1289 7.41797 39.2617 7.5C39.3945 7.57813 39.5605 7.64844 39.7598 7.71094C39.959 7.77344 40.1582 7.80469 40.3574 7.80469C40.6777 7.80469 40.9375 7.7168 41.1367 7.54102C41.3398 7.36524 41.4414 7.1543 41.4414 6.90821ZM49.2965 1.08399H51.7574L48.7574 6.48633V9.48633H46.4781V6.48633L43.4781 1.08399H45.9391L47.6207 4.32422L49.2965 1.08399ZM57.7023 1.08399H59.9816V9.48633H58.0129L54.4035 4.80469V9.48633H52.1242V1.08399H54.1047L57.7023 5.76563V1.08399ZM63.5887 7.56445H67.907V9.48633H61.3094V1.08399H67.7898V3.00586H63.5887V4.32422H66.8289V6.12891H63.5887V7.56445ZM68.7484 9.48633V1.08399H72.7094C73.5961 1.08399 74.3266 1.36133 74.9008 1.91602C75.4789 2.4668 75.768 3.15039 75.768 3.9668C75.768 4.30274 75.7172 4.61719 75.6156 4.91016C75.518 5.19922 75.3988 5.43555 75.2582 5.61914C75.1176 5.79883 74.977 5.95313 74.8363 6.08203C74.6957 6.20703 74.5785 6.29297 74.4848 6.33985L74.3266 6.42774L76.0668 9.48633H73.6703L72.2289 6.84375H71.0277V9.48633H68.7484ZM73.2367 4.56445C73.4047 4.4043 73.4887 4.20508 73.4887 3.9668C73.4887 3.72461 73.4047 3.52539 73.2367 3.36914C73.0688 3.20899 72.852 3.12891 72.5863 3.12891H71.0277V4.80469H72.5863C72.852 4.80469 73.0688 4.72461 73.2367 4.56445ZM80.9863 9.72653C79.6816 9.72653 78.5742 9.29102 77.6641 8.41992C76.7578 7.54492 76.3047 6.5 76.3047 5.28516C76.3047 4.07031 76.7578 3.02735 77.6641 2.15625C78.5742 1.28125 79.6816 0.84375 80.9863 0.84375C81.4355 0.84375 81.8633 0.90235 82.2695 1.01953C82.6758 1.13672 83.0098 1.27735 83.2715 1.44141C83.5371 1.60547 83.7676 1.76953 83.9629 1.9336C84.1621 2.09766 84.3047 2.23828 84.3906 2.35547L84.5254 2.52539L83.1426 3.9668C83.1191 3.93555 83.0879 3.89649 83.0488 3.84961C83.0098 3.79883 82.9199 3.71289 82.7793 3.5918C82.6387 3.4668 82.4922 3.35742 82.3398 3.26367C82.1875 3.16602 81.9863 3.08008 81.7363 3.00586C81.4902 2.92774 81.2402 2.88867 80.9863 2.88867C80.2988 2.88867 79.7266 3.11719 79.2695 3.57422C78.8125 4.02735 78.584 4.59766 78.584 5.28516C78.584 5.97266 78.8125 6.54492 79.2695 7.00195C79.7266 7.45899 80.2988 7.6875 80.9863 7.6875C81.2754 7.6875 81.5391 7.64453 81.7773 7.5586C82.0156 7.46875 82.1836 7.375 82.2812 7.27735L82.4219 7.14844V6.2461H81.1035V4.80469H84.707V8.04492C84.6758 8.0918 84.623 8.1543 84.5488 8.23242C84.4746 8.30664 84.3203 8.44141 84.0859 8.63672C83.8516 8.82813 83.5996 8.99805 83.3301 9.14649C83.0605 9.29492 82.7148 9.42774 82.293 9.54493C81.8711 9.66603 81.4355 9.72653 80.9863 9.72653ZM90.5113 1.08399H92.9723L89.9723 6.48633V9.48633H87.693V6.48633L84.693 1.08399H87.1539L88.8355 4.32422L90.5113 1.08399ZM42.5781 19.4472L40.2402 16.5058V21.4863H37.9609V13.084H40L42.5781 16.3886L45.1621 13.084H47.2012V21.4863H44.9219V16.5058L42.5781 19.4472ZM50.7965 19.5644H55.1148V21.4863H48.5172V13.084H54.9977V15.0058H50.7965V16.3242H54.0367V18.1289H50.7965V19.5644ZM55.9562 13.084H59.1965C60.4777 13.084 61.5383 13.4883 62.3781 14.2968C63.218 15.1054 63.6379 16.1015 63.6379 17.2851C63.6379 18.4687 63.216 19.4648 62.3723 20.2734C61.5324 21.082 60.4738 21.4863 59.1965 21.4863H55.9562V13.084ZM59.1965 15.1289H58.2355V19.4472H59.1965C59.7824 19.4472 60.2883 19.2422 60.7141 18.832C61.1398 18.4179 61.3527 17.9023 61.3527 17.2851C61.3527 16.6523 61.1516 16.1347 60.7492 15.7324C60.3469 15.3301 59.8293 15.1289 59.1965 15.1289ZM64.4734 21.4863V13.084H66.7527V21.4863H64.4734ZM72.3285 17.8886L71.5492 15.4277L70.7699 17.8886H72.3285ZM72.9262 19.6875H70.1664L69.5688 21.4863H67.1078L70.2895 13.084H72.809L75.9906 21.4863H73.5297L72.9262 19.6875ZM81.7516 18.9082C81.7516 18.7558 81.6793 18.623 81.5348 18.5097C81.3902 18.3965 81.2027 18.3027 80.9723 18.2285C80.7457 18.1543 80.4918 18.0761 80.2105 17.9941C79.9332 17.9082 79.6559 17.8008 79.3785 17.6718C79.1051 17.5429 78.8531 17.3886 78.6227 17.209C78.3961 17.0293 78.2105 16.7871 78.066 16.4824C77.9215 16.1777 77.8492 15.8261 77.8492 15.4277C77.8492 14.7402 78.1461 14.1386 78.7398 13.623C79.3375 13.1035 80.1012 12.8437 81.0309 12.8437C81.4137 12.8437 81.775 12.8867 82.1148 12.9726C82.4547 13.0547 82.732 13.1543 82.9469 13.2715C83.1656 13.3886 83.357 13.5058 83.5211 13.623C83.6852 13.7363 83.7984 13.8379 83.8609 13.9277L83.9723 14.0449L82.648 15.4277C82.609 15.3808 82.5504 15.3222 82.4723 15.2519C82.398 15.1777 82.2398 15.0781 81.9977 14.9531C81.7594 14.8281 81.5172 14.7656 81.2711 14.7656C81.0133 14.7656 80.7984 14.8379 80.6266 14.9824C80.4547 15.1269 80.3688 15.2949 80.3688 15.4863C80.3688 15.6386 80.441 15.7715 80.5855 15.8847C80.7301 15.9941 80.9156 16.0879 81.1422 16.166C81.3727 16.2402 81.6246 16.3203 81.898 16.4062C82.1754 16.4883 82.4527 16.5937 82.7301 16.7226C83.0113 16.8515 83.2652 17.0058 83.4918 17.1855C83.7223 17.3652 83.9098 17.6074 84.0543 17.9121C84.1988 18.2168 84.2711 18.5683 84.2711 18.9668C84.2711 19.7441 83.9645 20.3984 83.3512 20.9297C82.7379 21.4609 81.9234 21.7265 80.9078 21.7265C80.4938 21.7265 80.0934 21.6758 79.7066 21.5742C79.3238 21.4765 79.0074 21.3574 78.7574 21.2168C78.5113 21.0761 78.2926 20.9355 78.1012 20.7949C77.9098 20.6543 77.7691 20.5332 77.6793 20.4316L77.5504 20.2851L78.8688 18.9082C78.8844 18.9316 78.9117 18.9629 78.9508 19.0019C78.9938 19.041 79.0738 19.1133 79.191 19.2187C79.3121 19.3242 79.4391 19.4179 79.5719 19.5C79.7047 19.5781 79.8707 19.6484 80.0699 19.7109C80.2691 19.7734 80.4684 19.8047 80.6676 19.8047C80.9879 19.8047 81.2477 19.7168 81.4469 19.541C81.65 19.3652 81.7516 19.1543 81.7516 18.9082ZM87.4797 15.5742C87.0227 16.0273 86.7941 16.5976 86.7941 17.2851C86.7941 17.9726 87.0227 18.5449 87.4797 19.0019C87.9367 19.459 88.509 19.6875 89.1965 19.6875C89.6223 19.6875 90.0246 19.5976 90.4035 19.4179C90.7824 19.2383 91.0559 19.0566 91.2238 18.873L91.4758 18.6035L92.7941 20.0449C92.7629 20.0918 92.716 20.1543 92.6535 20.2324C92.5949 20.3066 92.4543 20.4414 92.2316 20.6367C92.0129 20.8281 91.7746 20.998 91.5168 21.1465C91.2629 21.2949 90.925 21.4277 90.5031 21.5449C90.0852 21.666 89.6496 21.7265 89.1965 21.7265C87.8918 21.7265 86.7844 21.291 85.8742 20.4199C84.968 19.5449 84.5148 18.5 84.5148 17.2851C84.5148 16.0703 84.968 15.0273 85.8742 14.1562C86.7844 13.2812 87.8918 12.8437 89.1965 12.8437C89.6457 12.8437 90.0734 12.9023 90.4797 13.0195C90.8859 13.1367 91.2199 13.2773 91.4816 13.4414C91.7473 13.6054 91.9777 13.7695 92.173 13.9336C92.3723 14.0976 92.5148 14.2383 92.6008 14.3554L92.7355 14.5254L91.3527 15.9668C91.3293 15.9355 91.298 15.8965 91.259 15.8496C91.2199 15.7988 91.1301 15.7129 90.9895 15.5918C90.8488 15.4668 90.7023 15.3574 90.55 15.2636C90.3977 15.166 90.1965 15.0801 89.9465 15.0058C89.7004 14.9277 89.4504 14.8886 89.1965 14.8886C88.509 14.8886 87.9367 15.1172 87.4797 15.5742ZM101.013 13.084V21.4863H98.7332V18.2461H95.6746V21.4863H93.3953V13.084H95.6746V16.207H98.7332V13.084H101.013ZM104.866 15.5742C104.416 16.0273 104.192 16.5976 104.192 17.2851C104.192 17.9726 104.416 18.5449 104.866 19.0019C105.315 19.459 105.871 19.6875 106.536 19.6875C107.2 19.6875 107.754 19.459 108.2 19.0019C108.649 18.5449 108.873 17.9726 108.873 17.2851C108.873 16.5976 108.649 16.0273 108.2 15.5742C107.754 15.1172 107.2 14.8886 106.536 14.8886C105.871 14.8886 105.315 15.1172 104.866 15.5742ZM109.846 14.1562C110.756 15.0273 111.211 16.0703 111.211 17.2851C111.211 18.5 110.756 19.5449 109.846 20.4199C108.94 21.291 107.834 21.7265 106.53 21.7265C105.229 21.7265 104.123 21.291 103.213 20.4199C102.307 19.5449 101.854 18.5 101.854 17.2851C101.854 16.0703 102.307 15.0273 103.213 14.1562C104.123 13.2812 105.229 12.8437 106.53 12.8437C107.834 12.8437 108.94 13.2812 109.846 14.1562ZM114.59 15.5742C114.141 16.0273 113.916 16.5976 113.916 17.2851C113.916 17.9726 114.141 18.5449 114.59 19.0019C115.039 19.459 115.596 19.6875 116.26 19.6875C116.924 19.6875 117.479 19.459 117.924 19.0019C118.373 18.5449 118.598 17.9726 118.598 17.2851C118.598 16.5976 118.373 16.0273 117.924 15.5742C117.479 15.1172 116.924 14.8886 116.26 14.8886C115.596 14.8886 115.039 15.1172 114.59 15.5742ZM119.57 14.1562C120.48 15.0273 120.936 16.0703 120.936 17.2851C120.936 18.5 120.48 19.5449 119.57 20.4199C118.664 21.291 117.559 21.7265 116.254 21.7265C114.953 21.7265 113.848 21.291 112.938 20.4199C112.031 19.5449 111.578 18.5 111.578 17.2851C111.578 16.0703 112.031 15.0273 112.938 14.1562C113.848 13.2812 114.953 12.8437 116.254 12.8437C117.559 12.8437 118.664 13.2812 119.57 14.1562ZM127.783 21.4863H121.783V13.084H124.062V19.4472H127.783V21.4863Z" fill="white"/>
</svg>
