<svg width="27" height="27" viewBox="0 0 27 27" fill="none" xmlns="http://www.w3.org/2000/svg">
<circle cx="13.5" cy="13.5" r="12.75" stroke="#00A3FF" stroke-width="1.5"/>
<path d="M16.7991 5.396L15.8839 5.09907C15.3825 4.93598 14.8433 4.97524 14.3667 5.20952C13.8902 5.44379 13.509 5.85707 13.2942 6.37225L12.5868 8.06927C12.4022 8.51239 12.3507 9.00675 12.4398 9.483C12.5288 9.95925 12.7538 10.3935 13.0833 10.7248L14.255 11.9032C14.2892 11.9376 14.3109 11.9841 14.3161 12.0343C14.3506 12.3702 14.1397 13.0241 13.6534 13.9335C13.2997 14.5942 12.979 15.0587 12.7068 15.3184C12.517 15.5003 12.4127 15.5392 12.368 15.5257L10.7916 15.0054C10.3611 14.8633 9.90024 14.8702 9.47353 15.0249C9.04681 15.1797 8.67569 15.4746 8.41217 15.8683L7.40753 17.3707C7.10202 17.8276 6.96058 18.3886 7.00948 18.9494C7.05837 19.5103 7.29428 20.033 7.67339 20.4204L8.36825 21.1311C8.73704 21.5078 9.18999 21.775 9.68299 21.9068C10.176 22.0386 10.6922 22.0305 11.1814 21.8831C13.3413 21.2326 15.2776 19.2665 17.0124 16.0256C18.7496 12.7805 19.359 9.98539 18.7974 7.63952C18.671 7.11191 18.4208 6.62833 18.0707 6.23537C17.7207 5.84242 17.2828 5.55334 16.7991 5.396ZM16.4595 6.61166C16.7497 6.70595 17.0124 6.87923 17.2224 7.11482C17.4324 7.35041 17.5827 7.64036 17.6587 7.95675C18.1308 9.92956 17.5904 12.4074 15.9937 15.3911C14.3993 18.3707 12.6825 20.1134 10.8646 20.6615C10.5712 20.7497 10.2616 20.7544 9.96595 20.6753C9.67034 20.5961 9.39875 20.4357 9.17762 20.2098L8.48197 19.4992C8.30958 19.323 8.20232 19.0854 8.1801 18.8304C8.15789 18.5754 8.22224 18.3203 8.36119 18.1126L9.36506 16.611C9.48484 16.4319 9.65364 16.2977 9.84775 16.2273C10.0419 16.1569 10.2515 16.1538 10.4473 16.2185L12.0276 16.7405C12.9452 17.0349 13.7781 16.2388 14.6722 14.568C15.2745 13.4429 15.5553 12.5715 15.4855 11.8939C15.4486 11.542 15.2972 11.2171 15.0573 10.9752L13.8856 9.79674C13.7358 9.64617 13.6334 9.44878 13.5929 9.23227C13.5524 9.01576 13.5758 8.791 13.6597 8.58954L14.3671 6.89252C14.4647 6.65853 14.6379 6.47082 14.8543 6.36436C15.0708 6.2579 15.3157 6.23996 15.5435 6.31388L16.4595 6.61166Z" fill="#00A3FF"/>
</svg>
