<svg width="32" height="32" viewBox="0 0 32 32" fill="none" xmlns="http://www.w3.org/2000/svg">
<path d="M15.6336 7.77007C11.0711 7.77007 7.375 11.4667 7.375 16.0287C7.375 20.5906 11.0717 24.2873 15.6336 24.2873C20.1961 24.2873 23.8922 20.5906 23.8922 16.0287C23.8922 11.4667 20.1955 7.77007 15.6336 7.77007ZM19.6899 13.428L18.3344 19.8154C18.2343 20.2682 17.9646 20.378 17.5885 20.1649L15.5238 18.6432L14.528 19.6022C14.4182 19.712 14.325 19.8052 14.1119 19.8052L14.2584 17.7038L18.0845 14.2469C18.2513 14.1004 18.0478 14.0173 17.8277 14.1638L13.099 17.1406L11.061 16.5045C10.6182 16.3649 10.6081 16.0617 11.1542 15.8486L19.1166 12.778C19.4864 12.6448 19.8092 12.868 19.6894 13.4275L19.6899 13.428Z" fill="white"/>
</svg>
