<svg width="32" height="32" viewBox="0 0 32 32" fill="none" xmlns="http://www.w3.org/2000/svg">
<path d="M24.5585 10.6683C24.7037 10.1843 24.5585 9.82866 23.8677 9.82866H21.5835C21.0026 9.82866 20.735 10.1359 20.5898 10.4748C20.5898 10.4748 19.4281 13.306 17.7825 15.1452C17.2502 15.6775 17.0082 15.8467 16.7178 15.8467C16.5726 15.8467 16.3624 15.6775 16.3624 15.1936V10.6683C16.3624 10.0874 16.1939 9.82866 15.7098 9.82866H12.1203C11.7574 9.82866 11.5391 10.0982 11.5391 10.3537C11.5391 10.9044 12.3618 11.0313 12.4466 12.58V15.9438C12.4466 16.6813 12.3135 16.8151 12.0231 16.8151C11.2487 16.8151 9.36522 13.9709 8.24792 10.7167C8.02896 10.0842 7.80935 9.82866 7.22557 9.82866H4.94136C4.28873 9.82866 4.1582 10.1359 4.1582 10.4748C4.1582 11.0798 4.93271 14.0806 7.76399 18.0492C9.65173 20.7593 12.3109 22.2287 14.7308 22.2287C16.1829 22.2287 16.3624 21.9023 16.3624 21.3403V19.2918C16.3624 18.6392 16.5 18.509 16.9596 18.509C17.2986 18.509 17.8793 18.6783 19.2346 19.9851C20.7833 21.5336 21.0385 22.2287 21.9098 22.2287H24.194C24.8466 22.2287 25.1729 21.9023 24.9847 21.2584C24.7787 20.6165 24.0393 19.6855 23.0581 18.5816C22.5257 17.9523 21.727 17.2747 21.4852 16.936C21.1464 16.5003 21.2431 16.3068 21.4852 15.9198C21.4852 15.9198 24.2681 11.9995 24.5585 10.6684V10.6683Z" fill="white"/>
</svg>
